# This file uses meters as units for non-parametric coordinates.

v -41.252415 -12.355110 -23.712801
v 41.252415 -12.355110 -23.712801
v 41.252415 12.355148 -23.712801
v -41.252415 12.355148 -23.712801
v -41.252415 -12.355110 23.712801
v 41.252415 -12.355110 23.712801
v 41.252415 12.355148 23.712801
v -41.252415 12.355148 23.712801
v -49.707062 -7.844421 27.630621
v -50.527531 -6.135315 29.243649
v -41.252415 -6.135315 30.675133
v -41.213524 -8.693680 29.364281
v -50.527531 6.135342 29.243649
v -49.707062 7.844467 27.630621
v -41.213524 8.693710 29.364281
v -41.252415 6.135342 30.675133
v -49.707062 7.844467 -27.630621
v -50.527531 6.135342 -29.243649
v -41.252415 6.135342 -30.675133
v -41.213524 8.693710 -29.364281
v -50.527531 -6.135315 -29.243649
v -49.707062 -7.844421 -27.630621
v -41.252415 -6.135315 -30.675133
v -41.213524 -8.693680 -29.364281
v -55.840046 6.135342 23.712801
v -54.196533 8.313427 23.381035
v 50.527531 6.135342 29.243649
v 49.707062 7.844467 27.630621
v 55.840046 6.135342 23.712801
v 54.196533 8.313427 23.381035
v -55.840046 -6.135315 -23.712801
v -54.196533 -8.313381 -23.381035
v 50.527531 -6.135315 -29.243649
v 49.707062 -7.844421 -27.630621
v 54.196533 -8.313381 -23.381035
v 55.840046 -6.135315 -23.712801
v 41.252415 6.135342 30.675133
v 41.213524 8.693710 29.364281
v 50.527531 6.135342 -29.243649
v 49.707062 7.844467 -27.630621
v 41.252415 6.135342 -30.675133
v 41.213524 8.693710 -29.364281
v 41.252415 -6.135315 -30.675133
v 41.213524 -8.693680 -29.364281
v 50.527531 -6.135315 29.243649
v 49.707062 -7.844421 27.630621
v 41.252415 -6.135315 30.675133
v 41.213524 -8.693680 29.364281
v -54.196533 8.313427 -23.381035
v -55.840046 6.135342 -23.712801
v -55.840046 -6.135315 23.712801
v -54.196533 -8.313381 23.381035
v 54.196533 -8.313381 23.381035
v 55.840046 -6.135315 23.712801
v 55.840046 6.135342 -23.712801
v 54.196533 8.313427 -23.381035
v -43.163246 -0.172287 32.813057
v -52.960270 -0.172287 31.281809
v -58.571720 -0.172287 25.365482
v -58.571709 -0.172287 -25.365482
v -52.960266 -0.172287 -31.281809
v -43.163246 -0.172287 -32.813057
v 43.163246 -0.172287 -32.813057
v 52.960270 -0.172287 -31.281809
v 58.571720 -0.172287 -25.365482
v 58.571709 -0.172287 25.365482
v 52.960270 -0.172287 31.281809
v 43.163246 -0.172287 32.813057
v -43.587463 13.826225 -11.900166
v -57.458942 8.313427 -11.733671
v -59.220211 6.135342 -11.900166
v -62.147579 -0.172287 -12.729556
v -59.220211 -6.135315 -11.900166
v -57.458942 -8.313381 -11.733671
v -43.587463 -14.123428 -11.900166
v 43.587463 -14.123428 -11.900166
v 57.458942 -8.313381 -11.733671
v 59.220211 -6.135315 -11.900166
v 62.147587 -0.172287 -12.729556
v 59.220211 6.135342 -11.900166
v 57.458942 8.313427 -11.733671
v 43.587463 13.826225 -11.900166
v -43.587463 13.826225 11.900169
v -57.458942 8.313427 11.733673
v -59.220211 6.135342 11.900169
v -62.147587 -0.172287 12.729561
v -59.220211 -6.135315 11.900169
v -57.458942 -8.313381 11.733673
v -43.587463 -14.123428 11.900169
v 43.587463 -14.123428 11.900169
v 57.458942 -8.313381 11.733673
v 59.220211 -6.135315 11.900169
v 62.147587 -0.172287 12.729561
v 59.220211 6.135342 11.900169
v 57.458942 8.313427 11.733673
v 43.587463 13.826225 11.900169
v -50.193771 -8.452766 28.684284
v -51.014233 -7.742832 29.400835
v -56.731846 -7.354591 23.963272
v -55.088333 -9.102737 23.144941
v -41.330425 -8.765644 30.914310
v -41.369316 -7.608559 31.364246
v 41.330425 -8.765644 30.914314
v 41.369316 -7.608559 31.364246
v -51.014233 -7.742832 -29.400837
v -50.193771 -8.452766 -28.684284
v -55.088333 -9.102737 -23.144941
v -56.731846 -7.354584 -22.830788
v -41.369316 -7.608559 -31.364246
v -41.330425 -8.765644 -30.914314
v 41.369316 -7.608559 -31.364246
v 41.330425 -8.765644 -30.914310
v -60.278038 -7.091843 11.768316
v -58.516773 -8.605537 11.908974
v 51.014233 -7.742832 -29.400835
v 50.193771 -8.452766 -28.684284
v 56.731846 -7.354584 -22.830788
v 55.088333 -9.102737 -23.144939
v 58.516773 -8.605537 11.908974
v 60.278038 -7.091843 11.768316
v 56.731846 -7.354584 23.963272
v 55.088333 -9.102737 23.144941
v 51.014233 -7.742832 29.400837
v 50.193771 -8.452766 28.684284
v -58.516773 -8.605537 -11.908972
v -60.278038 -7.091843 -11.768312
v 60.278038 -7.091843 -11.768312
v 58.516773 -8.605537 -11.908972
v -51.014236 7.742859 29.400831
v -50.193771 8.452805 28.684288
v -55.088337 8.613239 24.073994
v -56.731853 7.192207 23.747219
v -41.369316 7.608589 31.364243
v -41.330425 8.765671 30.914303
v 41.369316 7.608589 31.364241
v 41.330425 8.765671 30.914303
v -50.193771 8.452805 -28.684284
v -51.014236 7.742870 -29.400827
v -56.731853 7.192207 -23.747215
v -55.088337 8.613239 -24.073988
v -41.330425 8.765671 -30.914303
v -41.369316 7.608589 -31.364241
v 41.330425 8.765663 -30.914303
v 41.369316 7.608589 -31.364243
v -59.254841 8.605576 11.639578
v -60.278038 7.201664 11.502103
v 51.014236 7.742870 29.400827
v 50.193771 8.452805 28.684284
v 56.731853 7.192207 23.747215
v 55.088337 8.613239 24.073988
v 60.278038 7.201664 11.502103
v 59.254841 8.605576 11.639578
v 51.014236 7.742859 -29.400831
v 50.193771 8.452805 -28.684288
v 55.088337 8.613239 -24.073994
v 56.731853 7.192207 -23.747219
v -59.254841 8.605576 -11.639578
v -60.278038 7.201656 -11.502097
v 60.278038 7.201656 -11.502097
v 59.254841 8.605576 -11.639578
vt 0.270950 0.984353
vt 0.261712 0.984353
vt 0.261450 0.986555
vt 0.271211 0.986555
vt 0.261712 0.984353
vt 0.270950 0.984353
vt 0.271211 0.986555
vt 0.261450 0.986555
vt 0.260710 0.983426
vt 0.260619 0.983292
vt 0.259978 0.984306
vt 0.260162 0.984459
vt 0.261703 0.983010
vt 0.261699 0.982926
vt 0.270959 0.983010
vt 0.270963 0.982926
vt 0.260619 0.983292
vt 0.260710 0.983426
vt 0.260162 0.984286
vt 0.259978 0.984346
vt 0.261699 0.982926
vt 0.261703 0.983010
vt 0.270963 0.982926
vt 0.270959 0.983010
vt 0.260710 0.994121
vt 0.260619 0.994255
vt 0.259978 0.993201
vt 0.260162 0.993262
vt 0.261703 0.994537
vt 0.261699 0.994621
vt 0.270959 0.994537
vt 0.270963 0.994621
vt 0.260619 0.994255
vt 0.260710 0.994121
vt 0.260162 0.993088
vt 0.259978 0.993030
vt 0.261699 0.994621
vt 0.261703 0.994537
vt 0.270963 0.994621
vt 0.270959 0.994537
vt 0.259696 0.986604
vt 0.259581 0.986629
vt 0.272043 0.983292
vt 0.271951 0.983426
vt 0.272683 0.984346
vt 0.272499 0.984286
vt 0.273080 0.986629
vt 0.272966 0.986604
vt 0.259581 0.986580
vt 0.259779 0.986553
vt 0.272043 0.994255
vt 0.271951 0.994121
vt 0.272683 0.993030
vt 0.272499 0.993088
vt 0.272883 0.986553
vt 0.273080 0.986580
vt 0.272683 0.984306
vt 0.272499 0.984459
vt 0.272043 0.994255
vt 0.271951 0.994121
vt 0.272499 0.993262
vt 0.272683 0.993201
vt 0.272043 0.983292
vt 0.271951 0.983426
vt 0.260673 0.983322
vt 0.261712 0.983055
vt 0.261070 0.981724
vt 0.259876 0.982053
vt 0.260765 0.983622
vt 0.261716 0.983299
vt 0.260262 0.984415
vt 0.259876 0.995494
vt 0.261070 0.995823
vt 0.261712 0.994492
vt 0.260673 0.994225
vt 0.260262 0.984415
vt 0.261716 0.983299
vt 0.260765 0.983622
vt 0.271989 0.983322
vt 0.272583 0.984353
vt 0.273470 0.983324
vt 0.272786 0.982053
vt 0.260078 0.984353
vt 0.259192 0.983324
vt 0.270946 0.983299
vt 0.271897 0.983622
vt 0.272399 0.984415
vt 0.270950 0.994492
vt 0.271592 0.995823
vt 0.272786 0.995494
vt 0.271989 0.994225
vt 0.270946 0.983299
vt 0.272399 0.984415
vt 0.271897 0.983622
vt 0.271592 0.981724
vt 0.270950 0.983055
vt 0.260078 0.993194
vt 0.259192 0.994223
vt 0.260765 0.993925
vt 0.261716 0.994248
vt 0.261712 0.993194
vt 0.260262 0.993132
vt 0.270950 0.993194
vt 0.270946 0.994248
vt 0.272399 0.993132
vt 0.271897 0.993925
vt 0.273470 0.994223
vt 0.272583 0.993194
vt 0.270950 0.993194
vt 0.272399 0.993132
vt 0.271897 0.993925
vt 0.270946 0.994248
vt 0.261712 0.993194
vt 0.261716 0.994248
vt 0.260262 0.993132
vt 0.260765 0.993925
vt 0.259700 0.986555
vt 0.258756 0.986039
vt 0.259897 0.986586
vt 0.272765 0.986586
vt 0.272962 0.986555
vt 0.273906 0.986039
vt 0.272765 0.986586
vt 0.259897 0.986586
vt 0.261712 0.983055
vt 0.260673 0.983322
vt 0.260078 0.984353
vt 0.259700 0.986555
vt 0.260078 0.993194
vt 0.260673 0.994225
vt 0.261712 0.994492
vt 0.270950 0.994492
vt 0.271989 0.994225
vt 0.272583 0.993194
vt 0.272583 0.984353
vt 0.272962 0.986555
vt 0.271989 0.983322
vt 0.270950 0.983055
vt 0.259897 0.990961
vt 0.261450 0.990992
vt 0.259581 0.990918
vt 0.259696 0.990943
vt 0.258756 0.991508
vt 0.259700 0.990992
vt 0.259700 0.990992
vt 0.259779 0.990994
vt 0.259581 0.990968
vt 0.261450 0.990992
vt 0.259897 0.990961
vt 0.271211 0.990992
vt 0.272765 0.990961
vt 0.273080 0.990968
vt 0.272883 0.990994
vt 0.273906 0.991508
vt 0.272962 0.990992
vt 0.272962 0.990992
vt 0.272966 0.990943
vt 0.273080 0.990918
vt 0.271211 0.990992
vt 0.272765 0.990961
vn 0.035079 -0.959487 0.279560
vn -0.035079 -0.959487 0.279560
vn -0.057603 -0.997275 0.046084
vn 0.057603 -0.997275 0.046084
vn -0.034225 0.963830 0.264310
vn 0.034225 0.963830 0.264310
vn 0.055175 0.997715 0.038983
vn -0.055176 0.997715 0.038983
vn -0.177742 -0.919334 0.351045
vn -0.484504 -0.176133 0.856874
vn -0.870354 -0.256922 0.420089
vn -0.330330 -0.930779 0.156627
vn -0.010472 -0.874740 0.484480
vn -0.019624 0.069826 0.997366
vn 0.010472 -0.874740 0.484480
vn 0.019624 0.069826 0.997366
vn -0.477329 0.103476 0.872611
vn -0.175612 0.920153 0.349970
vn -0.348313 0.915776 0.200079
vn -0.905162 0.154512 0.395989
vn -0.019624 -0.069822 0.997366
vn -0.010472 0.874739 0.484481
vn 0.019624 -0.069822 0.997366
vn 0.010472 0.874739 0.484481
vn -0.175611 0.920154 -0.349968
vn -0.477329 0.103477 -0.872611
vn -0.905162 0.154512 -0.395989
vn -0.348313 0.915777 -0.200078
vn -0.010472 0.874739 -0.484481
vn -0.019624 -0.069822 -0.997366
vn 0.010472 0.874739 -0.484481
vn 0.019624 -0.069822 -0.997366
vn -0.514196 -0.175712 -0.839481
vn -0.210076 -0.904599 -0.370904
vn -0.314807 -0.929393 -0.192681
vn -0.899726 -0.237965 -0.365877
vn -0.019624 0.069826 -0.997366
vn -0.010472 -0.874740 -0.484480
vn 0.019624 0.069826 -0.997366
vn 0.010472 -0.874740 -0.484480
vn -0.391581 0.918663 0.052176
vn -0.996459 0.014807 0.082763
vn 0.477329 0.103477 0.872611
vn 0.175611 0.920154 0.349968
vn 0.905162 0.154512 0.395989
vn 0.348312 0.915777 0.200078
vn 0.996459 0.014808 0.082763
vn 0.391581 0.918663 0.052176
vn -0.960452 -0.266661 0.080152
vn -0.420775 -0.906360 0.038227
vn 0.514196 -0.175713 -0.839481
vn 0.210076 -0.904598 -0.370904
vn 0.899726 -0.237967 -0.365877
vn 0.314806 -0.929393 -0.192681
vn 0.420775 -0.906359 0.038227
vn 0.960452 -0.266662 0.080152
vn 0.870354 -0.256921 0.420089
vn 0.330331 -0.930779 0.156627
vn 0.477329 0.103476 -0.872611
vn 0.175611 0.920153 -0.349970
vn 0.348314 0.915776 -0.200079
vn 0.905162 0.154512 -0.395989
vn 0.484504 -0.176133 0.856874
vn 0.177743 -0.919334 0.351045
vn -0.363350 -0.430014 0.826477
vn -0.010914 -0.340474 0.940191
vn -0.021250 0.001424 0.999773
vn -0.468581 0.001019 0.883420
vn -0.239266 0.852361 0.465008
vn -0.021535 0.842628 0.538066
vn -0.324147 0.928010 0.183649
vn -0.468581 0.001019 -0.883420
vn -0.021250 0.001424 -0.999773
vn -0.010914 -0.340474 -0.940191
vn -0.363351 -0.430014 -0.826477
vn -0.331595 -0.923030 0.195092
vn -0.021535 -0.842628 0.538065
vn -0.239267 -0.852361 0.465008
vn 0.363351 -0.430014 0.826477
vn 0.790389 -0.470507 0.392312
vn 0.894242 0.000895 0.447584
vn 0.468581 0.001019 0.883420
vn -0.790389 -0.470508 0.392311
vn -0.894242 0.000895 0.447583
vn 0.021535 0.842628 0.538066
vn 0.239266 0.852361 0.465008
vn 0.324147 0.928010 0.183649
vn 0.010914 -0.340474 -0.940191
vn 0.021250 0.001424 -0.999773
vn 0.468581 0.001019 -0.883420
vn 0.363350 -0.430014 -0.826477
vn 0.021535 -0.842628 0.538065
vn 0.331595 -0.923030 0.195092
vn 0.239267 -0.852361 0.465008
vn 0.021250 0.001424 0.999773
vn 0.010914 -0.340474 0.940191
vn -0.790389 -0.470507 -0.392312
vn -0.894242 0.000895 -0.447583
vn -0.239267 -0.852361 -0.465008
vn -0.021535 -0.842628 -0.538065
vn -0.035079 -0.959487 -0.279560
vn -0.331595 -0.923030 -0.195092
vn 0.035079 -0.959487 -0.279560
vn 0.021535 -0.842628 -0.538065
vn 0.331595 -0.923030 -0.195092
vn 0.239267 -0.852361 -0.465008
vn 0.894242 0.000895 -0.447583
vn 0.790389 -0.470508 -0.392311
vn 0.034225 0.963830 -0.264310
vn 0.324147 0.928010 -0.183649
vn 0.239266 0.852361 -0.465008
vn 0.021535 0.842628 -0.538066
vn -0.034225 0.963830 -0.264310
vn -0.021535 0.842628 -0.538066
vn -0.324147 0.928010 -0.183649
vn -0.239266 0.852361 -0.465008
vn -0.889997 -0.448926 0.079817
vn -0.995085 0.000586 0.099028
vn -0.375146 -0.925971 0.042939
vn 0.375146 -0.925971 0.042939
vn 0.889997 -0.448926 0.079817
vn 0.995084 0.000586 0.099029
vn 0.360291 0.932020 0.039115
vn -0.360291 0.932020 0.039115
vn -0.011140 0.323915 0.946021
vn -0.368073 0.410797 0.834127
vn -0.799830 0.450132 0.397055
vn -0.899661 0.429035 0.080861
vn -0.799831 0.450131 -0.397055
vn -0.368073 0.410797 -0.834127
vn -0.011140 0.323915 -0.946021
vn 0.011140 0.323915 -0.946021
vn 0.368073 0.410797 -0.834127
vn 0.799830 0.450132 -0.397055
vn 0.799831 0.450131 0.397055
vn 0.899662 0.429035 0.080862
vn 0.368073 0.410797 0.834127
vn 0.011140 0.323915 0.946021
vn -0.360291 0.932020 -0.039115
vn -0.055176 0.997715 -0.038983
vn -0.996459 0.014807 -0.082763
vn -0.391582 0.918663 -0.052177
vn -0.995084 0.000586 -0.099029
vn -0.899662 0.429034 -0.080862
vn -0.889997 -0.448926 -0.079817
vn -0.422879 -0.905320 -0.039604
vn -0.960409 -0.266703 -0.080529
vn -0.057603 -0.997275 -0.046084
vn -0.375146 -0.925971 -0.042939
vn 0.057603 -0.997275 -0.046084
vn 0.375146 -0.925971 -0.042939
vn 0.960408 -0.266704 -0.080529
vn 0.422879 -0.905320 -0.039604
vn 0.995085 0.000586 -0.099028
vn 0.889997 -0.448927 -0.079817
vn 0.899661 0.429035 -0.080862
vn 0.391582 0.918663 -0.052177
vn 0.996459 0.014807 -0.082763
vn 0.055175 0.997715 -0.038983
vn 0.360291 0.932020 -0.039115
vn -0.361107 0.347936 0.865183
vn -0.707725 0.565051 0.424079
vn 0.505887 -0.810854 -0.294269
vn 0.198944 -0.923988 -0.326601
vn -0.000605 -0.997868 -0.065261
vn -0.016919 0.411561 0.911225
vn 0.000605 -0.997868 -0.065261
vn 0.016919 0.411561 0.911225
vn 0.198944 -0.923988 0.326601
vn 0.505887 -0.810854 0.294269
vn -0.771603 0.330707 -0.543380
vn -0.397050 0.263276 -0.879225
vn -0.016919 0.411561 -0.911225
vn -0.000605 -0.997868 0.065261
vn 0.016919 0.411561 -0.911225
vn 0.000605 -0.997868 0.065261
vn 0.339454 -0.939169 -0.052271
vn -0.695868 0.712820 0.087496
vn -0.198944 -0.923988 0.326601
vn 0.397050 0.263276 -0.879225
vn 0.771603 0.330707 -0.543380
vn -0.505887 -0.810854 0.294269
vn 0.695868 0.712820 0.087495
vn 0.707724 0.565052 0.424079
vn -0.505887 -0.810854 -0.294269
vn -0.339454 -0.939169 -0.052271
vn -0.198944 -0.923988 -0.326601
vn 0.361106 0.347937 0.865183
vn 0.339454 -0.939169 0.052271
vn -0.718320 0.689613 -0.091925
vn 0.718321 0.689613 -0.091925
vn -0.339454 -0.939169 0.052271
vn 0.114965 0.960293 -0.254204
vn 0.228800 0.966673 -0.114867
vn -0.719361 -0.534443 0.443723
vn -0.359001 -0.337821 0.870055
vn -0.016919 -0.411558 0.911227
vn -0.000605 0.997868 -0.065259
vn 0.016919 -0.411558 0.911227
vn 0.000605 0.997868 -0.065259
vn -0.359002 -0.337819 -0.870055
vn -0.719361 -0.534442 -0.443724
vn 0.228801 0.966672 0.114867
vn 0.114965 0.960293 0.254205
vn -0.000605 0.997868 0.065256
vn -0.016919 -0.411558 -0.911227
vn 0.000605 0.997868 0.065256
vn 0.016919 -0.411558 -0.911227
vn 0.174606 0.984407 -0.021321
vn -0.726322 -0.681166 0.092030
vn -0.114965 0.960293 -0.254205
vn 0.359002 -0.337819 0.870055
vn 0.719362 -0.534441 0.443724
vn -0.228801 0.966672 -0.114867
vn 0.726323 -0.681165 0.092030
vn -0.174606 0.984407 -0.021321
vn -0.114964 0.960294 0.254202
vn -0.228801 0.966673 0.114867
vn 0.719361 -0.534443 -0.443723
vn 0.359001 -0.337821 -0.870055
vn 0.174606 0.984407 0.021321
vn -0.726322 -0.681166 -0.092029
vn 0.726323 -0.681165 -0.092029
vn -0.174606 0.984407 0.021321
f 6/1/1 5/2/2 89/3/3 90/4/4
f 8/5/5 7/6/6 96/7/7 83/8/8
f 97/9/9 98/10/10 99/11/11 100/12/12
f 98/10/10 97/9/9 101/13/13 102/14/14
f 102/14/14 101/13/13 103/15/15 104/16/16
f 129/17/17 130/18/18 131/19/19 132/20/20
f 130/18/18 129/17/17 133/21/21 134/22/22
f 134/22/22 133/21/21 135/23/23 136/24/24
f 137/25/25 138/26/26 139/27/27 140/28/28
f 138/26/26 137/25/25 141/29/29 142/30/30
f 142/30/30 141/29/29 143/31/31 144/32/32
f 105/33/33 106/34/34 107/35/35 108/36/36
f 106/34/34 105/33/33 109/37/37 110/38/38
f 110/38/38 109/37/37 111/39/39 112/40/40
f 132/20/20 131/19/19 145/41/41 146/42/42
f 147/43/43 148/44/44 136/24/24 135/23/23
f 148/44/44 147/43/43 149/45/45 150/46/46
f 150/46/46 149/45/45 151/47/47 152/48/48
f 113/49/49 114/50/50 100/12/12 99/11/11
f 115/51/51 116/52/52 112/40/40 111/39/39
f 116/52/52 115/51/51 117/53/53 118/54/54
f 119/55/55 120/56/56 121/57/57 122/58/58
f 153/59/59 154/60/60 155/61/61 156/62/62
f 154/60/60 153/59/59 144/32/32 143/31/31
f 123/63/63 124/64/64 122/58/58 121/57/57
f 124/64/64 123/63/63 104/16/16 103/15/15
f 10/65/65 11/66/66 57/67/67 58/68/68
f 14/69/69 15/70/70 8/5/5 26/71/71
f 61/72/72 62/73/73 23/74/74 21/75/75
f 52/76/76 5/2/2 12/77/77 9/78/78
f 45/79/79 54/80/80 66/81/81 67/82/82
f 51/83/83 10/65/65 58/68/68 59/84/84
f 38/85/85 28/86/86 30/87/87 7/6/6
f 43/88/88 63/89/89 64/90/90 33/91/91
f 48/92/92 6/1/1 53/93/93 46/94/94
f 68/95/95 47/96/96 45/79/79 67/82/82
f 15/70/70 38/85/85 7/6/6 8/5/5
f 23/74/74 62/73/73 63/89/89 43/88/88
f 12/77/77 5/2/2 6/1/1 48/92/92
f 68/95/95 57/67/67 11/66/66 47/96/96
f 21/75/75 31/97/97 60/98/98 61/72/72
f 22/99/99 24/100/100 1/101/101 32/102/102
f 2/103/103 1/101/101 24/100/100 44/104/104
f 35/105/105 2/103/103 44/104/104 34/106/106
f 65/107/107 36/108/108 33/91/91 64/90/90
f 3/109/109 56/110/110 40/111/111 42/112/112
f 4/113/113 3/109/109 42/112/112 20/114/114
f 49/115/115 4/113/113 20/114/114 17/116/116
f 87/117/117 51/83/83 59/84/84 86/118/118
f 88/119/119 89/3/3 5/2/2 52/76/76
f 53/93/93 6/1/1 90/4/4 91/120/120
f 66/81/81 54/80/80 92/121/121 93/122/122
f 7/6/6 30/87/87 95/123/123 96/7/7
f 26/71/71 8/5/5 83/8/8 84/124/124
f 58/68/68 57/67/67 16/125/125 13/126/126
f 59/84/84 58/68/68 13/126/126 25/127/127
f 86/118/118 59/84/84 25/127/127 85/128/128
f 61/72/72 60/98/98 50/129/129 18/130/130
f 18/130/130 19/131/131 62/73/73 61/72/72
f 63/89/89 62/73/73 19/131/131 41/132/132
f 64/90/90 63/89/89 41/132/132 39/133/133
f 55/134/134 65/107/107 64/90/90 39/133/133
f 29/135/135 66/81/81 93/122/122 94/136/136
f 67/82/82 66/81/81 29/135/135 27/137/137
f 37/138/138 68/95/95 67/82/82 27/137/137
f 16/125/125 57/67/67 68/95/95 37/138/138
f 70/139/139 69/140/140 4/113/113 49/115/115
f 158/141/141 157/142/142 140/28/28 139/27/27
f 60/98/98 72/143/143 71/144/144 50/129/129
f 31/97/97 73/145/145 72/143/143 60/98/98
f 108/36/36 107/35/35 125/146/146 126/147/147
f 32/102/102 1/101/101 75/148/148 74/149/149
f 76/150/150 75/148/148 1/101/101 2/103/103
f 77/151/151 76/150/150 2/103/103 35/105/105
f 118/54/54 117/53/53 127/152/152 128/153/153
f 79/154/154 78/155/155 36/108/108 65/107/107
f 80/156/156 79/154/154 65/107/107 55/134/134
f 160/157/157 159/158/158 156/62/62 155/61/61
f 82/159/159 81/160/160 56/110/110 3/109/109
f 69/140/140 82/159/159 3/109/109 4/113/113
f 84/124/124 83/8/8 69/140/140 70/139/139
f 146/42/42 145/41/41 157/142/142 158/141/141
f 72/143/143 86/118/118 85/128/128 71/144/144
f 73/145/145 87/117/117 86/118/118 72/143/143
f 126/147/147 125/146/146 114/50/50 113/49/49
f 74/149/149 75/148/148 89/3/3 88/119/119
f 90/4/4 89/3/3 75/148/148 76/150/150
f 91/120/120 90/4/4 76/150/150 77/151/151
f 128/153/153 127/152/152 120/56/56 119/55/55
f 93/122/122 92/121/121 78/155/155 79/154/154
f 94/136/136 93/122/122 79/154/154 80/156/156
f 152/48/48 151/47/47 159/158/158 160/157/157
f 96/7/7 95/123/123 81/160/160 82/159/159
f 83/8/8 96/7/7 82/159/159 69/140/140
f 10/65/161 51/83/162 99/11/11 98/10/10
f 52/76/163 9/78/164 97/9/9 100/12/12
f 9/78/164 12/77/165 101/13/13 97/9/9
f 11/66/166 10/65/161 98/10/10 102/14/14
f 12/77/165 48/92/167 103/15/15 101/13/13
f 47/96/168 11/66/166 102/14/14 104/16/16
f 22/99/169 32/102/170 107/35/35 106/34/34
f 31/97/171 21/75/172 105/33/33 108/36/36
f 21/75/172 23/74/173 109/37/37 105/33/33
f 24/100/174 22/99/169 106/34/34 110/38/38
f 23/74/173 43/88/175 111/39/39 109/37/37
f 44/104/176 24/100/174 110/38/38 112/40/40
f 88/119/177 52/76/163 100/12/12 114/50/50
f 51/83/162 87/117/178 113/49/49 99/11/11
f 34/106/179 44/104/176 112/40/40 116/52/52
f 43/88/175 33/91/180 115/51/51 111/39/39
f 33/91/180 36/108/181 117/53/53 115/51/51
f 35/105/182 34/106/179 116/52/52 118/54/54
f 92/121/183 54/80/184 121/57/57 120/56/56
f 53/93/185 91/120/186 119/55/55 122/58/58
f 46/94/187 53/93/185 122/58/58 124/64/64
f 54/80/184 45/79/188 123/63/63 121/57/57
f 45/79/188 47/96/168 104/16/16 123/63/63
f 48/92/167 46/94/187 124/64/64 103/15/15
f 32/102/170 74/149/189 125/146/146 107/35/35
f 73/145/190 31/97/171 108/36/36 126/147/147
f 36/108/181 78/155/191 127/152/152 117/53/53
f 77/151/192 35/105/182 118/54/54 128/153/153
f 74/149/189 88/119/177 114/50/50 125/146/146
f 87/117/178 73/145/190 126/147/147 113/49/49
f 78/155/191 92/121/183 120/56/56 127/152/152
f 91/120/186 77/151/192 128/153/153 119/55/55
f 14/69/193 26/71/194 131/19/19 130/18/18
f 25/127/195 13/126/196 129/17/17 132/20/20
f 13/126/196 16/125/197 133/21/21 129/17/17
f 15/70/198 14/69/193 130/18/18 134/22/22
f 16/125/197 37/138/199 135/23/23 133/21/21
f 38/85/200 15/70/198 134/22/22 136/24/24
f 18/130/201 50/129/202 139/27/27 138/26/26
f 49/115/203 17/116/204 137/25/25 140/28/28
f 17/116/204 20/114/205 141/29/29 137/25/25
f 19/131/206 18/130/201 138/26/26 142/30/30
f 20/114/205 42/112/207 143/31/31 141/29/29
f 41/132/208 19/131/206 142/30/30 144/32/32
f 26/71/194 84/124/209 145/41/41 131/19/19
f 85/128/210 25/127/195 132/20/20 146/42/42
f 28/86/211 38/85/200 136/24/24 148/44/44
f 37/138/199 27/137/212 147/43/43 135/23/23
f 27/137/212 29/135/213 149/45/45 147/43/43
f 30/87/214 28/86/211 148/44/44 150/46/46
f 29/135/213 94/136/215 151/47/47 149/45/45
f 95/123/216 30/87/214 150/46/46 152/48/48
f 40/111/217 56/110/218 155/61/61 154/60/60
f 55/134/219 39/133/220 153/59/59 156/62/62
f 39/133/220 41/132/208 144/32/32 153/59/59
f 42/112/207 40/111/217 154/60/60 143/31/31
f 70/139/221 49/115/203 140/28/28 157/142/142
f 50/129/202 71/144/222 158/141/141 139/27/27
f 80/156/223 55/134/219 156/62/62 159/158/158
f 56/110/218 81/160/224 160/157/157 155/61/61
f 84/124/209 70/139/221 157/142/142 145/41/41
f 71/144/222 85/128/210 146/42/42 158/141/141
f 94/136/215 80/156/223 159/158/158 151/47/47
f 81/160/224 95/123/216 152/48/48 160/157/157
