# This file uses meters as units for non-parametric coordinates.

v 3.898030 0.864426 -2.250529
v 5.302945 1.376575 -3.061656
v 2.824714 1.415218 -4.979275
v 2.250529 0.864426 -3.898030
v 0.000000 1.376835 -6.123313
v 0.000000 0.864426 -4.501058
v -3.061656 1.256744 -5.302945
v -2.250529 0.864426 -3.898030
v -5.066002 1.262402 -2.864964
v -3.898030 0.864426 -2.250529
v -6.123313 1.271519 0.000000
v -4.501058 0.864426 0.000000
v -5.302945 1.421188 3.061656
v -3.898030 0.864426 2.250529
v -3.061656 1.627281 5.302945
v -2.250529 0.864426 3.898030
v -0.063488 1.691051 5.799644
v 0.000000 0.864426 4.501058
v 3.061656 1.246582 5.302945
v 2.250529 0.864426 3.898030
v 5.302945 1.287357 3.061656
v 3.898030 0.511608 2.250529
v 6.123313 1.345646 -0.000000
v 4.501058 0.511608 -0.000000
v 0.000000 -0.760582 0.000000
v -6.492905 0.495064 3.748679
v -8.270512 -2.354008 4.774982
v -4.774982 -2.354008 8.270512
v -3.748679 0.461895 6.492905
v 0.000000 0.524273 7.497359
v 0.000000 -2.354008 9.549964
v 3.748679 0.395962 6.492905
v 4.774982 -2.354008 8.270512
v 6.492905 0.284004 3.748679
v 8.270512 -2.354008 4.774982
v 7.497359 0.196674 0.000000
v 9.549964 -2.354008 0.000000
v 6.492905 0.487072 -3.748679
v 8.270512 -2.354008 -4.774982
v 3.748679 0.568909 -6.492905
v 4.774982 -2.354008 -8.270512
v 0.000000 0.126553 -7.497359
v 0.000000 -2.354008 -9.549964
v -3.748679 0.148205 -6.492905
v -4.774982 -2.354008 -8.270512
v -6.492905 0.520458 -3.748679
v -8.270512 -2.354008 -4.774982
v -7.497359 0.577026 -0.000000
v -9.549964 -2.354008 -0.000000
v 3.898030 0.950989 -2.250529
v 2.250529 0.950989 -3.898030
v 0.000000 0.950989 -4.501058
v -2.250529 0.950989 -3.898030
v -3.898030 0.950989 -2.250529
v -4.501058 0.950989 0.000000
v -3.898030 0.950989 2.250529
v -2.250529 0.950989 3.898030
v 0.000000 0.950989 4.501058
v 2.250529 0.950989 3.898030
v 3.898030 0.598171 2.250529
v 4.501058 0.598171 0.000000
v 8.270512 -2.267445 -4.774982
v 4.774982 -2.267445 -8.270512
v 0.000000 -2.267445 -9.549964
v -4.774982 -2.267445 -8.270512
v -8.270512 -2.267445 -4.774982
v -9.549964 -2.267445 0.000000
v -8.270512 -2.267445 4.774982
v -4.774982 -2.267445 8.270512
v 0.000000 -2.267445 9.549964
v 4.774982 -2.267445 8.270512
v 8.270512 -2.267445 4.774982
v 9.549964 -2.267445 0.000000
v 0.000000 -0.674019 0.000000
v -6.492905 0.581627 3.748679
v -3.748679 0.548458 6.492905
v 0.000000 0.610836 7.497359
v 3.748679 0.482525 6.492905
v 6.492905 0.370567 3.748679
v 7.497359 0.283237 0.000000
v 6.492905 0.573635 -3.748679
v 3.748679 0.655472 -6.492905
v 0.000000 0.213116 -7.497359
v -3.748679 0.234768 -6.492905
v -6.492905 0.607021 -3.748679
v -7.497359 0.663589 0.000000
v -3.061656 1.713844 5.302945
v -0.063488 1.777615 5.799644
v 3.061656 1.333145 5.302945
v 5.302945 1.373920 3.061656
v 6.123313 1.432209 0.000000
v 5.302945 1.463139 -3.061656
v 2.824714 1.501781 -4.979275
v 0.000000 1.463398 -6.123313
v -3.061656 1.343307 -5.302945
v -5.066002 1.348965 -2.864964
v -6.123313 1.358082 0.000000
v -5.302945 1.507751 3.061656
v 1.194715 1.085632 -0.689768
v 2.657067 0.200874 -1.534058
v 1.534058 0.200874 -2.657067
v 0.689768 1.085632 -1.194715
v 0.000000 0.200874 -3.068116
v 0.000000 1.085632 -1.379536
v -1.534058 0.200874 -2.657067
v -0.689768 1.085632 -1.194715
v -2.657067 0.200874 -1.534058
v -1.194715 1.085632 -0.689768
v -3.068116 0.200874 0.000000
v -1.379536 1.085632 0.000000
v -2.657067 0.200874 1.534058
v -1.194715 1.085632 0.689768
v -1.534058 0.200874 2.657067
v -0.689768 1.085632 1.194715
v 0.000000 0.200874 3.068116
v 0.000000 1.085632 1.379536
v 1.534058 0.200874 2.657067
v 0.689768 1.085632 1.194715
v 2.657067 0.200874 1.534058
v 1.194715 1.085632 0.689768
v 3.068116 0.200874 -0.000000
v 1.379536 1.085632 -0.000000
v 0.000000 1.391930 0.000000
v -1.560478 -0.048687 1.652366
v 0.886547 -0.227726 3.353863
v -2.860893 -0.201160 -1.031055
v -6.029607 2.354008 5.015501
v -1.212845 2.001587 8.364754
v -8.589364 2.053883 -0.266586
v -5.288594 1.888584 -0.775296
v -3.360341 2.114666 3.203674
v 0.268101 1.849190 5.726648
v 2.235785 -0.048687 1.638669
v 4.217344 -0.227726 -0.587638
v -0.583736 -0.201160 2.609303
v 5.041114 2.354008 6.477461
v 8.941648 2.001587 2.095165
v -0.508874 2.053883 8.388073
v -0.619741 1.888584 5.050174
v 3.561037 2.114666 3.610918
v 6.499289 1.849190 0.309757
v -1.467398 -0.048687 -1.983718
v -3.275690 -0.227726 0.385480
v 1.271027 -0.201160 -3.163909
v -4.629129 2.354008 -6.597528
v -8.188598 2.001587 -1.933961
v 0.761231 2.053883 -8.920635
v 1.123131 1.888584 -5.600562
v -2.937400 2.114666 -3.850576
v -5.618730 1.849190 -0.337535
v 2.259001 -0.048687 -1.755024
v 0.173871 -0.227726 -3.884636
v 3.033935 -0.201160 1.124439
v 7.278837 2.354008 -4.221812
v 3.174434 2.001587 -8.413775
v 8.804227 2.053883 1.446168
v 5.466586 1.888584 1.327799
v 4.317514 2.114666 -2.941861
v 1.225690 1.849190 -6.099645
vt 0.422607 0.623969
vt 0.430810 0.619358
vt 0.420814 0.609626
vt 0.416078 0.617612
vt 0.407158 0.606064
vt 0.407158 0.615286
vt 0.393503 0.609626
vt 0.398239 0.617613
vt 0.383507 0.619358
vt 0.391710 0.623969
vt 0.379848 0.632652
vt 0.389320 0.632652
vt 0.383507 0.645946
vt 0.391710 0.641335
vt 0.393503 0.655678
vt 0.398239 0.647692
vt 0.407158 0.659240
vt 0.407158 0.650018
vt 0.420814 0.655678
vt 0.416078 0.647692
vt 0.430810 0.645946
vt 0.422607 0.641335
vt 0.434469 0.632652
vt 0.424997 0.632652
vt 0.407848 0.631876
vt 0.380019 0.647907
vt 0.374387 0.651072
vt 0.388238 0.664556
vt 0.391489 0.659074
vt 0.407158 0.663161
vt 0.407159 0.669492
vt 0.422828 0.659074
vt 0.426079 0.664556
vt 0.434298 0.647906
vt 0.439930 0.651072
vt 0.438497 0.632652
vt 0.445000 0.632652
vt 0.434298 0.617398
vt 0.439930 0.614232
vt 0.422828 0.606230
vt 0.426079 0.600748
vt 0.407158 0.602143
vt 0.407158 0.595812
vt 0.391489 0.606231
vt 0.388238 0.600748
vt 0.380019 0.617398
vt 0.374387 0.614232
vt 0.375820 0.632652
vt 0.369317 0.632652
vt 0.422607 0.623969
vt 0.430810 0.619358
vt 0.420814 0.609626
vt 0.416078 0.617612
vt 0.407158 0.606064
vt 0.407158 0.615286
vt 0.393503 0.609626
vt 0.398239 0.617613
vt 0.383507 0.619358
vt 0.391710 0.623969
vt 0.379848 0.632652
vt 0.389320 0.632652
vt 0.383507 0.645946
vt 0.391710 0.641335
vt 0.393503 0.655678
vt 0.398239 0.647692
vt 0.407158 0.659240
vt 0.407158 0.650018
vt 0.420814 0.655678
vt 0.416078 0.647692
vt 0.430810 0.645946
vt 0.422607 0.641335
vt 0.434469 0.632652
vt 0.424997 0.632652
vt 0.407848 0.631876
vt 0.380019 0.647907
vt 0.374387 0.651072
vt 0.388238 0.664556
vt 0.391489 0.659074
vt 0.407158 0.663161
vt 0.407159 0.669492
vt 0.422828 0.659074
vt 0.426079 0.664556
vt 0.434298 0.647906
vt 0.439930 0.651072
vt 0.438497 0.632652
vt 0.445000 0.632652
vt 0.434298 0.617398
vt 0.439930 0.614232
vt 0.422828 0.606230
vt 0.426079 0.600748
vt 0.407158 0.602143
vt 0.407158 0.595812
vt 0.391489 0.606231
vt 0.388238 0.600748
vt 0.380019 0.617398
vt 0.374387 0.614232
vt 0.375820 0.632652
vt 0.369317 0.632652
vt 0.411768 0.630449
vt 0.416128 0.627998
vt 0.412629 0.624591
vt 0.410111 0.628836
vt 0.407848 0.623344
vt 0.407848 0.628245
vt 0.403068 0.624591
vt 0.405585 0.628836
vt 0.399568 0.627998
vt 0.403928 0.630449
vt 0.398288 0.631931
vt 0.403322 0.632652
vt 0.399568 0.637306
vt 0.403928 0.634855
vt 0.403068 0.640713
vt 0.405585 0.636468
vt 0.407848 0.641960
vt 0.407848 0.637058
vt 0.412629 0.640712
vt 0.410111 0.636468
vt 0.416128 0.637306
vt 0.411768 0.634855
vt 0.417409 0.632652
vt 0.412375 0.632652
vt 0.407848 0.632262
vt 0.450596 0.743245
vt 0.463895 0.742263
vt 0.456092 0.729296
vt 0.447395 0.737740
vt 0.448138 0.748061
vt 0.459054 0.753929
vt 0.472158 0.759015
vt 0.477180 0.740488
vt 0.469950 0.724620
vt 0.450596 0.743245
vt 0.463895 0.742263
vt 0.456092 0.729296
vt 0.447395 0.737740
vt 0.448138 0.748061
vt 0.459054 0.753929
vt 0.472158 0.759015
vt 0.477180 0.740488
vt 0.469950 0.724620
vt 0.450596 0.743245
vt 0.463895 0.742263
vt 0.456092 0.729296
vt 0.447395 0.737740
vt 0.448138 0.748061
vt 0.459054 0.753929
vt 0.472158 0.759015
vt 0.477180 0.740488
vt 0.469950 0.724620
vt 0.450596 0.743245
vt 0.463895 0.742263
vt 0.456092 0.729296
vt 0.447395 0.737740
vt 0.448138 0.748061
vt 0.459054 0.753929
vt 0.472158 0.759015
vt 0.477180 0.740488
vt 0.469950 0.724620
vn 0.282698 -0.932508 -0.224748
vn 0.174973 -0.937118 -0.301983
vn -0.094858 -0.972713 0.211732
vn -0.232488 -0.966879 0.105328
vn 0.015972 -0.946504 -0.322295
vn 0.027465 -0.937668 0.346446
vn -0.145574 -0.954346 -0.260829
vn 0.159262 -0.940193 0.301120
vn -0.262086 -0.953165 -0.150954
vn 0.179495 -0.974385 0.135482
vn -0.303658 -0.952748 0.007901
vn 0.224543 -0.974361 0.014158
vn -0.278279 -0.942007 0.187576
vn 0.225438 -0.967438 -0.115075
vn -0.172501 -0.922342 0.345728
vn 0.151217 -0.957535 -0.245481
vn -0.021395 -0.918428 0.395009
vn -0.025495 -0.971259 -0.236655
vn 0.109745 -0.934992 0.337262
vn -0.171388 -0.959370 -0.224135
vn 0.271347 -0.941777 0.198562
vn -0.225748 -0.967468 -0.114207
vn 0.347026 -0.936624 -0.048053
vn -0.260161 -0.965232 -0.025378
vn -0.022918 -0.999718 -0.006141
vn 0.660776 -0.645437 -0.383126
vn 0.382301 -0.642384 -0.664220
vn 0.405696 -0.585410 -0.701930
vn 0.703065 -0.582701 -0.407626
vn -0.005236 -0.653442 -0.756959
vn -0.000856 -0.587826 -0.808987
vn -0.379673 -0.660731 -0.647520
vn -0.403673 -0.597515 -0.692838
vn -0.649378 -0.664727 -0.369387
vn -0.685516 -0.613092 -0.392666
vn -0.752683 -0.658359 -0.005620
vn -0.791301 -0.611420 -0.002743
vn -0.651456 -0.662999 0.368833
vn -0.699366 -0.593608 0.398141
vn -0.364113 -0.670638 0.646271
vn -0.397933 -0.594518 0.698712
vn 0.009167 -0.665538 0.746308
vn 0.005746 -0.618086 0.786090
vn 0.364438 -0.669978 0.646772
vn 0.387792 -0.619569 0.682460
vn 0.634709 -0.673505 0.378861
vn 0.694410 -0.593139 0.407407
vn 0.751423 -0.659819 0.001859
vn 0.815500 -0.578757 -0.000325
vn -0.282698 0.932508 0.224748
vn 0.232488 0.966879 -0.105328
vn 0.094858 0.972713 -0.211732
vn -0.174973 0.937118 0.301983
vn -0.027465 0.937668 -0.346446
vn -0.015972 0.946504 0.322295
vn -0.159262 0.940193 -0.301119
vn 0.145574 0.954346 0.260829
vn -0.179495 0.974385 -0.135482
vn 0.262086 0.953165 0.150954
vn -0.224543 0.974361 -0.014158
vn 0.303658 0.952748 -0.007901
vn -0.225438 0.967438 0.115075
vn 0.278279 0.942006 -0.187576
vn -0.151217 0.957535 0.245481
vn 0.172501 0.922342 -0.345728
vn 0.025495 0.971259 0.236655
vn 0.021395 0.918428 -0.395009
vn 0.171388 0.959370 0.224135
vn -0.109745 0.934992 -0.337262
vn 0.225748 0.967468 0.114207
vn -0.271347 0.941777 -0.198562
vn 0.260161 0.965232 0.025378
vn -0.347026 0.936624 0.048053
vn 0.022918 0.999718 0.006141
vn -0.660776 0.645437 0.383126
vn -0.703065 0.582701 0.407626
vn -0.405696 0.585410 0.701931
vn -0.382301 0.642384 0.664220
vn 0.005236 0.653442 0.756959
vn 0.000856 0.587826 0.808987
vn 0.379673 0.660731 0.647520
vn 0.403673 0.597515 0.692838
vn 0.649378 0.664727 0.369387
vn 0.685516 0.613092 0.392666
vn 0.752683 0.658359 0.005620
vn 0.791301 0.611420 0.002743
vn 0.651456 0.662999 -0.368833
vn 0.699366 0.593608 -0.398141
vn 0.364113 0.670638 -0.646271
vn 0.397933 0.594518 -0.698712
vn -0.009167 0.665538 -0.746308
vn -0.005746 0.618086 -0.786090
vn -0.364438 0.669978 -0.646772
vn -0.387792 0.619569 -0.682460
vn -0.634709 0.673505 -0.378861
vn -0.694410 0.593139 -0.407407
vn -0.751423 0.659819 -0.001859
vn -0.815500 0.578757 0.000325
vn 0.372745 0.902634 -0.215204
vn 0.401936 0.885775 -0.232058
vn 0.232058 0.885775 -0.401936
vn 0.215204 0.902634 -0.372745
vn 0.000000 0.885775 -0.464116
vn 0.000000 0.902634 -0.430409
vn -0.232058 0.885775 -0.401936
vn -0.215204 0.902634 -0.372745
vn -0.401936 0.885775 -0.232058
vn -0.372745 0.902634 -0.215204
vn -0.464116 0.885775 0.000000
vn -0.430409 0.902634 0.000000
vn -0.401936 0.885775 0.232058
vn -0.372745 0.902634 0.215204
vn -0.232058 0.885775 0.401936
vn -0.215204 0.902634 0.372745
vn 0.000000 0.885775 0.464116
vn 0.000000 0.902634 0.430409
vn 0.232058 0.885775 0.401936
vn 0.215204 0.902634 0.372745
vn 0.401936 0.885775 0.232058
vn 0.372745 0.902634 0.215204
vn 0.464116 0.885775 0.000000
vn 0.430409 0.902634 0.000000
vn 0.000000 1.000000 -0.000000
vn 0.514004 0.739426 -0.434798
vn 0.228752 0.955233 -0.187625
vn 0.222280 0.949902 -0.219722
vn 0.423378 0.733516 -0.531701
vn 0.595563 0.732295 -0.330225
vn 0.238045 0.956315 -0.169697
vn 0.038313 0.996433 -0.075184
vn 0.057378 0.997236 -0.047202
vn 0.081240 0.996623 -0.011967
vn -0.370300 0.739426 -0.562251
vn -0.158963 0.955233 -0.249523
vn -0.191603 0.949902 -0.246930
vn -0.477333 0.733516 -0.483847
vn -0.256736 0.732295 -0.630739
vn -0.140053 0.956315 -0.256608
vn -0.070070 0.996433 -0.047018
vn -0.040012 0.997236 -0.062605
vn -0.002180 0.996623 -0.082087
vn 0.411587 0.739426 0.532771
vn 0.177301 0.955233 0.236844
vn 0.209653 0.949902 0.231801
vn 0.512412 0.733516 0.446530
vn 0.303502 0.732295 0.609615
vn 0.158978 0.956315 0.245333
vn 0.073411 0.996433 0.041608
vn 0.044612 0.997236 0.059414
vn 0.008355 0.996623 0.081690
vn -0.586329 0.739426 0.330858
vn -0.259840 0.955233 0.141472
vn -0.259492 0.949902 0.174213
vn -0.515452 0.733516 0.443018
vn -0.646864 0.732295 0.212863
vn -0.265611 0.956315 0.122120
vn -0.051714 0.996433 0.066679
vn -0.065202 0.997236 0.035623
vn -0.082044 0.996623 -0.003457
f 1/1/1 4/4/2 3/3/3 2/2/4
f 4/4/2 6/6/5 5/5/6 3/3/3
f 6/6/5 8/8/7 7/7/8 5/5/6
f 8/8/7 10/10/9 9/9/10 7/7/8
f 10/10/9 12/12/11 11/11/12 9/9/10
f 12/12/11 14/14/13 13/13/14 11/11/12
f 14/14/13 16/16/15 15/15/16 13/13/14
f 16/16/15 18/18/17 17/17/18 15/15/16
f 18/18/17 20/20/19 19/19/20 17/17/18
f 20/20/19 22/22/21 21/21/22 19/19/20
f 22/22/21 24/24/23 23/23/24 21/21/22
f 24/24/23 1/1/1 2/2/4 23/23/24
f 4/4/2 1/1/1 25/25/25
f 6/6/5 4/4/2 25/25/25
f 8/8/7 6/6/5 25/25/25
f 10/10/9 8/8/7 25/25/25
f 12/12/11 10/10/9 25/25/25
f 14/14/13 12/12/11 25/25/25
f 16/16/15 14/14/13 25/25/25
f 18/18/17 16/16/15 25/25/25
f 20/20/19 18/18/17 25/25/25
f 22/22/21 20/20/19 25/25/25
f 24/24/23 22/22/21 25/25/25
f 1/1/1 24/24/23 25/25/25
f 26/26/26 29/29/27 28/28/28 27/27/29
f 30/30/30 31/31/31 28/28/28 29/29/27
f 32/32/32 33/33/33 31/31/31 30/30/30
f 34/34/34 35/35/35 33/33/33 32/32/32
f 36/36/36 37/37/37 35/35/35 34/34/34
f 38/38/38 39/39/39 37/37/37 36/36/36
f 40/40/40 41/41/41 39/39/39 38/38/38
f 42/42/42 43/43/43 41/41/41 40/40/40
f 44/44/44 45/45/45 43/43/43 42/42/42
f 46/46/46 47/47/47 45/45/45 44/44/44
f 48/48/48 49/49/49 47/47/47 46/46/46
f 26/26/26 27/27/29 49/49/49 48/48/48
f 15/15/16 17/17/18 30/30/30 29/29/27
f 19/19/20 32/32/32 30/30/30 17/17/18
f 21/21/22 34/34/34 32/32/32 19/19/20
f 23/23/24 36/36/36 34/34/34 21/21/22
f 2/2/4 38/38/38 36/36/36 23/23/24
f 3/3/3 40/40/40 38/38/38 2/2/4
f 5/5/6 42/42/42 40/40/40 3/3/3
f 7/7/8 44/44/44 42/42/42 5/5/6
f 9/9/10 46/46/46 44/44/44 7/7/8
f 11/11/12 48/48/48 46/46/46 9/9/10
f 13/13/14 26/26/26 48/48/48 11/11/12
f 15/15/16 29/29/27 26/26/26 13/13/14
f 50/50/50 92/51/51 93/52/52 51/53/53
f 51/53/53 93/52/52 94/54/54 52/55/55
f 52/55/55 94/54/54 95/56/56 53/57/57
f 53/57/57 95/56/56 96/58/58 54/59/59
f 54/59/59 96/58/58 97/60/60 55/61/61
f 55/61/61 97/60/60 98/62/62 56/63/63
f 56/63/63 98/62/62 87/64/64 57/65/65
f 57/65/65 87/64/64 88/66/66 58/67/67
f 58/67/67 88/66/66 89/68/68 59/69/69
f 59/69/69 89/68/68 90/70/70 60/71/71
f 60/71/71 90/70/70 91/72/72 61/73/73
f 61/73/73 91/72/72 92/51/51 50/50/50
f 51/53/53 74/74/74 50/50/50
f 52/55/55 74/74/74 51/53/53
f 53/57/57 74/74/74 52/55/55
f 54/59/59 74/74/74 53/57/57
f 55/61/61 74/74/74 54/59/59
f 56/63/63 74/74/74 55/61/61
f 57/65/65 74/74/74 56/63/63
f 58/67/67 74/74/74 57/65/65
f 59/69/69 74/74/74 58/67/67
f 60/71/71 74/74/74 59/69/69
f 61/73/73 74/74/74 60/71/71
f 50/50/50 74/74/74 61/73/73
f 75/75/75 68/76/76 69/77/77 76/78/78
f 77/79/79 76/78/78 69/77/77 70/80/80
f 78/81/81 77/79/79 70/80/80 71/82/82
f 79/83/83 78/81/81 71/82/82 72/84/84
f 80/85/85 79/83/83 72/84/84 73/86/86
f 81/87/87 80/85/85 73/86/86 62/88/88
f 82/89/89 81/87/87 62/88/88 63/90/90
f 83/91/91 82/89/89 63/90/90 64/92/92
f 84/93/93 83/91/91 64/92/92 65/94/94
f 85/95/95 84/93/93 65/94/94 66/96/96
f 86/97/97 85/95/95 66/96/96 67/98/98
f 75/75/75 86/97/97 67/98/98 68/76/76
f 87/64/64 76/78/78 77/79/79 88/66/66
f 89/68/68 88/66/66 77/79/79 78/81/81
f 90/70/70 89/68/68 78/81/81 79/83/83
f 91/72/72 90/70/70 79/83/83 80/85/85
f 92/51/51 91/72/72 80/85/85 81/87/87
f 93/52/52 92/51/51 81/87/87 82/89/89
f 94/54/54 93/52/52 82/89/89 83/91/91
f 95/56/56 94/54/54 83/91/91 84/93/93
f 96/58/58 95/56/56 84/93/93 85/95/95
f 97/60/60 96/58/58 85/95/95 86/97/97
f 98/62/62 97/60/60 86/97/97 75/75/75
f 87/64/64 98/62/62 75/75/75 76/78/78
f 99/99/99 100/100/100 101/101/101 102/102/102
f 102/102/102 101/101/101 103/103/103 104/104/104
f 104/104/104 103/103/103 105/105/105 106/106/106
f 106/106/106 105/105/105 107/107/107 108/108/108
f 108/108/108 107/107/107 109/109/109 110/110/110
f 110/110/110 109/109/109 111/111/111 112/112/112
f 112/112/112 111/111/111 113/113/113 114/114/114
f 114/114/114 113/113/113 115/115/115 116/116/116
f 116/116/116 115/115/115 117/117/117 118/118/118
f 118/118/118 117/117/117 119/119/119 120/120/120
f 120/120/120 119/119/119 121/121/121 122/122/122
f 122/122/122 121/121/121 100/100/100 99/99/99
f 102/102/102 123/123/123 99/99/99
f 104/104/104 123/123/123 102/102/102
f 106/106/106 123/123/123 104/104/104
f 108/108/108 123/123/123 106/106/106
f 110/110/110 123/123/123 108/108/108
f 112/112/112 123/123/123 110/110/110
f 114/114/114 123/123/123 112/112/112
f 116/116/116 123/123/123 114/114/114
f 118/118/118 123/123/123 116/116/116
f 120/120/120 123/123/123 118/118/118
f 122/122/122 123/123/123 120/120/120
f 99/99/99 123/123/123 122/122/122
f 124/124/124 131/125/125 132/126/126 125/127/127
f 126/128/128 130/129/129 131/125/125 124/124/124
f 130/129/129 129/130/130 127/131/131 131/125/125
f 132/126/126 131/125/125 127/131/131 128/132/132
f 133/133/133 140/134/134 141/135/135 134/136/136
f 135/137/137 139/138/138 140/134/134 133/133/133
f 139/138/138 138/139/139 136/140/140 140/134/134
f 141/135/135 140/134/134 136/140/140 137/141/141
f 142/142/142 149/143/143 150/144/144 143/145/145
f 144/146/146 148/147/147 149/143/143 142/142/142
f 148/147/147 147/148/148 145/149/149 149/143/143
f 150/144/144 149/143/143 145/149/149 146/150/150
f 151/151/151 158/152/152 159/153/153 152/154/154
f 153/155/155 157/156/156 158/152/152 151/151/151
f 157/156/156 156/157/157 154/158/158 158/152/152
f 159/153/153 158/152/152 154/158/158 155/159/159
