# This file uses meters as units for non-parametric coordinates.

v 3.898030 0.836798 -2.250529
v 5.302945 1.348948 -3.061656
v 2.824714 1.387590 -4.979275
v 2.250529 0.836798 -3.898030
v 0.000000 1.349207 -6.123313
v 0.000000 0.836798 -4.501058
v -3.061656 1.229116 -5.302945
v -2.250529 0.836798 -3.898030
v -5.066002 1.234774 -2.864964
v -3.898030 0.836798 -2.250529
v -6.123313 1.243891 -0.000000
v -4.501058 0.836798 -0.000000
v -5.302945 1.393560 3.061656
v -3.898030 0.836798 2.250529
v -3.061656 1.599653 5.302945
v -2.250529 0.836798 3.898030
v -0.063488 1.663424 5.799644
v 0.000000 0.836798 4.501058
v 3.061656 1.218954 5.302945
v 2.250529 0.836798 3.898030
v 5.302945 1.259729 3.061656
v 3.898030 0.483980 2.250529
v 6.123313 1.318018 -0.000000
v 4.501058 0.483980 -0.000000
v 0.000000 -0.788210 -0.000000
v -6.492905 0.467436 3.748679
v -8.270512 -2.381636 4.774982
v -4.774982 -2.381636 8.270512
v -3.748679 0.434267 6.492905
v 0.000000 0.496645 7.497359
v 0.000000 -2.381636 9.549964
v 3.748679 0.368334 6.492905
v 4.774982 -2.381636 8.270512
v 6.492905 0.256376 3.748679
v 8.270512 -2.381636 4.774982
v 7.497359 0.169046 -0.000000
v 9.549964 -2.381636 -0.000000
v 6.492905 0.459444 -3.748679
v 8.270512 -2.381636 -4.774982
v 3.748679 0.541281 -6.492905
v 4.774982 -2.381636 -8.270512
v 0.000000 0.098925 -7.497359
v 0.000000 -2.381636 -9.549964
v -3.748679 0.120577 -6.492905
v -4.774982 -2.381636 -8.270512
v -6.492905 0.492830 -3.748679
v -8.270512 -2.381636 -4.774982
v -7.497359 0.549398 -0.000000
v -9.549964 -2.381636 0.000000
v 3.898030 0.978617 -2.250529
v 2.250529 0.978617 -3.898030
v 0.000000 0.978617 -4.501058
v -2.250529 0.978617 -3.898030
v -3.898030 0.978617 -2.250529
v -4.501058 0.978617 0.000000
v -3.898030 0.978617 2.250529
v -2.250529 0.978617 3.898030
v 0.000000 0.978617 4.501058
v 2.250529 0.978617 3.898030
v 3.898030 0.625799 2.250529
v 4.501058 0.625799 0.000000
v 8.270512 -2.239817 -4.774982
v 4.774982 -2.239817 -8.270512
v 0.000000 -2.239817 -9.549964
v -4.774982 -2.239817 -8.270512
v -8.270512 -2.239817 -4.774982
v -9.549964 -2.239817 0.000000
v -8.270512 -2.239817 4.774982
v -4.774982 -2.239817 8.270512
v 0.000000 -2.239817 9.549964
v 4.774982 -2.239817 8.270512
v 8.270512 -2.239817 4.774982
v 9.549964 -2.239817 0.000000
v 0.000000 -0.646391 0.000000
v -6.492905 0.609255 3.748679
v -3.748679 0.576086 6.492905
v 0.000000 0.638464 7.497359
v 3.748679 0.510153 6.492905
v 6.492905 0.398195 3.748679
v 7.497359 0.310865 0.000000
v 6.492905 0.601263 -3.748679
v 3.748679 0.683100 -6.492905
v 0.000000 0.240744 -7.497359
v -3.748679 0.262396 -6.492905
v -6.492905 0.634649 -3.748679
v -7.497359 0.691217 0.000000
v -3.061656 1.741472 5.302945
v -0.063488 1.805243 5.799644
v 3.061656 1.360773 5.302945
v 5.302945 1.401548 3.061656
v 6.123313 1.459837 0.000000
v 5.302945 1.490767 -3.061656
v 2.824714 1.529409 -4.979275
v 0.000000 1.491026 -6.123313
v -3.061656 1.370935 -5.302945
v -5.066002 1.376593 -2.864964
v -6.123313 1.385710 0.000000
v -5.302945 1.535379 3.061656
v 1.194715 1.113260 -0.689768
v 2.657067 0.228502 -1.534058
v 1.534058 0.228502 -2.657067
v 0.689768 1.113260 -1.194715
v 0.000000 0.228502 -3.068116
v 0.000000 1.113260 -1.379536
v -1.534058 0.228502 -2.657067
v -0.689768 1.113260 -1.194715
v -2.657067 0.228502 -1.534058
v -1.194715 1.113260 -0.689768
v -3.068116 0.228502 0.000000
v -1.379536 1.113260 0.000000
v -2.657067 0.228502 1.534058
v -1.194715 1.113260 0.689768
v -1.534058 0.228502 2.657067
v -0.689768 1.113260 1.194715
v 0.000000 0.228502 3.068116
v 0.000000 1.113260 1.379536
v 1.534058 0.228502 2.657067
v 0.689768 1.113260 1.194715
v 2.657067 0.228502 1.534058
v 1.194715 1.113260 0.689768
v 3.068116 0.228502 -0.000000
v 1.379536 1.113260 -0.000000
v 0.000000 1.419558 0.000000
v -1.560478 -0.021059 1.652366
v 0.886547 -0.200098 3.353863
v -2.860893 -0.173532 -1.031055
v -6.029607 2.381636 5.015501
v -1.212845 2.029215 8.364754
v -8.589364 2.081511 -0.266586
v -5.288594 1.916212 -0.775296
v -3.360341 2.142294 3.203674
v 0.268101 1.876818 5.726648
v 2.235785 -0.021059 1.638669
v 4.217344 -0.200098 -0.587638
v -0.583736 -0.173532 2.609303
v 5.041114 2.381636 6.477461
v 8.941648 2.029215 2.095165
v -0.508874 2.081511 8.388073
v -0.619741 1.916212 5.050174
v 3.561037 2.142294 3.610918
v 6.499289 1.876818 0.309757
v -1.467398 -0.021059 -1.983718
v -3.275690 -0.200098 0.385480
v 1.271027 -0.173532 -3.163909
v -4.629129 2.381636 -6.597528
v -8.188598 2.029215 -1.933961
v 0.761231 2.081511 -8.920635
v 1.123131 1.916212 -5.600562
v -2.937400 2.142294 -3.850576
v -5.618730 1.876818 -0.337535
v 2.259001 -0.021059 -1.755024
v 0.173871 -0.200098 -3.884636
v 3.033935 -0.173532 1.124439
v 7.278837 2.381636 -4.221812
v 3.174434 2.029215 -8.413775
v 8.804227 2.081511 1.446168
v 5.466586 1.916212 1.327799
v 4.317514 2.142294 -2.941861
v 1.225690 1.876818 -6.099645
vt 0.529234 0.624112
vt 0.536874 0.619817
vt 0.527564 0.610753
vt 0.523152 0.618191
vt 0.514845 0.607435
vt 0.514845 0.616024
vt 0.502126 0.610753
vt 0.506537 0.618191
vt 0.492815 0.619817
vt 0.500456 0.624112
vt 0.489408 0.632199
vt 0.498230 0.632199
vt 0.492816 0.644581
vt 0.500456 0.640287
vt 0.502126 0.653645
vt 0.506537 0.646207
vt 0.514845 0.656963
vt 0.514845 0.648374
vt 0.527564 0.653645
vt 0.523152 0.646207
vt 0.536874 0.644581
vt 0.529234 0.640287
vt 0.540282 0.632199
vt 0.531459 0.632199
vt 0.515487 0.631476
vt 0.489567 0.646407
vt 0.484322 0.649355
vt 0.497222 0.661915
vt 0.500251 0.656808
vt 0.514845 0.660615
vt 0.514845 0.666512
vt 0.529439 0.656808
vt 0.532468 0.661915
vt 0.540123 0.646407
vt 0.545368 0.649355
vt 0.544033 0.632199
vt 0.550090 0.632199
vt 0.540123 0.617991
vt 0.545368 0.615043
vt 0.529439 0.607590
vt 0.532468 0.602483
vt 0.514845 0.603783
vt 0.514845 0.597886
vt 0.500251 0.607590
vt 0.497222 0.602484
vt 0.489567 0.617991
vt 0.484321 0.615043
vt 0.485657 0.632199
vt 0.479600 0.632199
vt 0.529234 0.624112
vt 0.536874 0.619817
vt 0.527564 0.610753
vt 0.523152 0.618191
vt 0.514845 0.607435
vt 0.514845 0.616024
vt 0.502126 0.610753
vt 0.506537 0.618191
vt 0.492815 0.619817
vt 0.500456 0.624112
vt 0.489408 0.632199
vt 0.498230 0.632199
vt 0.492816 0.644581
vt 0.500456 0.640287
vt 0.502126 0.653645
vt 0.506537 0.646207
vt 0.514845 0.656963
vt 0.514845 0.648374
vt 0.527564 0.653645
vt 0.523152 0.646207
vt 0.536874 0.644581
vt 0.529234 0.640287
vt 0.540282 0.632199
vt 0.531459 0.632199
vt 0.515487 0.631476
vt 0.489567 0.646407
vt 0.484322 0.649355
vt 0.497222 0.661915
vt 0.500251 0.656808
vt 0.514845 0.660615
vt 0.514845 0.666512
vt 0.529439 0.656808
vt 0.532468 0.661915
vt 0.540123 0.646407
vt 0.545368 0.649355
vt 0.544033 0.632199
vt 0.550090 0.632199
vt 0.540123 0.617991
vt 0.545368 0.615043
vt 0.529439 0.607590
vt 0.532468 0.602483
vt 0.514845 0.603783
vt 0.514845 0.597886
vt 0.500251 0.607590
vt 0.497222 0.602484
vt 0.489567 0.617991
vt 0.484321 0.615043
vt 0.485657 0.632199
vt 0.479600 0.632199
vt 0.519139 0.630147
vt 0.523199 0.627864
vt 0.519940 0.624691
vt 0.517595 0.628644
vt 0.515487 0.623529
vt 0.515487 0.628094
vt 0.511035 0.624691
vt 0.513380 0.628644
vt 0.507775 0.627864
vt 0.511836 0.630147
vt 0.506582 0.631528
vt 0.511272 0.632199
vt 0.507776 0.636533
vt 0.511836 0.634251
vt 0.511035 0.639707
vt 0.513380 0.635753
vt 0.515487 0.640868
vt 0.515487 0.636303
vt 0.519940 0.639706
vt 0.517595 0.635753
vt 0.523199 0.636533
vt 0.519139 0.634251
vt 0.524392 0.632199
vt 0.519703 0.632199
vt 0.515487 0.631835
vt 0.557907 0.632661
vt 0.571207 0.630787
vt 0.563404 0.606034
vt 0.554707 0.622152
vt 0.555450 0.641854
vt 0.566365 0.653056
vt 0.579470 0.657135
vt 0.584492 0.627397
vt 0.577262 0.602737
vt 0.557907 0.632661
vt 0.571207 0.630787
vt 0.563404 0.606034
vt 0.554707 0.622152
vt 0.555450 0.641854
vt 0.566365 0.653056
vt 0.579470 0.657135
vt 0.584492 0.627397
vt 0.577262 0.602737
vt 0.557907 0.632661
vt 0.571207 0.630787
vt 0.563404 0.606034
vt 0.554707 0.622152
vt 0.555450 0.641854
vt 0.566365 0.653056
vt 0.579470 0.657135
vt 0.584492 0.627397
vt 0.577262 0.602737
vt 0.557907 0.632661
vt 0.571207 0.630787
vt 0.563404 0.606034
vt 0.554707 0.622152
vt 0.555450 0.641854
vt 0.566365 0.653056
vt 0.579470 0.657135
vt 0.584492 0.627397
vt 0.577262 0.602737
vn 0.282698 -0.932508 -0.224748
vn 0.174973 -0.937118 -0.301983
vn -0.094858 -0.972713 0.211732
vn -0.232488 -0.966879 0.105328
vn 0.015972 -0.946504 -0.322295
vn 0.027465 -0.937668 0.346446
vn -0.145574 -0.954346 -0.260829
vn 0.159262 -0.940193 0.301120
vn -0.262086 -0.953165 -0.150954
vn 0.179495 -0.974385 0.135482
vn -0.303658 -0.952748 0.007901
vn 0.224543 -0.974361 0.014158
vn -0.278279 -0.942007 0.187576
vn 0.225438 -0.967438 -0.115075
vn -0.172501 -0.922342 0.345728
vn 0.151217 -0.957535 -0.245481
vn -0.021395 -0.918428 0.395009
vn -0.025495 -0.971259 -0.236655
vn 0.109745 -0.934992 0.337262
vn -0.171388 -0.959370 -0.224135
vn 0.271347 -0.941777 0.198562
vn -0.225748 -0.967468 -0.114207
vn 0.347026 -0.936624 -0.048053
vn -0.260161 -0.965232 -0.025378
vn -0.022918 -0.999718 -0.006141
vn 0.660776 -0.645437 -0.383126
vn 0.382301 -0.642384 -0.664220
vn 0.405696 -0.585410 -0.701931
vn 0.703065 -0.582701 -0.407626
vn -0.005236 -0.653442 -0.756959
vn -0.000856 -0.587826 -0.808987
vn -0.379673 -0.660731 -0.647520
vn -0.403673 -0.597515 -0.692838
vn -0.649378 -0.664727 -0.369387
vn -0.685516 -0.613092 -0.392666
vn -0.752683 -0.658359 -0.005620
vn -0.791301 -0.611420 -0.002743
vn -0.651456 -0.662999 0.368833
vn -0.699366 -0.593608 0.398141
vn -0.364113 -0.670638 0.646271
vn -0.397933 -0.594518 0.698712
vn 0.009167 -0.665538 0.746308
vn 0.005746 -0.618086 0.786090
vn 0.364438 -0.669978 0.646772
vn 0.387792 -0.619569 0.682460
vn 0.634709 -0.673505 0.378861
vn 0.694410 -0.593139 0.407407
vn 0.751423 -0.659819 0.001859
vn 0.815500 -0.578757 -0.000325
vn -0.282698 0.932508 0.224748
vn 0.232488 0.966879 -0.105328
vn 0.094858 0.972713 -0.211732
vn -0.174973 0.937118 0.301983
vn -0.027465 0.937668 -0.346446
vn -0.015972 0.946504 0.322295
vn -0.159262 0.940193 -0.301119
vn 0.145574 0.954346 0.260829
vn -0.179495 0.974385 -0.135482
vn 0.262086 0.953165 0.150954
vn -0.224543 0.974361 -0.014158
vn 0.303658 0.952748 -0.007901
vn -0.225438 0.967438 0.115075
vn 0.278279 0.942006 -0.187576
vn -0.151217 0.957535 0.245481
vn 0.172501 0.922342 -0.345728
vn 0.025495 0.971259 0.236655
vn 0.021395 0.918428 -0.395009
vn 0.171388 0.959370 0.224135
vn -0.109745 0.934992 -0.337262
vn 0.225748 0.967468 0.114207
vn -0.271347 0.941777 -0.198562
vn 0.260161 0.965232 0.025378
vn -0.347026 0.936624 0.048053
vn 0.022918 0.999718 0.006141
vn -0.660776 0.645437 0.383126
vn -0.703065 0.582701 0.407626
vn -0.405696 0.585410 0.701930
vn -0.382301 0.642384 0.664220
vn 0.005236 0.653442 0.756959
vn 0.000856 0.587826 0.808987
vn 0.379673 0.660731 0.647520
vn 0.403673 0.597515 0.692838
vn 0.649378 0.664727 0.369387
vn 0.685516 0.613092 0.392666
vn 0.752683 0.658359 0.005620
vn 0.791301 0.611420 0.002743
vn 0.651456 0.662999 -0.368833
vn 0.699366 0.593608 -0.398141
vn 0.364113 0.670638 -0.646271
vn 0.397933 0.594518 -0.698712
vn -0.009167 0.665538 -0.746308
vn -0.005746 0.618086 -0.786090
vn -0.364438 0.669978 -0.646772
vn -0.387792 0.619569 -0.682460
vn -0.634709 0.673505 -0.378861
vn -0.694410 0.593139 -0.407407
vn -0.751423 0.659819 -0.001859
vn -0.815500 0.578757 0.000325
vn 0.372745 0.902634 -0.215204
vn 0.401936 0.885775 -0.232058
vn 0.232058 0.885775 -0.401936
vn 0.215204 0.902634 -0.372745
vn 0.000000 0.885775 -0.464116
vn 0.000000 0.902634 -0.430409
vn -0.232058 0.885775 -0.401936
vn -0.215204 0.902634 -0.372745
vn -0.401936 0.885775 -0.232058
vn -0.372745 0.902634 -0.215204
vn -0.464116 0.885775 0.000000
vn -0.430409 0.902634 0.000000
vn -0.401936 0.885775 0.232058
vn -0.372745 0.902634 0.215204
vn -0.232058 0.885775 0.401936
vn -0.215204 0.902634 0.372745
vn 0.000000 0.885775 0.464116
vn 0.000000 0.902634 0.430409
vn 0.232058 0.885775 0.401936
vn 0.215204 0.902634 0.372745
vn 0.401936 0.885775 0.232058
vn 0.372745 0.902634 0.215204
vn 0.464116 0.885775 -0.000000
vn 0.430409 0.902634 -0.000000
vn 0.000000 1.000000 -0.000000
vn 0.514004 0.739426 -0.434798
vn 0.228752 0.955233 -0.187625
vn 0.222280 0.949902 -0.219722
vn 0.423378 0.733516 -0.531701
vn 0.595563 0.732295 -0.330225
vn 0.238045 0.956315 -0.169697
vn 0.038313 0.996433 -0.075184
vn 0.057378 0.997236 -0.047202
vn 0.081240 0.996623 -0.011967
vn -0.370300 0.739426 -0.562251
vn -0.158963 0.955233 -0.249523
vn -0.191603 0.949902 -0.246930
vn -0.477333 0.733516 -0.483847
vn -0.256736 0.732295 -0.630739
vn -0.140053 0.956315 -0.256608
vn -0.070070 0.996433 -0.047018
vn -0.040012 0.997236 -0.062605
vn -0.002180 0.996623 -0.082088
vn 0.411587 0.739426 0.532771
vn 0.177301 0.955233 0.236844
vn 0.209653 0.949902 0.231801
vn 0.512412 0.733516 0.446530
vn 0.303502 0.732295 0.609615
vn 0.158978 0.956315 0.245333
vn 0.073411 0.996433 0.041608
vn 0.044612 0.997236 0.059414
vn 0.008355 0.996623 0.081690
vn -0.586329 0.739426 0.330858
vn -0.259840 0.955233 0.141472
vn -0.259492 0.949902 0.174213
vn -0.515452 0.733516 0.443018
vn -0.646864 0.732295 0.212863
vn -0.265611 0.956315 0.122120
vn -0.051714 0.996433 0.066679
vn -0.065202 0.997236 0.035623
vn -0.082044 0.996623 -0.003457
f 1/1/1 4/4/2 3/3/3 2/2/4
f 4/4/2 6/6/5 5/5/6 3/3/3
f 6/6/5 8/8/7 7/7/8 5/5/6
f 8/8/7 10/10/9 9/9/10 7/7/8
f 10/10/9 12/12/11 11/11/12 9/9/10
f 12/12/11 14/14/13 13/13/14 11/11/12
f 14/14/13 16/16/15 15/15/16 13/13/14
f 16/16/15 18/18/17 17/17/18 15/15/16
f 18/18/17 20/20/19 19/19/20 17/17/18
f 20/20/19 22/22/21 21/21/22 19/19/20
f 22/22/21 24/24/23 23/23/24 21/21/22
f 24/24/23 1/1/1 2/2/4 23/23/24
f 4/4/2 1/1/1 25/25/25
f 6/6/5 4/4/2 25/25/25
f 8/8/7 6/6/5 25/25/25
f 10/10/9 8/8/7 25/25/25
f 12/12/11 10/10/9 25/25/25
f 14/14/13 12/12/11 25/25/25
f 16/16/15 14/14/13 25/25/25
f 18/18/17 16/16/15 25/25/25
f 20/20/19 18/18/17 25/25/25
f 22/22/21 20/20/19 25/25/25
f 24/24/23 22/22/21 25/25/25
f 1/1/1 24/24/23 25/25/25
f 26/26/26 29/29/27 28/28/28 27/27/29
f 30/30/30 31/31/31 28/28/28 29/29/27
f 32/32/32 33/33/33 31/31/31 30/30/30
f 34/34/34 35/35/35 33/33/33 32/32/32
f 36/36/36 37/37/37 35/35/35 34/34/34
f 38/38/38 39/39/39 37/37/37 36/36/36
f 40/40/40 41/41/41 39/39/39 38/38/38
f 42/42/42 43/43/43 41/41/41 40/40/40
f 44/44/44 45/45/45 43/43/43 42/42/42
f 46/46/46 47/47/47 45/45/45 44/44/44
f 48/48/48 49/49/49 47/47/47 46/46/46
f 26/26/26 27/27/29 49/49/49 48/48/48
f 15/15/16 17/17/18 30/30/30 29/29/27
f 19/19/20 32/32/32 30/30/30 17/17/18
f 21/21/22 34/34/34 32/32/32 19/19/20
f 23/23/24 36/36/36 34/34/34 21/21/22
f 2/2/4 38/38/38 36/36/36 23/23/24
f 3/3/3 40/40/40 38/38/38 2/2/4
f 5/5/6 42/42/42 40/40/40 3/3/3
f 7/7/8 44/44/44 42/42/42 5/5/6
f 9/9/10 46/46/46 44/44/44 7/7/8
f 11/11/12 48/48/48 46/46/46 9/9/10
f 13/13/14 26/26/26 48/48/48 11/11/12
f 15/15/16 29/29/27 26/26/26 13/13/14
f 50/50/50 92/51/51 93/52/52 51/53/53
f 51/53/53 93/52/52 94/54/54 52/55/55
f 52/55/55 94/54/54 95/56/56 53/57/57
f 53/57/57 95/56/56 96/58/58 54/59/59
f 54/59/59 96/58/58 97/60/60 55/61/61
f 55/61/61 97/60/60 98/62/62 56/63/63
f 56/63/63 98/62/62 87/64/64 57/65/65
f 57/65/65 87/64/64 88/66/66 58/67/67
f 58/67/67 88/66/66 89/68/68 59/69/69
f 59/69/69 89/68/68 90/70/70 60/71/71
f 60/71/71 90/70/70 91/72/72 61/73/73
f 61/73/73 91/72/72 92/51/51 50/50/50
f 51/53/53 74/74/74 50/50/50
f 52/55/55 74/74/74 51/53/53
f 53/57/57 74/74/74 52/55/55
f 54/59/59 74/74/74 53/57/57
f 55/61/61 74/74/74 54/59/59
f 56/63/63 74/74/74 55/61/61
f 57/65/65 74/74/74 56/63/63
f 58/67/67 74/74/74 57/65/65
f 59/69/69 74/74/74 58/67/67
f 60/71/71 74/74/74 59/69/69
f 61/73/73 74/74/74 60/71/71
f 50/50/50 74/74/74 61/73/73
f 75/75/75 68/76/76 69/77/77 76/78/78
f 77/79/79 76/78/78 69/77/77 70/80/80
f 78/81/81 77/79/79 70/80/80 71/82/82
f 79/83/83 78/81/81 71/82/82 72/84/84
f 80/85/85 79/83/83 72/84/84 73/86/86
f 81/87/87 80/85/85 73/86/86 62/88/88
f 82/89/89 81/87/87 62/88/88 63/90/90
f 83/91/91 82/89/89 63/90/90 64/92/92
f 84/93/93 83/91/91 64/92/92 65/94/94
f 85/95/95 84/93/93 65/94/94 66/96/96
f 86/97/97 85/95/95 66/96/96 67/98/98
f 75/75/75 86/97/97 67/98/98 68/76/76
f 87/64/64 76/78/78 77/79/79 88/66/66
f 89/68/68 88/66/66 77/79/79 78/81/81
f 90/70/70 89/68/68 78/81/81 79/83/83
f 91/72/72 90/70/70 79/83/83 80/85/85
f 92/51/51 91/72/72 80/85/85 81/87/87
f 93/52/52 92/51/51 81/87/87 82/89/89
f 94/54/54 93/52/52 82/89/89 83/91/91
f 95/56/56 94/54/54 83/91/91 84/93/93
f 96/58/58 95/56/56 84/93/93 85/95/95
f 97/60/60 96/58/58 85/95/95 86/97/97
f 98/62/62 97/60/60 86/97/97 75/75/75
f 87/64/64 98/62/62 75/75/75 76/78/78
f 99/99/99 100/100/100 101/101/101 102/102/102
f 102/102/102 101/101/101 103/103/103 104/104/104
f 104/104/104 103/103/103 105/105/105 106/106/106
f 106/106/106 105/105/105 107/107/107 108/108/108
f 108/108/108 107/107/107 109/109/109 110/110/110
f 110/110/110 109/109/109 111/111/111 112/112/112
f 112/112/112 111/111/111 113/113/113 114/114/114
f 114/114/114 113/113/113 115/115/115 116/116/116
f 116/116/116 115/115/115 117/117/117 118/118/118
f 118/118/118 117/117/117 119/119/119 120/120/120
f 120/120/120 119/119/119 121/121/121 122/122/122
f 122/122/122 121/121/121 100/100/100 99/99/99
f 102/102/102 123/123/123 99/99/99
f 104/104/104 123/123/123 102/102/102
f 106/106/106 123/123/123 104/104/104
f 108/108/108 123/123/123 106/106/106
f 110/110/110 123/123/123 108/108/108
f 112/112/112 123/123/123 110/110/110
f 114/114/114 123/123/123 112/112/112
f 116/116/116 123/123/123 114/114/114
f 118/118/118 123/123/123 116/116/116
f 120/120/120 123/123/123 118/118/118
f 122/122/122 123/123/123 120/120/120
f 99/99/99 123/123/123 122/122/122
f 124/124/124 131/125/125 132/126/126 125/127/127
f 126/128/128 130/129/129 131/125/125 124/124/124
f 130/129/129 129/130/130 127/131/131 131/125/125
f 132/126/126 131/125/125 127/131/131 128/132/132
f 133/133/133 140/134/134 141/135/135 134/136/136
f 135/137/137 139/138/138 140/134/134 133/133/133
f 139/138/138 138/139/139 136/140/140 140/134/134
f 141/135/135 140/134/134 136/140/140 137/141/141
f 142/142/142 149/143/143 150/144/144 143/145/145
f 144/146/146 148/147/147 149/143/143 142/142/142
f 148/147/147 147/148/148 145/149/149 149/143/143
f 150/144/144 149/143/143 145/149/149 146/150/150
f 151/151/151 158/152/152 159/153/153 152/154/154
f 153/155/155 157/156/156 158/152/152 151/151/151
f 157/156/156 156/157/157 154/158/158 158/152/152
f 159/153/153 158/152/152 154/158/158 155/159/159
