# This file uses meters as units for non-parametric coordinates.

v 3.898030 0.979454 -2.250529
v 2.250529 0.979454 -3.898030
v 0.000000 0.979454 -4.501058
v -2.250529 0.979454 -3.898030
v -3.898030 0.979454 -2.250529
v -4.501058 0.979454 0.000000
v -3.898030 0.979454 2.250529
v -2.250529 0.979454 3.898030
v 0.000000 0.979454 4.501058
v 2.250529 0.979454 3.898030
v 3.898030 0.626637 2.250529
v 4.501058 0.626637 0.000000
v 8.270512 -2.238979 -4.774982
v 4.774982 -2.238979 -8.270512
v 0.000000 -2.238979 -9.549964
v -4.774982 -2.238979 -8.270512
v -8.270512 -2.238979 -4.774982
v -9.549964 -2.238979 0.000000
v -8.270512 -2.238979 4.774982
v -4.774982 -2.238979 8.270512
v 0.000000 -2.238979 9.549964
v 4.774982 -2.238979 8.270512
v 8.270512 -2.238979 4.774982
v 9.549964 -2.238979 0.000000
v 0.000000 -0.645554 0.000000
v -6.492905 0.610092 3.748679
v -3.748679 0.576923 6.492905
v 0.000000 0.639301 7.497359
v 3.748679 0.510990 6.492905
v 6.492905 0.399033 3.748679
v 7.497359 0.311703 0.000000
v 6.492905 0.602100 -3.748679
v 3.748679 0.683937 -6.492905
v 0.000000 0.241581 -7.497359
v -3.748679 0.263233 -6.492905
v -6.492905 0.635487 -3.748679
v -7.497359 0.692055 0.000000
v -3.061656 1.742310 5.302945
v -0.063488 1.806080 5.799644
v 3.061656 1.361610 5.302945
v 5.302945 1.402386 3.061656
v 6.123313 1.460674 0.000000
v 5.302945 1.491604 -3.061656
v 2.824714 1.530247 -4.979275
v 0.000000 1.491863 -6.123313
v -3.061656 1.371773 -5.302945
v -5.066002 1.377430 -2.864964
v -6.123313 1.386547 0.000000
v -5.302945 1.536217 3.061656
v 1.194715 1.114098 -0.689768
v 2.657067 0.229340 -1.534058
v 1.534058 0.229340 -2.657067
v 0.689768 1.114098 -1.194715
v 0.000000 0.229340 -3.068116
v 0.000000 1.114098 -1.379536
v -1.534058 0.229340 -2.657067
v -0.689768 1.114098 -1.194715
v -2.657067 0.229340 -1.534058
v -1.194715 1.114098 -0.689768
v -3.068116 0.229340 0.000000
v -1.379536 1.114098 0.000000
v -2.657067 0.229340 1.534058
v -1.194715 1.114098 0.689768
v -1.534058 0.229340 2.657067
v -0.689768 1.114098 1.194715
v 0.000000 0.229340 3.068116
v 0.000000 1.114098 1.379536
v 1.534058 0.229340 2.657067
v 0.689768 1.114098 1.194715
v 2.657067 0.229340 1.534058
v 1.194715 1.114098 0.689768
v 3.068116 0.229340 -0.000000
v 1.379536 1.114098 -0.000000
v 0.000000 1.420395 0.000000
v -1.560478 -0.020222 1.652366
v 0.886547 -0.199261 3.353863
v -2.860893 -0.172695 -1.031055
v -6.029607 2.382473 5.015501
v -1.212845 2.030052 8.364754
v -8.589364 2.082348 -0.266586
v -5.288594 1.917049 -0.775296
v -3.360341 2.143131 3.203674
v 0.268101 1.877655 5.726648
v 2.235785 -0.020222 1.638669
v 4.217344 -0.199261 -0.587638
v -0.583736 -0.172695 2.609303
v 5.041114 2.382473 6.477461
v 8.941648 2.030052 2.095165
v -0.508874 2.082348 8.388073
v -0.619741 1.917049 5.050174
v 3.561037 2.143131 3.610918
v 6.499289 1.877655 0.309757
v -1.467398 -0.020222 -1.983718
v -3.275689 -0.199261 0.385480
v 1.271027 -0.172695 -3.163909
v -4.629129 2.382473 -6.597528
v -8.188598 2.030052 -1.933961
v 0.761231 2.082348 -8.920635
v 1.123131 1.917049 -5.600562
v -2.937400 2.143131 -3.850576
v -5.618730 1.877655 -0.337535
v 2.259001 -0.020222 -1.755024
v 0.173871 -0.199261 -3.884636
v 3.033935 -0.172695 1.124439
v 7.278837 2.382473 -4.221812
v 3.174434 2.030052 -8.413775
v 8.804227 2.082348 1.446168
v 5.466586 1.917049 1.327799
v 4.317514 2.143131 -2.941861
v 1.225690 1.877655 -6.099645
v 3.898030 0.835957 -2.250529
v 5.302945 1.348110 -3.061656
v 2.824714 1.386753 -4.979275
v 2.250529 0.835957 -3.898030
v 0.000000 1.348370 -6.123313
v 0.000000 0.835957 -4.501058
v -3.061656 1.228275 -5.302945
v -2.250529 0.835957 -3.898030
v -5.066002 1.233936 -2.864964
v -3.898030 0.835957 -2.250529
v -6.123313 1.243053 -0.000000
v -4.501058 0.835957 0.000000
v -5.302945 1.392719 3.061656
v -3.898030 0.835957 2.250529
v -3.061656 1.598812 5.302945
v -2.250529 0.835957 3.898030
v -0.063488 1.662586 5.799644
v 0.000000 0.835957 4.501058
v 3.061656 1.218113 5.302945
v 2.250529 0.835957 3.898030
v 5.302945 1.258892 3.061656
v 3.898030 0.483143 2.250529
v 6.123313 1.317181 0.000000
v 4.501058 0.483143 0.000000
v 0.000000 -0.789051 -0.000000
v -6.492905 0.466595 3.748679
v -8.270512 -2.382473 4.774982
v -4.774982 -2.382473 8.270512
v -3.748679 0.433430 6.492905
v 0.000000 0.495808 7.497359
v 0.000000 -2.382473 9.549964
v 3.748679 0.367496 6.492905
v 4.774982 -2.382473 8.270512
v 6.492905 0.255535 3.748679
v 8.270512 -2.382473 4.774982
v 7.497359 0.168209 -0.000000
v 9.549964 -2.382473 -0.000000
v 6.492905 0.458607 -3.748679
v 8.270512 -2.382473 -4.774982
v 3.748679 0.540440 -6.492905
v 4.774982 -2.382473 -8.270512
v 0.000000 0.098087 -7.497359
v 0.000000 -2.382473 -9.549964
v -3.748679 0.119740 -6.492905
v -4.774982 -2.382473 -8.270512
v -6.492905 0.491993 -3.748679
v -8.270512 -2.382473 -4.774982
v -7.497359 0.548557 0.000000
v -9.549964 -2.382473 0.000000
vt 0.423767 0.767859
vt 0.427263 0.765894
vt 0.417997 0.756873
vt 0.415979 0.760277
vt 0.405340 0.753572
vt 0.405340 0.757502
vt 0.392683 0.756874
vt 0.394701 0.760277
vt 0.383417 0.765894
vt 0.386913 0.767859
vt 0.380026 0.778216
vt 0.384062 0.778216
vt 0.383417 0.790538
vt 0.386913 0.788574
vt 0.392683 0.799559
vt 0.394701 0.796156
vt 0.405340 0.802861
vt 0.405340 0.798931
vt 0.417997 0.799559
vt 0.415979 0.796156
vt 0.427263 0.790538
vt 0.423767 0.788574
vt 0.430654 0.778216
vt 0.426618 0.778216
vt 0.405340 0.778142
vt 0.380185 0.792355
vt 0.374965 0.795290
vt 0.387803 0.807788
vt 0.390816 0.802706
vt 0.405340 0.806495
vt 0.405340 0.812363
vt 0.419864 0.802706
vt 0.422877 0.807788
vt 0.430496 0.792355
vt 0.435716 0.795289
vt 0.434387 0.778216
vt 0.440415 0.778216
vt 0.430496 0.764077
vt 0.435715 0.761143
vt 0.419864 0.753726
vt 0.422877 0.748644
vt 0.405340 0.749938
vt 0.405340 0.744069
vt 0.390816 0.753726
vt 0.387802 0.748645
vt 0.380184 0.764077
vt 0.374964 0.761143
vt 0.376293 0.778216
vt 0.370265 0.778216
vt 0.410557 0.776243
vt 0.416360 0.772981
vt 0.411703 0.768446
vt 0.408352 0.774096
vt 0.405340 0.766787
vt 0.405340 0.773310
vt 0.398978 0.768446
vt 0.402328 0.774096
vt 0.394320 0.772981
vt 0.400123 0.776243
vt 0.392615 0.778216
vt 0.399316 0.779175
vt 0.394320 0.785369
vt 0.400123 0.782107
vt 0.398978 0.789903
vt 0.402328 0.784254
vt 0.405340 0.791563
vt 0.405340 0.785040
vt 0.411703 0.789903
vt 0.408352 0.784254
vt 0.416360 0.785369
vt 0.410557 0.782107
vt 0.418065 0.779175
vt 0.411364 0.779175
vt 0.405340 0.778656
vt 0.449774 0.825646
vt 0.460471 0.824320
vt 0.453807 0.807700
vt 0.446162 0.819017
vt 0.445878 0.836811
vt 0.456563 0.842992
vt 0.467311 0.847171
vt 0.472641 0.822218
vt 0.465103 0.804471
vt 0.449774 0.825646
vt 0.460471 0.824320
vt 0.453807 0.807700
vt 0.446162 0.819017
vt 0.445878 0.836811
vt 0.456563 0.842992
vt 0.467311 0.847171
vt 0.472641 0.822218
vt 0.465103 0.804471
vt 0.449774 0.825646
vt 0.460471 0.824320
vt 0.453807 0.807700
vt 0.446162 0.819017
vt 0.445878 0.836811
vt 0.456563 0.842992
vt 0.467311 0.847171
vt 0.472641 0.822218
vt 0.465103 0.804471
vt 0.449774 0.825646
vt 0.460471 0.824320
vt 0.453807 0.807700
vt 0.446162 0.819017
vt 0.445878 0.836811
vt 0.456563 0.842992
vt 0.467311 0.847171
vt 0.472641 0.822218
vt 0.465103 0.804471
vt 0.423767 0.767859
vt 0.415979 0.760277
vt 0.417997 0.756873
vt 0.427263 0.765894
vt 0.405340 0.757502
vt 0.405340 0.753572
vt 0.394701 0.760277
vt 0.392683 0.756874
vt 0.386913 0.767859
vt 0.383417 0.765894
vt 0.384062 0.778216
vt 0.380026 0.778216
vt 0.386913 0.788574
vt 0.383417 0.790538
vt 0.394701 0.796156
vt 0.392683 0.799559
vt 0.405340 0.798931
vt 0.405340 0.802861
vt 0.415979 0.796156
vt 0.417997 0.799559
vt 0.423767 0.788574
vt 0.427263 0.790538
vt 0.426618 0.778216
vt 0.430654 0.778216
vt 0.405340 0.778142
vt 0.380185 0.792355
vt 0.390816 0.802706
vt 0.387803 0.807788
vt 0.374965 0.795290
vt 0.405340 0.806495
vt 0.405340 0.812363
vt 0.419864 0.802706
vt 0.422877 0.807788
vt 0.430496 0.792355
vt 0.435716 0.795289
vt 0.434387 0.778216
vt 0.440415 0.778216
vt 0.430496 0.764077
vt 0.435715 0.761143
vt 0.419864 0.753726
vt 0.422877 0.748644
vt 0.405340 0.749938
vt 0.405340 0.744069
vt 0.390816 0.753726
vt 0.387802 0.748645
vt 0.380184 0.764077
vt 0.374964 0.761143
vt 0.376293 0.778216
vt 0.370265 0.778216
vn -0.282698 0.932508 0.224748
vn 0.232488 0.966879 -0.105328
vn 0.094858 0.972713 -0.211732
vn -0.174973 0.937118 0.301983
vn -0.027465 0.937668 -0.346446
vn -0.015972 0.946504 0.322295
vn -0.159262 0.940193 -0.301119
vn 0.145574 0.954346 0.260829
vn -0.179495 0.974385 -0.135482
vn 0.262086 0.953165 0.150954
vn -0.224543 0.974361 -0.014158
vn 0.303658 0.952748 -0.007901
vn -0.225438 0.967438 0.115075
vn 0.278279 0.942006 -0.187576
vn -0.151217 0.957535 0.245481
vn 0.172501 0.922342 -0.345728
vn 0.025495 0.971259 0.236655
vn 0.021395 0.918428 -0.395009
vn 0.171388 0.959370 0.224135
vn -0.109745 0.934992 -0.337262
vn 0.225748 0.967468 0.114207
vn -0.271347 0.941777 -0.198562
vn 0.260161 0.965232 0.025378
vn -0.347026 0.936624 0.048053
vn 0.022918 0.999718 0.006141
vn -0.660776 0.645437 0.383126
vn -0.703065 0.582701 0.407626
vn -0.405696 0.585410 0.701931
vn -0.382301 0.642384 0.664220
vn 0.005236 0.653442 0.756959
vn 0.000856 0.587826 0.808987
vn 0.379673 0.660731 0.647520
vn 0.403673 0.597515 0.692838
vn 0.649378 0.664727 0.369387
vn 0.685516 0.613092 0.392666
vn 0.752683 0.658359 0.005620
vn 0.791301 0.611420 0.002743
vn 0.651456 0.662999 -0.368833
vn 0.699366 0.593608 -0.398141
vn 0.364113 0.670638 -0.646271
vn 0.397933 0.594518 -0.698712
vn -0.009167 0.665538 -0.746308
vn -0.005746 0.618086 -0.786090
vn -0.364438 0.669978 -0.646772
vn -0.387792 0.619569 -0.682460
vn -0.634709 0.673505 -0.378861
vn -0.694410 0.593139 -0.407407
vn -0.751423 0.659819 -0.001859
vn -0.815500 0.578757 0.000325
vn 0.372745 0.902634 -0.215204
vn 0.401936 0.885775 -0.232058
vn 0.232058 0.885775 -0.401936
vn 0.215204 0.902634 -0.372745
vn 0.000000 0.885775 -0.464116
vn 0.000000 0.902634 -0.430409
vn -0.232058 0.885775 -0.401936
vn -0.215204 0.902634 -0.372745
vn -0.401936 0.885775 -0.232058
vn -0.372745 0.902634 -0.215204
vn -0.464116 0.885775 0.000000
vn -0.430409 0.902634 0.000000
vn -0.401936 0.885775 0.232058
vn -0.372745 0.902634 0.215204
vn -0.232058 0.885775 0.401936
vn -0.215204 0.902634 0.372745
vn 0.000000 0.885775 0.464116
vn 0.000000 0.902634 0.430409
vn 0.232058 0.885775 0.401936
vn 0.215204 0.902634 0.372745
vn 0.401936 0.885775 0.232058
vn 0.372745 0.902634 0.215204
vn 0.464116 0.885775 0.000000
vn 0.430409 0.902634 0.000000
vn 0.000000 1.000000 0.000000
vn 0.514004 0.739426 -0.434798
vn 0.228752 0.955233 -0.187625
vn 0.222280 0.949902 -0.219722
vn 0.423378 0.733516 -0.531701
vn 0.595563 0.732295 -0.330225
vn 0.238045 0.956315 -0.169697
vn 0.038313 0.996433 -0.075184
vn 0.057378 0.997236 -0.047202
vn 0.081240 0.996623 -0.011967
vn -0.370300 0.739426 -0.562251
vn -0.158963 0.955233 -0.249523
vn -0.191603 0.949902 -0.246930
vn -0.477333 0.733516 -0.483847
vn -0.256736 0.732295 -0.630739
vn -0.140053 0.956315 -0.256608
vn -0.070070 0.996433 -0.047018
vn -0.040012 0.997236 -0.062605
vn -0.002180 0.996623 -0.082087
vn 0.411587 0.739426 0.532771
vn 0.177301 0.955233 0.236844
vn 0.209653 0.949902 0.231801
vn 0.512412 0.733516 0.446530
vn 0.303502 0.732295 0.609615
vn 0.158978 0.956315 0.245333
vn 0.073411 0.996433 0.041608
vn 0.044612 0.997236 0.059414
vn 0.008355 0.996623 0.081690
vn -0.586329 0.739426 0.330858
vn -0.259840 0.955233 0.141472
vn -0.259492 0.949902 0.174213
vn -0.515452 0.733516 0.443018
vn -0.646864 0.732295 0.212863
vn -0.265611 0.956315 0.122120
vn -0.051714 0.996433 0.066679
vn -0.065202 0.997236 0.035623
vn -0.082044 0.996623 -0.003457
vn 0.282699 -0.932507 -0.224748
vn 0.174974 -0.937118 -0.301984
vn -0.094858 -0.972713 0.211732
vn -0.232487 -0.966879 0.105328
vn 0.015972 -0.946504 -0.322296
vn 0.027465 -0.937668 0.346445
vn -0.145574 -0.954346 -0.260829
vn 0.159261 -0.940193 0.301119
vn -0.262087 -0.953165 -0.150954
vn 0.179494 -0.974385 0.135482
vn -0.303659 -0.952748 0.007901
vn 0.224543 -0.974361 0.014158
vn -0.278279 -0.942006 0.187576
vn 0.225438 -0.967438 -0.115075
vn -0.172501 -0.922342 0.345729
vn 0.151217 -0.957535 -0.245480
vn -0.021395 -0.918428 0.395009
vn -0.025495 -0.971260 -0.236654
vn 0.109746 -0.934992 0.337262
vn -0.171388 -0.959370 -0.224135
vn 0.271348 -0.941777 0.198562
vn -0.225748 -0.967468 -0.114208
vn 0.347027 -0.936623 -0.048053
vn -0.260161 -0.965232 -0.025379
vn -0.022918 -0.999719 -0.006141
vn 0.660776 -0.645438 -0.383126
vn 0.382301 -0.642385 -0.664220
vn 0.405696 -0.585410 -0.701930
vn 0.703065 -0.582702 -0.407626
vn -0.005236 -0.653442 -0.756959
vn -0.000856 -0.587826 -0.808987
vn -0.379673 -0.660732 -0.647520
vn -0.403673 -0.597515 -0.692838
vn -0.649378 -0.664727 -0.369387
vn -0.685516 -0.613092 -0.392666
vn -0.752683 -0.658359 -0.005620
vn -0.791301 -0.611421 -0.002743
vn -0.651456 -0.662999 0.368833
vn -0.699366 -0.593609 0.398142
vn -0.364113 -0.670638 0.646271
vn -0.397933 -0.594518 0.698712
vn 0.009166 -0.665538 0.746308
vn 0.005745 -0.618086 0.786090
vn 0.364438 -0.669979 0.646772
vn 0.387792 -0.619569 0.682460
vn 0.634709 -0.673505 0.378861
vn 0.694410 -0.593140 0.407407
vn 0.751423 -0.659819 0.001859
vn 0.815500 -0.578757 -0.000325
f 1/1/1 43/2/2 44/3/3 2/4/4
f 2/4/4 44/3/3 45/5/5 3/6/6
f 3/6/6 45/5/5 46/7/7 4/8/8
f 4/8/8 46/7/7 47/9/9 5/10/10
f 5/10/10 47/9/9 48/11/11 6/12/12
f 6/12/12 48/11/11 49/13/13 7/14/14
f 7/14/14 49/13/13 38/15/15 8/16/16
f 8/16/16 38/15/15 39/17/17 9/18/18
f 9/18/18 39/17/17 40/19/19 10/20/20
f 10/20/20 40/19/19 41/21/21 11/22/22
f 11/22/22 41/21/21 42/23/23 12/24/24
f 12/24/24 42/23/23 43/2/2 1/1/1
f 2/4/4 25/25/25 1/1/1
f 3/6/6 25/25/25 2/4/4
f 4/8/8 25/25/25 3/6/6
f 5/10/10 25/25/25 4/8/8
f 6/12/12 25/25/25 5/10/10
f 7/14/14 25/25/25 6/12/12
f 8/16/16 25/25/25 7/14/14
f 9/18/18 25/25/25 8/16/16
f 10/20/20 25/25/25 9/18/18
f 11/22/22 25/25/25 10/20/20
f 12/24/24 25/25/25 11/22/22
f 1/1/1 25/25/25 12/24/24
f 26/26/26 19/27/27 20/28/28 27/29/29
f 28/30/30 27/29/29 20/28/28 21/31/31
f 29/32/32 28/30/30 21/31/31 22/33/33
f 30/34/34 29/32/32 22/33/33 23/35/35
f 31/36/36 30/34/34 23/35/35 24/37/37
f 32/38/38 31/36/36 24/37/37 13/39/39
f 33/40/40 32/38/38 13/39/39 14/41/41
f 34/42/42 33/40/40 14/41/41 15/43/43
f 35/44/44 34/42/42 15/43/43 16/45/45
f 36/46/46 35/44/44 16/45/45 17/47/47
f 37/48/48 36/46/46 17/47/47 18/49/49
f 26/26/26 37/48/48 18/49/49 19/27/27
f 38/15/15 27/29/29 28/30/30 39/17/17
f 40/19/19 39/17/17 28/30/30 29/32/32
f 41/21/21 40/19/19 29/32/32 30/34/34
f 42/23/23 41/21/21 30/34/34 31/36/36
f 43/2/2 42/23/23 31/36/36 32/38/38
f 44/3/3 43/2/2 32/38/38 33/40/40
f 45/5/5 44/3/3 33/40/40 34/42/42
f 46/7/7 45/5/5 34/42/42 35/44/44
f 47/9/9 46/7/7 35/44/44 36/46/46
f 48/11/11 47/9/9 36/46/46 37/48/48
f 49/13/13 48/11/11 37/48/48 26/26/26
f 38/15/15 49/13/13 26/26/26 27/29/29
f 50/50/50 51/51/51 52/52/52 53/53/53
f 53/53/53 52/52/52 54/54/54 55/55/55
f 55/55/55 54/54/54 56/56/56 57/57/57
f 57/57/57 56/56/56 58/58/58 59/59/59
f 59/59/59 58/58/58 60/60/60 61/61/61
f 61/61/61 60/60/60 62/62/62 63/63/63
f 63/63/63 62/62/62 64/64/64 65/65/65
f 65/65/65 64/64/64 66/66/66 67/67/67
f 67/67/67 66/66/66 68/68/68 69/69/69
f 69/69/69 68/68/68 70/70/70 71/71/71
f 71/71/71 70/70/70 72/72/72 73/73/73
f 73/73/73 72/72/72 51/51/51 50/50/50
f 53/53/53 74/74/74 50/50/50
f 55/55/55 74/74/74 53/53/53
f 57/57/57 74/74/74 55/55/55
f 59/59/59 74/74/74 57/57/57
f 61/61/61 74/74/74 59/59/59
f 63/63/63 74/74/74 61/61/61
f 65/65/65 74/74/74 63/63/63
f 67/67/67 74/74/74 65/65/65
f 69/69/69 74/74/74 67/67/67
f 71/71/71 74/74/74 69/69/69
f 73/73/73 74/74/74 71/71/71
f 50/50/50 74/74/74 73/73/73
f 75/75/75 82/76/76 83/77/77 76/78/78
f 77/79/79 81/80/80 82/76/76 75/75/75
f 81/80/80 80/81/81 78/82/82 82/76/76
f 83/77/77 82/76/76 78/82/82 79/83/83
f 84/84/84 91/85/85 92/86/86 85/87/87
f 86/88/88 90/89/89 91/85/85 84/84/84
f 90/89/89 89/90/90 87/91/91 91/85/85
f 92/86/86 91/85/85 87/91/91 88/92/92
f 93/93/93 100/94/94 101/95/95 94/96/96
f 95/97/97 99/98/98 100/94/94 93/93/93
f 99/98/98 98/99/99 96/100/100 100/94/94
f 101/95/95 100/94/94 96/100/100 97/101/101
f 102/102/102 109/103/103 110/104/104 103/105/105
f 104/106/106 108/107/107 109/103/103 102/102/102
f 108/107/107 107/108/108 105/109/109 109/103/103
f 110/104/104 109/103/103 105/109/109 106/110/110
f 111/111/111 114/112/112 113/113/113 112/114/114
f 114/112/112 116/115/115 115/116/116 113/113/113
f 116/115/115 118/117/117 117/118/118 115/116/116
f 118/117/117 120/119/119 119/120/120 117/118/118
f 120/119/119 122/121/121 121/122/122 119/120/120
f 122/121/121 124/123/123 123/124/124 121/122/122
f 124/123/123 126/125/125 125/126/126 123/124/124
f 126/125/125 128/127/127 127/128/128 125/126/126
f 128/127/127 130/129/129 129/130/130 127/128/128
f 130/129/129 132/131/131 131/132/132 129/130/130
f 132/131/131 134/133/133 133/134/134 131/132/132
f 134/133/133 111/111/111 112/114/114 133/134/134
f 114/112/112 111/111/111 135/135/135
f 116/115/115 114/112/112 135/135/135
f 118/117/117 116/115/115 135/135/135
f 120/119/119 118/117/117 135/135/135
f 122/121/121 120/119/119 135/135/135
f 124/123/123 122/121/121 135/135/135
f 126/125/125 124/123/123 135/135/135
f 128/127/127 126/125/125 135/135/135
f 130/129/129 128/127/127 135/135/135
f 132/131/131 130/129/129 135/135/135
f 134/133/133 132/131/131 135/135/135
f 111/111/111 134/133/133 135/135/135
f 136/136/136 139/137/137 138/138/138 137/139/139
f 140/140/140 141/141/141 138/138/138 139/137/137
f 142/142/142 143/143/143 141/141/141 140/140/140
f 144/144/144 145/145/145 143/143/143 142/142/142
f 146/146/146 147/147/147 145/145/145 144/144/144
f 148/148/148 149/149/149 147/147/147 146/146/146
f 150/150/150 151/151/151 149/149/149 148/148/148
f 152/152/152 153/153/153 151/151/151 150/150/150
f 154/154/154 155/155/155 153/153/153 152/152/152
f 156/156/156 157/157/157 155/155/155 154/154/154
f 158/158/158 159/159/159 157/157/157 156/156/156
f 136/136/136 137/139/139 159/159/159 158/158/158
f 125/126/126 127/128/128 140/140/140 139/137/137
f 129/130/130 142/142/142 140/140/140 127/128/128
f 131/132/132 144/144/144 142/142/142 129/130/130
f 133/134/134 146/146/146 144/144/144 131/132/132
f 112/114/114 148/148/148 146/146/146 133/134/134
f 113/113/113 150/150/150 148/148/148 112/114/114
f 115/116/116 152/152/152 150/150/150 113/113/113
f 117/118/118 154/154/154 152/152/152 115/116/116
f 119/120/120 156/156/156 154/154/154 117/118/118
f 121/122/122 158/158/158 156/156/156 119/120/120
f 123/124/124 136/136/136 158/158/158 121/122/122
f 125/126/126 139/137/137 136/136/136 123/124/124
