# This file uses centimeters as units for non-parametric coordinates.

v -10.335211 38.284740 10.651675
v 10.651675 38.284740 -10.335211
v -10.335211 38.671986 10.651675
v 10.651675 38.671986 -10.335211
v -10.651675 38.671986 10.335211
v 10.335211 38.671986 -10.651676
v -10.651675 38.284740 10.335211
v 10.335211 38.284740 -10.651676
v 10.651675 38.284740 10.335211
v -10.335211 38.284740 -10.651676
v 10.651675 38.671986 10.335211
v -10.335211 38.671986 -10.651676
v 10.335211 38.671986 10.651675
v -10.651675 38.671986 -10.335211
v 10.335211 38.284740 10.651675
v -10.651675 38.284740 -10.335211
vt 0.726008 0.165922
vt 0.634575 0.165922
vt 0.634575 0.160417
vt 0.726008 0.160417
vt 0.634575 0.154913
vt 0.726008 0.154913
vt 0.634575 0.149409
vt 0.726008 0.149409
vt 0.634575 0.143904
vt 0.726008 0.143904
vt 0.726008 0.165922
vt 0.634575 0.165922
vt 0.634575 0.160417
vt 0.726008 0.160417
vt 0.634575 0.154913
vt 0.726008 0.154913
vt 0.634575 0.149409
vt 0.726008 0.149409
vt 0.634575 0.143904
vt 0.726008 0.143904
vn 0.707109 0.000000 0.707104
vn 0.707109 0.000000 0.707104
vn 0.707109 0.000000 0.707104
vn 0.707109 0.000000 0.707104
vn 0.000000 1.000000 -0.000002
vn 0.000000 1.000000 -0.000002
vn 0.000000 1.000000 -0.000002
vn 0.000000 1.000000 -0.000002
vn -0.707109 0.000000 -0.707104
vn -0.707109 0.000000 -0.707104
vn -0.707109 0.000000 -0.707104
vn -0.707109 0.000000 -0.707104
vn 0.000000 -1.000000 -0.000002
vn 0.000000 -1.000000 -0.000002
vn 0.000000 -1.000000 -0.000002
vn 0.000000 -1.000000 -0.000002
vn 0.707109 0.000000 -0.707104
vn 0.707109 0.000000 -0.707104
vn 0.707109 0.000000 -0.707104
vn 0.707109 0.000000 -0.707104
vn 0.000000 1.000000 -0.000002
vn 0.000000 1.000000 -0.000002
vn 0.000000 1.000000 -0.000002
vn 0.000000 1.000000 -0.000002
vn -0.707109 0.000000 0.707104
vn -0.707109 0.000000 0.707104
vn -0.707109 0.000000 0.707104
vn -0.707109 0.000000 0.707104
vn 0.000000 -1.000000 -0.000002
vn 0.000000 -1.000000 -0.000002
vn 0.000000 -1.000000 -0.000002
vn 0.000000 -1.000000 -0.000002
f 1/1/1 2/2/2 4/3/3 3/4/4
f 3/4/5 4/3/6 6/5/7 5/6/8
f 5/6/9 6/5/10 8/7/11 7/8/12
f 7/8/13 8/7/14 2/9/15 1/10/16
f 9/11/17 10/12/18 12/13/19 11/14/20
f 11/14/21 12/13/22 14/15/23 13/16/24
f 13/16/25 14/15/26 16/17/27 15/18/28
f 15/18/29 16/17/30 10/19/31 9/20/32
