# This file uses centimeters as units for non-parametric coordinates.

v -15.607721 32.777924 16.284107
v 16.284105 32.777924 -15.607721
v -15.607721 33.734482 16.284107
v 16.284105 33.734482 -15.607721
v -16.284105 33.734482 15.607722
v 15.607721 33.734482 -16.284105
v -16.284105 32.777924 15.607722
v 15.607721 32.777924 -16.284105
v 16.284105 32.777924 15.607722
v -15.607721 32.777924 -16.284105
v 16.284105 33.734482 15.607722
v -15.607721 33.734482 -16.284105
v 15.607721 33.734482 16.284107
v -16.284105 33.734482 -15.607721
v 15.607721 32.777924 16.284107
v -16.284105 32.777924 -15.607721
vt 0.514149 0.075478
vt 0.598605 0.075478
vt 0.598605 0.084663
vt 0.514149 0.084663
vt 0.598605 0.093848
vt 0.514149 0.093848
vt 0.598605 0.103033
vt 0.514149 0.103033
vt 0.598605 0.112218
vt 0.514149 0.112218
vt 0.514149 0.075478
vt 0.598605 0.075478
vt 0.598605 0.084663
vt 0.514149 0.084663
vt 0.598605 0.093848
vt 0.514149 0.093848
vt 0.598605 0.103033
vt 0.514149 0.103033
vt 0.598605 0.112218
vt 0.514149 0.112218
vn 0.707107 0.000000 0.707106
vn 0.707107 0.000000 0.707106
vn 0.707107 0.000000 0.707106
vn 0.707107 0.000000 0.707106
vn 0.000000 1.000000 0.000001
vn 0.000000 1.000000 0.000001
vn 0.000000 1.000000 0.000001
vn 0.000000 1.000000 0.000001
vn -0.707107 0.000000 -0.707106
vn -0.707107 0.000000 -0.707106
vn -0.707107 0.000000 -0.707106
vn -0.707107 0.000000 -0.707106
vn 0.000000 -1.000000 0.000001
vn 0.000000 -1.000000 0.000001
vn 0.000000 -1.000000 0.000001
vn 0.000000 -1.000000 0.000001
vn 0.707107 0.000000 -0.707106
vn 0.707107 0.000000 -0.707106
vn 0.707107 0.000000 -0.707106
vn 0.707107 0.000000 -0.707106
vn 0.000000 1.000000 0.000001
vn 0.000000 1.000000 0.000001
vn 0.000000 1.000000 0.000001
vn 0.000000 1.000000 0.000001
vn -0.707107 0.000000 0.707106
vn -0.707107 0.000000 0.707106
vn -0.707107 0.000000 0.707106
vn -0.707107 0.000000 0.707106
vn 0.000000 -1.000000 0.000000
vn 0.000000 -1.000000 0.000000
vn 0.000000 -1.000000 0.000000
vn 0.000000 -1.000000 0.000000
f 1/1/1 2/2/2 4/3/3 3/4/4
f 3/4/5 4/3/6 6/5/7 5/6/8
f 5/6/9 6/5/10 8/7/11 7/8/12
f 7/8/13 8/7/14 2/9/15 1/10/16
f 9/11/17 10/12/18 12/13/19 11/14/20
f 11/14/21 12/13/22 14/15/23 13/16/24
f 13/16/25 14/15/26 16/17/27 15/18/28
f 15/18/29 16/17/30 10/19/31 9/20/32
