# This file uses centimeters as units for non-parametric coordinates.

v -12.376366 32.903210 12.755330
v 12.755331 32.903210 -12.376367
v -12.376366 33.366940 12.755330
v 12.755331 33.366940 -12.376367
v -12.755331 33.366940 12.376366
v 12.376366 33.366940 -12.755331
v -12.755331 32.903210 12.376366
v 12.376366 32.903210 -12.755331
v 12.755331 32.903210 12.376366
v -12.376366 32.903210 -12.755331
v 12.755331 33.366940 12.376366
v -12.376366 33.366940 -12.755331
v 12.376366 33.366940 12.755330
v -12.755331 33.366940 -12.376367
v 12.376366 32.903210 12.755330
v -12.755331 32.903210 -12.376367
vt 0.601008 0.103422
vt 0.509575 0.103422
vt 0.509575 0.097917
vt 0.601008 0.097917
vt 0.509575 0.092413
vt 0.601008 0.092413
vt 0.509575 0.086909
vt 0.601008 0.086909
vt 0.509575 0.081404
vt 0.601008 0.081404
vt 0.601008 0.103422
vt 0.509575 0.103422
vt 0.509575 0.097917
vt 0.601008 0.097917
vt 0.509575 0.092413
vt 0.601008 0.092413
vt 0.509575 0.086909
vt 0.601008 0.086909
vt 0.509575 0.081404
vt 0.601008 0.081404
vn 0.707107 0.000000 0.707106
vn 0.707107 0.000000 0.707106
vn 0.707107 0.000000 0.707106
vn 0.707107 0.000000 0.707106
vn 0.000000 1.000000 -0.000001
vn 0.000000 1.000000 -0.000001
vn 0.000000 1.000000 -0.000001
vn 0.000000 1.000000 -0.000001
vn -0.707107 0.000000 -0.707106
vn -0.707107 0.000000 -0.707106
vn -0.707107 0.000000 -0.707106
vn -0.707107 0.000000 -0.707106
vn 0.000000 -1.000000 0.000000
vn 0.000000 -1.000000 0.000000
vn 0.000000 -1.000000 0.000000
vn 0.000000 -1.000000 0.000000
vn 0.707107 0.000000 -0.707106
vn 0.707107 0.000000 -0.707106
vn 0.707107 0.000000 -0.707106
vn 0.707107 0.000000 -0.707106
vn 0.000000 1.000000 -0.000001
vn 0.000000 1.000000 -0.000001
vn 0.000000 1.000000 -0.000001
vn 0.000000 1.000000 -0.000001
vn -0.707107 0.000000 0.707106
vn -0.707107 0.000000 0.707106
vn -0.707107 0.000000 0.707106
vn -0.707107 0.000000 0.707106
vn 0.000000 -1.000000 0.000000
vn 0.000000 -1.000000 0.000000
vn 0.000000 -1.000000 0.000000
vn 0.000000 -1.000000 0.000000
f 1/1/1 2/2/2 4/3/3 3/4/4
f 3/4/5 4/3/6 6/5/7 5/6/8
f 5/6/9 6/5/10 8/7/11 7/8/12
f 7/8/13 8/7/14 2/9/15 1/10/16
f 9/11/17 10/12/18 12/13/19 11/14/20
f 11/14/21 12/13/22 14/15/23 13/16/24
f 13/16/25 14/15/26 16/17/27 15/18/28
f 15/18/29 16/17/30 10/19/31 9/20/32
