# This file uses centimeters as units for non-parametric coordinates.

v 18.093287 28.799423 6.245785
v 18.093287 29.071777 6.245785
v -18.180323 28.799423 -5.987717
v -18.180323 29.071777 -5.987717
v -18.093287 28.799423 -6.245785
v -18.093287 29.071777 -6.245785
v 18.180323 28.799423 5.987717
v 18.180323 29.071777 5.987717
v 18.183823 28.788513 -5.977335
v 18.183823 29.082687 -5.977335
v -18.089813 28.788513 6.256091
v -18.089813 29.082687 6.256091
v -18.183823 28.788513 5.977335
v -18.183823 29.082687 5.977335
v 18.089813 28.788513 -6.256091
v 18.089813 29.082687 -6.256091
vt 0.602628 0.034466
vt 0.602628 0.038572
vt 0.512795 0.038572
vt 0.512795 0.034466
vt 0.512795 0.030359
vt 0.512795 0.026253
vt 0.602628 0.026253
vt 0.602628 0.030359
vt 0.602628 0.042678
vt 0.512795 0.042678
vt 0.602628 0.034466
vt 0.602628 0.038572
vt 0.512795 0.038572
vt 0.512795 0.034466
vt 0.512795 0.030359
vt 0.512795 0.026253
vt 0.602628 0.026253
vt 0.602628 0.030359
vt 0.602628 0.042678
vt 0.512795 0.042678
vn -0.319571 0.000000 0.947562
vn -0.319571 0.000000 0.947562
vn -0.319571 0.000000 0.947562
vn -0.319571 0.000000 0.947562
vn 0.319571 0.000000 -0.947562
vn 0.319571 0.000000 -0.947562
vn 0.319571 0.000000 -0.947562
vn 0.319571 0.000000 -0.947562
vn 0.000000 1.000000 0.000000
vn 0.000000 1.000000 0.000000
vn 0.000000 1.000000 0.000000
vn 0.000000 1.000000 0.000000
vn 0.000000 -1.000000 0.000000
vn 0.000000 -1.000000 0.000000
vn 0.000000 -1.000000 0.000000
vn 0.000000 -1.000000 0.000000
vn 0.319569 0.000000 0.947563
vn 0.319569 0.000000 0.947563
vn 0.319569 0.000000 0.947563
vn 0.319569 0.000000 0.947563
vn -0.319569 0.000000 -0.947563
vn -0.319569 0.000000 -0.947563
vn -0.319569 0.000000 -0.947563
vn -0.319569 0.000000 -0.947563
vn 0.000000 1.000000 0.000000
vn 0.000000 1.000000 0.000000
vn 0.000000 1.000000 0.000000
vn 0.000000 1.000000 0.000000
vn 0.000000 -1.000000 0.000000
vn 0.000000 -1.000000 0.000000
vn 0.000000 -1.000000 0.000000
vn 0.000000 -1.000000 0.000000
f 1/1/1 2/2/2 4/3/3 3/4/4
f 5/5/5 6/6/6 8/7/7 7/8/8
f 2/2/9 8/9/10 6/10/11 4/3/12
f 7/8/13 1/1/14 3/4/15 5/5/16
f 9/11/17 10/12/18 12/13/19 11/14/20
f 13/15/21 14/16/22 16/17/23 15/18/24
f 10/12/25 16/19/26 14/20/27 12/13/28
f 15/18/29 9/11/30 11/14/31 13/15/32
