# This file uses meters as units for non-parametric coordinates.

v -143.452408 66.423210 -153.628418
v 143.452408 66.423210 -153.628418
v -142.610580 131.532578 -190.691742
v 142.610580 131.532578 -190.691742
v -142.610580 131.081619 -200.054062
v 142.610580 131.081619 -200.054062
v -147.204010 66.056549 -163.786392
v 147.204010 66.056549 -163.786392
v -142.610580 101.619820 -177.693329
v -142.610580 101.168869 -187.055679
v 142.610580 101.168869 -187.055679
v 142.610580 101.619820 -177.693329
v -142.610580 213.523453 -202.840820
v -142.610580 211.309631 -200.222504
v 142.610580 213.523453 -202.840820
v 142.610580 211.309631 -200.222504
v 142.610580 213.297989 -207.522461
v 142.610580 210.858734 -209.584839
v -142.610580 213.297989 -207.522461
v -142.610580 210.858734 -209.584839
v 162.379547 59.181721 126.232758
v 150.101669 59.181721 126.232758
v 162.379547 59.181721 -126.346756
v 150.101669 59.181721 -126.346756
v 160.216660 0.000006 169.611877
v 162.379547 2.162895 167.449005
v 162.379547 46.165230 169.797943
v 160.216660 45.648369 171.898178
v 150.101669 2.162894 167.449005
v 152.264557 0.000006 169.611877
v 152.264557 45.648369 171.898178
v 150.101669 46.165230 169.797943
v 160.216660 126.731529 -201.194931
v 162.379547 125.282417 -199.589264
v 162.379547 2.162895 -197.350723
v 160.216660 0.000006 -199.513611
v 150.101669 125.282417 -199.589264
v 152.264557 126.731529 -201.194931
v 152.264557 0.000006 -199.513611
v 150.101669 2.162894 -197.350723
v 162.379547 2.162895 -126.346756
v 160.216660 0.000006 -126.346756
v 152.264557 0.000006 -126.346756
v 150.101669 2.162894 -126.346756
v 160.216660 0.000006 126.232758
v 162.379547 2.162895 126.232758
v 150.101669 2.162894 126.232758
v 152.264557 0.000006 126.232758
v 162.379547 5.945491 126.232758
v 162.379547 5.945491 -126.346756
v 162.379547 5.947200 -199.069962
v 160.216660 5.946475 -201.194931
v 152.264557 5.946475 -201.194931
v 150.101669 5.947200 -199.069962
v 150.101669 5.945491 -126.346756
v 150.101669 5.945491 126.232758
v 150.101669 5.945044 169.739578
v 152.264557 5.944270 171.898178
v 160.216660 5.944270 171.898178
v 162.379547 5.945044 169.739578
v -150.101669 2.263319 166.950729
v 150.101669 2.263319 166.950729
v -150.101669 42.768169 169.220581
v 150.101669 42.768169 169.220581
v -150.101669 42.768173 160.689194
v 150.101669 42.768173 160.689194
v -150.101669 2.263319 160.689194
v 150.101669 2.263319 160.689194
v 150.101669 5.945050 169.220581
v -150.101669 5.945050 169.220581
v -150.101669 5.945049 160.689194
v 150.101669 5.945049 160.689194
v -149.162704 5.945050 171.393539
v -149.162704 0.000000 169.123688
v -149.162704 0.000000 160.689194
v -149.162704 5.945049 160.689194
v -149.162704 42.768173 160.689194
v -149.162704 42.768169 171.393539
v 149.427536 5.945050 171.393524
v 149.427536 0.000000 169.123672
v 149.427536 0.000000 160.689178
v 149.427536 5.945049 160.689178
v 149.427536 42.768173 160.689178
v 149.427536 42.768173 171.393524
v -151.129837 2.714062 161.388184
v 151.129837 2.714062 161.388184
v -151.129837 38.437012 161.388184
v 151.129837 38.437012 161.388184
v -151.129837 34.247520 -188.315460
v 151.129837 34.247520 -188.315460
v -151.129837 2.714062 -188.315460
v 151.129837 2.714062 -188.315460
v -162.379547 59.181721 126.232758
v -150.101669 59.181721 126.232758
v -162.379547 59.181721 -126.346756
v -150.101669 59.181721 -126.346756
v -160.216660 0.000006 169.611877
v -162.379547 2.162895 167.449005
v -162.379547 46.165230 169.797943
v -160.216660 45.648369 171.898178
v -150.101669 2.162894 167.449005
v -152.264557 0.000006 169.611877
v -152.264557 45.648369 171.898178
v -150.101669 46.165230 169.797943
v -160.216660 126.731529 -201.194931
v -162.379547 125.282417 -199.589264
v -162.379547 2.162895 -197.350723
v -160.216660 0.000006 -199.513611
v -150.101669 125.282417 -199.589264
v -152.264557 126.731529 -201.194931
v -152.264557 0.000006 -199.513611
v -150.101669 2.162894 -197.350723
v -162.379547 2.162895 -126.346756
v -160.216660 0.000006 -126.346756
v -152.264557 0.000006 -126.346756
v -150.101669 2.162894 -126.346756
v -160.216660 0.000006 126.232758
v -162.379547 2.162895 126.232758
v -150.101669 2.162894 126.232758
v -152.264557 0.000006 126.232758
v -162.379547 5.945491 126.232758
v -162.379547 5.945491 -126.346756
v -162.379547 5.947200 -199.069962
v -160.216660 5.946475 -201.194931
v -152.264557 5.946475 -201.194931
v -150.101669 5.947200 -199.069962
v -150.101669 5.945491 -126.346756
v -150.101669 5.945491 126.232758
v -150.101669 5.945044 169.739578
v -152.264557 5.944270 171.898178
v -160.216660 5.944270 171.898178
v -162.379547 5.945044 169.739578
v -147.593384 0.000008 -190.827072
v -150.197281 2.603905 -190.986572
v -150.197281 104.432495 -190.986649
v -147.593384 107.036407 -188.382767
v 150.197281 2.603905 -190.986572
v 147.593384 0.000008 -190.827072
v 147.593384 107.036407 -188.382767
v 150.197281 104.432495 -190.986649
v -150.197281 104.432495 -196.195496
v -147.593384 107.036407 -198.799393
v 147.593384 107.036407 -198.799393
v 150.197281 104.432495 -196.195496
v -150.197281 2.603905 -196.195419
v -147.593384 0.000008 -196.354919
v 147.593384 0.000008 -196.354919
v 150.197281 2.603905 -196.195419
v 147.593399 5.946472 -198.799316
v 150.197281 5.946472 -196.195419
v 150.197281 5.946472 -190.986572
v 147.593384 5.946472 -188.382690
v -147.593399 5.946472 -188.382690
v -150.197281 5.946472 -190.986572
v -150.197281 5.946472 -196.195419
v -147.593384 5.946472 -198.799316
vt 0.010558 0.483968
vt 0.113196 0.483968
vt 0.113185 0.486496
vt 0.010569 0.486496
vt 0.010450 0.481061
vt 0.113304 0.481061
vt 0.113279 0.483972
vt 0.010475 0.483972
vt 0.113692 0.439654
vt 0.010062 0.439654
vt 0.010150 0.390287
vt 0.113603 0.390287
vt 0.113247 0.390110
vt 0.010507 0.390110
vt 0.010323 0.417414
vt 0.113431 0.417414
vt 0.113254 0.414442
vt 0.010500 0.414442
vt 0.113493 0.431547
vt 0.010261 0.431547
vt 0.035580 0.397377
vt 0.014867 0.397395
vt 0.015020 0.398231
vt 0.034090 0.398231
vt 0.035149 0.399695
vt 0.036010 0.399684
vt 0.034090 0.398231
vt 0.015020 0.398231
vt 0.015020 0.397394
vt 0.035090 0.397394
vt 0.036148 0.399694
vt 0.035149 0.399695
vt 0.075990 0.399695
vt 0.076859 0.398231
vt 0.075276 0.397361
vt 0.075060 0.399658
vt 0.112754 0.398231
vt 0.112930 0.397386
vt 0.074916 0.399695
vt 0.075766 0.397394
vt 0.076859 0.398231
vt 0.075990 0.399695
vt 0.112754 0.397394
vt 0.112754 0.398231
vt 0.032169 0.399732
vt 0.032116 0.397417
vt 0.079266 0.397320
vt 0.079250 0.399636
vt 0.014714 0.400493
vt 0.113105 0.400476
vt 0.015020 0.399695
vt 0.112754 0.399695
vt 0.112754 0.399695
vt 0.015020 0.399695
vt 0.035591 0.400496
vt 0.075059 0.400471
vt 0.112754 0.450943
vt 0.015020 0.450943
vt 0.075727 0.476520
vt 0.074901 0.477201
vt 0.078934 0.477336
vt 0.074916 0.477081
vt 0.075727 0.476520
vt 0.112754 0.450943
vt 0.015020 0.450943
vt 0.035176 0.445906
vt 0.036148 0.445707
vt 0.036185 0.445746
vt 0.032518 0.445845
vt 0.035176 0.445906
vt 0.014927 0.393998
vt 0.015585 0.397710
vt 0.014898 0.403748
vt 0.014240 0.403748
vt 0.017686 0.403748
vt 0.017482 0.403748
vt 0.017482 0.397710
vt 0.017686 0.393998
vt 0.017482 0.393998
vt 0.108393 0.397710
vt 0.110289 0.397710
vt 0.110977 0.403748
vt 0.108393 0.403748
vt 0.014240 0.464137
vt 0.014898 0.464137
vt 0.110977 0.464137
vt 0.108393 0.464137
vt 0.017686 0.464137
vt 0.017482 0.464137
vt 0.110947 0.393998
vt 0.111635 0.403748
vt 0.108393 0.393998
vt 0.108109 0.403748
vt 0.108109 0.393998
vt 0.108109 0.464137
vt 0.111635 0.464137
vt 0.108109 0.407567
vt 0.017686 0.407567
vt 0.017686 0.417131
vt 0.108109 0.417131
vt 0.108109 0.476370
vt 0.017686 0.476370
vt 0.019692 0.393934
vt 0.097126 0.393934
vt 0.097126 0.483522
vt 0.019692 0.483522
vt 0.097126 0.483522
vt 0.019692 0.483522
vt 0.019692 0.393934
vt 0.097126 0.393934
vt 0.035580 0.397377
vt 0.034090 0.398231
vt 0.015020 0.398231
vt 0.014867 0.397395
vt 0.036010 0.399684
vt 0.035149 0.399695
vt 0.034090 0.398231
vt 0.035090 0.397394
vt 0.015020 0.397394
vt 0.015020 0.398231
vt 0.035149 0.399695
vt 0.036148 0.399694
vt 0.075990 0.399695
vt 0.075060 0.399658
vt 0.075276 0.397361
vt 0.076859 0.398231
vt 0.112930 0.397386
vt 0.112754 0.398231
vt 0.074916 0.399695
vt 0.075990 0.399695
vt 0.076859 0.398231
vt 0.075766 0.397394
vt 0.112754 0.398231
vt 0.112754 0.397394
vt 0.032116 0.397417
vt 0.032169 0.399732
vt 0.079250 0.399636
vt 0.079266 0.397320
vt 0.113105 0.400476
vt 0.014714 0.400493
vt 0.112754 0.399695
vt 0.015020 0.399695
vt 0.015020 0.399695
vt 0.112754 0.399695
vt 0.035591 0.400496
vt 0.075059 0.400471
vt 0.015020 0.450943
vt 0.112754 0.450943
vt 0.075727 0.476520
vt 0.074901 0.477201
vt 0.078934 0.477336
vt 0.074916 0.477081
vt 0.075727 0.476520
vt 0.112754 0.450943
vt 0.015020 0.450943
vt 0.035176 0.445906
vt 0.036148 0.445707
vt 0.032518 0.445845
vt 0.036185 0.445746
vt 0.035176 0.445906
vt 0.117691 0.392975
vt 0.114022 0.397499
vt 0.105216 0.397761
vt 0.101672 0.392851
vt 0.117332 0.402396
vt 0.112302 0.402231
vt 0.112110 0.481853
vt 0.116471 0.483857
vt 0.102767 0.483905
vt 0.107123 0.481777
vt 0.010979 0.396542
vt 0.006116 0.391120
vt 0.027780 0.391268
vt 0.022758 0.396193
vt 0.013269 0.401623
vt 0.007596 0.401753
vt 0.008781 0.486803
vt 0.013711 0.484122
vt 0.020033 0.484133
vt 0.024961 0.486787
vt 0.106898 0.402275
vt 0.101871 0.402403
vt 0.026100 0.401718
vt 0.020441 0.401637
vt 0.009011 0.407683
vt 0.116357 0.407683
vt 0.116406 0.414553
vt 0.008963 0.414553
vt 0.008852 0.484350
vt 0.116517 0.484350
vt 0.116914 0.476956
vt 0.008455 0.476956
vt 0.008608 0.393580
vt 0.116760 0.393580
vt 0.116458 0.401222
vt 0.008910 0.401222
vt 0.116072 0.484458
vt 0.009296 0.484458
vn 0.000000 0.564413 0.825493
vn 0.000000 0.564413 0.825493
vn 0.000000 0.495335 0.868702
vn 0.000000 0.495335 0.868702
vn 0.000000 0.998842 -0.048102
vn 0.000000 0.998842 -0.048102
vn 0.000000 0.998842 -0.048102
vn 0.000000 0.998842 -0.048102
vn 0.000000 -0.490212 -0.871603
vn 0.000000 -0.490212 -0.871603
vn 0.000000 -0.552415 -0.833569
vn 0.000000 -0.552415 -0.833569
vn 0.000000 -0.201190 -0.979552
vn 0.000000 -0.201190 -0.979552
vn 0.000000 0.201190 0.979552
vn 0.000000 0.201190 0.979552
vn 0.000000 0.118624 0.992939
vn 0.000000 0.118624 0.992939
vn 0.000000 -0.118624 -0.992939
vn 0.000000 -0.118624 -0.992939
vn 0.000000 0.763627 0.645658
vn 0.000000 0.763627 0.645658
vn 0.000000 0.763627 0.645658
vn 0.000000 0.763627 0.645658
vn 0.000000 0.645647 -0.763636
vn 0.000000 0.645647 -0.763636
vn 0.000000 0.645647 -0.763636
vn 0.000000 0.645647 -0.763636
vn 0.152614 -0.979867 0.128725
vn 0.208528 -0.978016 0.000000
vn 0.939763 -0.341827 0.000000
vn 0.936945 -0.348100 0.030989
vn 0.999015 -0.002759 0.044295
vn 0.204729 -0.047763 0.977653
vn -0.936945 -0.348101 0.030989
vn -0.939763 -0.341828 0.000000
vn -0.208528 -0.978016 0.000000
vn -0.152614 -0.979867 0.128725
vn -0.204729 -0.047763 0.977653
vn -0.999015 -0.002759 0.044295
vn 0.999189 -0.000730 -0.040266
vn 0.933511 -0.357980 -0.020170
vn 0.147856 -0.985899 -0.078367
vn 0.180645 -0.013219 -0.983460
vn 0.939704 -0.341989 0.000000
vn 0.208581 -0.978005 0.000000
vn -0.180645 -0.013219 -0.983460
vn -0.147856 -0.985899 -0.078367
vn -0.933512 -0.357979 -0.020170
vn -0.999189 -0.000730 -0.040266
vn -0.208581 -0.978005 0.000000
vn -0.939704 -0.341989 0.000000
vn -1.000000 0.000000 0.000000
vn -1.000000 -0.000000 0.000000
vn 1.000000 0.000000 0.000000
vn 1.000000 -0.000000 0.000000
vn 1.000000 0.000000 0.000000
vn 1.000000 -0.000000 0.000000
vn 0.995590 -0.000203 -0.093808
vn 0.133570 -0.000335 -0.991039
vn -0.133570 -0.000335 -0.991039
vn -0.995590 -0.000203 -0.093808
vn -1.000000 -0.000000 0.000000
vn -1.000000 0.000000 0.000000
vn -0.999518 -0.000023 0.031034
vn -0.223372 -0.000166 0.974733
vn 0.223372 -0.000166 0.974733
vn 0.999518 -0.000023 0.031034
vn 0.004975 -0.874176 0.485585
vn 0.991844 -0.117759 0.048766
vn 0.997690 -0.004746 0.067767
vn 0.007035 -0.052977 0.998571
vn 0.000000 0.000000 -1.000000
vn 0.996637 0.000000 -0.081943
vn 0.984949 -0.111231 -0.132300
vn 0.005390 -0.817795 -0.575485
vn -0.972551 -0.152981 -0.175335
vn -0.984455 -0.162176 0.067438
vn -0.995544 -0.006528 0.094077
vn -0.993506 0.000000 -0.113776
vn 0.007261 0.000000 0.999974
vn 0.998023 0.000000 0.062853
vn -0.996175 0.000000 0.087382
vn -0.993998 0.000000 -0.109399
vn 0.000000 0.000000 -1.000000
vn 0.996893 0.000000 -0.078772
vn -0.005047 -0.874165 0.485603
vn -0.007038 -0.052971 0.998571
vn -0.005386 -0.817922 -0.575304
vn -0.000000 0.000000 -1.000000
vn -0.000000 0.000000 -1.000000
vn -0.007254 0.000000 0.999974
vn 0.000000 0.999928 -0.011979
vn 0.000000 0.999928 -0.011979
vn 0.000000 0.999928 -0.011979
vn 0.000000 0.999928 -0.011979
vn 0.000000 -1.000000 0.000000
vn 0.000000 -1.000000 0.000000
vn 0.000000 -1.000000 0.000000
vn 0.000000 -1.000000 0.000000
vn -0.152614 -0.979867 0.128725
vn -0.936945 -0.348100 0.030989
vn -0.939763 -0.341827 0.000000
vn -0.208528 -0.978016 0.000000
vn -0.204729 -0.047763 0.977653
vn -0.999015 -0.002759 0.044295
vn 0.936945 -0.348101 0.030989
vn 0.152614 -0.979867 0.128725
vn 0.208528 -0.978016 0.000000
vn 0.939763 -0.341828 0.000000
vn 0.999015 -0.002759 0.044295
vn 0.204729 -0.047763 0.977653
vn -0.999189 -0.000730 -0.040266
vn -0.180645 -0.013219 -0.983459
vn -0.147856 -0.985899 -0.078367
vn -0.933511 -0.357981 -0.020170
vn -0.208581 -0.978005 0.000000
vn -0.939704 -0.341989 0.000000
vn 0.180645 -0.013219 -0.983459
vn 0.999189 -0.000730 -0.040266
vn 0.933512 -0.357979 -0.020170
vn 0.147856 -0.985899 -0.078367
vn 0.939704 -0.341989 0.000000
vn 0.208581 -0.978005 0.000000
vn 1.000000 -0.000000 0.000000
vn 1.000000 0.000000 0.000000
vn -1.000000 -0.000000 0.000000
vn -1.000000 0.000000 0.000000
vn -1.000000 -0.000000 0.000000
vn -1.000000 -0.000000 0.000000
vn -0.995590 -0.000203 -0.093808
vn -0.133570 -0.000335 -0.991039
vn 0.133570 -0.000335 -0.991039
vn 0.995590 -0.000203 -0.093808
vn 1.000000 -0.000000 0.000000
vn 1.000000 0.000000 0.000000
vn 0.999518 -0.000023 0.031034
vn 0.223372 -0.000166 0.974733
vn -0.223372 -0.000166 0.974733
vn -0.999518 -0.000023 0.031034
vn -0.707104 -0.707109 0.000000
vn -0.707105 -0.707109 0.000000
vn -0.707105 -0.707109 0.000000
vn -0.707104 -0.707109 0.000000
vn -0.539290 -0.214309 0.814394
vn -0.539290 -0.214309 0.814394
vn -0.702622 -0.006937 0.711530
vn -0.701709 -0.008337 0.712415
vn -0.707108 0.707106 0.000000
vn -0.707108 0.707106 0.000000
vn -0.707108 0.707106 0.000000
vn -0.707108 0.707106 0.000000
vn 0.707105 -0.707109 0.000000
vn 0.707104 -0.707109 0.000000
vn 0.707104 -0.707109 0.000000
vn 0.707105 -0.707109 0.000000
vn 0.539292 -0.214306 0.814394
vn 0.539292 -0.214306 0.814394
vn 0.701708 -0.008337 0.712416
vn 0.702621 -0.006937 0.711531
vn 0.707107 0.707107 0.000000
vn 0.707107 0.707107 0.000000
vn 0.707107 0.707107 0.000000
vn 0.707107 0.707107 0.000000
vn -0.701708 -0.008338 -0.712416
vn -0.702621 -0.006938 -0.711531
vn -0.539295 -0.214304 -0.814392
vn -0.539295 -0.214304 -0.814392
vn 0.702622 -0.006938 -0.711530
vn 0.701709 -0.008338 -0.712415
vn 0.539293 -0.214308 -0.814393
vn 0.539293 -0.214308 -0.814393
vn 0.000000 -0.380196 0.924906
vn 0.000000 -0.380196 0.924906
vn 0.000000 -0.022830 0.999739
vn 0.000000 -0.022830 0.999739
vn 0.000000 1.000000 0.000000
vn 0.000000 1.000000 0.000000
vn 0.000000 1.000000 0.000000
vn 0.000000 1.000000 0.000000
vn 0.000000 -0.022832 -0.999739
vn 0.000000 -0.022832 -0.999739
vn 0.000000 -0.380198 -0.924905
vn 0.000000 -0.380198 -0.924905
vn 0.000000 -1.000000 0.000000
vn 0.000000 -1.000000 0.000000
vn 0.000000 -1.000000 0.000000
vn 0.000000 -1.000000 0.000000
vn 1.000000 0.000000 0.000000
vn 1.000000 0.000000 0.000000
vn 1.000000 0.000000 0.000000
vn 1.000000 0.000000 0.000000
vn -1.000000 0.000000 0.000000
vn -1.000000 0.000000 0.000000
vn -1.000000 -0.000000 0.000000
vn -1.000000 -0.000000 0.000000
vn 0.707106 -0.000000 -0.707108
vn 0.707106 -0.000000 -0.707108
vn 1.000000 0.000000 0.000000
vn 1.000000 0.000000 0.000000
vn 0.707105 0.000000 0.707109
vn 0.707105 0.000000 0.707109
vn 0.000000 0.000001 1.000000
vn 0.000000 0.000001 1.000000
vn -0.707106 0.000001 0.707108
vn -0.707106 0.000001 0.707108
vn -1.000000 -0.000000 0.000000
vn -1.000000 -0.000000 0.000000
vn -0.707105 -0.000001 -0.707109
vn -0.707105 -0.000001 -0.707109
vn 0.000000 -0.000001 -1.000000
vn 0.000000 -0.000001 -1.000000
f 1/14/1 2/13/2 12/17/3 9/18/4
f 13/1/5 15/2/6 17/3/7 19/4/8
f 10/15/9 11/16/10 8/12/11 7/11/12
f 5/10/13 6/9/14 11/16/10 10/15/9
f 9/18/4 12/17/3 4/19/15 3/20/16
f 3/20/16 4/19/15 16/6/17 14/5/18
f 6/9/14 5/10/13 20/8/19 18/7/20
f 13/1/21 14/5/22 16/6/23 15/2/24
f 17/3/25 18/7/26 20/8/27 19/4/28
f 25/21/29 45/22/30 46/23/31 26/24/32
f 26/24/32 60/25/33 59/26/34 25/21/29
f 29/27/35 47/28/36 48/29/37 30/30/38
f 30/30/38 58/31/39 57/32/40 29/27/35
f 51/33/41 35/34/42 36/35/43 52/36/44
f 35/34/42 41/37/45 42/38/46 36/35/43
f 53/39/47 39/40/48 40/41/49 54/42/50
f 39/40/48 43/43/51 44/44/52 40/41/49
f 41/37/45 46/23/31 45/22/30 42/38/46
f 43/43/51 48/29/37 47/28/36 44/44/52
f 25/21/29 59/26/34 58/45/39 30/46/38
f 36/35/43 39/47/48 53/48/47 52/36/44
f 42/38/46 45/22/30 48/49/37 43/50/51
f 47/28/36 56/51/53 55/52/54 44/44/52
f 41/37/45 50/53/55 49/54/56 46/23/31
f 46/23/31 49/54/56 60/25/33 26/24/32
f 29/27/35 57/32/40 56/51/53 47/28/36
f 45/22/30 25/21/29 30/55/38 48/49/37
f 35/34/42 51/33/41 50/53/55 41/37/45
f 36/35/43 42/38/46 43/50/51 39/56/48
f 55/52/54 54/42/50 40/41/49 44/44/52
f 50/53/55 23/57/57 21/58/58 49/54/56
f 51/33/41 34/59/59 23/57/57 50/53/55
f 34/59/59 51/33/41 52/36/44 33/60/60
f 53/48/47 38/61/61 33/60/60 52/36/44
f 38/62/61 53/39/47 54/42/50 37/63/62
f 24/64/63 37/63/62 54/42/50 55/52/54
f 56/51/53 22/65/64 24/64/63 55/52/54
f 57/32/40 32/66/65 22/65/64 56/51/53
f 58/31/39 31/67/66 32/66/65 57/32/40
f 59/26/34 28/68/67 31/69/66 58/45/39
f 60/25/33 27/70/68 28/68/67 59/26/34
f 49/54/56 21/58/58 27/70/68 60/25/33
f 80/71/69 62/72/70 69/73/71 79/74/72
f 82/75/73 72/76/74 68/77/75 81/78/76
f 81/79/76 68/77/75 62/72/70 80/71/69
f 62/72/70 68/77/75 72/76/74 69/73/71
f 67/80/77 61/81/78 70/82/79 71/83/80
f 84/84/81 79/74/72 69/73/71 64/85/82
f 71/83/80 70/82/79 63/86/83 65/87/84
f 83/88/85 66/89/86 72/76/74 82/75/73
f 69/73/71 72/76/74 66/89/86 64/85/82
f 61/81/78 74/90/87 73/91/88 70/82/79
f 67/80/77 75/92/89 74/90/87 61/81/78
f 71/83/80 76/93/90 75/94/89 67/80/77
f 65/87/84 77/95/91 76/93/90 71/83/80
f 70/82/79 73/91/88 78/96/92 63/86/83
f 74/97/87 80/98/69 79/99/72 73/100/88
f 75/94/89 81/78/76 80/98/69 74/97/87
f 76/93/90 82/75/73 81/78/76 75/94/89
f 77/95/91 83/88/85 82/75/73 76/93/90
f 78/101/92 73/100/88 79/99/72 84/102/81
f 87/103/93 88/104/94 90/105/95 89/106/96
f 91/107/97 92/108/98 86/109/99 85/110/100
f 97/111/101 98/112/102 118/113/103 117/114/104
f 98/112/102 97/111/101 131/115/105 132/116/106
f 101/117/107 102/118/108 120/119/109 119/120/110
f 102/118/108 101/117/107 129/121/111 130/122/112
f 123/123/113 124/124/114 108/125/115 107/126/116
f 107/126/116 108/125/115 114/127/117 113/128/118
f 125/129/119 126/130/120 112/131/121 111/132/122
f 111/132/122 112/131/121 116/133/123 115/134/124
f 113/128/118 114/127/117 117/114/104 118/113/103
f 115/134/124 116/133/123 119/120/110 120/119/109
f 97/111/101 102/135/108 130/136/112 131/115/105
f 108/125/115 124/124/114 125/137/119 111/138/122
f 114/127/117 115/139/124 120/140/109 117/114/104
f 119/120/110 116/133/123 127/141/125 128/142/126
f 113/128/118 118/113/103 121/143/127 122/144/128
f 118/113/103 98/112/102 132/116/106 121/143/127
f 101/117/107 119/120/110 128/142/126 129/121/111
f 117/114/104 120/140/109 102/145/108 97/111/101
f 107/126/116 113/128/118 122/144/128 123/123/113
f 108/125/115 111/146/122 115/139/124 114/127/117
f 127/141/125 116/133/123 112/131/121 126/130/120
f 122/144/128 121/143/127 93/147/129 95/148/130
f 123/123/113 122/144/128 95/148/130 106/149/131
f 106/149/131 105/150/132 124/124/114 123/123/113
f 125/137/119 124/124/114 105/150/132 110/151/133
f 110/152/133 109/153/134 126/130/120 125/129/119
f 96/154/135 127/141/125 126/130/120 109/153/134
f 128/142/126 127/141/125 96/154/135 94/155/136
f 129/121/111 128/142/126 94/155/136 104/156/137
f 130/122/112 129/121/111 104/156/137 103/157/138
f 131/115/105 130/136/112 103/158/138 100/159/139
f 132/116/106 131/115/105 100/159/139 99/160/140
f 121/143/127 132/116/106 99/160/140 93/147/129
f 133/161/141 134/162/142 145/163/143 146/164/144
f 134/162/145 133/161/146 153/165/147 154/166/148
f 135/167/149 136/168/150 142/169/151 141/170/152
f 137/171/153 138/172/154 147/173/155 148/174/156
f 138/172/157 137/171/158 151/175/159 152/176/160
f 139/177/161 140/178/162 144/179/163 143/180/164
f 155/181/165 156/182/166 146/164/167 145/163/168
f 149/183/169 150/184/170 148/174/171 147/173/172
f 133/185/173 138/186/174 152/187/175 153/188/176
f 136/189/177 139/190/178 143/191/179 142/192/180
f 156/193/181 149/194/182 147/195/183 146/196/184
f 146/196/185 147/195/186 138/186/187 133/185/188
f 137/171/189 148/174/190 150/184/191 151/175/192
f 145/163/193 134/162/194 154/166/195 155/181/196
f 143/180/197 144/179/198 150/184/170 149/183/169
f 151/175/192 150/184/191 144/179/199 140/178/200
f 152/176/160 151/175/159 140/178/201 139/177/202
f 153/188/176 152/187/175 139/197/203 136/198/204
f 154/166/148 153/165/147 136/168/205 135/167/206
f 155/181/196 154/166/195 135/167/207 141/170/208
f 141/170/209 142/169/210 156/182/166 155/181/165
f 142/192/211 143/191/212 149/194/182 156/193/181
