# This file uses meters as units for non-parametric coordinates.

v 8.814735 -54.560555 -5.089190
v 5.089190 -54.560555 -8.814735
v 0.000000 -54.560555 -10.178379
v -5.089190 -54.560555 -8.814735
v -8.814735 -54.560555 -5.089190
v -10.178379 -54.560555 0.000000
v -8.814735 -54.560555 5.089190
v -5.089190 -54.560555 8.814735
v 0.000000 -54.560555 10.178379
v 5.089190 -54.560555 8.814735
v 8.814735 -54.560555 5.089190
v 10.178379 -54.560555 0.000000
v 15.267578 -49.900684 -8.814735
v 8.814735 -49.900684 -15.267578
v 0.000000 -49.900684 -17.629471
v -8.814735 -49.900684 -15.267578
v -15.267578 -49.900684 -8.814735
v -17.629471 -49.900684 0.000000
v -15.267578 -49.900684 8.814735
v -8.814735 -49.900684 15.267578
v 0.000000 -49.900684 17.629471
v 8.814735 -49.900684 15.267578
v 15.267578 -49.900684 8.814735
v 17.629471 -49.900684 0.000000
v 17.629471 -43.535183 -10.178379
v 10.178379 -43.535183 -17.629471
v 0.000000 -43.535183 -20.356758
v -10.178379 -43.535183 -17.629471
v -17.629471 -43.535183 -10.178379
v -20.356758 -43.535183 0.000000
v -17.629471 -43.535183 10.178379
v -10.178379 -43.535183 17.629471
v 0.000000 -43.535183 20.356758
v 10.178379 -43.535183 17.629471
v 17.629471 -43.535183 10.178379
v 20.356758 -43.535183 0.000000
v 0.000000 -56.266190 0.000000
v 9.530407 -56.557907 -5.502386
v 5.502386 -56.557907 -9.530407
v 0.000000 -58.427742 -0.000000
v -0.000000 -56.557907 -11.004768
v -5.502386 -56.557907 -9.530407
v -9.530407 -56.557907 -5.502386
v -11.004772 -56.557907 -0.000000
v -9.530407 -56.557907 5.502386
v -5.502386 -56.557907 9.530407
v 0.000000 -56.557907 11.004768
v 5.502386 -56.557907 9.530407
v 9.530407 -56.557907 5.502386
v 11.004772 -56.557907 -0.000000
v 9.656570 -51.256264 -16.725677
v 16.725677 -51.256264 -9.656570
v 0.000000 -51.256264 -19.313141
v -9.656570 -51.256264 -16.725677
v -16.725677 -51.256264 -9.656570
v -19.313141 -51.256264 0.000000
v -16.725677 -51.256264 9.656570
v -9.656570 -51.256264 16.725677
v -0.000000 -51.256264 19.313141
v 9.656570 -51.256264 16.725677
v 16.725677 -51.256264 9.656570
v 19.313141 -51.256264 -0.000000
v 11.142990 -44.361752 -19.300232
v 19.300232 -44.361752 -11.142990
v 0.000000 -44.361752 -22.285980
v -11.142990 -44.361752 -19.300232
v -19.300232 -44.361752 -11.142990
v -22.285980 -44.361752 0.000000
v -19.300232 -44.361752 11.142990
v -11.142990 -44.361752 19.300232
v 0.000000 -44.361752 22.285980
v 11.142990 -44.361752 19.300232
v 19.300232 -44.361752 11.142990
v 22.285980 -44.361752 -0.000000
vt 0.389907 0.306729
vt 0.389907 0.297961
vt 0.389907 0.289194
vt 0.389907 0.280426
vt 0.389907 0.271658
vt 0.389907 0.262890
vt 0.389907 0.254122
vt 0.389907 0.262890
vt 0.389907 0.271658
vt 0.389907 0.280426
vt 0.389907 0.289194
vt 0.389907 0.297961
vt 0.389907 0.306729
vt 0.441584 0.306729
vt 0.441584 0.297961
vt 0.441584 0.289194
vt 0.441584 0.280426
vt 0.441584 0.271658
vt 0.441584 0.262890
vt 0.441584 0.254122
vt 0.441584 0.262890
vt 0.441584 0.271658
vt 0.441584 0.280426
vt 0.441584 0.289194
vt 0.441584 0.297961
vt 0.441584 0.306729
vt 0.494707 0.306729
vt 0.494707 0.297961
vt 0.494707 0.289194
vt 0.494707 0.280426
vt 0.494707 0.271658
vt 0.494707 0.262890
vt 0.494707 0.254122
vt 0.494707 0.262890
vt 0.494707 0.271658
vt 0.494707 0.280426
vt 0.494707 0.289194
vt 0.494707 0.297961
vt 0.494707 0.306729
vt 0.378270 0.302345
vt 0.378270 0.293578
vt 0.378270 0.284810
vt 0.378270 0.276042
vt 0.378270 0.267274
vt 0.378270 0.258506
vt 0.378270 0.258506
vt 0.378270 0.267274
vt 0.378270 0.276042
vt 0.378270 0.284810
vt 0.378270 0.293578
vt 0.378270 0.302345
vt 0.389907 0.297961
vt 0.389907 0.306729
vt 0.378270 0.302345
vt 0.389907 0.289194
vt 0.378270 0.293578
vt 0.389907 0.280426
vt 0.378270 0.284810
vt 0.389907 0.271658
vt 0.378270 0.276042
vt 0.389907 0.262890
vt 0.378270 0.267274
vt 0.389907 0.254122
vt 0.378270 0.258506
vt 0.389907 0.262890
vt 0.378270 0.258506
vt 0.389907 0.271658
vt 0.378270 0.267274
vt 0.389907 0.280426
vt 0.378270 0.276042
vt 0.389907 0.289194
vt 0.378270 0.284810
vt 0.389907 0.297961
vt 0.378270 0.293578
vt 0.389907 0.306729
vt 0.378270 0.302345
vt 0.441584 0.297961
vt 0.441584 0.306729
vt 0.441584 0.289194
vt 0.441584 0.280426
vt 0.441584 0.271658
vt 0.441584 0.262890
vt 0.441584 0.254122
vt 0.441584 0.262890
vt 0.441584 0.271658
vt 0.441584 0.280426
vt 0.441584 0.289194
vt 0.441584 0.297961
vt 0.441584 0.306729
vt 0.494707 0.297961
vt 0.494707 0.306729
vt 0.494707 0.289194
vt 0.494707 0.280426
vt 0.494707 0.271658
vt 0.494707 0.262890
vt 0.494707 0.254122
vt 0.494707 0.262890
vt 0.494707 0.271658
vt 0.494707 0.280426
vt 0.494707 0.289194
vt 0.494707 0.297961
vt 0.494707 0.306729
vt 0.491948 0.297961
vt 0.491948 0.306729
vt 0.491948 0.289194
vt 0.491948 0.280426
vt 0.491948 0.271658
vt 0.491948 0.262890
vt 0.491948 0.254122
vt 0.491948 0.262890
vt 0.491948 0.271658
vt 0.491948 0.280426
vt 0.491948 0.289194
vt 0.491948 0.297961
vt 0.491948 0.306729
vn 0.229309 -0.888633 -0.397175
vn 0.397175 -0.888633 -0.229309
vn -0.000000 -1.000000 0.000000
vn -0.000000 -0.888633 -0.458619
vn -0.229309 -0.888633 -0.397175
vn -0.397175 -0.888633 -0.229309
vn -0.458619 -0.888633 0.000000
vn -0.397175 -0.888633 0.229309
vn -0.229309 -0.888633 0.397175
vn 0.000000 -0.888633 0.458619
vn 0.229309 -0.888633 0.397175
vn 0.397175 -0.888633 0.229309
vn 0.458619 -0.888633 -0.000000
vn 0.393293 -0.617480 -0.681204
vn 0.681204 -0.617480 -0.393293
vn -0.000000 -0.617480 -0.786586
vn -0.393293 -0.617480 -0.681204
vn -0.681204 -0.617480 -0.393293
vn -0.786586 -0.617480 0.000000
vn -0.681204 -0.617480 0.393293
vn -0.393293 -0.617480 0.681204
vn 0.000000 -0.617480 0.786586
vn 0.393293 -0.617480 0.681204
vn 0.681204 -0.617480 0.393293
vn 0.786586 -0.617480 -0.000000
vn 0.459136 -0.395949 -0.795247
vn 0.795247 -0.395949 -0.459136
vn -0.000000 -0.395949 -0.918272
vn -0.459136 -0.395949 -0.795247
vn -0.795247 -0.395949 -0.459136
vn -0.918272 -0.395949 -0.000000
vn -0.795247 -0.395949 0.459136
vn -0.459136 -0.395949 0.795247
vn 0.000000 -0.395949 0.918272
vn 0.459136 -0.395949 0.795247
vn 0.795247 -0.395949 0.459136
vn 0.918272 -0.395949 0.000000
vn -0.224559 0.893473 0.388948
vn -0.000000 1.000000 0.000000
vn -0.388947 0.893473 0.224559
vn 0.000000 0.893472 0.449118
vn 0.224559 0.893472 0.388948
vn 0.388947 0.893473 0.224559
vn 0.449118 0.893473 0.000000
vn 0.388947 0.893473 -0.224559
vn 0.224559 0.893473 -0.388948
vn -0.000000 0.893472 -0.449118
vn -0.224559 0.893472 -0.388948
vn -0.388947 0.893473 -0.224559
vn -0.449118 0.893473 0.000000
vn -0.682282 0.615891 0.393916
vn -0.393916 0.615891 0.682282
vn -0.000000 0.615891 0.787832
vn 0.393916 0.615891 0.682283
vn 0.682282 0.615891 0.393916
vn 0.787832 0.615891 0.000000
vn 0.682282 0.615891 -0.393916
vn 0.393916 0.615891 -0.682282
vn 0.000000 0.615891 -0.787832
vn -0.393916 0.615891 -0.682283
vn -0.682282 0.615891 -0.393916
vn -0.787832 0.615891 0.000000
vn -0.796039 0.393823 0.459593
vn -0.459593 0.393823 0.796039
vn -0.000000 0.393823 0.919186
vn 0.459593 0.393823 0.796039
vn 0.796039 0.393823 0.459593
vn 0.919186 0.393823 0.000000
vn 0.796039 0.393823 -0.459593
vn 0.459593 0.393823 -0.796039
vn 0.000000 0.393823 -0.919186
vn -0.459593 0.393823 -0.796039
vn -0.796039 0.393823 -0.459593
vn -0.919186 0.393823 0.000000
vn 0.196911 0.919187 -0.341060
vn 0.341060 0.919187 -0.196911
vn 0.341060 0.919187 -0.196911
vn 0.196911 0.919187 -0.341060
vn 0.000000 0.919187 -0.393823
vn 0.000000 0.919187 -0.393823
vn -0.196911 0.919187 -0.341060
vn -0.196911 0.919187 -0.341060
vn -0.341060 0.919187 -0.196911
vn -0.341060 0.919187 -0.196911
vn -0.393822 0.919187 -0.000000
vn -0.393822 0.919187 -0.000000
vn -0.341060 0.919187 0.196911
vn -0.341060 0.919187 0.196911
vn -0.196911 0.919187 0.341060
vn -0.196911 0.919187 0.341060
vn -0.000000 0.919187 0.393823
vn -0.000000 0.919187 0.393823
vn 0.196911 0.919187 0.341060
vn 0.196911 0.919187 0.341060
vn 0.341060 0.919187 0.196911
vn 0.341060 0.919187 0.196911
vn 0.393822 0.919187 0.000000
vn 0.393822 0.919187 0.000000
f 39/2/1 38/1/2 40/40/3
f 41/3/4 39/2/1 40/41/3
f 42/4/5 41/3/4 40/42/3
f 43/5/6 42/4/5 40/43/3
f 44/6/7 43/5/6 40/44/3
f 45/7/8 44/6/7 40/45/3
f 46/8/9 45/7/8 40/46/3
f 47/9/10 46/8/9 40/47/3
f 48/10/11 47/9/10 40/48/3
f 49/11/12 48/10/11 40/49/3
f 50/12/13 49/11/12 40/50/3
f 38/13/2 50/12/13 40/51/3
f 39/2/1 51/15/14 52/14/15 38/1/2
f 41/3/4 53/16/16 51/15/14 39/2/1
f 42/4/5 54/17/17 53/16/16 41/3/4
f 43/5/6 55/18/18 54/17/17 42/4/5
f 44/6/7 56/19/19 55/18/18 43/5/6
f 45/7/8 57/20/20 56/19/19 44/6/7
f 46/8/9 58/21/21 57/20/20 45/7/8
f 47/9/10 59/22/22 58/21/21 46/8/9
f 48/10/11 60/23/23 59/22/22 47/9/10
f 49/11/12 61/24/24 60/23/23 48/10/11
f 50/12/13 62/25/25 61/24/24 49/11/12
f 38/13/2 52/26/15 62/25/25 50/12/13
f 51/15/14 63/103/26 64/104/27 52/14/15
f 53/16/16 65/105/28 63/103/26 51/15/14
f 54/17/17 66/106/29 65/105/28 53/16/16
f 55/18/18 67/107/30 66/106/29 54/17/17
f 56/19/19 68/108/31 67/107/30 55/18/18
f 57/20/20 69/109/32 68/108/31 56/19/19
f 58/21/21 70/110/33 69/109/32 57/20/20
f 59/22/22 71/111/34 70/110/33 58/21/21
f 60/23/23 72/112/35 71/111/34 59/22/22
f 61/24/24 73/113/36 72/112/35 60/23/23
f 62/25/25 74/114/37 73/113/36 61/24/24
f 52/26/15 64/115/27 74/114/37 62/25/25
f 2/52/38 37/54/39 1/53/40
f 3/55/41 37/56/39 2/52/38
f 4/57/42 37/58/39 3/55/41
f 5/59/43 37/60/39 4/57/42
f 6/61/44 37/62/39 5/59/43
f 7/63/45 37/64/39 6/61/44
f 8/65/46 37/66/39 7/63/45
f 9/67/47 37/68/39 8/65/46
f 10/69/48 37/70/39 9/67/47
f 11/71/49 37/72/39 10/69/48
f 12/73/50 37/74/39 11/71/49
f 1/75/40 37/76/39 12/73/50
f 2/52/38 1/53/40 13/78/51 14/77/52
f 3/55/41 2/52/38 14/77/52 15/79/53
f 4/57/42 3/55/41 15/79/53 16/80/54
f 5/59/43 4/57/42 16/80/54 17/81/55
f 6/61/44 5/59/43 17/81/55 18/82/56
f 7/63/45 6/61/44 18/82/56 19/83/57
f 8/65/46 7/63/45 19/83/57 20/84/58
f 9/67/47 8/65/46 20/84/58 21/85/59
f 10/69/48 9/67/47 21/85/59 22/86/60
f 11/71/49 10/69/48 22/86/60 23/87/61
f 12/73/50 11/71/49 23/87/61 24/88/62
f 1/75/40 12/73/50 24/88/62 13/89/51
f 14/77/52 13/78/51 25/91/63 26/90/64
f 15/79/53 14/77/52 26/90/64 27/92/65
f 16/80/54 15/79/53 27/92/65 28/93/66
f 17/81/55 16/80/54 28/93/66 29/94/67
f 18/82/56 17/81/55 29/94/67 30/95/68
f 19/83/57 18/82/56 30/95/68 31/96/69
f 20/84/58 19/83/57 31/96/69 32/97/70
f 21/85/59 20/84/58 32/97/70 33/98/71
f 22/86/60 21/85/59 33/98/71 34/99/72
f 23/87/61 22/86/60 34/99/72 35/100/73
f 24/88/62 23/87/61 35/100/73 36/101/74
f 13/89/51 24/88/62 36/101/74 25/102/63
f 26/28/75 25/27/76 64/104/77 63/103/78
f 27/29/79 26/28/75 63/103/78 65/105/80
f 28/30/81 27/29/79 65/105/80 66/106/82
f 29/31/83 28/30/81 66/106/82 67/107/84
f 30/32/85 29/31/83 67/107/84 68/108/86
f 31/33/87 30/32/85 68/108/86 69/109/88
f 32/34/89 31/33/87 69/109/88 70/110/90
f 33/35/91 32/34/89 70/110/90 71/111/92
f 34/36/93 33/35/91 71/111/92 72/112/94
f 35/37/95 34/36/93 72/112/94 73/113/96
f 36/38/97 35/37/95 73/113/96 74/114/98
f 25/39/76 36/38/97 74/114/98 64/115/77
