# This file uses meters as units for non-parametric coordinates.

v 0.977547 -0.000000 0.345683
v -0.977547 -0.000000 0.345683
v 0.000000 -1.097553 0.345683
v 0.000000 1.097553 0.345683
v 0.000000 -0.000000 0.345683
v -0.689988 0.774693 0.345683
v 0.689988 -0.774693 0.345683
v -0.689988 -0.774693 0.345683
v 0.689988 0.774693 0.345683
vt 0.411036 0.741462
vt 0.416916 0.741462
vt 0.413976 0.740074
vt 0.413976 0.742850
vt 0.413976 0.741462
vt 0.415446 0.742156
vt 0.412506 0.740768
vt 0.415446 0.740768
vt 0.412506 0.742156
vn 0.000000 0.000000 1.000000
vn 0.000000 0.000000 1.000000
vn 0.000000 0.000000 1.000000
vn 0.000000 0.000000 1.000000
vn 0.000000 0.000000 1.000000
vn 0.000000 0.000000 1.000000
vn 0.000000 0.000000 1.000000
vn 0.000000 0.000000 1.000000
vn 0.000000 0.000000 1.000000
vn 0.000000 0.000000 1.000000
vn 0.000000 0.000000 1.000000
vn 0.000000 0.000000 1.000000
f 8/8/1 5/5/2 2/2/3
f 6/6/4 5/5/5 4/4/6
f 1/1/7 5/5/2 7/7/8
f 4/4/6 5/5/5 9/9/9
f 2/2/10 5/5/5 6/6/4
f 7/7/8 5/5/2 3/3/11
f 3/3/11 5/5/2 8/8/1
f 9/9/9 5/5/5 1/1/12
