# This file uses meters as units for non-parametric coordinates.

v 3.396926 -7.064761 0.000000
v 4.779260 -7.064761 0.000000
v 3.396926 -1.111425 0.000000
v 4.779260 -1.111425 0.000000
v 4.088093 -8.176188 0.000000
v 4.088093 -0.000000 0.000000
v 3.396926 1.111425 0.000000
v 4.779260 1.111425 0.000000
v 3.396926 7.064761 0.000000
v 4.779260 7.064761 0.000000
v 4.088093 -0.000000 0.000000
v 4.088093 8.176187 0.000000
vt 0.400772 0.746095
vt 0.395930 0.746095
vt 0.395930 0.741180
vt 0.400772 0.741180
vt 0.398351 0.742495
vt 0.398351 0.744780
vt 0.400772 0.746095
vt 0.395930 0.746095
vt 0.395930 0.741180
vt 0.400772 0.741180
vt 0.398351 0.742495
vt 0.398351 0.744780
vn 0.000000 0.000000 1.000000
vn 0.000000 0.000000 1.000000
vn 0.000000 0.000000 1.000000
vn 0.000000 0.000000 1.000000
vn 0.000000 0.000000 1.000000
vn 0.000000 0.000000 1.000000
vn 0.000000 0.000000 1.000000
vn 0.000000 0.000000 1.000000
vn 0.000000 0.000000 1.000000
vn 0.000000 0.000000 1.000000
vn 0.000000 0.000000 1.000000
vn 0.000000 0.000000 1.000000
vn 0.000000 0.000000 1.000000
vn 0.000000 0.000000 1.000000
vn 0.000000 0.000000 1.000000
vn 0.000000 0.000000 1.000000
vn 0.000000 0.000000 1.000000
vn 0.000000 0.000000 1.000000
vn 0.000000 0.000000 1.000000
vn 0.000000 0.000000 1.000000
f 1/1/1 2/2/2 4/3/3 3/4/4
f 2/2/5 1/1/6 5/5/7
f 3/4/8 4/3/9 6/6/10
f 7/7/11 8/8/12 10/9/13 9/10/14
f 8/8/15 7/7/16 11/11/17
f 9/10/18 10/9/19 12/12/20
