# This file uses meters as units for non-parametric coordinates.

v -4.779260 1.111425 0.000000
v -3.396926 1.111425 0.000000
v -4.779260 7.064761 0.000000
v -3.396926 7.064761 0.000000
v -4.088093 -0.000000 0.000000
v -4.088093 8.176187 0.000000
v 2.976668 -0.691167 0.000000
v 2.976668 0.691166 0.000000
v -2.976668 -0.691167 0.000000
v -2.976668 0.691166 0.000000
v 4.088093 -0.000000 0.000000
v -4.088093 -0.000000 0.000000
v 3.396926 -7.064761 0.000000
v 4.779260 -7.064761 0.000000
v 3.396926 -1.111425 0.000000
v 4.779260 -1.111425 0.000000
v 4.088093 -8.176188 0.000000
v 4.088093 -0.000000 0.000000
v 3.396926 1.111425 0.000000
v 4.779260 1.111425 0.000000
v 3.396926 7.064761 0.000000
v 4.779260 7.064761 0.000000
v 4.088093 -0.000000 0.000000
v 4.088093 8.176187 0.000000
vt 0.432022 0.730470
vt 0.427180 0.730470
vt 0.427180 0.725555
vt 0.432022 0.725555
vt 0.429601 0.726870
vt 0.429601 0.729155
vt 0.432022 0.730470
vt 0.427180 0.730470
vt 0.427180 0.725555
vt 0.432022 0.725555
vt 0.429601 0.726870
vt 0.429601 0.729155
vt 0.432022 0.730470
vt 0.427180 0.730470
vt 0.427180 0.725555
vt 0.432022 0.725555
vt 0.429601 0.726870
vt 0.429601 0.729155
vt 0.432022 0.730470
vt 0.427180 0.730470
vt 0.427180 0.725555
vt 0.432022 0.725555
vt 0.429601 0.726870
vt 0.429601 0.729155
vn 0.000000 0.000000 1.000000
vn 0.000000 0.000000 1.000000
vn 0.000000 0.000000 1.000000
vn 0.000000 0.000000 1.000000
vn 0.000000 0.000000 1.000000
vn 0.000000 0.000000 1.000000
vn 0.000000 0.000000 1.000000
vn 0.000000 0.000000 1.000000
vn 0.000000 0.000000 1.000000
vn 0.000000 0.000000 1.000000
vn 0.000000 0.000000 1.000000
vn 0.000000 0.000000 1.000000
vn 0.000000 0.000000 1.000000
vn 0.000000 0.000000 1.000000
vn 0.000000 0.000000 1.000000
vn 0.000000 0.000000 1.000000
vn 0.000000 0.000000 1.000000
vn 0.000000 0.000000 1.000000
vn 0.000000 0.000000 1.000000
vn 0.000000 0.000000 1.000000
vn 0.000000 0.000000 1.000000
vn 0.000000 0.000000 1.000000
vn 0.000000 0.000000 1.000000
vn 0.000000 0.000000 1.000000
vn 0.000000 0.000000 1.000000
vn 0.000000 0.000000 1.000000
vn 0.000000 0.000000 1.000000
vn 0.000000 0.000000 1.000000
vn 0.000000 0.000000 1.000000
vn 0.000000 0.000000 1.000000
vn 0.000000 0.000000 1.000000
vn 0.000000 0.000000 1.000000
vn 0.000000 0.000000 1.000000
vn 0.000000 0.000000 1.000000
vn 0.000000 0.000000 1.000000
vn 0.000000 0.000000 1.000000
vn 0.000000 0.000000 1.000000
vn 0.000000 0.000000 1.000000
vn 0.000000 0.000000 1.000000
vn 0.000000 0.000000 1.000000
f 1/1/1 2/2/2 4/3/3 3/4/4
f 2/2/5 1/1/6 5/5/7
f 3/4/8 4/3/9 6/6/10
f 7/7/11 8/8/12 10/9/13 9/10/14
f 8/8/15 7/7/16 11/11/17
f 9/10/18 10/9/19 12/12/20
f 13/13/21 14/14/22 16/15/23 15/16/24
f 14/14/25 13/13/26 17/17/27
f 15/16/28 16/15/29 18/18/30
f 19/19/31 20/20/32 22/21/33 21/22/34
f 20/20/35 19/19/36 23/23/37
f 21/22/38 22/21/39 24/24/40
