# This file uses centimeters as units for non-parametric coordinates.

v 10.203476 -33.541656 -10.203476
v 0.000000 -33.541656 -14.429893
v -10.203476 -33.541656 -10.203476
v -14.429893 -33.541656 0.000000
v -10.203476 -33.541656 10.203476
v 0.000000 -33.541656 14.429893
v 10.203476 -33.541656 10.203476
v 14.429893 -33.541656 0.000000
v 10.203476 -17.887520 -10.203476
v 0.000000 -17.887520 -14.429893
v -10.203476 -17.887520 -10.203476
v -14.429893 -17.887520 0.000000
v -10.203476 -17.887520 10.203476
v 0.000000 -17.887520 14.429893
v 10.203476 -17.887520 10.203476
v 14.429893 -17.887520 0.000000
v 0.000000 -33.541656 0.000000
v 0.000000 -17.887520 0.000000
v 0.000000 -23.816330 16.541939
v -11.696907 -23.816330 11.696907
v -16.541931 -23.816330 0.000000
v -11.696907 -23.816330 -11.696907
v 0.000000 -23.816330 -16.541931
v 11.696907 -23.816330 -11.696907
v 16.541931 -23.816330 0.000000
v 11.696907 -23.816330 11.696907
vt 0.763770 0.787914
vt 0.787980 0.787914
vt 0.787980 0.810462
vt 0.763770 0.810462
vt 0.812191 0.787914
vt 0.812191 0.810462
vt 0.836401 0.787914
vt 0.836401 0.810462
vt 0.860611 0.787914
vt 0.860611 0.810462
vt 0.836661 0.787914
vt 0.836661 0.810462
vt 0.812711 0.787914
vt 0.812711 0.810462
vt 0.788761 0.787914
vt 0.788761 0.810462
vt 0.764811 0.787914
vt 0.764811 0.810462
vt 0.802832 0.785983
vt 0.822972 0.794326
vt 0.802832 0.813327
vt 0.782692 0.794326
vt 0.774349 0.814466
vt 0.782692 0.834606
vt 0.802832 0.842949
vt 0.822972 0.834606
vt 0.831315 0.814466
vt 0.828228 0.833273
vt 0.807638 0.841801
vt 0.807638 0.811517
vt 0.787047 0.833273
vt 0.778518 0.812682
vt 0.787047 0.792092
vt 0.807638 0.783563
vt 0.828228 0.792092
vt 0.836757 0.812682
vt 0.836661 0.833011
vt 0.860611 0.833011
vt 0.836401 0.833011
vt 0.812191 0.833011
vt 0.787980 0.833011
vt 0.763770 0.833011
vt 0.764811 0.833011
vt 0.788761 0.833011
vt 0.812711 0.833011
vn 0.691000 -0.212222 -0.691000
vn 0.000000 -0.212222 -0.977222
vn 0.000000 -0.212222 -0.977222
vn 0.691000 -0.212222 -0.691000
vn 0.000000 -0.212222 -0.977222
vn -0.691000 -0.212222 -0.691000
vn -0.691000 -0.212222 -0.691000
vn 0.000000 -0.212222 -0.977222
vn -0.691000 -0.212222 -0.691000
vn -0.977222 -0.212222 0.000000
vn -0.977222 -0.212222 0.000000
vn -0.691000 -0.212222 -0.691000
vn -0.977222 -0.212222 0.000000
vn -0.691000 -0.212222 0.691000
vn -0.691000 -0.212222 0.691000
vn -0.977222 -0.212222 0.000000
vn -0.691000 -0.212222 0.691000
vn 0.000000 -0.212222 0.977221
vn 0.000000 -0.212222 0.977221
vn -0.691000 -0.212222 0.691000
vn 0.000000 -0.212222 0.977221
vn 0.691000 -0.212222 0.691000
vn 0.691000 -0.212222 0.691000
vn 0.000000 -0.212222 0.977221
vn 0.691000 -0.212222 0.691000
vn 0.977222 -0.212222 0.000000
vn 0.977222 -0.212222 0.000000
vn 0.691000 -0.212222 0.691000
vn 0.977222 -0.212222 0.000000
vn 0.691000 -0.212222 -0.691000
vn 0.691000 -0.212222 -0.691000
vn 0.977222 -0.212222 0.000000
vn 0.000000 -1.000000 0.000000
vn 0.000000 -1.000000 0.000000
vn 0.000000 -1.000000 0.000000
vn 0.000000 -1.000000 0.000000
vn 0.000000 -1.000000 0.000000
vn 0.000000 -1.000000 0.000000
vn 0.000000 -1.000000 0.000000
vn 0.000000 -1.000000 0.000000
vn 0.000000 -1.000000 0.000000
vn 0.000000 -1.000000 0.000000
vn 0.000000 -1.000000 0.000000
vn 0.000000 -1.000000 0.000000
vn 0.000000 -1.000000 0.000000
vn 0.000000 -1.000000 0.000000
vn 0.000000 -1.000000 0.000000
vn 0.000000 -1.000000 0.000000
vn 0.000000 -1.000000 0.000000
vn 0.000000 -1.000000 0.000000
vn 0.000000 -1.000000 0.000000
vn 0.000000 -1.000000 0.000000
vn 0.000000 -1.000000 0.000000
vn 0.000000 -1.000000 0.000000
vn 0.000000 -1.000000 0.000000
vn 0.000000 -1.000000 0.000000
vn 0.000000 1.000000 0.000000
vn 0.000000 1.000000 0.000000
vn 0.000000 1.000000 0.000000
vn 0.000000 1.000000 0.000000
vn 0.000000 1.000000 0.000000
vn 0.000000 1.000000 0.000000
vn 0.000000 1.000000 0.000000
vn 0.000000 1.000000 0.000000
vn 0.000000 1.000000 0.000000
vn 0.000000 1.000000 0.000000
vn 0.000000 1.000000 0.000000
vn 0.000000 1.000000 0.000000
vn 0.000000 1.000000 0.000000
vn 0.000000 1.000000 0.000000
vn 0.000000 1.000000 0.000000
vn 0.000000 1.000000 0.000000
vn 0.000000 1.000000 0.000000
vn 0.000000 1.000000 0.000000
vn 0.000000 1.000000 0.000000
vn 0.000000 1.000000 0.000000
vn 0.000000 1.000000 0.000000
vn 0.000000 1.000000 0.000000
vn 0.000000 1.000000 0.000000
vn 0.000000 1.000000 0.000000
vn -0.666104 0.335576 0.666104
vn 0.000000 0.335576 0.942013
vn 0.000000 0.335576 0.942013
vn -0.666104 0.335576 0.666104
vn -0.942013 0.335576 -0.000000
vn -0.666104 0.335576 0.666104
vn -0.666104 0.335576 0.666104
vn -0.942013 0.335576 -0.000000
vn -0.666104 0.335576 -0.666104
vn -0.942013 0.335576 -0.000000
vn -0.942013 0.335576 -0.000000
vn -0.666104 0.335576 -0.666104
vn 0.000000 0.335576 -0.942013
vn -0.666104 0.335576 -0.666104
vn -0.666104 0.335576 -0.666104
vn 0.000000 0.335576 -0.942013
vn 0.666104 0.335576 -0.666104
vn 0.000000 0.335576 -0.942013
vn 0.000000 0.335576 -0.942013
vn 0.666104 0.335576 -0.666104
vn 0.942013 0.335576 0.000000
vn 0.666104 0.335576 -0.666104
vn 0.666104 0.335576 -0.666104
vn 0.942013 0.335576 0.000000
vn 0.666104 0.335576 0.666104
vn 0.942013 0.335576 0.000000
vn 0.942013 0.335576 0.000000
vn 0.666104 0.335576 0.666104
vn 0.000000 0.335576 0.942013
vn 0.666104 0.335576 0.666104
vn 0.666104 0.335576 0.666104
vn 0.000000 0.335576 0.942013
f 1/1/1 2/2/2 23/3/3 24/4/4
f 2/2/5 3/5/6 22/6/7 23/3/8
f 3/5/9 4/7/10 21/8/11 22/6/12
f 4/7/13 5/9/14 20/10/15 21/8/16
f 5/9/17 6/11/18 19/12/19 20/10/20
f 6/11/21 7/13/22 26/14/23 19/12/24
f 7/13/25 8/15/26 25/16/27 26/14/28
f 8/15/29 1/17/30 24/18/31 25/16/32
f 2/19/33 1/20/34 17/21/35
f 3/22/36 2/19/37 17/21/38
f 4/23/39 3/22/40 17/21/41
f 5/24/42 4/23/43 17/21/44
f 6/25/45 5/24/46 17/21/47
f 7/26/48 6/25/49 17/21/50
f 8/27/51 7/26/52 17/21/53
f 1/20/54 8/27/55 17/21/56
f 9/28/57 10/29/58 18/30/59
f 10/29/60 11/31/61 18/30/62
f 11/31/63 12/32/64 18/30/65
f 12/32/66 13/33/67 18/30/68
f 13/33/69 14/34/70 18/30/71
f 14/34/72 15/35/73 18/30/74
f 15/35/75 16/36/76 18/30/77
f 16/36/78 9/28/79 18/30/80
f 20/10/81 19/12/82 14/37/83 13/38/84
f 21/8/85 20/10/86 13/38/87 12/39/88
f 22/6/89 21/8/90 12/39/91 11/40/92
f 23/3/93 22/6/94 11/40/95 10/41/96
f 24/4/97 23/3/98 10/41/99 9/42/100
f 25/16/101 24/18/102 9/43/103 16/44/104
f 26/14/105 25/16/106 16/44/107 15/45/108
f 19/12/109 26/14/110 15/45/111 14/37/112
