# This file uses centimeters as units for non-parametric coordinates.

v -21.306929 0.000000 12.556892
v 21.306929 0.000000 12.556892
v -21.306929 38.676270 12.556892
v 21.306929 38.676270 12.556892
v -21.306929 38.676270 -12.556892
v 21.306929 38.676270 -12.556892
v -21.306929 0.000000 -12.556892
v 21.306929 0.000000 -12.556892
v -19.501713 0.000000 10.751678
v 19.501713 0.000000 10.751678
v 19.501713 38.676270 10.751678
v -19.501713 38.676270 10.751678
v -19.501713 38.676270 -10.751678
v 19.501713 38.676270 -10.751678
v 19.501713 0.000000 -10.751678
v -19.501713 0.000000 -10.751678
v -21.306929 19.338135 12.556892
v -21.306929 19.338135 -12.556892
v 21.306929 19.338135 -12.556892
v 21.306929 19.338135 12.556892
v 19.501713 19.338135 10.751678
v 19.501713 19.338135 -10.751678
v -19.501713 19.338135 -10.751678
v -19.501713 19.338135 10.751678
vt 0.889290 0.368820
vt 0.981063 0.368820
vt 0.981063 0.317789
vt 0.889290 0.317789
vt 0.981063 0.317789
vt 0.889290 0.317789
vt 0.889290 0.368820
vt 0.981063 0.368820
vt 0.889290 0.317789
vt 0.981063 0.317789
vt 0.906922 0.368820
vt 0.906922 0.317789
vt 0.981063 0.317789
vt 0.981063 0.368820
vt 0.981063 0.317789
vt 0.981063 0.368820
vt 0.906922 0.368820
vt 0.906922 0.317789
vt 0.906922 0.317789
vt 0.981063 0.317789
vt 0.904001 0.317789
vt 0.889007 0.317789
vt 0.889007 0.368820
vt 0.904001 0.368820
vt 0.904001 0.317789
vt 0.889007 0.317789
vt 0.889007 0.368820
vt 0.904001 0.368820
vt 0.889007 0.317789
vt 0.904001 0.317789
vn 0.000000 0.000000 -1.000000
vn 0.000000 0.000000 -1.000000
vn 0.000000 0.000000 -1.000000
vn 0.000000 0.000000 -1.000000
vn 0.000000 0.000000 1.000000
vn 0.000000 0.000000 1.000000
vn 0.000000 0.000000 1.000000
vn 0.000000 0.000000 1.000000
vn -1.000000 0.000000 0.000000
vn -1.000000 0.000000 0.000000
vn -1.000000 0.000000 0.000000
vn -1.000000 0.000000 0.000000
vn 1.000000 0.000000 0.000000
vn 1.000000 0.000000 0.000000
vn 1.000000 0.000000 0.000000
vn 1.000000 0.000000 0.000000
vn 0.000000 0.000000 1.000000
vn 0.000000 0.000000 1.000000
vn 0.000000 0.000000 1.000000
vn 0.000000 0.000000 1.000000
vn 0.000000 0.000000 -1.000000
vn 0.000000 0.000000 -1.000000
vn 0.000000 0.000000 -1.000000
vn 0.000000 0.000000 -1.000000
vn 1.000000 0.000000 0.000000
vn 1.000000 0.000000 0.000000
vn 1.000000 0.000000 0.000000
vn 1.000000 0.000000 0.000000
vn -1.000000 0.000000 0.000000
vn -1.000000 0.000000 0.000000
vn -1.000000 0.000000 0.000000
vn -1.000000 0.000000 0.000000
vn 0.000000 -1.000000 0.000000
vn 0.000000 -1.000000 0.000000
vn 0.000000 -1.000000 0.000000
vn 0.000000 -1.000000 0.000000
vn 0.000000 1.000000 -0.000001
vn 0.000000 1.000000 -0.000001
vn 0.000000 1.000000 -0.000001
vn 0.000000 1.000000 -0.000001
vn 0.000000 1.000000 0.000001
vn 0.000000 1.000000 0.000001
vn 0.000000 1.000000 0.000001
vn 0.000000 1.000000 0.000001
vn 0.000000 -1.000000 0.000000
vn 0.000000 -1.000000 0.000000
vn 0.000000 -1.000000 0.000000
vn 0.000000 -1.000000 0.000000
vn 0.000000 -1.000000 0.000000
vn 0.000000 -1.000000 0.000000
vn 0.000000 -1.000000 0.000000
vn 0.000000 -1.000000 0.000000
vn 0.000000 1.000000 0.000001
vn 0.000000 1.000000 0.000001
vn 0.000000 1.000000 -0.000001
vn 0.000000 1.000000 -0.000001
vn 0.000000 -1.000000 0.000000
vn 0.000000 -1.000000 0.000000
vn 0.000000 -1.000000 0.000000
vn 0.000000 -1.000000 0.000000
vn 0.000000 1.000000 -0.000001
vn 0.000000 1.000000 -0.000001
vn 0.000000 1.000000 0.000001
vn 0.000000 1.000000 0.000001
vn -1.000000 0.000000 0.000000
vn -1.000000 0.000000 0.000000
vn -1.000000 0.000000 0.000000
vn -1.000000 0.000000 0.000000
vn 0.000000 0.000000 -1.000000
vn 0.000000 0.000000 -1.000000
vn 0.000000 0.000000 -1.000000
vn 0.000000 0.000000 -1.000000
vn 1.000000 0.000000 0.000000
vn 1.000000 0.000000 0.000000
vn 1.000000 0.000000 0.000000
vn 1.000000 0.000000 0.000000
vn 0.000000 0.000000 1.000000
vn 0.000000 0.000000 1.000000
vn 0.000000 0.000000 1.000000
vn 0.000000 0.000000 1.000000
vn -1.000000 0.000000 0.000000
vn -1.000000 0.000000 0.000000
vn -1.000000 0.000000 0.000000
vn -1.000000 0.000000 0.000000
vn 0.000000 0.000000 1.000000
vn 0.000000 0.000000 1.000000
vn 0.000000 0.000000 1.000000
vn 0.000000 0.000000 1.000000
vn 1.000000 0.000000 0.000000
vn 1.000000 0.000000 0.000000
vn 1.000000 0.000000 0.000000
vn 1.000000 0.000000 0.000000
vn 0.000000 0.000000 -1.000000
vn 0.000000 0.000000 -1.000000
vn 0.000000 0.000000 -1.000000
vn 0.000000 0.000000 -1.000000
f 9/1/1 24/2/2 21/3/3 10/4/4
f 23/5/5 16/6/6 15/7/7 22/8/8
f 10/4/9 21/3/10 22/8/11 15/7/12
f 16/9/13 23/10/14 24/2/15 9/1/16
f 1/11/17 2/12/18 20/13/19 17/14/20
f 18/15/21 19/16/22 8/17/23 7/18/24
f 2/12/25 8/17/26 19/16/27 20/13/28
f 7/19/29 1/11/30 17/14/31 18/20/32
f 1/11/33 9/1/34 10/4/35 2/12/36
f 4/21/37 11/22/38 12/23/39 3/24/40
f 5/25/41 13/26/42 14/27/43 6/28/44
f 8/17/45 15/7/46 16/6/47 7/18/48
f 2/12/49 10/4/50 15/7/51 8/17/52
f 6/28/53 14/27/54 11/22/55 4/21/56
f 7/19/57 16/9/58 9/1/59 1/11/60
f 3/24/61 12/23/62 13/29/63 5/30/64
f 18/20/65 17/14/66 3/24/67 5/30/68
f 5/25/69 6/28/70 19/16/71 18/15/72
f 20/13/73 19/16/74 6/28/75 4/21/76
f 17/14/77 20/13/78 4/21/79 3/24/80
f 21/3/81 11/22/82 14/27/83 22/8/84
f 13/26/85 23/5/86 22/8/87 14/27/88
f 24/2/89 23/10/90 13/29/91 12/23/92
f 21/3/93 24/2/94 12/23/95 11/22/96
