# This file uses centimeters as units for non-parametric coordinates.

v -27.323078 0.000000 27.323078
v 27.323078 0.000000 27.323078
v -21.678696 43.357407 21.678696
v 21.678696 43.357407 21.678696
v -21.678696 43.357407 -21.678696
v 21.678696 43.357407 -21.678696
v -27.323078 0.000000 -27.323078
v 27.323078 0.000000 -27.323078
v -25.049484 -0.591980 25.049484
v 25.049484 -0.591980 25.049484
v 19.405094 42.765411 19.405094
v -19.405094 42.765411 19.405094
v -19.405094 42.765411 -19.405094
v 19.405094 42.765411 -19.405094
v 25.049484 -0.591980 -25.049484
v -25.049484 -0.591980 -25.049484
v 24.500889 21.678696 24.500889
v -24.500889 21.678696 24.500889
v -24.500889 21.678696 -24.500889
v 24.500889 21.678696 -24.500889
v -22.227287 21.086716 -22.227287
v 22.227287 21.086716 -22.227287
v 22.227287 21.086716 22.227287
v -22.227287 21.086716 22.227287
vt 0.859136 0.264346
vt 0.771545 0.264346
vt 0.771545 0.300431
vt 0.859137 0.300431
vt 0.771545 0.300431
vt 0.859137 0.300431
vt 0.859136 0.264346
vt 0.771545 0.264346
vt 0.859137 0.300431
vt 0.771545 0.300431
vt 0.764101 0.264346
vt 0.764101 0.300431
vt 0.859137 0.300431
vt 0.859136 0.264346
vt 0.859137 0.300431
vt 0.859136 0.264346
vt 0.764101 0.264346
vt 0.764101 0.300431
vt 0.764101 0.300431
vt 0.859137 0.300431
vt 0.764101 0.264346
vt 0.770684 0.264346
vt 0.770684 0.300431
vt 0.764101 0.300431
vt 0.765161 0.300431
vt 0.765161 0.264346
vt 0.765161 0.300431
vt 0.765161 0.264346
vt 0.764101 0.264346
vt 0.770684 0.264346
vt 0.770684 0.300431
vt 0.764101 0.300431
vt 0.764101 0.264346
vt 0.765161 0.264346
vt 0.764101 0.300431
vt 0.770684 0.300431
vt 0.765161 0.300431
vt 0.765161 0.300431
vt 0.765161 0.264346
vt 0.765161 0.300431
vt 0.765161 0.300431
vt 0.765161 0.264346
vn 0.000000 -0.129094 -0.991632
vn 0.000000 -0.129093 -0.991633
vn 0.000000 -0.129093 -0.991633
vn 0.000000 -0.129094 -0.991632
vn 0.000000 -0.129093 0.991633
vn 0.000000 -0.129094 0.991632
vn 0.000000 -0.129094 0.991632
vn 0.000000 -0.129093 0.991633
vn -0.991632 -0.129094 0.000000
vn -0.991633 -0.129093 0.000000
vn -0.991633 -0.129093 0.000000
vn -0.991632 -0.129094 0.000000
vn 0.991632 -0.129094 0.000000
vn 0.991632 -0.129094 0.000000
vn 0.991633 -0.129093 0.000000
vn 0.991633 -0.129093 0.000000
vn 0.000000 0.129093 0.991633
vn 0.000000 0.129093 0.991633
vn 0.000000 0.129093 0.991632
vn 0.000000 0.129093 0.991632
vn 0.000000 0.129093 -0.991632
vn 0.000000 0.129093 -0.991632
vn 0.000000 0.129093 -0.991633
vn 0.000000 0.129093 -0.991633
vn 0.991632 0.129093 0.000000
vn 0.991632 0.129093 0.000000
vn 0.991632 0.129093 0.000000
vn 0.991632 0.129093 0.000000
vn -0.991632 0.129093 0.000000
vn -0.991632 0.129093 0.000000
vn -0.991632 0.129093 0.000000
vn -0.991632 0.129093 0.000000
vn -0.128034 -0.983471 0.128034
vn -0.128034 -0.983471 0.128034
vn 0.128034 -0.983471 0.128034
vn 0.128034 -0.983471 0.128034
vn -0.128037 0.983470 -0.128036
vn -0.128037 0.983470 -0.128036
vn 0.128037 0.983470 -0.128036
vn 0.128037 0.983470 -0.128036
vn 0.128037 0.983470 0.128036
vn 0.128037 0.983470 0.128036
vn -0.128037 0.983470 0.128036
vn -0.128037 0.983470 0.128036
vn 0.128034 -0.983471 -0.128034
vn 0.128034 -0.983471 -0.128034
vn -0.128034 -0.983471 -0.128034
vn -0.128034 -0.983471 -0.128034
vn 0.128034 -0.983471 0.128034
vn 0.128034 -0.983471 0.128034
vn 0.128034 -0.983471 -0.128034
vn 0.128034 -0.983471 -0.128034
vn -0.128037 0.983470 0.128036
vn -0.128037 0.983470 0.128036
vn -0.128037 0.983470 -0.128036
vn -0.128037 0.983470 -0.128036
vn -0.128034 -0.983471 -0.128034
vn -0.128034 -0.983471 -0.128034
vn -0.128034 -0.983471 0.128034
vn -0.128034 -0.983471 0.128034
vn 0.128037 0.983470 -0.128036
vn 0.128037 0.983470 -0.128036
vn 0.128037 0.983470 0.128036
vn 0.128037 0.983470 0.128036
vn 0.000000 0.129093 0.991632
vn 0.000000 0.129093 0.991632
vn 0.000000 0.129093 0.991632
vn 0.000000 0.129093 0.991632
vn -0.991632 0.129093 0.000000
vn -0.991632 0.129093 0.000000
vn -0.991632 0.129093 0.000000
vn -0.991632 0.129093 0.000000
vn 0.000000 0.129093 -0.991632
vn 0.000000 0.129093 -0.991632
vn 0.000000 0.129093 -0.991632
vn 0.000000 0.129093 -0.991632
vn 0.991632 0.129093 0.000000
vn 0.991632 0.129093 0.000000
vn 0.991632 0.129093 0.000000
vn 0.991632 0.129093 0.000000
vn 0.000000 -0.129094 0.991632
vn 0.000000 -0.129094 0.991632
vn 0.000000 -0.129094 0.991632
vn 0.000000 -0.129094 0.991632
vn -0.991632 -0.129094 0.000000
vn -0.991632 -0.129094 0.000000
vn -0.991632 -0.129094 0.000000
vn -0.991632 -0.129094 0.000000
vn 0.000000 -0.129094 -0.991632
vn 0.000000 -0.129094 -0.991632
vn 0.000000 -0.129094 -0.991632
vn 0.000000 -0.129094 -0.991632
vn 0.991632 -0.129094 0.000000
vn 0.991632 -0.129094 0.000000
vn 0.991632 -0.129094 0.000000
vn 0.991632 -0.129094 0.000000
f 24/1/1 12/2/2 11/3/3 23/4/4
f 13/5/5 21/6/6 22/7/7 14/8/8
f 23/4/9 11/3/10 14/8/11 22/7/12
f 24/1/13 21/9/14 13/10/15 12/2/16
f 1/11/17 2/12/18 17/13/19 18/14/20
f 19/15/21 20/16/22 8/17/23 7/18/24
f 2/12/25 8/17/26 20/16/27 17/13/28
f 7/19/29 1/11/30 18/14/31 19/20/32
f 1/21/33 9/22/34 10/23/35 2/24/36
f 4/25/37 11/3/38 12/2/39 3/26/40
f 5/27/41 13/5/42 14/8/43 6/28/44
f 8/29/45 15/30/46 16/31/47 7/32/48
f 2/24/49 10/23/50 15/30/51 8/33/52
f 6/34/53 14/8/54 11/3/55 4/25/56
f 7/35/57 16/36/58 9/22/59 1/21/60
f 3/26/61 12/2/62 13/10/63 5/37/64
f 18/14/65 17/13/66 4/38/67 3/39/68
f 19/20/69 18/14/70 3/39/71 5/40/72
f 5/41/73 6/42/74 20/16/75 19/15/76
f 17/13/77 20/16/78 6/42/79 4/38/80
f 21/6/81 16/31/82 15/30/83 22/7/84
f 10/23/85 23/4/86 22/7/87 15/30/88
f 9/22/89 24/1/90 23/4/91 10/23/92
f 16/36/93 21/9/94 24/1/95 9/22/96
