# This file uses centimeters as units for non-parametric coordinates.

v -24.367838 0.000000 12.515673
v 24.367838 0.000000 12.515673
v -18.691793 30.021744 6.839628
v 18.691793 30.021744 6.839628
v -18.691793 30.021744 -6.839628
v 18.691793 30.021744 -6.839628
v -24.367838 0.000000 -12.515673
v 24.367838 0.000000 -12.515673
v -17.956375 30.021744 6.193081
v 17.956375 30.021744 6.193081
v 17.956375 30.021744 -6.193081
v -17.956375 30.021744 -6.193081
v -23.913794 0.000000 -11.882899
v 23.913794 0.000000 -11.882899
v 23.913794 0.000000 11.882899
v -23.913794 0.000000 11.882899
vt 0.754621 0.254032
vt 0.754621 0.306260
vt 0.872368 0.306260
vt 0.872368 0.254032
vt 0.872368 0.306260
vt 0.872368 0.254032
vt 0.754621 0.254032
vt 0.754621 0.306260
vt 0.754621 0.254032
vt 0.872368 0.254032
vt 0.856841 0.306260
vt 0.856841 0.254032
vt 0.856841 0.254032
vt 0.856841 0.306260
vt 0.862899 0.254032
vt 0.862899 0.254032
vt 0.862899 0.306260
vt 0.862899 0.306260
vt 0.856841 0.254032
vt 0.862899 0.254032
vt 0.862899 0.254032
vt 0.856841 0.254032
vt 0.862899 0.306260
vt 0.862899 0.306260
vt 0.856841 0.306260
vt 0.856841 0.306260
vt 0.872368 0.306260
vt 0.872368 0.254032
vt 0.754621 0.254032
vt 0.754621 0.306260
vt 0.872368 0.306260
vt 0.754621 0.306260
vt 0.872368 0.306260
vt 0.872368 0.254032
vt 0.754621 0.254032
vt 0.754621 0.306260
vn 0.000000 0.185773 0.982593
vn 0.000000 0.185773 0.982593
vn 0.000000 0.185773 0.982593
vn 0.000000 0.185773 0.982593
vn 0.000000 0.185773 -0.982593
vn 0.000000 0.185773 -0.982593
vn 0.000000 0.185773 -0.982593
vn 0.000000 0.185773 -0.982593
vn 0.982593 0.185773 0.000000
vn 0.982593 0.185773 0.000000
vn 0.982593 0.185773 0.000000
vn 0.982593 0.185773 0.000000
vn -0.982593 0.185773 0.000000
vn -0.982593 0.185773 0.000000
vn -0.982593 0.185773 0.000000
vn -0.982593 0.185773 0.000000
vn 0.000000 1.000000 -0.000003
vn 0.000000 1.000000 -0.000003
vn 0.000000 1.000000 -0.000003
vn 0.000000 1.000000 -0.000003
vn 0.000000 1.000000 0.000000
vn 0.000000 1.000000 0.000000
vn 0.000000 1.000000 0.000000
vn 0.000000 1.000000 0.000000
vn 0.000000 1.000000 0.000003
vn 0.000000 1.000000 0.000003
vn 0.000000 1.000000 0.000003
vn 0.000000 1.000000 0.000003
vn 0.000000 1.000000 0.000000
vn 0.000000 1.000000 0.000000
vn 0.000000 1.000000 0.000000
vn 0.000000 1.000000 0.000000
vn 0.000000 -1.000000 0.000000
vn 0.000000 -1.000000 0.000000
vn 0.000000 -1.000000 0.000000
vn 0.000000 -1.000000 0.000000
vn 0.000000 -1.000000 0.000000
vn 0.000000 -1.000000 0.000000
vn 0.000000 -1.000000 0.000000
vn 0.000000 -1.000000 0.000000
vn 0.000000 -1.000000 0.000000
vn 0.000000 -1.000000 0.000000
vn 0.000000 -1.000000 0.000000
vn 0.000000 -1.000000 0.000000
vn 0.000000 -1.000000 0.000000
vn 0.000000 -1.000000 0.000000
vn 0.000000 -1.000000 0.000000
vn 0.000000 -1.000000 0.000000
vn -0.980874 -0.194642 0.000000
vn -0.980874 -0.194642 0.000000
vn -0.980874 -0.194642 0.000000
vn -0.980874 -0.194642 0.000000
vn 0.000000 -0.186209 0.982510
vn 0.000000 -0.186209 0.982510
vn 0.000000 -0.186209 0.982510
vn 0.000000 -0.186209 0.982510
vn 0.980874 -0.194642 0.000000
vn 0.980874 -0.194642 0.000000
vn 0.980874 -0.194642 0.000000
vn 0.980874 -0.194642 0.000000
vn 0.000000 -0.186209 -0.982510
vn 0.000000 -0.186209 -0.982510
vn 0.000000 -0.186209 -0.982510
vn 0.000000 -0.186209 -0.982510
f 1/1/1 2/2/2 4/3/3 3/4/4
f 5/5/5 6/6/6 8/7/7 7/8/8
f 2/2/9 8/7/10 6/6/11 4/3/12
f 7/8/13 1/9/14 3/10/15 5/5/16
f 3/11/17 4/12/18 10/13/19 9/14/20
f 4/12/21 6/15/22 11/16/23 10/13/24
f 6/15/25 5/17/26 12/18/27 11/16/28
f 5/17/29 3/11/30 9/14/31 12/18/32
f 7/19/33 8/20/34 14/21/35 13/22/36
f 8/20/37 2/23/38 15/24/39 14/21/40
f 2/23/41 1/25/42 16/26/43 15/24/44
f 1/25/45 7/19/46 13/22/47 16/26/48
f 10/27/49 11/28/50 14/29/51 15/30/52
f 11/28/53 12/31/54 13/32/55 14/29/56
f 12/33/57 9/34/58 16/35/59 13/36/60
f 9/34/61 10/27/62 15/30/63 16/35/64
