# This file uses centimeters as units for non-parametric coordinates.

v 23.311687 0.000000 -9.655997
v 17.841995 0.000000 -17.841976
v 9.656023 0.000000 -23.311672
v 0.000012 0.000000 -25.232368
v -9.656001 0.000000 -23.311689
v -17.841978 0.000000 -17.841997
v -23.311670 0.000000 -9.656024
v -25.232376 0.000000 -0.000009
v -23.311680 0.000000 9.656007
v -17.841995 0.000000 17.841982
v -9.656012 0.000000 23.311680
v -0.000007 0.000000 25.232376
v 9.656010 0.000000 23.311680
v 17.841984 0.000000 17.841991
v 23.311680 0.000000 9.656023
v 25.232376 0.000000 -0.000003
v 16.745491 34.595951 -6.936197
v 12.816453 34.595951 -12.816437
v 6.936225 34.595951 -16.745487
v 0.000016 34.595951 -18.125189
v -6.936197 34.595959 -16.745493
v -12.816441 34.595959 -12.816450
v -16.745487 34.595959 -6.936217
v -18.125189 34.595959 -0.000004
v -16.745491 34.595959 6.936200
v -12.816445 34.595959 12.816440
v -6.936212 34.595959 16.745487
v -0.000004 34.595959 18.125189
v 6.936209 34.595959 16.745491
v 12.816436 34.595959 12.816444
v 16.745491 34.595959 6.936209
v 18.125189 34.595959 -0.000001
v 22.385246 0.000000 -9.272257
v 17.132929 0.000000 -17.132912
v 12.307110 34.595951 -12.307095
v 16.080008 34.595951 -6.660543
v 9.272280 0.000000 -22.385229
v 6.660569 34.595951 -16.079996
v 0.000012 0.000000 -24.229605
v 0.000016 34.595951 -17.404865
v -9.272261 0.000000 -22.385246
v -6.660545 34.595959 -16.080009
v -17.132912 0.000000 -17.132933
v -12.307094 34.595959 -12.307109
v -22.385237 0.000000 -9.272281
v -16.080002 34.595959 -6.660563
v -24.229612 0.000000 -0.000008
v -17.404869 34.595959 -0.000004
v -22.385237 0.000000 9.272264
v -16.080008 34.595959 6.660546
v -17.132933 0.000000 17.132914
v -12.307104 34.595959 12.307093
v -9.272272 0.000000 22.385237
v -6.660558 34.595959 16.080000
v -0.000006 0.000000 24.229612
v -0.000004 34.595959 17.404869
v 9.272267 0.000000 22.385244
v 6.660557 34.595959 16.080000
v 17.132921 0.000000 17.132929
v 12.307094 34.595959 12.307104
v 22.385237 0.000000 9.272280
v 16.080008 34.595959 6.660554
v 24.229612 0.000000 -0.000003
v 17.404865 34.595959 -0.000001
vt 0.880298 0.429796
vt 0.998372 0.429796
vt 0.998372 0.426713
vt 0.880298 0.426713
vt 0.998372 0.423629
vt 0.880298 0.423629
vt 0.998372 0.420546
vt 0.880298 0.420546
vt 0.998372 0.417463
vt 0.880298 0.417463
vt 0.998372 0.414380
vt 0.880298 0.414380
vt 0.998372 0.411297
vt 0.880298 0.411297
vt 0.998372 0.408213
vt 0.880298 0.408213
vt 0.998372 0.405130
vt 0.880298 0.405130
vt 0.998372 0.402047
vt 0.880298 0.402047
vt 0.998372 0.398964
vt 0.880298 0.398964
vt 0.998372 0.395881
vt 0.880298 0.395881
vt 0.998372 0.392797
vt 0.880298 0.392797
vt 0.998372 0.389714
vt 0.880298 0.389714
vt 0.998372 0.386631
vt 0.880298 0.386631
vt 0.998372 0.383548
vt 0.880298 0.383548
vt 0.998372 0.380465
vt 0.880298 0.380465
vt 0.883500 0.429796
vt 0.883500 0.426713
vt 0.999286 0.426713
vt 0.999286 0.429796
vt 0.883500 0.423629
vt 0.999286 0.423629
vt 0.883500 0.420546
vt 0.999286 0.420546
vt 0.883500 0.417463
vt 0.999286 0.417463
vt 0.883500 0.414380
vt 0.999286 0.414380
vt 0.883500 0.411297
vt 0.999286 0.411297
vt 0.883500 0.408213
vt 0.999286 0.408213
vt 0.883500 0.405130
vt 0.999286 0.405130
vt 0.883500 0.402047
vt 0.999286 0.402047
vt 0.883500 0.398964
vt 0.999286 0.398964
vt 0.883500 0.395881
vt 0.999286 0.395881
vt 0.883500 0.392797
vt 0.999286 0.392797
vt 0.883500 0.389714
vt 0.999286 0.389714
vt 0.883500 0.386631
vt 0.999286 0.386631
vt 0.883500 0.383548
vt 0.999286 0.383548
vt 0.883500 0.380465
vt 0.999286 0.380465
vt 0.883500 0.429796
vt 0.883500 0.426713
vt 0.999286 0.426713
vt 0.999286 0.429796
vt 0.883500 0.423629
vt 0.999286 0.423629
vt 0.883500 0.420546
vt 0.999286 0.420546
vt 0.883500 0.417463
vt 0.999286 0.417463
vt 0.883500 0.414380
vt 0.999286 0.414380
vt 0.883500 0.411297
vt 0.999286 0.411297
vt 0.883500 0.408213
vt 0.999286 0.408213
vt 0.883500 0.405130
vt 0.999286 0.405130
vt 0.883500 0.402047
vt 0.999286 0.402047
vt 0.883500 0.398964
vt 0.999286 0.398964
vt 0.883500 0.395881
vt 0.999286 0.395881
vt 0.883500 0.392797
vt 0.999286 0.392797
vt 0.883500 0.389714
vt 0.999286 0.389714
vt 0.883500 0.386631
vt 0.999286 0.386631
vt 0.883500 0.383548
vt 0.999286 0.383548
vt 0.883500 0.380465
vt 0.999286 0.380465
vn -0.906411 -0.193540 0.375448
vn -0.906411 -0.193540 0.375448
vn -0.693737 -0.193540 0.693737
vn -0.693737 -0.193540 0.693737
vn -0.693737 -0.193540 0.693737
vn -0.693737 -0.193540 0.693737
vn -0.375448 -0.193540 0.906411
vn -0.375448 -0.193540 0.906411
vn -0.375448 -0.193540 0.906411
vn -0.375448 -0.193540 0.906411
vn -0.000001 -0.193540 0.981092
vn -0.000001 -0.193540 0.981092
vn -0.000001 -0.193540 0.981092
vn -0.000001 -0.193540 0.981092
vn 0.375447 -0.193540 0.906412
vn 0.375447 -0.193540 0.906412
vn 0.375447 -0.193540 0.906412
vn 0.375447 -0.193540 0.906412
vn 0.693737 -0.193540 0.693737
vn 0.693737 -0.193540 0.693737
vn 0.693737 -0.193540 0.693737
vn 0.693737 -0.193540 0.693737
vn 0.906411 -0.193540 0.375448
vn 0.906411 -0.193540 0.375448
vn 0.906411 -0.193540 0.375448
vn 0.906411 -0.193540 0.375448
vn 0.981092 -0.193540 0.000000
vn 0.981092 -0.193540 0.000000
vn 0.981092 -0.193540 0.000000
vn 0.981092 -0.193540 0.000000
vn 0.906411 -0.193540 -0.375448
vn 0.906411 -0.193540 -0.375448
vn 0.906411 -0.193540 -0.375448
vn 0.906411 -0.193540 -0.375448
vn 0.693737 -0.193540 -0.693737
vn 0.693737 -0.193540 -0.693737
vn 0.693737 -0.193540 -0.693737
vn 0.693737 -0.193540 -0.693737
vn 0.375448 -0.193540 -0.906411
vn 0.375448 -0.193540 -0.906411
vn 0.375448 -0.193540 -0.906411
vn 0.375448 -0.193540 -0.906411
vn 0.000000 -0.193540 -0.981092
vn 0.000000 -0.193540 -0.981092
vn 0.000000 -0.193540 -0.981092
vn 0.000000 -0.193540 -0.981092
vn -0.375448 -0.193540 -0.906411
vn -0.375448 -0.193540 -0.906411
vn -0.375448 -0.193540 -0.906411
vn -0.375448 -0.193540 -0.906411
vn -0.693737 -0.193540 -0.693737
vn -0.693737 -0.193540 -0.693737
vn -0.693737 -0.193540 -0.693737
vn -0.693737 -0.193540 -0.693737
vn -0.906411 -0.193540 -0.375448
vn -0.906411 -0.193540 -0.375448
vn -0.906411 -0.193540 -0.375448
vn -0.906411 -0.193540 -0.375448
vn -0.981092 -0.193540 0.000000
vn -0.981092 -0.193540 0.000000
vn -0.981092 -0.193540 0.000000
vn -0.981092 -0.193540 0.000000
vn -0.906411 -0.193540 0.375448
vn -0.906411 -0.193540 0.375448
vn 0.904980 0.201232 -0.374855
vn 0.692643 0.201232 -0.692641
vn 0.692643 0.201232 -0.692641
vn 0.904980 0.201232 -0.374855
vn 0.692643 0.201232 -0.692641
vn 0.374855 0.201232 -0.904980
vn 0.374855 0.201232 -0.904980
vn 0.692643 0.201232 -0.692641
vn 0.374855 0.201232 -0.904980
vn 0.000001 0.201232 -0.979544
vn 0.000001 0.201232 -0.979544
vn 0.374855 0.201232 -0.904980
vn 0.000001 0.201232 -0.979544
vn -0.374854 0.201232 -0.904981
vn -0.374854 0.201232 -0.904981
vn 0.000001 0.201232 -0.979544
vn -0.374854 0.201232 -0.904981
vn -0.692642 0.201232 -0.692642
vn -0.692642 0.201232 -0.692642
vn -0.374854 0.201232 -0.904981
vn -0.692642 0.201232 -0.692642
vn -0.904980 0.201232 -0.374855
vn -0.904980 0.201232 -0.374855
vn -0.692642 0.201232 -0.692642
vn -0.904980 0.201232 -0.374855
vn -0.979544 0.201232 0.000000
vn -0.979544 0.201232 0.000000
vn -0.904980 0.201232 -0.374855
vn -0.979544 0.201232 0.000000
vn -0.904980 0.201232 0.374855
vn -0.904980 0.201232 0.374855
vn -0.979544 0.201232 0.000000
vn -0.904980 0.201232 0.374855
vn -0.692642 0.201232 0.692642
vn -0.692642 0.201232 0.692642
vn -0.904980 0.201232 0.374855
vn -0.692642 0.201232 0.692642
vn -0.374855 0.201232 0.904980
vn -0.374855 0.201232 0.904980
vn -0.692642 0.201232 0.692642
vn -0.374855 0.201232 0.904980
vn 0.000000 0.201232 0.979544
vn 0.000000 0.201232 0.979544
vn -0.374855 0.201232 0.904980
vn 0.000000 0.201232 0.979544
vn 0.374855 0.201232 0.904980
vn 0.374855 0.201232 0.904980
vn 0.000000 0.201232 0.979544
vn 0.374855 0.201232 0.904980
vn 0.692642 0.201232 0.692642
vn 0.692642 0.201232 0.692642
vn 0.374855 0.201232 0.904980
vn 0.692642 0.201232 0.692642
vn 0.904980 0.201232 0.374855
vn 0.904980 0.201232 0.374855
vn 0.692642 0.201232 0.692642
vn 0.904980 0.201232 0.374855
vn 0.979544 0.201232 0.000000
vn 0.979544 0.201232 0.000000
vn 0.904980 0.201232 0.374855
vn 0.979544 0.201232 0.000000
vn 0.904980 0.201232 -0.374855
vn 0.904980 0.201232 -0.374855
vn 0.979544 0.201232 0.000000
vn 0.000000 -1.000000 0.000000
vn 0.000000 -1.000000 0.000000
vn 0.000000 -1.000000 0.000000
vn 0.000000 -1.000000 0.000000
vn 0.000000 1.000000 0.000000
vn 0.000000 1.000000 0.000000
vn 0.000000 1.000000 0.000000
vn 0.000000 1.000000 0.000000
vn 0.000000 -1.000000 0.000000
vn 0.000000 -1.000000 0.000000
vn 0.000000 -1.000000 0.000000
vn 0.000000 -1.000000 0.000000
vn 0.000000 1.000000 0.000000
vn 0.000000 1.000000 0.000000
vn 0.000000 1.000000 0.000000
vn 0.000000 1.000000 0.000000
vn 0.000000 -1.000000 0.000000
vn 0.000000 -1.000000 0.000000
vn 0.000000 -1.000000 0.000000
vn 0.000000 -1.000000 0.000000
vn 0.000001 1.000000 0.000002
vn 0.000001 1.000000 0.000002
vn 0.000000 1.000000 0.000000
vn 0.000000 1.000000 0.000000
vn 0.000000 -1.000000 0.000000
vn 0.000000 -1.000000 0.000000
vn 0.000000 -1.000000 0.000000
vn 0.000000 -1.000000 0.000000
vn 0.000001 1.000000 0.000002
vn 0.000001 1.000000 0.000002
vn 0.000001 1.000000 0.000002
vn 0.000001 1.000000 0.000002
vn 0.000000 -1.000000 0.000000
vn 0.000000 -1.000000 0.000000
vn 0.000000 -1.000000 0.000000
vn 0.000000 -1.000000 0.000000
vn 0.000000 1.000000 0.000000
vn 0.000000 1.000000 0.000000
vn 0.000001 1.000000 0.000002
vn 0.000001 1.000000 0.000002
vn 0.000000 -1.000000 0.000000
vn 0.000000 -1.000000 0.000000
vn 0.000000 -1.000000 0.000000
vn 0.000000 -1.000000 0.000000
vn 0.000000 1.000000 0.000000
vn 0.000000 1.000000 0.000000
vn 0.000000 1.000000 0.000000
vn 0.000000 1.000000 0.000000
vn 0.000000 -1.000000 0.000000
vn 0.000000 -1.000000 0.000000
vn 0.000000 -1.000000 0.000000
vn 0.000000 -1.000000 0.000000
vn 0.000000 1.000000 0.000000
vn 0.000000 1.000000 0.000000
vn 0.000000 1.000000 0.000000
vn 0.000000 1.000000 0.000000
vn 0.000000 -1.000000 0.000000
vn 0.000000 -1.000000 0.000000
vn 0.000000 -1.000000 0.000000
vn 0.000000 -1.000000 0.000000
vn 0.000000 1.000000 -0.000002
vn 0.000000 1.000000 -0.000002
vn 0.000000 1.000000 0.000000
vn 0.000000 1.000000 0.000000
vn 0.000000 -1.000000 0.000000
vn 0.000000 -1.000000 0.000000
vn 0.000000 -1.000000 0.000000
vn 0.000000 -1.000000 0.000000
vn 0.000000 1.000000 -0.000002
vn 0.000000 1.000000 -0.000002
vn 0.000000 1.000000 -0.000002
vn 0.000000 1.000000 -0.000002
vn 0.000000 -1.000000 0.000000
vn 0.000000 -1.000000 0.000000
vn 0.000000 -1.000000 0.000000
vn 0.000000 -1.000000 0.000000
vn 0.000000 1.000000 0.000002
vn 0.000000 1.000000 0.000002
vn 0.000000 1.000000 -0.000002
vn 0.000000 1.000000 -0.000002
vn 0.000000 -1.000000 0.000000
vn 0.000000 -1.000000 0.000000
vn 0.000000 -1.000000 0.000000
vn 0.000000 -1.000000 0.000000
vn 0.000000 1.000000 0.000002
vn 0.000000 1.000000 0.000002
vn 0.000000 1.000000 0.000002
vn 0.000000 1.000000 0.000002
vn 0.000000 -1.000000 0.000000
vn 0.000000 -1.000000 0.000000
vn 0.000000 -1.000000 0.000000
vn 0.000000 -1.000000 0.000000
vn 0.000000 1.000000 0.000000
vn 0.000000 1.000000 0.000000
vn 0.000000 1.000000 0.000002
vn 0.000000 1.000000 0.000002
vn 0.000000 -1.000000 0.000000
vn 0.000000 -1.000000 0.000000
vn 0.000000 -1.000000 0.000000
vn 0.000000 -1.000000 0.000000
vn 0.000000 1.000000 0.000000
vn 0.000000 1.000000 0.000000
vn 0.000000 1.000000 0.000000
vn 0.000000 1.000000 0.000000
vn 0.000000 -1.000000 0.000000
vn 0.000000 -1.000000 0.000000
vn 0.000000 -1.000000 0.000000
vn 0.000000 -1.000000 0.000000
vn 0.000000 1.000000 0.000000
vn 0.000000 1.000000 0.000000
vn 0.000000 1.000000 0.000000
vn 0.000000 1.000000 0.000000
vn 0.000000 -1.000000 0.000000
vn 0.000000 -1.000000 0.000000
vn 0.000000 -1.000000 0.000000
vn 0.000000 -1.000000 0.000000
vn 0.000000 1.000000 -0.000001
vn 0.000000 1.000000 -0.000001
vn 0.000000 1.000000 0.000000
vn 0.000000 1.000000 0.000000
vn 0.000000 -1.000000 0.000000
vn 0.000000 -1.000000 0.000000
vn 0.000000 -1.000000 0.000000
vn 0.000000 -1.000000 0.000000
vn 0.000000 1.000000 0.000000
vn 0.000000 1.000000 0.000000
vn 0.000000 1.000000 -0.000001
vn 0.000000 1.000000 -0.000001
f 33/1/1 36/2/2 35/3/3 34/4/4
f 34/4/5 35/3/6 38/5/7 37/6/8
f 37/6/9 38/5/10 40/7/11 39/8/12
f 39/8/13 40/7/14 42/9/15 41/10/16
f 41/10/17 42/9/18 44/11/19 43/12/20
f 43/12/21 44/11/22 46/13/23 45/14/24
f 45/14/25 46/13/26 48/15/27 47/16/28
f 47/16/29 48/15/30 50/17/31 49/18/32
f 49/18/33 50/17/34 52/19/35 51/20/36
f 51/20/37 52/19/38 54/21/39 53/22/40
f 53/22/41 54/21/42 56/23/43 55/24/44
f 55/24/45 56/23/46 58/25/47 57/26/48
f 57/26/49 58/25/50 60/27/51 59/28/52
f 59/28/53 60/27/54 62/29/55 61/30/56
f 61/30/57 62/29/58 64/31/59 63/32/60
f 63/32/61 64/31/62 36/33/63 33/34/64
f 1/35/65 2/36/66 18/37/67 17/38/68
f 2/36/69 3/39/70 19/40/71 18/37/72
f 3/39/73 4/41/74 20/42/75 19/40/76
f 4/41/77 5/43/78 21/44/79 20/42/80
f 5/43/81 6/45/82 22/46/83 21/44/84
f 6/45/85 7/47/86 23/48/87 22/46/88
f 7/47/89 8/49/90 24/50/91 23/48/92
f 8/49/93 9/51/94 25/52/95 24/50/96
f 9/51/97 10/53/98 26/54/99 25/52/100
f 10/53/101 11/55/102 27/56/103 26/54/104
f 11/55/105 12/57/106 28/58/107 27/56/108
f 12/57/109 13/59/110 29/60/111 28/58/112
f 13/59/113 14/61/114 30/62/115 29/60/116
f 14/61/117 15/63/118 31/64/119 30/62/120
f 15/63/121 16/65/122 32/66/123 31/64/124
f 16/65/125 1/67/126 17/68/127 32/66/128
f 1/69/129 33/1/130 34/4/131 2/70/132
f 18/71/133 35/3/134 36/2/135 17/72/136
f 2/70/137 34/4/138 37/6/139 3/73/140
f 19/74/141 38/5/142 35/3/143 18/71/144
f 3/73/145 37/6/146 39/8/147 4/75/148
f 20/76/149 40/7/150 38/5/151 19/74/152
f 4/75/153 39/8/154 41/10/155 5/77/156
f 21/78/157 42/9/158 40/7/159 20/76/160
f 5/77/161 41/10/162 43/12/163 6/79/164
f 22/80/165 44/11/166 42/9/167 21/78/168
f 6/79/169 43/12/170 45/14/171 7/81/172
f 23/82/173 46/13/174 44/11/175 22/80/176
f 7/81/177 45/14/178 47/16/179 8/83/180
f 24/84/181 48/15/182 46/13/183 23/82/184
f 8/83/185 47/16/186 49/18/187 9/85/188
f 25/86/189 50/17/190 48/15/191 24/84/192
f 9/85/193 49/18/194 51/20/195 10/87/196
f 26/88/197 52/19/198 50/17/199 25/86/200
f 10/87/201 51/20/202 53/22/203 11/89/204
f 27/90/205 54/21/206 52/19/207 26/88/208
f 11/89/209 53/22/210 55/24/211 12/91/212
f 28/92/213 56/23/214 54/21/215 27/90/216
f 12/91/217 55/24/218 57/26/219 13/93/220
f 29/94/221 58/25/222 56/23/223 28/92/224
f 13/93/225 57/26/226 59/28/227 14/95/228
f 30/96/229 60/27/230 58/25/231 29/94/232
f 14/95/233 59/28/234 61/30/235 15/97/236
f 31/98/237 62/29/238 60/27/239 30/96/240
f 15/97/241 61/30/242 63/32/243 16/99/244
f 32/100/245 64/31/246 62/29/247 31/98/248
f 16/99/249 63/32/250 33/34/251 1/101/252
f 17/102/253 36/33/254 64/31/255 32/100/256
