# This file uses centimeters as units for non-parametric coordinates.

v 23.311687 0.000000 -9.655997
v 17.841995 0.000000 -17.841976
v 9.656023 0.000000 -23.311672
v 0.000012 0.000000 -25.232368
v -9.656001 0.000000 -23.311689
v -17.841978 0.000000 -17.841997
v -23.311670 0.000000 -9.656024
v -25.232376 0.000000 -0.000009
v -23.311680 0.000000 9.656007
v -17.841995 0.000000 17.841982
v -9.656012 0.000000 23.311680
v -0.000007 0.000000 25.232376
v 9.656010 0.000000 23.311680
v 17.841984 0.000000 17.841991
v 23.311680 0.000000 9.656023
v 25.232376 0.000000 -0.000003
v 13.983766 39.698292 -5.792254
v 10.702717 39.698292 -10.702704
v 5.792278 39.698292 -13.983762
v 0.000013 39.698292 -15.135918
v -5.792254 39.698299 -13.983766
v -10.702707 39.698299 -10.702715
v -13.983761 39.698299 -5.792271
v -15.135917 39.698299 -0.000004
v -13.983766 39.698299 5.792257
v -10.702710 39.698299 10.702706
v -5.792267 39.698299 13.983761
v -0.000003 39.698299 15.135917
v 5.792264 39.698299 13.983765
v 10.702703 39.698299 10.702710
v 13.983766 39.698299 5.792264
v 15.135917 39.698299 0.000000
v 22.385246 0.000000 -9.272257
v 17.132929 0.000000 -17.132912
v 10.277377 39.698292 -10.277364
v 13.428035 39.698292 -5.562062
v 9.272280 0.000000 -22.385229
v 5.562084 39.698292 -13.428026
v 0.000012 0.000000 -24.229605
v 0.000013 39.698292 -14.534393
v -9.272261 0.000000 -22.385246
v -5.562064 39.698299 -13.428036
v -17.132912 0.000000 -17.132933
v -10.277363 39.698299 -10.277376
v -22.385237 0.000000 -9.272281
v -13.428029 39.698299 -5.562078
v -24.229612 0.000000 -0.000008
v -14.534396 39.698299 -0.000003
v -22.385237 0.000000 9.272264
v -13.428035 39.698299 5.562065
v -17.132933 0.000000 17.132914
v -10.277372 39.698299 10.277363
v -9.272272 0.000000 22.385237
v -5.562075 39.698299 13.428029
v -0.000006 0.000000 24.229612
v -0.000003 39.698299 14.534396
v 9.272267 0.000000 22.385244
v 5.562074 39.698299 13.428029
v 17.132921 0.000000 17.132929
v 10.277363 39.698299 10.277372
v 22.385237 0.000000 9.272280
v 13.428035 39.698299 5.562072
v 24.229612 0.000000 -0.000003
v 14.534392 39.698299 -0.000001
vt 0.755298 0.367296
vt 0.873372 0.367296
vt 0.873372 0.364213
vt 0.755298 0.364213
vt 0.873372 0.361129
vt 0.755298 0.361129
vt 0.873372 0.358046
vt 0.755298 0.358046
vt 0.873372 0.354963
vt 0.755298 0.354963
vt 0.873372 0.351880
vt 0.755298 0.351880
vt 0.873372 0.348797
vt 0.755298 0.348797
vt 0.873372 0.345713
vt 0.755298 0.345713
vt 0.873372 0.342630
vt 0.755298 0.342630
vt 0.873372 0.339547
vt 0.755298 0.339547
vt 0.873372 0.336464
vt 0.755298 0.336464
vt 0.873372 0.333381
vt 0.755298 0.333381
vt 0.873372 0.330297
vt 0.755298 0.330297
vt 0.873372 0.327214
vt 0.755298 0.327214
vt 0.873372 0.324131
vt 0.755298 0.324131
vt 0.873372 0.321048
vt 0.755298 0.321048
vt 0.873372 0.317965
vt 0.755298 0.317965
vt 0.758500 0.367296
vt 0.758500 0.364213
vt 0.874286 0.364213
vt 0.874286 0.367296
vt 0.758500 0.361129
vt 0.874286 0.361129
vt 0.758500 0.358046
vt 0.874286 0.358046
vt 0.758500 0.354963
vt 0.874286 0.354963
vt 0.758500 0.351880
vt 0.874286 0.351880
vt 0.758500 0.348797
vt 0.874286 0.348797
vt 0.758500 0.345713
vt 0.874286 0.345713
vt 0.758500 0.342630
vt 0.874286 0.342630
vt 0.758500 0.339547
vt 0.874286 0.339547
vt 0.758500 0.336464
vt 0.874286 0.336464
vt 0.758500 0.333381
vt 0.874286 0.333381
vt 0.758500 0.330297
vt 0.874286 0.330297
vt 0.758500 0.327214
vt 0.874286 0.327214
vt 0.758500 0.324131
vt 0.874286 0.324131
vt 0.758500 0.321048
vt 0.874286 0.321048
vt 0.758500 0.317965
vt 0.874286 0.317965
vt 0.758500 0.367296
vt 0.758500 0.364213
vt 0.874286 0.364213
vt 0.874286 0.367296
vt 0.758500 0.361129
vt 0.874286 0.361129
vt 0.758500 0.358046
vt 0.874286 0.358046
vt 0.758500 0.354963
vt 0.874286 0.354963
vt 0.758500 0.351880
vt 0.874286 0.351880
vt 0.758500 0.348797
vt 0.874286 0.348797
vt 0.758500 0.345713
vt 0.874286 0.345713
vt 0.758500 0.342630
vt 0.874286 0.342630
vt 0.758500 0.339547
vt 0.874286 0.339547
vt 0.758500 0.336464
vt 0.874286 0.336464
vt 0.758500 0.333381
vt 0.874286 0.333381
vt 0.758500 0.330297
vt 0.874286 0.330297
vt 0.758500 0.327214
vt 0.874286 0.327214
vt 0.758500 0.324131
vt 0.874286 0.324131
vt 0.758500 0.321048
vt 0.874286 0.321048
vt 0.758500 0.317965
vt 0.874286 0.317965
vn -0.897502 -0.237250 0.371757
vn -0.897502 -0.237250 0.371757
vn -0.686918 -0.237250 0.686918
vn -0.686918 -0.237250 0.686918
vn -0.686918 -0.237250 0.686918
vn -0.686918 -0.237250 0.686918
vn -0.371758 -0.237249 0.897502
vn -0.371758 -0.237249 0.897502
vn -0.371758 -0.237249 0.897502
vn -0.371758 -0.237249 0.897502
vn -0.000001 -0.237250 0.971449
vn -0.000001 -0.237250 0.971449
vn -0.000001 -0.237250 0.971449
vn -0.000001 -0.237250 0.971449
vn 0.371757 -0.237250 0.897502
vn 0.371757 -0.237250 0.897502
vn 0.371757 -0.237250 0.897502
vn 0.371757 -0.237250 0.897502
vn 0.686918 -0.237250 0.686918
vn 0.686918 -0.237250 0.686918
vn 0.686918 -0.237250 0.686918
vn 0.686918 -0.237250 0.686918
vn 0.897501 -0.237250 0.371758
vn 0.897501 -0.237250 0.371758
vn 0.897501 -0.237250 0.371758
vn 0.897501 -0.237250 0.371758
vn 0.971449 -0.237250 0.000000
vn 0.971449 -0.237250 0.000000
vn 0.971449 -0.237250 0.000000
vn 0.971449 -0.237250 0.000000
vn 0.897502 -0.237250 -0.371757
vn 0.897502 -0.237249 -0.371757
vn 0.897502 -0.237249 -0.371757
vn 0.897502 -0.237250 -0.371757
vn 0.686918 -0.237250 -0.686918
vn 0.686918 -0.237250 -0.686918
vn 0.686918 -0.237250 -0.686918
vn 0.686918 -0.237250 -0.686918
vn 0.371758 -0.237250 -0.897501
vn 0.371758 -0.237250 -0.897501
vn 0.371758 -0.237250 -0.897501
vn 0.371758 -0.237250 -0.897501
vn 0.000000 -0.237250 -0.971449
vn 0.000000 -0.237250 -0.971449
vn 0.000000 -0.237250 -0.971449
vn 0.000000 -0.237250 -0.971449
vn -0.371757 -0.237250 -0.897502
vn -0.371757 -0.237250 -0.897502
vn -0.371757 -0.237250 -0.897502
vn -0.371757 -0.237250 -0.897502
vn -0.686918 -0.237250 -0.686918
vn -0.686918 -0.237250 -0.686918
vn -0.686918 -0.237250 -0.686918
vn -0.686918 -0.237250 -0.686918
vn -0.897502 -0.237250 -0.371757
vn -0.897502 -0.237250 -0.371757
vn -0.897502 -0.237250 -0.371757
vn -0.897502 -0.237250 -0.371757
vn -0.971449 -0.237250 0.000000
vn -0.971449 -0.237250 0.000000
vn -0.971449 -0.237250 0.000000
vn -0.971449 -0.237250 0.000000
vn -0.897502 -0.237250 0.371757
vn -0.897502 -0.237250 0.371757
vn 0.895375 0.246483 -0.370876
vn 0.685291 0.246483 -0.685290
vn 0.685291 0.246483 -0.685290
vn 0.895375 0.246483 -0.370876
vn 0.685291 0.246483 -0.685290
vn 0.370877 0.246483 -0.895375
vn 0.370877 0.246483 -0.895375
vn 0.685291 0.246483 -0.685290
vn 0.370877 0.246483 -0.895375
vn 0.000001 0.246483 -0.969147
vn 0.000001 0.246483 -0.969147
vn 0.370877 0.246483 -0.895375
vn 0.000001 0.246483 -0.969147
vn -0.370876 0.246483 -0.895375
vn -0.370876 0.246483 -0.895375
vn 0.000001 0.246483 -0.969147
vn -0.370876 0.246483 -0.895375
vn -0.685290 0.246483 -0.685291
vn -0.685290 0.246483 -0.685291
vn -0.370876 0.246483 -0.895375
vn -0.685290 0.246483 -0.685291
vn -0.895375 0.246483 -0.370877
vn -0.895375 0.246483 -0.370877
vn -0.685290 0.246483 -0.685291
vn -0.895375 0.246483 -0.370877
vn -0.969147 0.246483 0.000000
vn -0.969147 0.246483 0.000000
vn -0.895375 0.246483 -0.370877
vn -0.969147 0.246483 0.000000
vn -0.895375 0.246483 0.370876
vn -0.895375 0.246483 0.370876
vn -0.969147 0.246483 0.000000
vn -0.895375 0.246483 0.370876
vn -0.685291 0.246483 0.685290
vn -0.685291 0.246483 0.685290
vn -0.895375 0.246483 0.370876
vn -0.685291 0.246483 0.685290
vn -0.370877 0.246483 0.895375
vn -0.370877 0.246483 0.895375
vn -0.685291 0.246483 0.685290
vn -0.370877 0.246483 0.895375
vn 0.000000 0.246483 0.969147
vn 0.000000 0.246483 0.969147
vn -0.370877 0.246483 0.895375
vn 0.000000 0.246483 0.969147
vn 0.370876 0.246483 0.895375
vn 0.370876 0.246483 0.895375
vn 0.000000 0.246483 0.969147
vn 0.370876 0.246483 0.895375
vn 0.685290 0.246483 0.685291
vn 0.685290 0.246483 0.685291
vn 0.370876 0.246483 0.895375
vn 0.685290 0.246483 0.685291
vn 0.895375 0.246483 0.370877
vn 0.895375 0.246483 0.370877
vn 0.685290 0.246483 0.685291
vn 0.895375 0.246483 0.370877
vn 0.969147 0.246483 0.000000
vn 0.969147 0.246483 0.000000
vn 0.895375 0.246483 0.370877
vn 0.969147 0.246483 0.000000
vn 0.895375 0.246483 -0.370876
vn 0.895375 0.246483 -0.370876
vn 0.969147 0.246483 0.000000
vn 0.000000 -1.000000 0.000000
vn 0.000000 -1.000000 0.000000
vn 0.000000 -1.000000 0.000000
vn 0.000000 -1.000000 0.000000
vn 0.000000 1.000000 0.000000
vn 0.000000 1.000000 0.000000
vn 0.000000 1.000000 -0.000001
vn 0.000000 1.000000 -0.000001
vn 0.000000 -1.000000 0.000000
vn 0.000000 -1.000000 0.000000
vn 0.000000 -1.000000 0.000000
vn 0.000000 -1.000000 0.000000
vn 0.000000 1.000000 0.000000
vn 0.000000 1.000000 0.000000
vn 0.000000 1.000000 0.000000
vn 0.000000 1.000000 0.000000
vn 0.000000 -1.000000 0.000000
vn 0.000000 -1.000000 0.000000
vn 0.000000 -1.000000 0.000000
vn 0.000000 -1.000000 0.000000
vn 0.000001 1.000000 0.000000
vn 0.000001 1.000000 0.000000
vn 0.000000 1.000000 0.000000
vn 0.000000 1.000000 0.000000
vn 0.000000 -1.000000 0.000000
vn 0.000000 -1.000000 0.000000
vn 0.000000 -1.000000 0.000000
vn 0.000000 -1.000000 0.000000
vn 0.000001 1.000000 0.000002
vn 0.000001 1.000000 0.000002
vn 0.000001 1.000000 0.000000
vn 0.000001 1.000000 0.000000
vn 0.000000 -1.000000 0.000000
vn 0.000000 -1.000000 0.000000
vn 0.000000 -1.000000 0.000000
vn 0.000000 -1.000000 0.000000
vn 0.000000 1.000000 0.000002
vn 0.000000 1.000000 0.000002
vn 0.000001 1.000000 0.000002
vn 0.000001 1.000000 0.000002
vn 0.000000 -1.000000 0.000000
vn 0.000000 -1.000000 0.000000
vn 0.000000 -1.000000 0.000000
vn 0.000000 -1.000000 0.000000
vn 0.000000 1.000000 -0.000001
vn 0.000000 1.000000 -0.000001
vn 0.000000 1.000000 0.000002
vn 0.000000 1.000000 0.000002
vn 0.000000 -1.000000 0.000000
vn 0.000000 -1.000000 0.000000
vn 0.000000 -1.000000 0.000000
vn 0.000000 -1.000000 0.000000
vn 0.000000 1.000000 -0.000001
vn 0.000000 1.000000 -0.000001
vn 0.000000 1.000000 -0.000001
vn 0.000000 1.000000 -0.000001
vn 0.000000 -1.000000 0.000000
vn 0.000000 -1.000000 0.000000
vn 0.000000 -1.000000 0.000000
vn 0.000000 -1.000000 0.000000
vn 0.000000 1.000000 0.000000
vn 0.000000 1.000000 0.000000
vn 0.000000 1.000000 -0.000001
vn 0.000000 1.000000 -0.000001
vn 0.000000 -1.000000 0.000000
vn 0.000000 -1.000000 0.000000
vn 0.000000 -1.000000 0.000000
vn 0.000000 -1.000000 0.000000
vn 0.000000 1.000000 0.000000
vn 0.000000 1.000000 0.000000
vn 0.000000 1.000000 0.000000
vn 0.000000 1.000000 0.000000
vn 0.000000 -1.000000 0.000000
vn 0.000000 -1.000000 0.000000
vn 0.000000 -1.000000 0.000000
vn 0.000000 -1.000000 0.000000
vn 0.000000 1.000000 0.000000
vn 0.000000 1.000000 0.000000
vn 0.000000 1.000000 0.000000
vn 0.000000 1.000000 0.000000
vn 0.000000 -1.000000 0.000000
vn 0.000000 -1.000000 0.000000
vn 0.000000 -1.000000 0.000000
vn 0.000000 -1.000000 0.000000
vn 0.000000 1.000000 0.000002
vn 0.000000 1.000000 0.000002
vn 0.000000 1.000000 0.000000
vn 0.000000 1.000000 0.000000
vn 0.000000 -1.000000 0.000000
vn 0.000000 -1.000000 0.000000
vn 0.000000 -1.000000 0.000000
vn 0.000000 -1.000000 0.000000
vn 0.000000 1.000000 0.000002
vn 0.000000 1.000000 0.000002
vn 0.000000 1.000000 0.000002
vn 0.000000 1.000000 0.000002
vn 0.000000 -1.000000 0.000000
vn 0.000000 -1.000000 0.000000
vn 0.000000 -1.000000 0.000000
vn 0.000000 -1.000000 0.000000
vn 0.000000 1.000000 -0.000002
vn 0.000000 1.000000 -0.000002
vn 0.000000 1.000000 0.000002
vn 0.000000 1.000000 0.000002
vn 0.000000 -1.000000 0.000000
vn 0.000000 -1.000000 0.000000
vn 0.000000 -1.000000 0.000000
vn 0.000000 -1.000000 0.000000
vn 0.000000 1.000000 -0.000003
vn 0.000000 1.000000 -0.000003
vn 0.000000 1.000000 -0.000002
vn 0.000000 1.000000 -0.000002
vn 0.000000 -1.000000 0.000000
vn 0.000000 -1.000000 0.000000
vn 0.000000 -1.000000 0.000000
vn 0.000000 -1.000000 0.000000
vn 0.000000 1.000000 -0.000002
vn 0.000000 1.000000 -0.000002
vn 0.000000 1.000000 -0.000003
vn 0.000000 1.000000 -0.000003
vn 0.000000 -1.000000 0.000000
vn 0.000000 -1.000000 0.000000
vn 0.000000 -1.000000 0.000000
vn 0.000000 -1.000000 0.000000
vn 0.000000 1.000000 -0.000001
vn 0.000000 1.000000 -0.000001
vn 0.000000 1.000000 -0.000002
vn 0.000000 1.000000 -0.000002
f 33/1/1 36/2/2 35/3/3 34/4/4
f 34/4/5 35/3/6 38/5/7 37/6/8
f 37/6/9 38/5/10 40/7/11 39/8/12
f 39/8/13 40/7/14 42/9/15 41/10/16
f 41/10/17 42/9/18 44/11/19 43/12/20
f 43/12/21 44/11/22 46/13/23 45/14/24
f 45/14/25 46/13/26 48/15/27 47/16/28
f 47/16/29 48/15/30 50/17/31 49/18/32
f 49/18/33 50/17/34 52/19/35 51/20/36
f 51/20/37 52/19/38 54/21/39 53/22/40
f 53/22/41 54/21/42 56/23/43 55/24/44
f 55/24/45 56/23/46 58/25/47 57/26/48
f 57/26/49 58/25/50 60/27/51 59/28/52
f 59/28/53 60/27/54 62/29/55 61/30/56
f 61/30/57 62/29/58 64/31/59 63/32/60
f 63/32/61 64/31/62 36/33/63 33/34/64
f 1/35/65 2/36/66 18/37/67 17/38/68
f 2/36/69 3/39/70 19/40/71 18/37/72
f 3/39/73 4/41/74 20/42/75 19/40/76
f 4/41/77 5/43/78 21/44/79 20/42/80
f 5/43/81 6/45/82 22/46/83 21/44/84
f 6/45/85 7/47/86 23/48/87 22/46/88
f 7/47/89 8/49/90 24/50/91 23/48/92
f 8/49/93 9/51/94 25/52/95 24/50/96
f 9/51/97 10/53/98 26/54/99 25/52/100
f 10/53/101 11/55/102 27/56/103 26/54/104
f 11/55/105 12/57/106 28/58/107 27/56/108
f 12/57/109 13/59/110 29/60/111 28/58/112
f 13/59/113 14/61/114 30/62/115 29/60/116
f 14/61/117 15/63/118 31/64/119 30/62/120
f 15/63/121 16/65/122 32/66/123 31/64/124
f 16/65/125 1/67/126 17/68/127 32/66/128
f 1/69/129 33/1/130 34/4/131 2/70/132
f 18/71/133 35/3/134 36/2/135 17/72/136
f 2/70/137 34/4/138 37/6/139 3/73/140
f 19/74/141 38/5/142 35/3/143 18/71/144
f 3/73/145 37/6/146 39/8/147 4/75/148
f 20/76/149 40/7/150 38/5/151 19/74/152
f 4/75/153 39/8/154 41/10/155 5/77/156
f 21/78/157 42/9/158 40/7/159 20/76/160
f 5/77/161 41/10/162 43/12/163 6/79/164
f 22/80/165 44/11/166 42/9/167 21/78/168
f 6/79/169 43/12/170 45/14/171 7/81/172
f 23/82/173 46/13/174 44/11/175 22/80/176
f 7/81/177 45/14/178 47/16/179 8/83/180
f 24/84/181 48/15/182 46/13/183 23/82/184
f 8/83/185 47/16/186 49/18/187 9/85/188
f 25/86/189 50/17/190 48/15/191 24/84/192
f 9/85/193 49/18/194 51/20/195 10/87/196
f 26/88/197 52/19/198 50/17/199 25/86/200
f 10/87/201 51/20/202 53/22/203 11/89/204
f 27/90/205 54/21/206 52/19/207 26/88/208
f 11/89/209 53/22/210 55/24/211 12/91/212
f 28/92/213 56/23/214 54/21/215 27/90/216
f 12/91/217 55/24/218 57/26/219 13/93/220
f 29/94/221 58/25/222 56/23/223 28/92/224
f 13/93/225 57/26/226 59/28/227 14/95/228
f 30/96/229 60/27/230 58/25/231 29/94/232
f 14/95/233 59/28/234 61/30/235 15/97/236
f 31/98/237 62/29/238 60/27/239 30/96/240
f 15/97/241 61/30/242 63/32/243 16/99/244
f 32/100/245 64/31/246 62/29/247 31/98/248
f 16/99/249 63/32/250 33/34/251 1/101/252
f 17/102/253 36/33/254 64/31/255 32/100/256
