# This file uses centimeters as units for non-parametric coordinates.

v -20.746469 0.000000 9.287708
v 20.746469 0.000000 9.287708
v -20.746469 26.986595 9.287708
v 20.746469 26.986595 9.287708
v -20.746469 26.986595 -9.287708
v 20.746469 26.986595 -9.287708
v -20.746469 0.000000 -9.287708
v 20.746469 0.000000 -9.287708
v -21.573343 0.000000 10.114582
v 21.573343 0.000000 10.114582
v 21.573343 26.986595 10.114582
v -21.573343 26.986595 10.114582
v -21.573343 26.986595 -10.114582
v 21.573343 26.986595 -10.114582
v 21.573343 0.000000 -10.114582
v -21.573343 0.000000 -10.114582
v -21.573343 13.493298 -10.114582
v -21.573343 13.493298 10.114582
v 21.573343 13.493298 10.114582
v 21.573343 13.493298 -10.114582
v 20.746469 13.493298 9.287708
v 20.746469 13.493298 -9.287708
v -20.746469 13.493298 -9.287708
v -20.746469 13.493298 9.287708
vt 0.854124 0.195779
vt 0.854124 0.240442
vt 0.783210 0.240442
vt 0.783210 0.195779
vt 0.783210 0.240442
vt 0.783210 0.195779
vt 0.854124 0.195779
vt 0.854124 0.240442
vt 0.854124 0.240442
vt 0.783210 0.240442
vt 0.784707 0.195779
vt 0.854124 0.195779
vt 0.854124 0.240442
vt 0.784707 0.240442
vt 0.854124 0.240442
vt 0.784707 0.240442
vt 0.784707 0.195779
vt 0.854124 0.195779
vt 0.784707 0.240442
vt 0.854124 0.240442
vt 0.784707 0.195779
vt 0.784707 0.240442
vt 0.772886 0.240442
vt 0.772886 0.195779
vt 0.774230 0.240442
vt 0.774230 0.195779
vt 0.774230 0.240442
vt 0.774230 0.195779
vt 0.784707 0.195779
vt 0.784707 0.240442
vt 0.772886 0.240442
vt 0.772886 0.195779
vt 0.784707 0.195779
vt 0.784707 0.240442
vt 0.772886 0.240442
vt 0.774230 0.240442
vn 0.000000 0.000000 1.000000
vn 0.000000 0.000000 1.000000
vn 0.000000 0.000000 1.000000
vn 0.000000 0.000000 1.000000
vn 0.000000 0.000000 -1.000000
vn 0.000000 0.000000 -1.000000
vn 0.000000 0.000000 -1.000000
vn 0.000000 0.000000 -1.000000
vn 1.000000 0.000000 0.000000
vn 1.000000 0.000000 0.000000
vn 1.000000 0.000000 0.000000
vn 1.000000 0.000000 0.000000
vn -1.000000 0.000000 0.000000
vn -1.000000 0.000000 0.000000
vn -1.000000 0.000000 0.000000
vn -1.000000 0.000000 0.000000
vn 0.000000 0.000000 -1.000000
vn 0.000000 0.000000 -1.000000
vn 0.000000 0.000000 -1.000000
vn 0.000000 0.000000 -1.000000
vn 0.000000 0.000000 1.000000
vn 0.000000 0.000000 1.000000
vn 0.000000 0.000000 1.000000
vn 0.000000 0.000000 1.000000
vn -1.000000 0.000000 0.000000
vn -1.000000 0.000000 0.000000
vn -1.000000 0.000000 0.000000
vn -1.000000 0.000000 0.000000
vn 1.000000 0.000000 0.000000
vn 1.000000 0.000000 0.000000
vn 1.000000 0.000000 0.000000
vn 1.000000 0.000000 0.000000
vn 0.000000 -1.000000 0.000000
vn 0.000000 -1.000000 0.000000
vn 0.000000 -1.000000 0.000000
vn 0.000000 -1.000000 0.000000
vn 0.000000 1.000000 -0.000001
vn 0.000000 1.000000 -0.000001
vn 0.000000 1.000000 -0.000001
vn 0.000000 1.000000 -0.000001
vn 0.000000 1.000000 0.000001
vn 0.000000 1.000000 0.000001
vn 0.000000 1.000000 0.000001
vn 0.000000 1.000000 0.000001
vn 0.000000 -1.000000 0.000000
vn 0.000000 -1.000000 0.000000
vn 0.000000 -1.000000 0.000000
vn 0.000000 -1.000000 0.000000
vn 0.000000 -1.000000 0.000000
vn 0.000000 -1.000000 0.000000
vn 0.000000 -1.000000 0.000000
vn 0.000000 -1.000000 0.000000
vn 0.000000 1.000000 0.000001
vn 0.000000 1.000000 -0.000001
vn 0.000000 1.000000 -0.000001
vn 0.000000 1.000000 0.000001
vn 0.000000 -1.000000 0.000000
vn 0.000000 -1.000000 0.000000
vn 0.000000 -1.000000 0.000000
vn 0.000000 -1.000000 0.000000
vn 0.000000 1.000000 -0.000001
vn 0.000000 1.000000 0.000001
vn 0.000000 1.000000 0.000001
vn 0.000000 1.000000 -0.000001
vn -1.000000 0.000000 0.000000
vn -1.000000 0.000000 0.000000
vn -1.000000 0.000000 0.000000
vn -1.000000 0.000000 0.000000
vn 0.000000 0.000000 1.000000
vn 0.000000 0.000000 1.000000
vn 0.000000 0.000000 1.000000
vn 0.000000 0.000000 1.000000
vn 1.000000 0.000000 0.000000
vn 1.000000 0.000000 0.000000
vn 1.000000 0.000000 0.000000
vn 1.000000 0.000000 0.000000
vn 0.000000 0.000000 -1.000000
vn 0.000000 0.000000 -1.000000
vn 0.000000 0.000000 -1.000000
vn 0.000000 0.000000 -1.000000
vn -1.000000 0.000000 0.000000
vn -1.000000 0.000000 0.000000
vn -1.000000 0.000000 0.000000
vn -1.000000 0.000000 0.000000
vn 0.000000 0.000000 1.000000
vn 0.000000 0.000000 1.000000
vn 0.000000 0.000000 1.000000
vn 0.000000 0.000000 1.000000
vn 1.000000 0.000000 0.000000
vn 1.000000 0.000000 0.000000
vn 1.000000 0.000000 0.000000
vn 1.000000 0.000000 0.000000
vn 0.000000 0.000000 -1.000000
vn 0.000000 0.000000 -1.000000
vn 0.000000 0.000000 -1.000000
vn 0.000000 0.000000 -1.000000
f 18/1/1 19/2/2 11/3/3 12/4/4
f 13/5/5 14/6/6 20/7/7 17/8/8
f 19/2/9 20/7/10 14/6/11 11/3/12
f 17/9/13 18/1/14 12/4/15 13/10/16
f 1/11/17 24/12/18 21/13/19 2/14/20
f 23/15/21 7/16/22 8/17/23 22/18/24
f 2/14/25 21/13/26 22/18/27 8/17/28
f 7/19/29 23/20/30 24/12/31 1/11/32
f 1/21/33 2/22/34 10/23/35 9/24/36
f 4/25/37 3/26/38 12/4/39 11/3/40
f 5/27/41 6/28/42 14/6/43 13/5/44
f 8/29/45 7/30/46 16/31/47 15/32/48
f 2/22/49 8/33/50 15/32/51 10/23/52
f 6/28/53 4/25/54 11/3/55 14/6/56
f 7/34/57 1/21/58 9/24/59 16/35/60
f 3/26/61 5/36/62 13/10/63 12/4/64
f 16/35/65 9/24/66 18/1/67 17/9/68
f 9/24/69 10/23/70 19/2/71 18/1/72
f 10/23/73 15/32/74 20/7/75 19/2/76
f 17/8/77 20/7/78 15/32/79 16/31/80
f 21/13/81 4/25/82 6/28/83 22/18/84
f 5/27/85 23/15/86 22/18/87 6/28/88
f 24/12/89 23/20/90 5/36/91 3/26/92
f 21/13/93 24/12/94 3/26/95 4/25/96
