# This file uses meters as units for non-parametric coordinates.

v -29.698723 41.940105 38.730873
v 29.698723 41.940105 38.730873
v 29.698723 41.940105 -28.474070
v -29.698723 41.940105 -28.474070
v -31.754036 63.667782 38.730873
v -31.982380 63.439442 38.730873
v -31.982380 63.439442 -31.200648
v -31.754036 63.667782 -30.972300
v -31.982380 40.668854 38.730873
v -31.754036 40.440506 38.730873
v -31.754036 40.440506 -30.972300
v -31.982380 40.668854 -31.200648
v 31.754036 40.440506 38.730873
v 31.982380 40.668854 38.730873
v 31.982380 40.668854 -31.200648
v 31.754036 40.440506 -30.972300
v 31.982380 63.439442 38.730873
v 31.754036 63.667782 38.730873
v 31.982380 63.439442 -31.200648
v 31.754036 63.667782 -30.972300
v 29.927067 63.667782 -28.702410
v 29.698723 63.439442 -28.474070
v -29.927067 63.667782 -28.702410
v -29.698723 63.439442 -28.474070
v 29.927067 63.667782 38.730873
v 29.698723 63.439442 38.730873
v -29.698723 63.439442 38.730873
v -29.927067 63.667782 38.730873
v -34.732655 71.786011 38.730873
v 34.732655 71.786011 38.730873
v -34.732655 39.924072 38.730873
v 34.732655 39.924072 38.730873
v -34.321941 40.334785 40.373878
v -34.732655 39.924072 39.963173
v 34.321941 40.334785 40.373878
v 34.732655 39.924072 39.963173
v -34.321941 71.375298 40.373878
v -34.732655 71.786011 39.963173
v 34.321941 71.375298 40.373878
v 34.732655 71.786011 39.963173
vt 0.385414 0.961269
vt 0.397631 0.961269
vt 0.397631 0.949179
vt 0.385414 0.949179
vt 0.385122 0.961128
vt 0.385122 0.961269
vt 0.397863 0.961269
vt 0.385122 0.948610
vt 0.385122 0.948468
vt 0.397923 0.948610
vt 0.397863 0.948468
vt 0.397923 0.961128
vt 0.397923 0.948610
vt 0.397923 0.948468
vt 0.385181 0.948468
vt 0.397894 0.961269
vt 0.397923 0.961269
vt 0.397923 0.948468
vt 0.397631 0.949179
vt 0.397631 0.961269
vt 0.385414 0.949179
vt 0.385385 0.961269
vt 0.385414 0.961269
vt 0.397660 0.961269
vt 0.397894 0.948528
vt 0.385122 0.961128
vt 0.397923 0.961128
vt 0.385122 0.948610
vt 0.385122 0.948610
vt 0.397923 0.961128
vt 0.397894 0.961210
vt 0.397894 0.948468
vt 0.385151 0.948468
vt 0.385151 0.961210
vt 0.385122 0.961128
vt 0.397923 0.948610
vt 0.385151 0.948528
vt 0.397660 0.949119
vt 0.385151 0.961269
vt 0.385385 0.949119
vt 0.397646 0.949076
vt 0.385395 0.949076
vt 0.397646 0.961166
vt 0.397646 0.949076
vt 0.385395 0.961166
vt 0.385395 0.949076
vt 0.385395 0.961166
vt 0.397646 0.961166
vt 0.385247 0.948284
vt 0.398207 0.948284
vt 0.398207 0.961244
vt 0.385247 0.961244
vt 0.385324 0.948451
vt 0.388487 0.948284
vt 0.394967 0.948284
vt 0.398131 0.948451
vt 0.385324 0.961076
vt 0.385247 0.958004
vt 0.394968 0.961244
vt 0.398131 0.961076
vt 0.398207 0.958004
vt 0.398207 0.951523
vt 0.385247 0.951523
vt 0.385247 0.948284
vt 0.385247 0.961244
vt 0.398207 0.948284
vt 0.388487 0.961244
vt 0.398207 0.961244
vn 0.000000 1.000000 0.000000
vn 0.000000 1.000000 0.000000
vn 0.000000 1.000000 0.000000
vn 0.000000 1.000000 0.000000
vn -0.707101 0.707113 0.000000
vn -0.707101 0.707113 0.000000
vn -0.707101 0.707113 0.000000
vn -0.707101 0.707113 0.000000
vn 0.000000 0.707127 -0.707086
vn 0.000000 0.707127 -0.707086
vn 0.000000 0.707127 -0.707086
vn 0.000000 0.707127 -0.707086
vn -0.707112 -0.707101 0.000000
vn -0.707112 -0.707101 0.000000
vn -0.707112 -0.707101 0.000000
vn -0.707112 -0.707101 0.000000
vn 0.000000 -0.707110 -0.707104
vn 0.000000 -0.707110 -0.707104
vn 0.000000 -0.707110 -0.707104
vn 0.000000 -0.707110 -0.707104
vn 0.707112 -0.707101 0.000000
vn 0.707112 -0.707101 0.000000
vn 0.707112 -0.707101 0.000000
vn 0.707112 -0.707101 0.000000
vn 0.707101 0.707113 0.000000
vn 0.707101 0.707113 0.000000
vn 0.707101 0.707113 0.000000
vn 0.707101 0.707113 0.000000
vn -0.707100 0.707114 0.000000
vn -0.707100 0.707114 0.000000
vn -0.707100 0.707114 0.000000
vn -0.707100 0.707114 0.000000
vn 0.000000 0.707100 0.707114
vn 0.000000 0.707100 0.707114
vn 0.000000 0.707100 0.707114
vn 0.000000 0.707100 0.707114
vn 0.707100 0.707114 0.000000
vn 0.707100 0.707114 0.000000
vn 0.707100 0.707114 0.000000
vn 0.707100 0.707114 0.000000
vn 0.000000 1.000000 -0.000001
vn 0.000000 1.000000 0.000000
vn 0.000000 1.000000 0.000000
vn 0.000000 1.000000 -0.000001
vn 1.000000 0.000000 0.000000
vn 1.000000 0.000000 0.000000
vn 1.000000 0.000000 0.000000
vn 1.000000 0.000000 0.000000
vn -1.000000 0.000000 0.000000
vn -1.000000 0.000000 0.000000
vn -1.000000 0.000000 0.000000
vn -1.000000 0.000000 0.000000
vn 0.000000 -1.000000 0.000000
vn 0.000000 -1.000000 0.000000
vn 0.000000 -1.000000 0.000000
vn 0.000000 -1.000000 0.000000
vn 0.000000 0.000000 -1.000000
vn 0.000000 0.000000 -1.000000
vn 0.000000 0.000000 -1.000000
vn 0.000000 0.000000 -1.000000
vn 0.000000 1.000000 -0.000001
vn 0.000000 1.000000 -0.000001
vn 0.000000 1.000000 0.000000
vn 0.000000 1.000000 0.000000
vn -1.000000 0.000000 0.000000
vn -1.000000 0.000000 0.000000
vn -1.000000 0.000000 0.000000
vn -1.000000 0.000000 0.000000
vn 0.000000 0.000000 1.000000
vn 0.000000 0.000000 1.000000
vn 0.000000 0.000000 1.000000
vn 0.000000 0.000000 1.000000
vn 1.000000 0.000000 0.000000
vn 1.000000 0.000000 0.000000
vn 1.000000 0.000000 0.000000
vn 1.000000 0.000000 0.000000
vn 0.000000 0.000000 -1.000000
vn 0.000000 0.000000 -1.000000
vn 0.000000 0.000000 -1.000000
vn 0.000000 0.000000 -1.000000
vn 0.000000 -0.707101 0.707113
vn 0.000000 -0.707101 0.707113
vn 0.000000 -0.707101 0.707113
vn 0.000000 -0.707101 0.707113
vn -0.707095 0.000000 0.707119
vn -0.707095 0.000000 0.707119
vn -0.707095 0.000000 0.707119
vn -0.707095 0.000000 0.707119
vn 0.707095 0.000000 0.707119
vn 0.707095 0.000000 0.707119
vn 0.707095 0.000000 0.707119
vn 0.707095 0.000000 0.707119
vn 0.000000 0.707098 0.707116
vn 0.000000 0.707098 0.707116
vn 0.000000 0.707098 0.707116
vn 0.000000 0.707098 0.707116
vn 0.000000 0.000000 1.000000
vn 0.000000 0.000000 1.000000
vn 0.000000 0.000000 1.000000
vn 0.000000 0.000000 1.000000
vn 0.000000 1.000000 0.000000
vn 0.000000 1.000000 0.000000
vn 0.000000 1.000000 0.000000
vn 0.000000 1.000000 0.000000
vn 0.000000 -1.000000 0.000000
vn 0.000000 -1.000000 0.000000
vn 0.000000 -1.000000 0.000000
vn 0.000000 -1.000000 0.000000
vn 1.000000 0.000000 0.000000
vn 1.000000 0.000000 0.000000
vn 1.000000 0.000000 0.000000
vn 1.000000 0.000000 0.000000
vn -1.000000 0.000000 0.000000
vn -1.000000 0.000000 0.000000
vn -1.000000 0.000000 0.000000
vn -1.000000 0.000000 0.000000
f 1/1/1 2/2/2 3/3/3 4/4/4
f 6/5/5 5/6/6 8/7/7 7/30/8
f 7/8/9 8/37/10 20/25/11 19/36/12
f 10/9/13 9/29/14 12/10/15 11/11/16
f 11/34/17 12/35/18 15/12/19 16/31/20
f 14/13/21 13/14/22 16/15/23 15/28/24
f 18/16/25 17/17/26 19/18/27 20/25/28
f 21/38/29 22/19/30 26/20/31 25/24/32
f 22/19/33 21/38/34 23/40/35 24/21/36
f 24/21/37 23/40/38 28/22/39 27/23/40
f 21/38/41 25/24/42 18/16/43 20/25/44
f 19/26/45 17/27/46 14/13/47 15/28/48
f 12/10/49 9/29/50 6/5/51 7/30/52
f 16/31/53 13/32/54 10/33/55 11/34/56
f 12/35/57 7/8/58 19/36/59 15/12/60
f 8/37/61 23/40/62 21/38/41 20/25/44
f 8/37/61 5/39/63 28/22/64 23/40/62
f 26/41/65 22/42/66 3/45/67 2/43/68
f 22/42/69 24/44/70 4/48/71 3/45/72
f 24/44/73 27/46/74 1/47/75 4/48/76
f 29/49/77 30/50/78 32/51/79 31/52/80
f 33/53/81 34/54/82 36/55/83 35/56/84
f 34/54/85 33/53/86 37/57/87 38/58/88
f 35/56/89 36/55/90 40/59/91 39/60/92
f 38/58/93 37/57/94 39/60/95 40/59/96
f 33/53/97 35/56/98 39/60/99 37/57/100
f 38/58/101 40/61/102 30/50/103 29/49/104
f 31/52/105 32/51/106 36/62/107 34/63/108
f 36/55/109 32/64/110 30/65/111 40/59/112
f 31/66/113 34/54/114 38/67/115 29/68/116
