# This file uses meters as units for non-parametric coordinates.

v -44.683281 0.403069 40.307896
v -44.280209 0.000000 40.307896
v -44.280209 0.403069 40.710968
v 44.280209 0.000000 40.307896
v 44.683281 0.403069 40.307896
v 44.280209 0.403069 40.710968
v -44.280209 8.062130 40.307896
v -44.683281 7.659061 40.307896
v -44.280209 7.659061 40.710968
v 44.683281 7.659061 40.307896
v 44.280209 8.062130 40.307896
v 44.280209 7.659061 40.710968
v -44.280209 7.659061 -40.987934
v -44.683281 7.659061 -40.584862
v -44.280209 8.062130 -40.584862
v 44.683281 7.659061 -40.584862
v 44.280209 7.659061 -40.987934
v 44.280209 8.062130 -40.584862
v -44.280209 0.000000 -40.584862
v -44.683281 0.403069 -40.584862
v -44.280209 0.403069 -40.987934
v 44.683281 0.403069 -40.584862
v 44.280209 0.000000 -40.584862
v 44.280209 0.403069 -40.987934
v -43.647770 8.062134 40.172596
v -44.109745 8.062134 39.710621
v -44.109745 71.786026 39.710621
v -43.647770 71.786026 40.172596
v -34.732655 8.062134 39.710621
v -35.194630 8.062134 40.172596
v -35.194630 71.786018 40.172596
v -34.732655 71.786018 39.710621
v -43.647770 71.786026 -40.172596
v -44.109745 71.786026 -39.710621
v -44.109745 8.062134 -39.710621
v -43.647770 8.062134 -40.172596
v -34.732655 71.786018 -39.710621
v -35.194630 71.786018 -40.172596
v -35.194630 8.062134 -40.172596
v -34.732655 8.062134 -39.710621
v -34.732655 8.062134 -36.543865
v 34.732655 8.062134 -36.543865
v -34.732655 71.786011 -36.543865
v 34.732655 71.786011 -36.543865
v -34.732655 71.786011 -39.383327
v 34.732655 71.786011 -39.383327
v -34.732655 8.062134 -39.383327
v 34.732655 8.062134 -39.383327
v 43.647770 8.062134 40.172596
v 44.109745 8.062134 39.710621
v 44.109745 71.786026 39.710621
v 43.647770 71.786026 40.172596
v 34.732655 8.062134 39.710621
v 35.194630 8.062134 40.172596
v 35.194630 71.786018 40.172596
v 34.732655 71.786018 39.710621
v 43.647770 71.786026 -40.172596
v 44.109745 71.786026 -39.710621
v 44.109745 8.062134 -39.710621
v 43.647770 8.062134 -40.172596
v 34.732655 71.786018 -39.710621
v 35.194630 71.786018 -40.172596
v 35.194630 8.062134 -40.172596
v 34.732655 8.062134 -39.710621
v -44.683281 72.189087 40.307896
v -44.280209 71.786018 40.307896
v -44.280209 72.189087 40.710968
v 44.280209 71.786018 40.307896
v 44.683281 72.189087 40.307896
v 44.280209 72.189087 40.710968
v -44.280209 79.848145 40.307896
v -44.683281 79.445084 40.307896
v -44.280209 79.445084 40.710968
v 44.683281 79.445084 40.307896
v 44.280209 79.848145 40.307896
v 44.280209 79.445084 40.710968
v -44.280209 79.445084 -40.987934
v -44.683281 79.445084 -40.584862
v -44.280209 79.848145 -40.584862
v 44.683281 79.445084 -40.584862
v 44.280209 79.445084 -40.987934
v 44.280209 79.848145 -40.584862
v -44.280209 71.786018 -40.584862
v -44.683281 72.189087 -40.584862
v -44.280209 72.189087 -40.987934
v 44.683281 72.189087 -40.584862
v 44.280209 71.786018 -40.584862
v 44.280209 72.189087 -40.987934
vt 0.743048 0.136237
vt 0.634848 0.177508
vt 0.743004 0.177508
vt 0.743004 0.138206
vt 0.634848 0.138206
vt 0.634848 0.177508
vt 0.634804 0.136237
vt 0.634311 0.136237
vt 0.634311 0.179476
vt 0.634848 0.138206
vt 0.743541 0.136237
vt 0.743541 0.179476
vt 0.743048 0.138206
vt 0.634311 0.179476
vt 0.634311 0.136237
vt 0.634804 0.179476
vt 0.743048 0.177508
vt 0.743048 0.179476
vt 0.743541 0.179476
vt 0.634311 0.138206
vt 0.634804 0.138206
vt 0.743048 0.136237
vt 0.743048 0.138206
vt 0.743541 0.138206
vt 0.743541 0.177508
vt 0.634804 0.179476
vt 0.743048 0.177508
vt 0.634804 0.136023
vt 0.634804 0.138206
vt 0.743048 0.136023
vt 0.743004 0.138206
vt 0.634804 0.177508
vt 0.743004 0.177508
vt 0.634804 0.136237
vt 0.743541 0.136237
vt 0.634311 0.177508
vt 0.634804 0.177508
vt 0.743048 0.179476
vt 0.639772 0.179691
vt 0.639772 0.136023
vt 0.738081 0.136023
vt 0.738080 0.179691
vt 0.639772 0.179691
vt 0.639772 0.136023
vt 0.738081 0.136023
vt 0.738080 0.179691
vt 0.742913 0.179691
vt 0.742913 0.136023
vt 0.634939 0.136023
vt 0.634939 0.179691
vt 0.742913 0.179691
vt 0.742913 0.136023
vt 0.634939 0.136023
vt 0.634939 0.179691
vt 0.634311 0.136023
vt 0.634311 0.179691
vt 0.743541 0.136023
vt 0.743541 0.179691
vt 0.634311 0.136023
vt 0.743541 0.136023
vt 0.743541 0.179691
vt 0.634311 0.179691
vt 0.634311 0.136023
vt 0.743541 0.136023
vt 0.743541 0.179691
vt 0.634311 0.179691
vt 0.639772 0.179691
vt 0.738080 0.179691
vt 0.738081 0.136023
vt 0.639772 0.136023
vt 0.639772 0.179691
vt 0.738080 0.179691
vt 0.738081 0.136023
vt 0.639772 0.136023
vt 0.742913 0.179691
vt 0.634939 0.179691
vt 0.634939 0.136023
vt 0.742913 0.136023
vt 0.742913 0.179691
vt 0.634939 0.179691
vt 0.634939 0.136023
vt 0.742913 0.136023
vt 0.634311 0.136023
vt 0.634311 0.179691
vt 0.743541 0.179691
vt 0.743541 0.136023
vt 0.634804 0.179476
vt 0.743048 0.179476
vt 0.743048 0.136237
vt 0.634804 0.136237
vt 0.743048 0.138206
vt 0.743048 0.177508
vt 0.634804 0.177508
vt 0.634804 0.138206
vt 0.634848 0.177508
vt 0.743004 0.177508
vt 0.743004 0.138206
vt 0.634848 0.138206
vt 0.634848 0.138206
vt 0.634848 0.177508
vt 0.743004 0.177508
vt 0.743004 0.138206
vt 0.743048 0.179476
vt 0.743048 0.136237
vt 0.634804 0.136237
vt 0.634804 0.179476
vt 0.743048 0.138206
vt 0.743048 0.177508
vt 0.634804 0.177508
vt 0.634804 0.138206
vt 0.634311 0.136237
vt 0.634311 0.179476
vt 0.634804 0.136023
vt 0.743048 0.136023
vt 0.743541 0.136237
vt 0.743541 0.179476
vt 0.634311 0.179476
vt 0.634311 0.136237
vt 0.743541 0.179476
vt 0.743541 0.136237
vt 0.634311 0.138206
vt 0.634311 0.177508
vt 0.743541 0.138206
vt 0.743541 0.177508
vn 0.000000 -1.000000 0.000000
vn 0.000000 -1.000000 0.000000
vn 0.000000 -1.000000 0.000000
vn 0.000000 -1.000000 0.000000
vn 0.000000 0.000000 1.000000
vn 0.000000 0.000000 1.000000
vn 0.000000 0.000000 1.000000
vn 0.000000 0.000000 1.000000
vn -1.000000 0.000000 0.000000
vn -1.000000 0.000000 0.000000
vn -1.000000 0.000000 0.000000
vn -1.000000 0.000000 0.000000
vn 1.000000 0.000000 0.000000
vn 1.000000 0.000000 0.000000
vn 1.000000 0.000000 0.000000
vn 1.000000 0.000000 0.000000
vn 0.000000 1.000000 0.000000
vn 0.000000 1.000000 0.000000
vn 0.000000 1.000000 0.000000
vn 0.000000 1.000000 0.000000
vn 0.000000 0.000000 -1.000000
vn 0.000000 0.000000 -1.000000
vn 0.000000 0.000000 -1.000000
vn 0.000000 0.000000 -1.000000
vn -0.707103 -0.707111 0.000000
vn -0.707103 -0.707111 0.000000
vn -0.707103 -0.707111 0.000000
vn -0.707103 -0.707111 0.000000
vn 0.000000 -0.707110 0.707103
vn 0.000000 -0.707110 0.707103
vn 0.000000 -0.707110 0.707103
vn 0.000000 -0.707110 0.707103
vn -0.707106 0.000000 0.707108
vn -0.707106 0.000000 0.707108
vn -0.707106 0.000000 0.707108
vn -0.707106 0.000000 0.707108
vn 0.707103 -0.707111 0.000000
vn 0.707103 -0.707111 0.000000
vn 0.707103 -0.707111 0.000000
vn 0.707103 -0.707111 0.000000
vn 0.707106 0.000000 0.707108
vn 0.707106 0.000000 0.707108
vn 0.707106 0.000000 0.707108
vn 0.707106 0.000000 0.707108
vn -0.707103 0.707111 0.000000
vn -0.707103 0.707111 0.000000
vn -0.707103 0.707111 0.000000
vn -0.707103 0.707111 0.000000
vn 0.000000 0.707110 0.707104
vn 0.000000 0.707110 0.707104
vn 0.000000 0.707110 0.707104
vn 0.000000 0.707110 0.707104
vn 0.707103 0.707111 0.000000
vn 0.707103 0.707111 0.000000
vn 0.707103 0.707111 0.000000
vn 0.707103 0.707111 0.000000
vn -0.707110 0.000000 -0.707104
vn -0.707110 0.000000 -0.707104
vn -0.707110 0.000000 -0.707104
vn -0.707110 0.000000 -0.707104
vn 0.000000 0.707110 -0.707104
vn 0.000000 0.707110 -0.707104
vn 0.000000 0.707110 -0.707104
vn 0.000000 0.707110 -0.707104
vn 0.707110 0.000000 -0.707104
vn 0.707110 0.000000 -0.707104
vn 0.707110 0.000000 -0.707104
vn 0.707110 0.000000 -0.707104
vn 0.000000 -0.707110 -0.707103
vn 0.000000 -0.707110 -0.707103
vn 0.000000 -0.707110 -0.707103
vn 0.000000 -0.707110 -0.707103
vn -0.577344 -0.577357 0.577350
vn -0.577344 -0.577357 0.577350
vn -0.577344 -0.577357 0.577350
vn 0.577344 -0.577357 0.577350
vn 0.577344 -0.577357 0.577350
vn 0.577344 -0.577357 0.577350
vn -0.577344 0.577358 0.577349
vn -0.577344 0.577358 0.577349
vn -0.577344 0.577358 0.577349
vn 0.577344 0.577358 0.577349
vn 0.577344 0.577358 0.577349
vn 0.577344 0.577358 0.577349
vn -0.577353 0.577353 -0.577345
vn -0.577353 0.577353 -0.577345
vn -0.577353 0.577353 -0.577345
vn 0.577353 0.577353 -0.577345
vn 0.577353 0.577353 -0.577345
vn 0.577353 0.577353 -0.577345
vn -0.577353 -0.577353 -0.577345
vn -0.577353 -0.577353 -0.577345
vn -0.577353 -0.577353 -0.577345
vn 0.577353 -0.577353 -0.577345
vn 0.577353 -0.577353 -0.577345
vn 0.577353 -0.577353 -0.577345
vn -0.000000 0.000000 1.000000
vn -0.000000 0.000000 1.000000
vn -0.000000 0.000000 1.000000
vn -0.000000 0.000000 1.000000
vn 0.000000 0.000000 -1.000000
vn 0.000000 0.000000 -1.000000
vn 0.000000 0.000000 -1.000000
vn 0.000000 0.000000 -1.000000
vn 1.000000 0.000000 0.000000
vn 1.000000 0.000000 0.000000
vn 1.000000 0.000000 0.000000
vn 1.000000 0.000000 0.000000
vn -1.000000 0.000000 0.000000
vn -1.000000 0.000000 0.000000
vn -1.000000 0.000000 0.000000
vn -1.000000 0.000000 0.000000
vn -0.707105 0.000000 0.707108
vn -0.707105 0.000000 0.707108
vn -0.707105 0.000000 0.707108
vn -0.707105 0.000000 0.707108
vn 0.707105 0.000000 0.707108
vn 0.707105 0.000000 0.707108
vn 0.707105 0.000000 0.707108
vn 0.707105 0.000000 0.707108
vn -0.707105 0.000000 -0.707108
vn -0.707105 0.000000 -0.707108
vn -0.707105 0.000000 -0.707108
vn -0.707105 0.000000 -0.707108
vn 0.707105 0.000000 -0.707108
vn 0.707105 0.000000 -0.707108
vn 0.707105 0.000000 -0.707108
vn 0.707105 0.000000 -0.707108
vn 0.000000 0.000000 1.000000
vn 0.000000 0.000000 1.000000
vn 0.000000 0.000000 1.000000
vn 0.000000 0.000000 1.000000
vn 0.000000 0.000000 -1.000000
vn 0.000000 0.000000 -1.000000
vn 0.000000 0.000000 -1.000000
vn 0.000000 0.000000 -1.000000
vn 0.000000 0.000000 1.000000
vn 0.000000 0.000000 1.000000
vn 0.000000 0.000000 1.000000
vn 0.000000 0.000000 1.000000
vn 0.000000 0.000000 -1.000000
vn 0.000000 0.000000 -1.000000
vn 0.000000 0.000000 -1.000000
vn 0.000000 0.000000 -1.000000
vn -1.000000 0.000000 0.000000
vn -1.000000 0.000000 0.000000
vn -1.000000 0.000000 0.000000
vn -1.000000 0.000000 0.000000
vn 1.000000 0.000000 0.000000
vn 1.000000 0.000000 0.000000
vn 1.000000 0.000000 0.000000
vn 1.000000 0.000000 0.000000
vn 0.707105 0.000000 0.707108
vn 0.707105 0.000000 0.707108
vn 0.707105 0.000000 0.707108
vn 0.707105 0.000000 0.707108
vn -0.707105 0.000000 0.707108
vn -0.707105 0.000000 0.707108
vn -0.707105 0.000000 0.707108
vn -0.707105 0.000000 0.707108
vn 0.707105 0.000000 -0.707108
vn 0.707105 0.000000 -0.707108
vn 0.707105 0.000000 -0.707108
vn 0.707105 0.000000 -0.707108
vn -0.707105 0.000000 -0.707108
vn -0.707105 0.000000 -0.707108
vn -0.707105 0.000000 -0.707108
vn -0.707105 0.000000 -0.707108
vn 0.000000 -1.000000 0.000000
vn 0.000000 -1.000000 0.000000
vn 0.000000 -1.000000 0.000000
vn 0.000000 -1.000000 0.000000
vn 0.000000 0.000000 1.000000
vn 0.000000 0.000000 1.000000
vn 0.000000 0.000000 1.000000
vn 0.000000 0.000000 1.000000
vn -1.000000 0.000000 0.000000
vn -1.000000 0.000000 0.000000
vn -1.000000 0.000000 0.000000
vn -1.000000 0.000000 0.000000
vn 1.000000 0.000000 0.000000
vn 1.000000 0.000000 0.000000
vn 1.000000 0.000000 0.000000
vn 1.000000 0.000000 0.000000
vn 0.000000 1.000000 0.000000
vn 0.000000 1.000000 0.000000
vn 0.000000 1.000000 0.000000
vn 0.000000 1.000000 0.000000
vn 0.000000 0.000000 -1.000000
vn 0.000000 0.000000 -1.000000
vn 0.000000 0.000000 -1.000000
vn 0.000000 0.000000 -1.000000
vn -0.707103 -0.707111 0.000000
vn -0.707103 -0.707111 0.000000
vn -0.707103 -0.707111 0.000000
vn -0.707103 -0.707111 0.000000
vn 0.000000 -0.707111 0.707102
vn 0.000000 -0.707111 0.707102
vn 0.000000 -0.707111 0.707102
vn 0.000000 -0.707111 0.707102
vn -0.707106 0.000000 0.707108
vn -0.707106 0.000000 0.707108
vn -0.707106 0.000000 0.707108
vn -0.707106 0.000000 0.707108
vn 0.707103 -0.707111 0.000000
vn 0.707103 -0.707111 0.000000
vn 0.707103 -0.707111 0.000000
vn 0.707103 -0.707111 0.000000
vn 0.707106 0.000000 0.707108
vn 0.707106 0.000000 0.707108
vn 0.707106 0.000000 0.707108
vn 0.707106 0.000000 0.707108
vn -0.707096 0.707118 0.000000
vn -0.707096 0.707118 0.000000
vn -0.707096 0.707118 0.000000
vn -0.707096 0.707118 0.000000
vn 0.000000 0.707121 0.707093
vn 0.000000 0.707121 0.707093
vn 0.000000 0.707121 0.707093
vn 0.000000 0.707121 0.707093
vn 0.707096 0.707118 0.000000
vn 0.707096 0.707118 0.000000
vn 0.707096 0.707118 0.000000
vn 0.707096 0.707118 0.000000
vn -0.707109 0.000000 -0.707104
vn -0.707109 0.000000 -0.707104
vn -0.707109 0.000000 -0.707104
vn -0.707109 0.000000 -0.707104
vn 0.000000 0.707121 -0.707093
vn 0.000000 0.707121 -0.707093
vn 0.000000 0.707121 -0.707093
vn 0.000000 0.707121 -0.707093
vn 0.707109 0.000000 -0.707104
vn 0.707109 0.000000 -0.707104
vn 0.707109 0.000000 -0.707104
vn 0.707109 0.000000 -0.707104
vn 0.000000 -0.707111 -0.707102
vn 0.000000 -0.707111 -0.707102
vn 0.000000 -0.707111 -0.707102
vn 0.000000 -0.707111 -0.707102
vn -0.577341 -0.577355 0.577355
vn -0.577341 -0.577355 0.577355
vn -0.577341 -0.577355 0.577355
vn 0.577341 -0.577355 0.577355
vn 0.577341 -0.577355 0.577355
vn 0.577341 -0.577355 0.577355
vn -0.577341 0.577368 0.577341
vn -0.577341 0.577368 0.577341
vn -0.577341 0.577368 0.577341
vn 0.577341 0.577368 0.577341
vn 0.577341 0.577368 0.577341
vn 0.577341 0.577368 0.577341
vn -0.577350 0.577364 -0.577337
vn -0.577350 0.577364 -0.577337
vn -0.577350 0.577364 -0.577337
vn 0.577350 0.577364 -0.577337
vn 0.577350 0.577364 -0.577337
vn 0.577350 0.577364 -0.577337
vn -0.577350 -0.577350 -0.577350
vn -0.577350 -0.577350 -0.577350
vn -0.577350 -0.577350 -0.577350
vn 0.577350 -0.577350 -0.577350
vn 0.577350 -0.577350 -0.577350
vn 0.577350 -0.577350 -0.577350
f 19/26/1 23/38/2 4/1/3 2/7/4
f 6/13/5 12/17/6 9/32/7 3/29/8
f 8/2/9 14/3/10 20/4/11 1/10/12
f 22/5/13 16/6/14 10/33/15 5/31/16
f 11/18/17 18/22/18 15/34/19 7/16/20
f 17/23/21 24/27/22 21/37/23 13/21/24
f 2/7/25 1/8/26 20/9/27 19/26/28
f 3/29/29 2/28/30 4/30/31 6/13/32
f 1/10/33 3/29/34 9/32/35 8/2/36
f 5/11/37 4/1/38 23/38/39 22/12/40
f 6/13/41 5/31/42 10/33/43 12/17/44
f 8/14/45 7/16/46 15/34/47 14/15/48
f 7/16/49 9/32/50 12/17/51 11/18/52
f 11/18/53 10/19/54 16/35/55 18/22/56
f 14/20/57 13/21/58 21/37/59 20/36/60
f 13/21/61 15/34/62 18/22/63 17/23/64
f 17/23/65 16/24/66 22/25/67 24/27/68
f 19/26/69 21/37/70 24/27/71 23/38/72
f 1/10/73 2/28/74 3/29/75
f 4/30/76 5/31/77 6/13/78
f 7/16/79 8/2/80 9/32/81
f 10/33/82 11/18/83 12/17/84
f 13/21/85 14/15/86 15/34/87
f 16/35/88 17/23/89 18/22/90
f 19/26/91 20/36/92 21/37/93
f 22/25/94 23/38/95 24/27/96
f 28/39/97 25/40/98 30/41/99 31/42/100
f 36/43/101 33/44/102 38/45/103 39/46/104
f 32/47/105 29/48/106 40/49/107 37/50/108
f 34/51/109 35/52/110 26/53/111 27/54/112
f 26/53/113 25/40/114 28/39/115 27/54/116
f 30/41/117 29/48/118 32/47/119 31/42/120
f 34/55/121 33/44/122 36/43/123 35/56/124
f 38/45/125 37/57/126 40/58/127 39/46/128
f 41/59/129 42/60/130 44/61/131 43/62/132
f 45/63/133 46/64/134 48/65/135 47/66/136
f 52/67/137 55/68/138 54/69/139 49/70/140
f 60/71/141 63/72/142 62/73/143 57/74/144
f 56/75/145 61/76/146 64/77/147 53/78/148
f 58/79/149 51/80/150 50/81/151 59/82/152
f 50/81/153 51/80/154 52/67/155 49/70/156
f 54/69/157 55/68/158 56/75/159 53/78/160
f 58/83/161 59/84/162 60/71/163 57/74/164
f 62/73/165 63/72/166 64/85/167 61/86/168
f 83/87/169 87/88/170 68/89/171 66/90/172
f 70/91/173 76/92/174 73/93/175 67/94/176
f 72/95/177 78/96/178 84/97/179 65/98/180
f 86/99/181 80/100/182 74/101/183 69/102/184
f 75/103/185 82/104/186 79/105/187 71/106/188
f 81/107/189 88/108/190 85/109/191 77/110/192
f 66/90/193 65/111/194 84/112/195 83/87/196
f 67/94/197 66/113/198 68/114/199 70/91/200
f 65/98/201 67/94/202 73/93/203 72/95/204
f 69/115/205 68/89/206 87/88/207 86/116/208
f 70/91/209 69/102/210 74/101/211 76/92/212
f 72/117/213 71/106/214 79/105/215 78/118/216
f 71/106/217 73/93/218 76/92/219 75/103/220
f 75/103/221 74/119/222 80/120/223 82/104/224
f 78/121/225 77/110/226 85/109/227 84/122/228
f 77/110/229 79/105/230 82/104/231 81/107/232
f 81/107/233 80/123/234 86/124/235 88/108/236
f 83/87/237 85/109/238 88/108/239 87/88/240
f 65/98/241 66/113/242 67/94/243
f 68/114/244 69/102/245 70/91/246
f 71/106/247 72/95/248 73/93/249
f 74/101/250 75/103/251 76/92/252
f 77/110/253 78/118/254 79/105/255
f 80/120/256 81/107/257 82/104/258
f 83/87/259 84/122/260 85/109/261
f 86/124/262 87/88/263 88/108/264
