# This file uses meters as units for non-parametric coordinates.

v -8.313810 64.306207 42.682584
v -8.034845 64.027241 42.682584
v -8.034845 64.306207 42.961550
v 8.034845 64.027241 42.682584
v 8.313810 64.306207 42.682584
v 8.034845 64.306207 42.961550
v -8.034845 66.817172 42.682584
v -8.313810 66.538206 42.682584
v -8.034845 66.538206 42.961550
v 8.313810 66.538206 42.682584
v 8.034845 66.817172 42.682584
v 8.034845 66.538206 42.961550
v -8.313810 66.538206 40.171619
v -8.034845 66.817172 40.171619
v 8.034845 66.817172 40.171619
v 8.313810 66.538206 40.171619
v -8.034845 64.027241 40.171619
v -8.313810 64.306207 40.171619
v 8.313810 64.306207 40.171619
v 8.034845 64.027241 40.171619
vt 0.459248 0.942063
vt 0.446723 0.953727
vt 0.459465 0.942063
vt 0.447801 0.952431
vt 0.459465 0.952431
vt 0.446506 0.952431
vt 0.446506 0.942063
vt 0.459248 0.940767
vt 0.446723 0.942063
vt 0.446506 0.942063
vt 0.446506 0.953727
vt 0.447801 0.942063
vt 0.459465 0.942063
vt 0.459248 0.953727
vt 0.459465 0.953727
vt 0.459248 0.942063
vt 0.446506 0.952431
vt 0.446723 0.940767
vt 0.446506 0.940767
vt 0.446723 0.952431
vt 0.459248 0.952431
vt 0.459248 0.952431
vt 0.459465 0.952431
vt 0.459465 0.940767
vt 0.446723 0.940767
vt 0.446723 0.942063
vt 0.459248 0.940768
vt 0.458169 0.942063
vt 0.446723 0.952431
vt 0.458169 0.952431
vn 0.000000 -1.000000 0.000000
vn 0.000000 -1.000000 0.000000
vn 0.000000 -1.000000 0.000000
vn 0.000000 -1.000000 0.000000
vn 0.000000 0.000000 1.000000
vn 0.000000 0.000000 1.000000
vn 0.000000 0.000000 1.000000
vn 0.000000 0.000000 1.000000
vn -1.000000 0.000000 0.000000
vn -1.000000 0.000000 0.000000
vn -1.000000 0.000000 0.000000
vn -1.000000 0.000000 0.000000
vn 1.000000 0.000000 0.000000
vn 1.000000 0.000000 0.000000
vn 1.000000 0.000000 0.000000
vn 1.000000 0.000000 0.000000
vn 0.000000 1.000000 0.000000
vn 0.000000 1.000000 0.000000
vn 0.000000 1.000000 0.000000
vn 0.000000 1.000000 0.000000
vn -0.707108 -0.707105 0.000000
vn -0.707108 -0.707105 0.000000
vn -0.707108 -0.707105 0.000000
vn -0.707108 -0.707105 0.000000
vn 0.000000 -0.707107 0.707107
vn 0.000000 -0.707107 0.707107
vn 0.000000 -0.707107 0.707107
vn 0.000000 -0.707107 0.707107
vn -0.707108 0.000000 0.707106
vn -0.707108 0.000000 0.707106
vn -0.707108 0.000000 0.707106
vn -0.707108 0.000000 0.707106
vn 0.707108 -0.707105 0.000000
vn 0.707108 -0.707105 0.000000
vn 0.707108 -0.707105 0.000000
vn 0.707108 -0.707105 0.000000
vn 0.707108 0.000000 0.707106
vn 0.707108 0.000000 0.707106
vn 0.707108 0.000000 0.707106
vn 0.707108 0.000000 0.707106
vn -0.707108 0.707105 0.000000
vn -0.707108 0.707105 0.000000
vn -0.707108 0.707105 0.000000
vn -0.707108 0.707105 0.000000
vn 0.000000 0.707107 0.707107
vn 0.000000 0.707107 0.707107
vn 0.000000 0.707107 0.707107
vn 0.000000 0.707107 0.707107
vn 0.707108 0.707105 0.000000
vn 0.707108 0.707105 0.000000
vn 0.707108 0.707105 0.000000
vn 0.707108 0.707105 0.000000
vn -0.577352 -0.577349 0.577350
vn -0.577352 -0.577349 0.577350
vn -0.577352 -0.577349 0.577350
vn 0.577352 -0.577349 0.577350
vn 0.577352 -0.577349 0.577350
vn 0.577352 -0.577349 0.577350
vn -0.577352 0.577349 0.577350
vn -0.577352 0.577349 0.577350
vn -0.577352 0.577349 0.577350
vn 0.577352 0.577349 0.577350
vn 0.577352 0.577349 0.577350
vn 0.577352 0.577349 0.577350
f 20/14/1 4/1/2 2/9/3 17/2/4
f 6/16/5 12/21/6 9/29/7 3/26/8
f 18/3/9 1/12/10 8/4/11 13/5/12
f 16/6/13 10/30/14 5/28/15 19/7/16
f 14/18/17 7/20/18 11/22/19 15/8/20
f 2/9/21 1/10/22 18/11/23 17/2/24
f 3/26/25 2/25/26 4/27/27 6/16/28
f 1/12/29 3/26/30 9/29/31 8/4/32
f 5/13/33 4/1/34 20/14/35 19/15/36
f 6/16/37 5/28/38 10/30/39 12/21/40
f 8/17/41 7/20/42 14/18/43 13/19/44
f 7/20/45 9/29/46 12/21/47 11/22/48
f 11/22/49 10/23/50 16/24/51 15/8/52
f 1/12/53 2/25/54 3/26/55
f 4/27/56 5/28/57 6/16/58
f 7/20/59 8/4/60 9/29/61
f 10/30/62 11/22/63 12/21/64
