# This file uses centimeters as units for non-parametric coordinates.

v 8.892422 -41.407715 -8.892422
v 0.000000 -41.407715 -12.575783
v -8.892422 -41.407715 -8.892422
v -12.575783 -41.407715 0.000000
v -8.892422 -41.407715 8.892422
v 0.000000 -41.407715 12.575783
v 8.892426 -41.407715 8.892426
v 12.575783 -41.407715 0.000000
v 8.892422 -32.941498 -8.892422
v 0.000000 -32.941498 -12.575783
v -8.892422 -32.941498 -8.892422
v -12.575783 -32.941498 0.000000
v -8.892422 -32.941498 8.892422
v 0.000000 -32.941498 12.575783
v 8.892426 -32.941498 8.892426
v 12.575783 -32.941498 0.000000
v 0.000000 -41.407715 0.000000
vt 0.509636 0.202780
vt 0.530470 0.202780
vt 0.530470 0.231989
vt 0.509636 0.231989
vt 0.551303 0.202780
vt 0.551303 0.231989
vt 0.572136 0.202780
vt 0.572136 0.231989
vt 0.592970 0.202780
vt 0.592970 0.231989
vt 0.572136 0.202780
vt 0.572136 0.231989
vt 0.551303 0.202780
vt 0.551303 0.231989
vt 0.530470 0.202780
vt 0.530470 0.231989
vt 0.509636 0.202780
vt 0.509636 0.231989
vt 0.547026 0.201861
vt 0.558868 0.206766
vt 0.547026 0.217938
vt 0.535184 0.206766
vt 0.530279 0.218608
vt 0.535184 0.230450
vt 0.547026 0.235355
vt 0.558868 0.230450
vt 0.563773 0.218608
vn 0.707107 0.000000 -0.707107
vn 0.000000 0.000000 -1.000000
vn 0.000000 0.000000 -1.000000
vn 0.707107 0.000000 -0.707107
vn 0.000000 0.000000 -1.000000
vn -0.707107 0.000000 -0.707107
vn -0.707107 0.000000 -0.707107
vn 0.000000 0.000000 -1.000000
vn -0.707107 0.000000 -0.707107
vn -1.000000 0.000000 0.000000
vn -1.000000 0.000000 0.000000
vn -0.707107 0.000000 -0.707107
vn -1.000000 0.000000 0.000000
vn -0.707107 0.000000 0.707107
vn -0.707107 0.000000 0.707107
vn -1.000000 0.000000 0.000000
vn -0.707107 0.000000 0.707107
vn 0.000000 0.000000 1.000000
vn 0.000000 0.000000 1.000000
vn -0.707107 0.000000 0.707107
vn 0.000000 0.000000 1.000000
vn 0.000000 0.000000 1.000000
vn 0.707107 0.000000 0.707107
vn 0.707107 0.000000 0.707107
vn 0.707107 0.000000 0.707107
vn 1.000000 0.000000 0.000000
vn 1.000000 0.000000 0.000000
vn 0.707107 0.000000 0.707107
vn 1.000000 0.000000 0.000000
vn 0.707107 0.000000 -0.707107
vn 0.707107 0.000000 -0.707107
vn 1.000000 0.000000 0.000000
vn 0.000000 -1.000000 0.000000
vn 0.000000 -1.000000 0.000000
vn 0.000000 -1.000000 0.000000
vn 0.000000 -1.000000 0.000000
vn 0.000000 -1.000000 0.000000
vn 0.000000 -1.000000 0.000000
vn 0.000000 -1.000000 0.000000
vn 0.000000 -1.000000 0.000000
vn 0.000000 -1.000000 0.000000
vn 0.000000 -1.000000 0.000000
vn 0.000000 -1.000000 0.000000
vn 0.000000 -1.000000 0.000000
vn 0.000000 -1.000000 0.000000
vn 0.000000 -1.000000 0.000000
vn 0.000000 -1.000000 0.000000
vn 0.000000 -1.000000 0.000000
vn 0.000000 -1.000000 0.000000
vn 0.000000 -1.000000 0.000000
vn 0.000000 -1.000000 0.000000
vn 0.000000 -1.000000 0.000000
vn 0.000000 -1.000000 0.000000
vn 0.000000 -1.000000 0.000000
vn 0.000000 -1.000000 0.000000
vn 0.000000 -1.000000 0.000000
f 1/1/1 2/2/2 10/3/3 9/4/4
f 2/2/5 3/5/6 11/6/7 10/3/8
f 3/5/9 4/7/10 12/8/11 11/6/12
f 4/7/13 5/9/14 13/10/15 12/8/16
f 5/9/17 6/11/18 14/12/19 13/10/20
f 14/12/21 6/11/22 7/13/23 15/14/24
f 7/13/25 8/15/26 16/16/27 15/14/28
f 8/15/29 1/17/30 9/18/31 16/16/32
f 2/19/33 1/20/34 17/21/35
f 3/22/36 2/19/37 17/21/38
f 4/23/39 3/22/40 17/21/41
f 5/24/42 4/23/43 17/21/44
f 6/25/45 5/24/46 17/21/47
f 7/26/48 6/25/49 17/21/50
f 8/27/51 7/26/52 17/21/53
f 1/20/54 8/27/55 17/21/56
