# This file uses centimeters as units for non-parametric coordinates.

v -1.125546 -8.750439 1.125546
v 1.125546 -8.750439 1.125546
v -1.125546 -8.750439 -1.125546
v 1.125546 -8.750439 -1.125546
v 1.101303 -59.453403 -1.907516
v -1.101303 -59.453403 -1.907516
v -2.202606 -59.453403 0.000000
v -1.101303 -59.453403 1.907516
v 1.101303 -59.453403 1.907516
v 2.202606 -59.453403 0.000000
v 1.812141 -57.014622 -3.138718
v -1.812130 -57.014622 -3.138710
v -3.624275 -57.014622 0.000000
v -1.812138 -57.014622 3.138718
v 1.812134 -57.014622 3.138718
v 3.624275 -57.014622 0.000000
v 0.000000 -60.202290 0.000000
v 1.125546 -51.186104 1.125546
v -1.125546 -51.186104 1.125546
v -1.125546 -51.186104 -1.125546
v 1.125546 -51.186104 -1.125546
v 4.985893 -10.157341 -4.985893
v 0.000000 -10.157341 -7.051109
v -4.985893 -10.157341 -4.985893
v -7.051109 -10.157341 0.000000
v -4.985893 -10.157341 4.985893
v 0.000000 -10.157341 7.051109
v 4.985889 -10.157341 4.985889
v 7.051109 -10.157341 0.000000
v 6.543435 0.000000 -6.543435
v 0.000000 0.000000 -9.253815
v -6.543435 0.000000 -6.543435
v -9.253815 0.000000 0.000000
v -6.543435 0.000000 6.543435
v 0.000000 0.000000 9.253815
v 6.543435 0.000000 6.543435
v 9.253815 0.000000 0.000000
v 0.000000 -10.157341 0.000000
v 0.000000 -4.513840 9.253815
v -6.543435 -4.513840 6.543435
v -9.253815 -4.513840 0.000000
v -6.543435 -4.513840 -6.543435
v 0.000000 -4.513840 -9.253815
v 6.543435 -4.513840 -6.543435
v 9.253815 -4.513840 0.000000
v 6.543435 -4.513840 6.543435
vt 0.533085 0.019856
vt 0.544734 0.019856
vt 0.544734 0.033418
vt 0.533085 0.033418
vt 0.556382 0.019856
vt 0.556382 0.033418
vt 0.568031 0.019856
vt 0.568031 0.033418
vt 0.556758 0.019856
vt 0.556758 0.033418
vt 0.545485 0.019856
vt 0.545485 0.033418
vt 0.534212 0.019856
vt 0.534212 0.033418
vt 0.544110 0.016301
vt 0.562103 0.016301
vt 0.553107 0.031164
vt 0.535113 0.031884
vt 0.544110 0.047466
vt 0.562103 0.047466
vt 0.571100 0.031884
vt 0.577411 0.021210
vt 0.577411 0.028833
vt 0.532130 0.028833
vt 0.532130 0.021210
vt 0.577411 0.013586
vt 0.532130 0.013586
vt 0.532130 0.044080
vt 0.532130 0.036457
vt 0.577411 0.036457
vt 0.577411 0.044080
vt 0.532950 0.008659
vt 0.548613 0.008659
vt 0.548613 0.029262
vt 0.532950 0.029262
vt 0.564277 0.008659
vt 0.564277 0.029262
vt 0.579941 0.008659
vt 0.579941 0.029262
vt 0.595604 0.008659
vt 0.595604 0.029262
vt 0.579941 0.008659
vt 0.579941 0.029262
vt 0.564277 0.008659
vt 0.564277 0.029262
vt 0.548613 0.008659
vt 0.548613 0.029262
vt 0.532950 0.008659
vt 0.532950 0.029262
vt 0.564072 0.009479
vt 0.577766 0.015152
vt 0.564072 0.028071
vt 0.550378 0.015152
vt 0.544706 0.028846
vt 0.550378 0.042540
vt 0.564072 0.048212
vt 0.577766 0.042540
vt 0.583439 0.028846
vt 0.579941 0.049864
vt 0.595604 0.049864
vt 0.579941 0.049864
vt 0.564277 0.049864
vt 0.548613 0.049864
vt 0.532950 0.049864
vt 0.532950 0.049864
vt 0.548613 0.049864
vt 0.564277 0.049864
vn 0.403038 -0.591811 -0.698083
vn -0.403038 -0.591810 -0.698084
vn -0.431963 -0.503617 -0.748183
vn 0.431963 -0.503619 -0.748182
vn -0.403038 -0.591810 -0.698084
vn -0.806077 -0.591811 -0.000001
vn -0.863926 -0.503618 -0.000001
vn -0.431963 -0.503617 -0.748183
vn -0.806077 -0.591811 -0.000001
vn -0.403038 -0.591811 0.698083
vn -0.431963 -0.503619 0.748182
vn -0.863926 -0.503618 -0.000001
vn -0.403038 -0.591811 0.698083
vn 0.403038 -0.591811 0.698083
vn 0.431962 -0.503618 0.748183
vn -0.431963 -0.503619 0.748182
vn 0.403038 -0.591811 0.698083
vn 0.806076 -0.591811 0.000001
vn 0.863926 -0.503619 0.000001
vn 0.431962 -0.503618 0.748183
vn 0.806076 -0.591811 0.000001
vn 0.403038 -0.591811 -0.698083
vn 0.431963 -0.503619 -0.748182
vn 0.863926 -0.503619 0.000001
vn -0.403038 -0.591810 -0.698084
vn 0.403038 -0.591811 -0.698083
vn 0.000000 -1.000000 0.000000
vn -0.806077 -0.591811 -0.000001
vn -0.403038 -0.591810 -0.698084
vn 0.000000 -1.000000 0.000000
vn -0.403038 -0.591811 0.698083
vn -0.806077 -0.591811 -0.000001
vn 0.000000 -1.000000 0.000000
vn 0.403038 -0.591811 0.698083
vn -0.403038 -0.591811 0.698083
vn 0.000000 -1.000000 0.000000
vn 0.806076 -0.591811 0.000001
vn 0.403038 -0.591811 0.698083
vn 0.000000 -1.000000 0.000000
vn 0.403038 -0.591811 -0.698083
vn 0.806076 -0.591811 0.000001
vn 0.000000 -1.000000 0.000000
vn -0.707107 0.000000 0.707107
vn 0.707107 0.000000 0.707107
vn 0.707107 0.000000 0.707107
vn -0.707107 0.000000 0.707107
vn -0.707107 0.000000 -0.707107
vn -0.707107 0.000000 0.707107
vn -0.707107 0.000000 0.707107
vn -0.707107 0.000000 -0.707107
vn -0.707107 0.000000 -0.707107
vn 0.707107 0.000000 -0.707107
vn 0.707107 0.000000 -0.707107
vn -0.707107 0.000000 -0.707107
vn 0.707107 0.000000 0.707107
vn 0.707107 0.000000 -0.707107
vn 0.707107 0.000000 -0.707107
vn 0.707107 0.000000 0.707107
vn 0.658711 -0.363594 -0.658711
vn 0.000000 -0.363594 -0.931558
vn 0.000000 -0.363594 -0.931558
vn 0.658711 -0.363594 -0.658711
vn 0.000000 -0.363594 -0.931558
vn -0.658711 -0.363594 -0.658711
vn -0.658711 -0.363594 -0.658711
vn 0.000000 -0.363594 -0.931558
vn -0.658711 -0.363594 -0.658711
vn -0.931558 -0.363594 0.000000
vn -0.931558 -0.363594 0.000000
vn -0.658711 -0.363594 -0.658711
vn -0.931558 -0.363594 0.000000
vn -0.658711 -0.363594 0.658711
vn -0.658711 -0.363594 0.658711
vn -0.931558 -0.363594 0.000000
vn -0.658711 -0.363594 0.658711
vn 0.000000 -0.363594 0.931558
vn 0.000000 -0.363594 0.931558
vn -0.658711 -0.363594 0.658711
vn 0.000000 -0.363594 0.931558
vn 0.658711 -0.363594 0.658711
vn 0.658711 -0.363594 0.658711
vn 0.000000 -0.363594 0.931558
vn 0.658711 -0.363594 0.658711
vn 0.931558 -0.363594 0.000000
vn 0.931558 -0.363594 0.000000
vn 0.658711 -0.363594 0.658711
vn 0.931558 -0.363594 0.000000
vn 0.658711 -0.363594 -0.658711
vn 0.658711 -0.363594 -0.658711
vn 0.931558 -0.363594 0.000000
vn 0.000000 -1.000000 0.000000
vn 0.000000 -1.000000 0.000000
vn 0.000000 -1.000000 0.000000
vn 0.000000 -1.000000 0.000000
vn 0.000000 -1.000000 0.000000
vn 0.000000 -1.000000 0.000000
vn 0.000000 -1.000000 0.000000
vn 0.000000 -1.000000 0.000000
vn 0.000000 -1.000000 0.000000
vn 0.000000 -1.000000 0.000000
vn 0.000000 -1.000000 0.000000
vn 0.000000 -1.000000 0.000000
vn 0.000000 -1.000000 0.000000
vn 0.000000 -1.000000 0.000000
vn 0.000000 -1.000000 0.000000
vn 0.000000 -1.000000 0.000000
vn 0.000000 -1.000000 0.000000
vn 0.000000 -1.000000 0.000000
vn 0.000000 -1.000000 0.000000
vn 0.000000 -1.000000 0.000000
vn 0.000000 -1.000000 0.000000
vn 0.000000 -1.000000 0.000000
vn 0.000000 -1.000000 0.000000
vn 0.000000 -1.000000 0.000000
vn -0.707107 0.000000 0.707107
vn 0.000000 0.000000 1.000000
vn 0.000000 0.000000 1.000000
vn -0.707107 0.000000 0.707107
vn -1.000000 0.000000 0.000000
vn -0.707107 0.000000 0.707107
vn -0.707107 0.000000 0.707107
vn -1.000000 0.000000 0.000000
vn -0.707107 0.000000 -0.707107
vn -1.000000 0.000000 0.000000
vn -1.000000 0.000000 0.000000
vn -0.707107 0.000000 -0.707107
vn 0.000000 0.000000 -1.000000
vn -0.707107 0.000000 -0.707107
vn -0.707107 0.000000 -0.707107
vn 0.000000 0.000000 -1.000000
vn 0.707107 0.000000 -0.707107
vn 0.000000 0.000000 -1.000000
vn 0.000000 0.000000 -1.000000
vn 0.707107 0.000000 -0.707107
vn 1.000000 0.000000 0.000000
vn 0.707107 0.000000 -0.707107
vn 0.707107 0.000000 -0.707107
vn 1.000000 0.000000 0.000000
vn 0.707107 0.000000 0.707107
vn 1.000000 0.000000 0.000000
vn 1.000000 0.000000 0.000000
vn 0.707107 0.000000 0.707107
vn 0.000000 0.000000 1.000000
vn 0.707107 0.000000 0.707107
vn 0.707107 0.000000 0.707107
vn 0.000000 0.000000 1.000000
f 5/1/1 6/2/2 12/3/3 11/4/4
f 6/2/5 7/5/6 13/6/7 12/3/8
f 7/5/9 8/7/10 14/8/11 13/6/12
f 8/7/13 9/9/14 15/10/15 14/8/16
f 9/9/17 10/11/18 16/12/19 15/10/20
f 10/11/21 5/13/22 11/14/23 16/12/24
f 6/15/25 5/16/26 17/17/27
f 7/18/28 6/15/29 17/17/30
f 8/19/31 7/18/32 17/17/33
f 9/20/34 8/19/35 17/17/36
f 10/21/37 9/20/38 17/17/39
f 5/16/40 10/21/41 17/17/42
f 19/22/43 18/23/44 2/24/45 1/25/46
f 20/26/47 19/22/48 1/25/49 3/27/50
f 3/28/51 4/29/52 21/30/53 20/31/54
f 18/23/55 21/30/56 4/29/57 2/24/58
f 22/32/59 23/33/60 43/34/61 44/35/62
f 23/33/63 24/36/64 42/37/65 43/34/66
f 24/36/67 25/38/68 41/39/69 42/37/70
f 25/38/71 26/40/72 40/41/73 41/39/74
f 26/40/75 27/42/76 39/43/77 40/41/78
f 27/42/79 28/44/80 46/45/81 39/43/82
f 28/44/83 29/46/84 45/47/85 46/45/86
f 29/46/87 22/48/88 44/49/89 45/47/90
f 23/50/91 22/51/92 38/52/93
f 24/53/94 23/50/95 38/52/96
f 25/54/97 24/53/98 38/52/99
f 26/55/100 25/54/101 38/52/102
f 27/56/103 26/55/104 38/52/105
f 28/57/106 27/56/107 38/52/108
f 29/58/109 28/57/110 38/52/111
f 22/51/112 29/58/113 38/52/114
f 40/41/115 39/43/116 35/59/117 34/60/118
f 41/39/119 40/41/120 34/60/121 33/61/122
f 42/37/123 41/39/124 33/61/125 32/62/126
f 43/34/127 42/37/128 32/62/129 31/63/130
f 44/35/131 43/34/132 31/63/133 30/64/134
f 45/47/135 44/49/136 30/65/137 37/66/138
f 46/45/139 45/47/140 37/66/141 36/67/142
f 39/43/143 46/45/144 36/67/145 35/59/146
