# This file uses centimeters as units for non-parametric coordinates.

v -1.852832 27.136803 1.852832
v 1.852832 27.136803 1.852832
v -1.852832 56.179642 1.852832
v 1.852832 56.179642 1.852832
v -1.852832 56.179642 -1.852832
v 1.852832 56.179642 -1.852832
v -1.852832 27.136803 -1.852832
v 1.852832 27.136803 -1.852832
v -17.388302 0.000000 7.324851
v -17.002821 0.385477 7.710329
v 17.388302 0.000000 7.324851
v 17.002821 0.385477 7.710329
v -17.388302 27.755625 7.324851
v -17.002821 27.370144 7.710329
v 17.388302 27.755625 7.324851
v 17.002821 27.370144 7.710329
v -17.388302 27.755625 -7.324851
v -17.002821 27.370144 -7.710329
v 17.388302 27.755625 -7.324851
v 17.002821 27.370144 -7.710329
v -17.388302 0.000000 -7.324851
v -17.002821 0.385477 -7.710329
v 17.388302 0.000000 -7.324851
v 17.002821 0.385477 -7.710329
v -10.513847 6.970183 7.324851
v -10.899323 6.584705 7.710329
v 10.513847 6.970183 7.324851
v 10.899323 6.584705 7.710329
v 10.513847 20.785439 7.324851
v 10.899323 21.170912 7.710329
v -10.513847 20.785439 7.324851
v -10.899323 21.170912 7.710329
v -10.513847 20.785439 -7.324851
v -10.899323 21.170912 -7.710329
v 10.513847 20.785439 -7.324851
v 10.899323 21.170912 -7.710329
v 10.513847 6.970183 -7.324851
v 10.899323 6.584705 -7.710329
v -10.513847 6.970183 -7.324851
v -10.899323 6.584705 -7.710329
v 1.852832 41.346500 1.852832
v -1.852832 41.346500 1.852832
v -1.852832 41.346500 -1.852832
v 1.852832 41.346500 -1.852832
v 1.852832 53.193409 1.852832
v -1.852832 53.193409 1.852832
v -1.852832 53.193409 -1.852832
v 1.852832 53.193409 -1.852832
vt 0.727320 0.165801
vt 0.727320 0.143256
vt 0.685049 0.143256
vt 0.685049 0.165801
vt 0.640923 0.165801
vt 0.640923 0.143256
vt 0.660507 0.143256
vt 0.660507 0.165801
vt 0.685049 0.143256
vt 0.685049 0.165801
vt 0.727320 0.165801
vt 0.727320 0.143256
vt 0.727320 0.143256
vt 0.685049 0.143256
vt 0.649938 0.137692
vt 0.649938 0.136751
vt 0.713523 0.136751
vt 0.713523 0.137692
vt 0.649938 0.136751
vt 0.713523 0.137692
vt 0.713523 0.136751
vt 0.713523 0.136751
vt 0.649938 0.137692
vt 0.649938 0.136751
vt 0.713523 0.137692
vt 0.713523 0.136751
vt 0.649938 0.136751
vt 0.713523 0.173450
vt 0.713523 0.174391
vt 0.649938 0.174391
vt 0.649938 0.173450
vt 0.713523 0.174391
vt 0.713523 0.173450
vt 0.649938 0.173450
vt 0.649938 0.174391
vt 0.649938 0.174391
vt 0.713523 0.173450
vt 0.713523 0.174391
vt 0.649938 0.174391
vt 0.713523 0.174391
vt 0.702436 0.172978
vt 0.703372 0.172978
vt 0.703372 0.139609
vt 0.702436 0.139609
vt 0.703372 0.172978
vt 0.702436 0.139609
vt 0.703372 0.139609
vt 0.702436 0.139609
vt 0.703372 0.139609
vt 0.703372 0.172978
vt 0.702436 0.172978
vt 0.703372 0.172978
vt 0.703372 0.139609
vt 0.666877 0.139609
vt 0.665941 0.139609
vt 0.665941 0.172978
vt 0.666877 0.172978
vt 0.665941 0.139609
vt 0.666877 0.172978
vt 0.665941 0.172978
vt 0.665941 0.172978
vt 0.665941 0.139609
vt 0.666877 0.139609
vt 0.666877 0.139609
vt 0.665941 0.139609
vt 0.665941 0.172978
vt 0.662739 0.180958
vt 0.662739 0.134370
vt 0.672920 0.142732
vt 0.672920 0.172596
vt 0.707055 0.134370
vt 0.696874 0.142732
vt 0.707055 0.180958
vt 0.696874 0.172596
vt 0.663039 0.181298
vt 0.663039 0.134710
vt 0.673220 0.143072
vt 0.673220 0.172936
vt 0.707355 0.134710
vt 0.697174 0.143072
vt 0.707355 0.181298
vt 0.697174 0.172936
vt 0.649807 0.165801
vt 0.649807 0.143256
vt 0.649807 0.143256
vt 0.640923 0.143256
vt 0.640923 0.143256
vt 0.640923 0.165801
vt 0.649807 0.165801
vt 0.649807 0.143256
vn 0.000000 0.000000 1.000000
vn 0.000000 0.000000 1.000000
vn 0.000000 0.000000 1.000000
vn 0.000000 0.000000 1.000000
vn 0.000000 1.000000 0.000000
vn 0.000000 1.000000 0.000000
vn 0.000000 1.000000 0.000000
vn 0.000000 1.000000 0.000000
vn 0.000000 0.000000 -1.000000
vn 0.000000 0.000000 -1.000000
vn 0.000000 0.000000 -1.000000
vn 0.000000 0.000000 -1.000000
vn 1.000000 0.000000 0.000000
vn 1.000000 0.000000 0.000000
vn 1.000000 0.000000 0.000000
vn 1.000000 0.000000 0.000000
vn -1.000000 0.000000 0.000000
vn -1.000000 0.000000 0.000000
vn -1.000000 0.000000 0.000000
vn -1.000000 0.000000 0.000000
vn -0.707104 0.000000 0.707109
vn -0.707104 0.000000 0.707109
vn -0.707104 0.000000 0.707109
vn -0.707104 0.000000 0.707109
vn 0.000000 -0.707108 0.707106
vn 0.000000 -0.707108 0.707106
vn 0.000000 -0.707108 0.707106
vn 0.000000 -0.707108 0.707106
vn 0.707104 0.000000 0.707109
vn 0.707104 0.000000 0.707109
vn 0.707104 0.000000 0.707109
vn 0.707104 0.000000 0.707109
vn 0.000000 0.707104 0.707110
vn 0.000000 0.707104 0.707110
vn 0.000000 0.707104 0.707110
vn 0.000000 0.707104 0.707110
vn -0.707104 0.000000 -0.707109
vn -0.707104 0.000000 -0.707109
vn -0.707104 0.000000 -0.707109
vn -0.707104 0.000000 -0.707109
vn 0.000000 0.707104 -0.707110
vn 0.000000 0.707104 -0.707110
vn 0.000000 0.707104 -0.707110
vn 0.000000 0.707104 -0.707110
vn 0.707104 0.000000 -0.707109
vn 0.707104 0.000000 -0.707109
vn 0.707104 0.000000 -0.707109
vn 0.707104 0.000000 -0.707109
vn 0.000000 -0.707108 -0.707106
vn 0.000000 -0.707108 -0.707106
vn 0.000000 -0.707108 -0.707106
vn 0.000000 -0.707108 -0.707106
vn 0.000000 1.000000 0.000000
vn 0.000000 1.000000 0.000000
vn 0.000000 1.000000 0.000000
vn 0.000000 1.000000 0.000000
vn 0.000000 -1.000000 0.000000
vn 0.000000 -1.000000 0.000000
vn 0.000000 -1.000000 0.000000
vn 0.000000 -1.000000 0.000000
vn 1.000000 0.000000 0.000000
vn 1.000000 0.000000 0.000000
vn 1.000000 0.000000 0.000000
vn 1.000000 0.000000 0.000000
vn -1.000000 0.000000 0.000000
vn -1.000000 0.000000 0.000000
vn -1.000000 0.000000 0.000000
vn -1.000000 0.000000 0.000000
vn 0.000000 0.707106 0.707107
vn 0.000000 0.707106 0.707107
vn 0.000000 0.707106 0.707107
vn 0.000000 0.707106 0.707107
vn 0.707109 0.000000 0.707105
vn 0.707109 0.000000 0.707105
vn 0.707109 0.000000 0.707105
vn 0.707109 0.000000 0.707105
vn -0.707109 0.000000 0.707105
vn -0.707109 0.000000 0.707105
vn -0.707109 0.000000 0.707105
vn -0.707109 0.000000 0.707105
vn 0.000000 -0.707111 0.707103
vn 0.000000 -0.707111 0.707103
vn 0.000000 -0.707111 0.707103
vn 0.000000 -0.707111 0.707103
vn 0.000000 -0.707111 -0.707103
vn 0.000000 -0.707111 -0.707103
vn 0.000000 -0.707111 -0.707103
vn 0.000000 -0.707111 -0.707103
vn 0.707109 0.000000 -0.707105
vn 0.707109 0.000000 -0.707105
vn 0.707109 0.000000 -0.707105
vn 0.707109 0.000000 -0.707105
vn -0.707109 0.000000 -0.707105
vn -0.707109 0.000000 -0.707105
vn -0.707109 0.000000 -0.707105
vn -0.707109 0.000000 -0.707105
vn 0.000000 0.707106 -0.707107
vn 0.000000 0.707106 -0.707107
vn 0.000000 0.707106 -0.707107
vn 0.000000 0.707106 -0.707107
vn -1.000000 0.000000 0.000000
vn -1.000000 0.000000 0.000000
vn -1.000000 0.000000 0.000000
vn -1.000000 0.000000 0.000000
vn 0.000000 -1.000000 0.000000
vn 0.000000 -1.000000 0.000000
vn 0.000000 -1.000000 0.000000
vn 0.000000 -1.000000 0.000000
vn 1.000000 0.000000 0.000000
vn 1.000000 0.000000 0.000000
vn 1.000000 0.000000 0.000000
vn 1.000000 0.000000 0.000000
vn 0.000000 1.000000 0.000000
vn 0.000000 1.000000 0.000000
vn 0.000000 1.000000 0.000000
vn 0.000000 1.000000 0.000000
vn 0.000000 0.000000 1.000000
vn 0.000000 0.000000 1.000000
vn 0.000000 0.000000 1.000000
vn 0.000000 0.000000 1.000000
vn 0.000000 0.000000 1.000000
vn 0.000000 0.000000 1.000000
vn 0.000000 0.000000 1.000000
vn 0.000000 0.000000 1.000000
vn 0.000000 0.000000 1.000000
vn 0.000000 0.000000 1.000000
vn 0.000000 0.000000 1.000000
vn 0.000000 0.000000 1.000000
vn 0.000000 0.000000 1.000000
vn 0.000000 0.000000 1.000000
vn 0.000000 0.000000 1.000000
vn 0.000000 0.000000 1.000000
vn 0.000000 0.000000 -1.000000
vn -0.000000 0.000000 -1.000000
vn -0.000000 0.000000 -1.000000
vn 0.000000 0.000000 -1.000000
vn -0.000000 0.000000 -1.000000
vn -0.000000 0.000000 -1.000000
vn -0.000000 0.000000 -1.000000
vn -0.000000 0.000000 -1.000000
vn -0.000000 0.000000 -1.000000
vn 0.000000 0.000000 -1.000000
vn 0.000000 0.000000 -1.000000
vn -0.000000 0.000000 -1.000000
vn 0.000000 0.000000 -1.000000
vn 0.000000 0.000000 -1.000000
vn 0.000000 0.000000 -1.000000
vn 0.000000 0.000000 -1.000000
vn 0.000000 0.000000 1.000000
vn 0.000000 0.000000 1.000000
vn 0.000000 0.000000 1.000000
vn 0.000000 0.000000 1.000000
vn -1.000000 0.000000 0.000000
vn -1.000000 0.000000 0.000000
vn -1.000000 0.000000 0.000000
vn -1.000000 0.000000 0.000000
vn 0.000000 0.000000 -1.000000
vn 0.000000 0.000000 -1.000000
vn 0.000000 0.000000 -1.000000
vn 0.000000 0.000000 -1.000000
vn 1.000000 0.000000 0.000000
vn 1.000000 0.000000 0.000000
vn 1.000000 0.000000 0.000000
vn 1.000000 0.000000 0.000000
vn 0.000000 1.000000 0.000000
vn 0.000000 1.000000 0.000000
vn 0.000000 1.000000 0.000000
vn 0.000000 1.000000 0.000000
vn 0.000000 -1.000000 0.000000
vn 0.000000 -1.000000 0.000000
vn 0.000000 -1.000000 0.000000
vn 0.000000 -1.000000 0.000000
f 1/1/1 2/2/2 41/3/3 42/4/4
f 3/5/5 4/6/6 6/7/7 5/8/8
f 43/9/9 44/10/10 8/11/11 7/12/12
f 2/2/13 8/11/14 44/10/15 41/3/16
f 7/13/17 1/1/18 42/4/19 43/14/20
f 9/15/21 10/16/22 14/17/23 13/18/24
f 10/19/25 9/15/26 11/20/27 12/21/28
f 12/22/29 11/20/30 15/23/31 16/24/32
f 13/25/33 14/26/34 16/27/35 15/23/36
f 17/28/37 18/29/38 22/30/39 21/31/40
f 18/32/41 17/33/42 19/34/43 20/35/44
f 20/36/45 19/34/46 23/37/47 24/38/48
f 21/31/49 22/39/50 24/40/51 23/37/52
f 13/25/53 15/23/54 19/34/55 17/33/56
f 21/31/57 23/37/58 11/20/59 9/15/60
f 11/20/61 23/37/62 19/34/63 15/23/64
f 21/31/65 9/15/66 13/18/67 17/28/68
f 25/41/69 26/42/70 28/43/71 27/44/72
f 26/45/73 25/41/74 31/46/75 32/47/76
f 27/48/77 28/49/78 30/50/79 29/51/80
f 29/51/81 30/52/82 32/53/83 31/46/84
f 33/54/85 34/55/86 36/56/87 35/57/88
f 34/58/89 33/54/90 39/59/91 40/60/92
f 35/57/93 36/61/94 38/62/95 37/63/96
f 37/64/97 38/65/98 40/66/99 39/59/100
f 27/48/101 29/51/102 35/57/103 37/63/104
f 29/51/105 31/46/106 33/54/107 35/57/108
f 31/46/109 25/41/110 39/59/111 33/54/112
f 25/41/113 27/44/114 37/64/115 39/59/116
f 10/67/117 12/68/118 28/69/119 26/70/120
f 12/68/121 16/71/122 30/72/123 28/69/124
f 16/71/125 14/73/126 32/74/127 30/72/128
f 14/73/129 10/67/130 26/70/131 32/74/132
f 18/75/133 20/76/134 36/77/135 34/78/136
f 20/76/137 24/79/138 38/80/139 36/77/140
f 24/79/141 22/81/142 40/82/143 38/80/144
f 22/81/145 18/75/146 34/78/147 40/82/148
f 46/83/149 45/84/150 4/6/151 3/5/152
f 47/85/153 46/83/154 3/5/155 5/86/156
f 5/87/157 6/88/158 48/89/159 47/90/160
f 45/84/161 48/89/162 6/88/163 4/6/164
f 42/4/165 41/3/166 44/10/167 43/14/168
f 48/89/169 45/84/170 46/83/171 47/90/172
