# This file uses meters as units for non-parametric coordinates.

v -104.653229 57.128654 41.390995
v -104.653229 57.128654 -33.337540
v 104.653214 57.128654 41.390995
v 104.653214 57.128654 -33.337532
v -106.705658 84.148834 -35.579975
v -106.500443 84.354057 -35.374752
v 106.705643 84.148834 -35.579975
v 106.500427 84.354057 -35.374752
v -104.653229 84.148834 41.390995
v -104.858444 84.354057 41.390995
v -104.653214 84.148834 -33.337540
v -104.858444 84.354057 -33.542755
v -106.500427 84.354057 41.390995
v -106.705658 84.148834 41.390995
v 106.705650 84.148834 41.390995
v 106.500427 84.354057 41.390995
v 104.858444 84.354057 41.390995
v 104.653214 84.148834 41.390995
v 104.653214 84.148834 -33.337532
v 104.858429 84.354057 -33.542755
v -106.705658 55.336807 41.390995
v -106.262482 54.893639 41.390995
v -106.262474 54.893639 -35.136799
v -106.705643 55.336807 -35.579975
v 106.262474 54.893639 41.390995
v 106.705650 55.336807 41.390995
v 106.262474 54.893639 -35.136806
v 106.705650 55.336807 -35.579983
v -112.125923 88.863419 43.795296
v -112.125923 88.863419 46.199600
v -78.844826 88.863419 46.199600
v -78.844826 88.863419 43.795296
v -112.125923 53.322201 46.199600
v -112.125923 53.322201 43.795296
v -78.844826 53.322201 43.795300
v -78.844826 53.322201 46.199600
v 112.125923 53.322201 43.795296
v 112.125923 53.322201 46.199600
v 78.844826 53.322205 46.199600
v 78.844826 53.322205 43.795296
v 112.125923 88.863419 46.199600
v 112.125923 88.863419 43.795296
v 78.844826 88.863419 43.795296
v 78.844826 88.863419 46.199600
v -79.646156 88.062088 47.000931
v 79.646156 54.123520 47.000931
v 79.646156 88.062088 47.000931
v 79.646156 79.176796 47.000931
v -79.646156 54.123520 47.000931
v -79.646156 63.008816 47.000931
v -79.646156 79.176796 47.000931
v 0.000000 79.176796 47.000931
v -0.000000 63.008816 47.000931
v 79.646156 63.008816 47.000931
v -111.625603 88.062088 47.000931
v -78.844826 79.978111 46.199608
v 111.625603 88.062088 47.000931
v 111.625603 54.123520 47.000931
v 78.844826 62.207489 46.199608
v -111.625603 54.123520 47.000931
v 78.844826 79.978111 46.199608
v 0.000000 79.978111 46.199608
v -78.844826 62.207489 46.199600
v -0.000000 62.207489 46.199608
v -111.625603 62.207489 47.000923
v 111.625603 62.207489 47.000923
v -111.625603 79.978111 47.000923
v 111.625603 79.978111 47.000923
v 112.125923 62.651699 46.199600
v 112.125923 63.984566 43.795296
v 112.125923 79.711571 46.199600
v 112.125923 78.911880 43.795296
v -112.125923 62.651707 46.199600
v -112.125923 63.984566 43.795296
v -112.125908 79.711571 46.199600
v -112.125923 78.911880 43.795296
v -78.844826 79.978111 43.795296
v 0.000000 79.978111 43.795296
v 78.844826 79.978111 43.795296
v 78.844826 79.978111 46.199600
v -78.844826 79.978111 46.199600
v 0.000000 79.978111 46.199600
v 0.000000 88.863419 43.795296
v 78.844826 62.207485 43.795296
v 0.000000 62.207485 43.795296
v -78.844826 62.207485 43.795296
v 0.000000 62.207489 46.199604
v 78.844826 62.207485 46.199600
v 0.000000 53.322201 43.795296
v -112.125923 88.863419 41.390991
v -78.844826 88.863419 41.390991
v -78.844826 53.322201 41.390995
v -112.125923 53.322201 41.390991
v 112.125923 53.322201 41.390991
v 78.844826 53.322205 41.390991
v 78.844826 88.863419 41.390991
v 112.125923 88.863419 41.390991
v -112.125923 78.911880 41.390991
v 112.125923 63.984566 41.390991
v 112.125923 78.911880 41.390991
v -112.125923 63.984566 41.390991
v 0.000000 88.863419 41.390991
v 0.000000 53.322201 41.390991
vt 0.383798 0.901601
vt 0.383798 0.884595
vt 0.399042 0.901601
vt 0.399042 0.884595
vt 0.383370 0.883843
vt 0.383370 0.901601
vt 0.383370 0.901437
vt 0.383445 0.901601
vt 0.399470 0.901601
vt 0.383755 0.901601
vt 0.383798 0.901601
vt 0.383798 0.884595
vt 0.398983 0.884323
vt 0.398983 0.884323
vt 0.399042 0.901601
vt 0.399042 0.884595
vt 0.383413 0.901601
vt 0.383755 0.884511
vt 0.399085 0.901601
vt 0.399427 0.901601
vt 0.399427 0.883763
vt 0.398983 0.884493
vt 0.383986 0.884493
vt 0.383986 0.901018
vt 0.398983 0.901018
vt 0.383986 0.884493
vt 0.398983 0.884493
vt 0.383986 0.901018
vt 0.398983 0.901018
vt 0.383412 0.883763
vt 0.399085 0.884511
vt 0.383462 0.883679
vt 0.383370 0.883679
vt 0.399470 0.883679
vt 0.399470 0.901246
vt 0.399378 0.901420
vt 0.383462 0.901420
vt 0.399378 0.883679
vt 0.383370 0.901246
vt 0.399470 0.901437
vt 0.399470 0.884034
vt 0.383370 0.884034
vt 0.399470 0.884034
vt 0.383370 0.884034
vt 0.383370 0.901437
vt 0.399470 0.901437
vt 0.399470 0.883843
vt 0.383136 0.895264
vt 0.387964 0.895264
vt 0.387964 0.895264
vt 0.383136 0.895264
vt 0.387964 0.889915
vt 0.387964 0.891252
vt 0.387964 0.891252
vt 0.387964 0.889915
vt 0.387964 0.895858
vt 0.387964 0.897270
vt 0.387964 0.897270
vt 0.387964 0.895858
vt 0.387964 0.895264
vt 0.383143 0.895264
vt 0.383136 0.895264
vt 0.387964 0.895264
vt 0.383252 0.895264
vt 0.383136 0.895144
vt 0.387848 0.895144
vt 0.387964 0.895264
vt 0.387848 0.893806
vt 0.387964 0.893927
vt 0.383136 0.895144
vt 0.383143 0.895264
vt 0.387964 0.895264
vt 0.387848 0.895144
vt 0.383252 0.889915
vt 0.383136 0.890036
vt 0.387848 0.890036
vt 0.387964 0.889915
vt 0.387848 0.891373
vt 0.387964 0.891252
vt 0.383136 0.890036
vt 0.383252 0.889915
vt 0.387964 0.889915
vt 0.387848 0.890036
vt 0.387964 0.893927
vt 0.387848 0.893806
vt 0.399403 0.893927
vt 0.399403 0.893806
vt 0.387964 0.891252
vt 0.387848 0.891373
vt 0.399403 0.891252
vt 0.399403 0.891373
vt 0.383136 0.891252
vt 0.383136 0.891252
vt 0.383136 0.893927
vt 0.383136 0.893927
vt 0.386697 0.892305
vt 0.386516 0.892456
vt 0.384385 0.895417
vt 0.384488 0.895431
vt 0.384385 0.895417
vt 0.383222 0.891319
vt 0.386699 0.895702
vt 0.386516 0.895680
vt 0.386699 0.895702
vt 0.383166 0.893887
vt 0.384379 0.894231
vt 0.384488 0.894141
vt 0.387964 0.895264
vt 0.387964 0.893927
vt 0.399403 0.893927
vt 0.399403 0.895264
vt 0.387964 0.893927
vt 0.387964 0.895264
vt 0.387964 0.895264
vt 0.383136 0.895264
vt 0.383136 0.895264
vt 0.383136 0.895858
vt 0.387964 0.895858
vt 0.387964 0.895858
vt 0.383136 0.895858
vt 0.399403 0.889915
vt 0.383136 0.889915
vt 0.383136 0.889915
vt 0.399403 0.889915
vt 0.383136 0.889321
vt 0.399403 0.889321
vt 0.399403 0.889321
vt 0.383136 0.889321
vt 0.387964 0.889915
vt 0.387964 0.891252
vt 0.399403 0.891252
vt 0.399403 0.889915
vt 0.387964 0.891252
vt 0.387964 0.889915
vt 0.387964 0.891252
vt 0.387964 0.889915
vt 0.387964 0.889915
vt 0.387964 0.891252
vt 0.399403 0.891252
vt 0.387964 0.891252
vt 0.387964 0.891252
vt 0.399403 0.891252
vt 0.399403 0.893927
vt 0.387964 0.893927
vt 0.387964 0.893927
vt 0.399403 0.893927
vt 0.387964 0.893927
vt 0.387964 0.895264
vt 0.387964 0.895264
vt 0.387964 0.893927
vt 0.383643 0.890864
vt 0.387075 0.890864
vt 0.387075 0.894625
vt 0.383643 0.894625
vt 0.383643 0.890864
vt 0.387075 0.890864
vt 0.387075 0.894625
vt 0.383643 0.894625
vt 0.383643 0.890864
vt 0.387075 0.890864
vt 0.387075 0.894625
vt 0.383643 0.894625
vt 0.383643 0.890864
vt 0.387075 0.890864
vt 0.387075 0.894625
vt 0.383643 0.894625
vt 0.383643 0.890864
vt 0.387075 0.890864
vt 0.387075 0.894625
vt 0.383643 0.894625
vt 0.383643 0.890864
vt 0.387075 0.890864
vt 0.387075 0.894625
vt 0.383643 0.894625
vt 0.383643 0.890864
vt 0.387075 0.890864
vt 0.387075 0.894625
vt 0.383643 0.894625
vt 0.383643 0.890864
vt 0.387075 0.890864
vt 0.387075 0.894625
vt 0.383643 0.894625
vt 0.383643 0.890864
vt 0.387075 0.890864
vt 0.387075 0.894625
vt 0.383643 0.894625
vt 0.383643 0.890864
vt 0.387075 0.890864
vt 0.387075 0.894625
vt 0.383643 0.894625
vt 0.383643 0.890864
vt 0.387075 0.890864
vt 0.387075 0.894625
vt 0.383643 0.894625
vt 0.383643 0.890864
vt 0.387075 0.890864
vt 0.387075 0.894625
vt 0.383643 0.894625
vt 0.383643 0.890864
vt 0.387075 0.890864
vt 0.387075 0.894625
vt 0.383643 0.894625
vt 0.383643 0.890864
vt 0.387075 0.890864
vt 0.387075 0.894625
vt 0.383643 0.894625
vn 0.000000 1.000000 0.000000
vn 0.000000 1.000000 0.000000
vn 0.000000 1.000000 0.000000
vn 0.000000 1.000000 0.000000
vn 0.000000 0.707114 -0.707099
vn 0.000000 0.707114 -0.707100
vn 0.000000 0.707114 -0.707100
vn 0.000000 0.707114 -0.707099
vn -0.707102 0.707112 0.000000
vn -0.707102 0.707112 0.000000
vn -0.707102 0.707112 0.000000
vn -0.707102 0.707112 0.000000
vn 0.707102 0.707112 -0.000000
vn 0.707102 0.707112 -0.000000
vn 0.707102 0.707112 -0.000000
vn 0.707102 0.707112 -0.000000
vn 0.707110 0.707103 0.000000
vn 0.707110 0.707103 0.000000
vn 0.707110 0.707103 0.000000
vn 0.707110 0.707103 0.000000
vn -0.000000 0.707105 0.707109
vn -0.000000 0.707105 0.707109
vn -0.000000 0.707105 0.707109
vn -0.000000 0.707105 0.707109
vn -0.707133 0.707081 0.000000
vn -0.707133 0.707081 0.000000
vn -0.707133 0.707081 0.000000
vn -0.707133 0.707081 0.000000
vn 0.000000 1.000000 0.000001
vn 0.000000 1.000000 0.000000
vn 0.000000 1.000000 0.000000
vn 0.000000 1.000000 0.000001
vn 0.000000 1.000000 0.000001
vn 0.000000 1.000000 0.000000
vn 0.000000 1.000000 0.000000
vn 0.000000 1.000000 0.000001
vn -0.000000 0.000000 1.000000
vn -0.000000 0.000000 1.000000
vn -0.000000 0.000000 1.000000
vn -0.000000 0.000000 1.000000
vn 1.000000 -0.000000 0.000000
vn 1.000000 -0.000000 0.000000
vn 1.000000 -0.000000 0.000000
vn 1.000000 -0.000000 0.000000
vn -1.000000 0.000000 0.000000
vn -1.000000 0.000000 0.000000
vn -1.000000 0.000000 0.000000
vn -1.000000 0.000000 0.000000
vn -0.707109 -0.707104 -0.000000
vn -0.707109 -0.707104 -0.000000
vn -0.707109 -0.707105 -0.000000
vn -0.707109 -0.707105 -0.000000
vn -0.000000 -0.707116 -0.707097
vn -0.000000 -0.707116 -0.707097
vn -0.000000 -0.707116 -0.707097
vn -0.000000 -0.707116 -0.707097
vn 0.707104 -0.707110 0.000000
vn 0.707104 -0.707110 0.000000
vn 0.707104 -0.707110 0.000000
vn 0.707104 -0.707110 0.000000
vn 0.000000 -1.000000 0.000000
vn 0.000000 -1.000000 0.000000
vn 0.000000 -1.000000 0.000000
vn 0.000000 -1.000000 0.000000
vn -0.000000 0.000000 -1.000000
vn -0.000000 0.000000 -1.000000
vn -0.000000 0.000000 -1.000000
vn -0.000000 0.000000 -1.000000
vn 1.000000 0.000000 -0.000000
vn 1.000000 0.000000 -0.000000
vn 1.000000 0.000000 -0.000000
vn 1.000000 0.000000 -0.000000
vn -1.000000 -0.000000 -0.000000
vn -1.000000 -0.000000 -0.000000
vn -1.000000 -0.000000 -0.000000
vn -1.000000 -0.000000 -0.000000
vn 0.000000 1.000000 0.000000
vn 0.000000 1.000000 0.000000
vn 0.000000 1.000000 0.000000
vn 0.000000 1.000000 0.000000
vn 0.000000 -1.000000 0.000000
vn 0.000000 -1.000000 0.000000
vn 0.000000 -1.000000 0.000000
vn 0.000000 -1.000000 0.000000
vn -0.000000 -1.000000 0.000000
vn -0.000000 -1.000000 0.000000
vn -0.000000 -1.000000 0.000000
vn -0.000000 -1.000000 0.000000
vn 0.000000 1.000000 0.000000
vn 0.000000 1.000000 0.000000
vn 0.000000 1.000000 0.000000
vn 0.000000 1.000000 0.000000
vn 0.000000 0.707106 0.707108
vn 0.000000 0.707106 0.707108
vn 0.000000 0.707106 0.707108
vn 0.000000 0.707106 0.707108
vn 0.707105 0.000000 0.707109
vn 0.707105 0.000000 0.707109
vn 0.707105 0.000000 0.707109
vn 0.707105 0.000000 0.707109
vn 0.000000 0.707106 0.707108
vn 0.000000 0.707106 0.707108
vn 0.000000 0.707106 0.707108
vn 0.000000 0.707106 0.707108
vn 0.000000 -0.707112 0.707101
vn 0.000000 -0.707112 0.707101
vn 0.000000 -0.707112 0.707101
vn 0.000000 -0.707112 0.707101
vn -0.707105 -0.000000 0.707108
vn -0.707105 -0.000000 0.707108
vn -0.707105 -0.000000 0.707108
vn -0.707105 -0.000000 0.707108
vn 0.000000 -0.707111 0.707103
vn 0.000000 -0.707111 0.707103
vn 0.000000 -0.707111 0.707103
vn 0.000000 -0.707111 0.707103
vn -0.707105 0.000000 0.707109
vn -0.707105 0.000000 0.707109
vn -0.707105 0.000000 0.707109
vn -0.707105 0.000000 0.707109
vn 0.000000 0.707108 0.707105
vn 0.000000 0.707108 0.707105
vn 0.000000 0.707108 0.707105
vn 0.000000 0.707108 0.707105
vn 0.707107 0.000000 0.707107
vn 0.707107 0.000000 0.707107
vn 0.707107 0.000000 0.707107
vn 0.707107 0.000000 0.707107
vn 0.000000 -0.707107 0.707106
vn 0.000000 -0.707107 0.707106
vn 0.000000 -0.707106 0.707107
vn 0.000000 -0.707106 0.707107
vn 0.000000 0.707108 0.707105
vn 0.000000 0.707108 0.707105
vn 0.000000 -0.707105 0.707108
vn 0.000000 -0.707105 0.707108
vn -0.000000 0.000000 1.000000
vn -0.000000 0.000000 1.000000
vn -0.000000 0.000000 1.000000
vn -0.000000 0.000000 1.000000
vn 0.000000 0.000000 1.000000
vn 0.000000 0.000000 1.000000
vn 0.000000 0.000000 1.000000
vn 0.000000 0.000000 1.000000
vn -0.000000 -0.000000 1.000000
vn -0.000000 -0.000000 1.000000
vn -0.000000 -0.000000 1.000000
vn -0.000000 -0.000000 1.000000
vn 0.000000 -0.000000 1.000000
vn 0.000000 -0.000000 1.000000
vn 0.000000 -0.000000 1.000000
vn 0.000000 -0.000000 1.000000
vn 0.000000 0.000000 1.000000
vn 0.000000 0.000000 1.000000
vn -1.000000 0.000000 0.000001
vn -1.000000 0.000001 0.000002
vn -1.000000 0.000000 0.000000
vn -1.000000 0.000000 0.000000
vn 1.000000 0.000000 0.000000
vn 1.000000 0.000000 0.000000
vn 1.000000 0.000000 0.000000
vn 1.000000 0.000000 0.000000
vn 0.848241 0.000000 0.529610
vn 0.848241 0.000000 0.529610
vn 0.848240 0.000000 0.529612
vn 0.848240 0.000000 0.529612
vn -0.848242 0.000000 0.529609
vn -0.848243 0.000000 0.529608
vn -0.848240 0.000000 0.529612
vn -0.848240 0.000000 0.529612
vn 0.848240 0.000000 0.529613
vn 0.848240 0.000000 0.529612
vn 0.848240 0.000000 0.529612
vn 0.848240 0.000000 0.529612
vn 1.000000 0.000000 0.000000
vn 1.000000 0.000000 0.000000
vn 1.000000 0.000000 0.000000
vn 1.000000 0.000000 0.000000
vn -0.848244 -0.000000 0.529605
vn -0.848244 0.000000 0.529606
vn -1.000000 -0.000000 0.000003
vn -1.000000 0.000000 0.000003
vn -0.848245 -0.000001 0.529604
vn -0.848245 -0.000001 0.529604
vn -1.000000 -0.000001 0.000003
vn -1.000000 -0.000001 0.000003
vn 0.000000 0.000000 1.000000
vn 0.000000 0.000000 1.000000
vn 0.000000 0.000000 1.000000
vn 0.000000 0.000000 1.000000
vn 0.000000 0.000000 1.000000
vn 0.000000 0.000000 1.000000
vn 1.000000 0.000000 0.000000
vn 1.000000 0.000000 0.000000
vn 1.000000 0.000000 0.000000
vn 1.000000 0.000000 0.000000
vn 0.000000 1.000000 0.000000
vn 0.000000 1.000000 0.000000
vn 0.000000 1.000000 0.000000
vn 0.000000 1.000000 0.000000
vn 0.000000 1.000000 0.000000
vn 0.000000 1.000000 0.000000
vn -1.000000 0.000000 0.000000
vn -1.000000 0.000000 0.000000
vn -1.000000 0.000000 0.000000
vn -1.000000 0.000000 0.000000
vn 0.000000 0.000000 1.000000
vn 0.000000 0.000000 1.000000
vn 0.000000 0.000000 1.000000
vn 0.000000 0.000000 1.000000
vn 0.000000 0.000000 1.000000
vn 0.000000 0.000000 1.000000
vn -1.000000 0.000000 0.000000
vn -1.000000 0.000000 0.000000
vn -1.000000 0.000000 0.000000
vn -1.000000 0.000000 0.000000
vn -0.000000 -1.000000 0.000003
vn -0.000000 -1.000000 0.000003
vn -0.000000 -1.000000 0.000003
vn -0.000000 -1.000000 0.000003
vn 1.000000 0.000000 0.000000
vn 1.000000 0.000000 0.000000
vn 1.000000 0.000000 0.000000
vn 1.000000 0.000000 0.000000
vn -0.000000 -1.000000 0.000003
vn -0.000000 -1.000000 0.000003
vn 0.000000 1.000000 0.000000
vn 0.000000 1.000000 0.000000
vn 0.000000 1.000000 0.000000
vn 0.000000 1.000000 0.000000
vn 0.000000 -1.000000 0.000000
vn 0.000000 -1.000000 0.000000
vn 0.000000 -1.000000 0.000000
vn 0.000000 -1.000000 0.000000
vn -0.000000 -1.000000 0.000000
vn -0.000000 -1.000000 0.000000
vn -0.000000 -1.000000 0.000000
vn -0.000000 -1.000000 0.000000
vn 0.000000 1.000000 0.000000
vn 0.000000 1.000000 0.000000
vn 0.000000 1.000000 0.000000
vn 0.000000 1.000000 0.000000
vn -1.000000 0.000000 0.000000
vn -1.000000 0.000000 0.000000
vn -1.000000 0.000000 0.000000
vn -1.000000 0.000000 0.000000
vn 1.000000 0.000000 0.000000
vn 1.000000 0.000000 0.000000
vn 1.000000 0.000000 0.000000
vn 1.000000 0.000000 0.000000
vn 1.000000 0.000000 0.000000
vn 1.000000 0.000000 0.000000
vn 1.000000 0.000000 0.000000
vn 1.000000 0.000000 0.000000
vn 1.000000 0.000000 0.000000
vn 1.000000 0.000000 0.000000
vn 1.000000 0.000000 0.000000
vn 1.000000 0.000000 0.000000
vn -1.000000 0.000000 0.000000
vn -1.000000 0.000000 0.000000
vn -1.000000 0.000000 0.000000
vn -1.000000 0.000000 0.000000
vn -1.000000 0.000000 0.000000
vn -1.000000 0.000000 0.000000
vn -1.000000 0.000000 0.000000
vn -1.000000 0.000000 0.000000
vn 0.000000 1.000000 0.000000
vn 0.000000 1.000000 0.000000
vn 0.000000 1.000000 0.000000
vn 0.000000 1.000000 0.000000
vn 0.000000 1.000000 0.000000
vn 0.000000 1.000000 0.000000
vn 0.000000 1.000000 0.000000
vn 0.000000 1.000000 0.000000
vn 0.000000 -1.000000 0.000000
vn 0.000000 -1.000000 0.000000
vn 0.000000 -1.000000 0.000000
vn 0.000000 -1.000000 0.000000
vn 0.000000 -1.000000 0.000000
vn 0.000000 -1.000000 0.000000
vn 0.000000 -1.000000 0.000000
vn 0.000000 -1.000000 0.000000
vn 0.000000 0.000000 -1.000000
vn 0.000000 0.000000 -1.000000
vn 0.000000 0.000000 -1.000000
vn 0.000000 0.000000 -1.000000
vn 0.000000 0.000000 -1.000000
vn 0.000000 0.000000 -1.000000
vn 0.000000 0.000000 -1.000000
vn 0.000000 -0.000000 -1.000000
vn 0.000000 -0.000000 -1.000000
vn 0.000000 0.000000 -1.000000
vn 0.000000 -0.000000 -1.000000
vn 0.000000 0.000000 -1.000000
vn 0.000000 0.000000 -1.000000
vn 0.000000 -0.000000 -1.000000
f 2/2/1 1/1/2 3/3/3 4/4/4
f 5/5/5 6/30/6 8/21/7 7/47/8
f 6/30/9 5/5/10 14/6/11 13/17/12
f 7/7/13 8/8/14 16/9/15 15/40/16
f 10/10/17 9/11/18 11/12/19 12/18/20
f 12/13/21 11/22/22 19/27/23 20/14/24
f 18/15/25 17/19/26 20/31/27 19/16/28
f 6/30/29 13/17/30 10/10/31 12/18/32
f 20/31/33 17/19/34 16/20/35 8/21/36
f 19/27/37 11/22/38 2/25/39 4/29/40
f 11/22/41 9/23/42 1/24/43 2/25/44
f 18/26/45 19/27/46 4/29/47 3/28/48
f 8/21/36 6/30/29 12/18/32 20/31/33
f 22/32/49 21/33/50 24/39/51 23/37/52
f 23/37/53 24/39/54 28/35/55 27/36/56
f 26/34/57 25/38/58 27/36/59 28/35/60
f 25/38/61 22/32/62 23/37/63 27/36/64
f 28/35/65 24/39/66 5/5/67 7/47/68
f 7/7/69 15/40/70 26/41/71 28/42/72
f 24/43/73 21/44/74 14/45/75 5/46/76
f 30/48/77 31/49/78 32/50/79 29/51/80
f 36/52/81 33/53/82 34/54/83 35/55/84
f 38/56/85 39/57/86 40/58/87 37/59/88
f 44/60/89 41/61/90 42/62/91 43/63/92
f 30/64/93 55/65/94 45/66/95 31/67/96
f 31/67/97 45/66/98 51/68/99 56/69/100
f 57/70/101 41/71/102 44/72/103 47/73/104
f 38/74/105 58/75/106 46/76/107 39/77/108
f 39/77/109 46/76/110 54/78/111 59/79/112
f 60/80/113 33/81/114 36/82/115 49/83/116
f 47/73/117 44/72/118 61/84/119 48/85/120
f 48/85/121 61/84/122 62/86/123 52/87/124
f 49/83/125 36/82/126 63/88/127 50/89/128
f 50/89/129 63/88/130 64/90/131 53/91/132
f 56/69/133 51/68/134 52/87/124 62/86/123
f 53/91/132 64/90/131 59/79/135 54/78/136
f 60/80/137 49/83/138 50/89/139 65/92/140
f 66/93/141 54/78/142 46/76/143 58/75/144
f 67/94/145 51/68/146 45/66/147 55/65/148
f 57/70/149 47/73/150 48/85/151 68/95/152
f 51/68/146 50/89/139 53/91/153 52/87/154
f 65/92/140 50/89/139 51/68/146 67/94/145
f 54/78/142 66/93/141 68/95/152 48/85/151
f 52/87/154 53/91/153 54/78/142 48/85/151
f 73/96/155 74/97/156 34/54/157 33/53/158
f 71/98/159 72/99/160 42/62/161 41/61/162
f 41/71/163 57/70/164 68/95/165 71/100/166
f 65/92/167 73/101/168 33/81/169 60/80/170
f 69/102/171 66/93/172 58/75/173 38/56/174
f 38/56/175 37/59/176 70/103/177 69/104/178
f 71/100/166 68/95/165 66/93/172 69/102/171
f 69/104/178 70/103/177 72/99/160 71/98/159
f 65/92/167 67/94/179 75/105/180 73/101/168
f 75/106/181 76/107/182 74/97/156 73/96/155
f 75/105/180 67/94/179 55/65/183 30/48/184
f 30/48/185 29/51/186 76/107/182 75/106/181
f 32/108/187 77/109/188 78/110/189 83/111/190
f 78/110/189 79/112/191 43/113/192 83/111/190
f 31/114/193 81/115/194 77/116/195 32/108/196
f 81/117/197 82/118/198 78/119/199 77/120/200
f 82/121/198 80/122/201 79/123/202 78/124/199
f 80/125/203 44/126/204 43/127/205 79/128/206
f 40/129/207 84/130/208 85/131/209 89/132/210
f 86/133/211 35/134/212 89/132/210 85/131/209
f 39/135/213 88/136/214 84/137/215 40/138/216
f 88/139/217 87/140/218 85/141/219 84/142/220
f 63/143/221 36/144/222 35/145/223 86/146/224
f 87/147/218 63/148/225 86/149/226 85/150/219
f 29/151/227 32/152/228 91/153/229 90/154/230
f 35/155/231 34/156/232 93/157/233 92/158/234
f 37/159/235 40/160/236 95/161/237 94/162/238
f 43/163/239 42/164/240 97/165/241 96/166/242
f 76/167/243 29/168/244 90/169/245 98/170/246
f 70/171/247 37/172/248 94/173/249 99/174/250
f 72/175/251 70/176/252 99/177/253 100/178/254
f 42/179/255 72/180/256 100/181/257 97/182/258
f 34/183/259 74/184/260 101/185/261 93/186/262
f 74/187/263 76/188/264 98/189/265 101/190/266
f 32/191/267 83/192/268 102/193/269 91/194/270
f 83/195/271 43/196/272 96/197/273 102/198/274
f 40/199/275 89/200/276 103/201/277 95/202/278
f 89/203/279 35/204/280 92/205/281 103/206/282
f 97/182/283 100/178/284 96/166/285
f 94/162/286 95/202/287 99/174/288
f 93/186/289 101/190/290 92/158/291
f 90/154/292 91/194/293 98/170/294
f 100/178/284 99/174/288 96/166/285
f 99/174/288 95/202/287 96/166/285
f 95/202/287 103/206/295 96/166/285
f 96/166/285 103/206/295 102/198/296
f 103/206/295 92/158/291 102/198/296
f 102/198/296 92/158/291 91/194/293
f 92/158/291 101/190/290 91/194/293
f 101/190/290 98/170/294 91/194/293
