# This file uses meters as units for non-parametric coordinates.

v -74.307404 294.620096 -43.173153
v 74.307404 294.620096 -43.173153
v -74.307404 144.762369 -43.173153
v 74.307404 144.762338 -43.173153
v 64.235619 155.089059 -42.346066
v -64.235619 155.089075 -42.346066
v 64.235619 283.816904 -42.346066
v -64.235619 283.816904 -42.346066
v -74.307404 144.762369 -39.692150
v -73.422882 145.646875 -38.807629
v -74.307404 294.620096 -39.692150
v -73.422882 293.735574 -38.807629
v 74.307404 144.762338 -39.692150
v 73.422882 145.646860 -38.807629
v 74.307404 294.620096 -39.692150
v 73.422882 293.735574 -38.807629
v -65.120125 154.204553 -38.807629
v -64.235619 155.089075 -39.692150
v -65.120125 284.701425 -38.807629
v -64.235619 283.816904 -39.692150
v 65.120132 284.701425 -38.807629
v 64.235619 283.816904 -39.692150
v 65.120132 154.204538 -38.807629
v 64.235619 155.089059 -39.692150
vt 0.461246 0.946771
vt 0.446000 0.964117
vt 0.449089 0.946771
vt 0.446000 0.946873
vt 0.446142 0.946771
vt 0.461246 0.950285
vt 0.461105 0.946771
vt 0.446000 0.960602
vt 0.458157 0.964117
vt 0.459777 0.947864
vt 0.461105 0.964014
vt 0.461246 0.960602
vt 0.446000 0.946771
vt 0.461246 0.964117
vt 0.446000 0.950285
vt 0.458157 0.946771
vt 0.446000 0.946771
vt 0.446000 0.964117
vt 0.461246 0.946771
vt 0.449089 0.964117
vt 0.461246 0.964117
vt 0.459777 0.962969
vt 0.446142 0.964014
vt 0.461105 0.946873
vt 0.447470 0.947864
vt 0.446142 0.946873
vt 0.447470 0.962969
vt 0.459635 0.947966
vt 0.447611 0.947966
vt 0.459635 0.962866
vt 0.459635 0.947966
vt 0.447611 0.962866
vt 0.459635 0.962866
vt 0.447611 0.947966
vt 0.447611 0.962866
vn 0.000000 0.000000 -1.000000
vn 0.000000 0.000000 -1.000000
vn 0.000000 0.000000 -1.000000
vn 0.000000 0.000000 -1.000000
vn 0.000000 0.000000 1.000000
vn 0.000000 0.000000 1.000000
vn 0.000000 0.000000 1.000000
vn 0.000000 0.000000 1.000000
vn -0.707107 0.000000 0.707107
vn -0.707107 0.000000 0.707107
vn -0.707107 0.000000 0.707107
vn -0.707107 0.000000 0.707107
vn -0.000000 -0.707109 0.707105
vn -0.000000 -0.707109 0.707105
vn -0.000000 -0.707109 0.707105
vn -0.000000 -0.707109 0.707105
vn 0.000000 0.707103 0.707110
vn 0.000000 0.707103 0.707110
vn 0.000000 0.707103 0.707110
vn 0.000000 0.707103 0.707110
vn 0.707108 0.000000 0.707105
vn 0.707108 0.000000 0.707105
vn 0.707108 0.000000 0.707105
vn 0.707108 0.000000 0.707105
vn 0.707112 0.000000 0.707102
vn 0.707112 0.000000 0.707102
vn 0.707112 0.000000 0.707102
vn 0.707112 0.000000 0.707102
vn 0.000000 0.707107 0.707107
vn 0.000000 0.707107 0.707107
vn 0.000000 0.707107 0.707107
vn 0.000000 0.707107 0.707107
vn 0.000000 -0.707095 0.707119
vn 0.000000 -0.707095 0.707119
vn 0.000000 -0.707095 0.707119
vn 0.000000 -0.707095 0.707119
vn -0.707109 0.000000 0.707105
vn -0.707109 0.000000 0.707105
vn -0.707109 0.000000 0.707105
vn -0.707109 0.000000 0.707105
vn 0.000000 0.000000 1.000000
vn 0.000000 0.000000 1.000000
vn 0.000000 0.000000 1.000000
vn 0.000000 0.000000 1.000000
vn 0.000000 1.000000 0.000000
vn 0.000000 1.000000 0.000000
vn 0.000000 1.000000 0.000000
vn 0.000000 1.000000 0.000000
vn -0.000000 -1.000000 0.000000
vn -0.000000 -1.000000 0.000000
vn -0.000000 -1.000000 0.000000
vn -0.000000 -1.000000 0.000000
vn 1.000000 0.000000 0.000000
vn 1.000000 0.000000 0.000000
vn 1.000000 0.000000 0.000000
vn 1.000000 0.000000 0.000000
vn -1.000000 0.000000 0.000000
vn -1.000000 0.000000 0.000000
vn -1.000000 0.000000 0.000000
vn -1.000000 0.000000 0.000000
vn -0.000000 0.000000 1.000000
vn -0.000000 0.000000 1.000000
vn -0.000000 0.000000 1.000000
vn -0.000000 0.000000 1.000000
vn 0.000000 1.000000 0.000000
vn 0.000000 1.000000 0.000000
vn 0.000000 1.000000 0.000000
vn 0.000000 1.000000 0.000000
vn -1.000000 0.000000 0.000000
vn -1.000000 0.000000 0.000000
vn -1.000000 0.000000 0.000000
vn -1.000000 0.000000 0.000000
vn 0.000000 -1.000000 0.000000
vn 0.000000 -1.000000 0.000000
vn 0.000000 -1.000000 0.000000
vn 0.000000 -1.000000 0.000000
vn 1.000000 0.000000 0.000000
vn 1.000000 0.000000 0.000000
vn 1.000000 0.000000 0.000000
vn 1.000000 0.000000 0.000000
f 2/1/1 4/14/2 3/2/3 1/13/4
f 6/29/5 5/31/6 7/33/7 8/35/8
f 9/3/9 10/4/10 12/23/11 11/20/12
f 10/5/13 9/15/14 13/6/15 14/7/16
f 11/8/17 12/23/18 16/11/19 15/12/20
f 14/24/21 13/16/22 15/9/23 16/11/24
f 17/25/25 18/34/26 20/32/27 19/27/28
f 18/34/29 17/25/30 23/10/31 24/28/32
f 19/27/33 20/32/34 22/30/35 21/22/36
f 21/22/37 22/30/38 24/28/39 23/10/40
f 23/10/41 14/24/42 16/11/43 21/22/44
f 15/12/45 2/1/46 1/13/47 11/8/48
f 4/14/49 13/6/50 9/15/51 3/2/52
f 15/9/53 13/16/54 4/17/55 2/18/56
f 3/19/57 9/3/58 11/20/59 1/21/60
f 21/22/44 16/11/43 12/23/61 19/27/62
f 10/26/63 14/24/42 23/10/41 17/25/64
f 12/23/61 10/26/63 17/25/64 19/27/62
f 18/34/65 24/28/66 5/31/67 6/29/68
f 24/28/69 22/30/70 7/33/71 5/31/72
f 22/30/73 20/32/74 8/35/75 7/33/76
f 20/32/77 18/34/78 6/29/79 8/35/80
