# This file uses meters as units for non-parametric coordinates.

v 78.844826 79.978111 44.824562
v -0.000000 79.978111 44.824562
v 78.844826 88.863411 44.824562
v -78.844826 79.978111 44.824562
v -78.844826 88.863411 44.824562
v -74.173706 88.863411 44.824562
v -74.173706 79.978111 44.824562
v 74.173706 79.978111 44.824562
v 74.173706 88.863411 44.824562
v -78.844826 83.263542 44.824562
v 78.844826 83.263542 44.824562
v -74.173706 83.263542 44.824562
v -0.000000 83.263542 44.824562
v 74.173706 83.263542 44.824562
v 78.844826 79.978111 46.571548
v 78.262573 80.560364 47.153801
v 74.173706 79.978111 46.571548
v 74.173706 80.560364 47.153801
v 78.262573 88.281158 47.153801
v 78.844826 88.863411 46.571548
v 74.173706 88.863411 46.571548
v 74.755959 88.281158 47.153801
v 78.844826 83.263542 46.571548
v 78.262573 83.263542 47.153801
v -78.262573 88.281158 47.153801
v -78.844826 88.863411 46.571548
v -78.262573 83.263542 47.153801
v -78.844826 83.263542 46.571548
v -0.000000 79.978111 46.571548
v -0.000000 80.560364 47.153801
v -74.173706 79.978111 46.571548
v -74.173706 80.560364 47.153801
v -74.755959 88.281158 47.153801
v -74.173706 88.863411 46.571548
v -78.262573 80.560364 47.153801
v -78.844826 79.978111 46.571548
v -74.755959 82.681290 47.153801
v -74.173706 83.263542 46.571548
v -0.000000 82.681290 47.153801
v -0.000000 83.263542 46.571548
v 74.755959 82.681290 47.153801
v 74.173706 83.263542 46.571548
v 0.000000 88.863411 44.824562
v 78.844826 79.978111 43.795296
v 74.173706 79.978111 43.795296
v 78.844826 88.863411 43.795296
v 74.173706 88.863411 43.795296
v 78.844826 83.263542 43.795296
v -78.844826 88.863411 43.795296
v -78.844826 83.263542 43.795296
v -0.000000 79.978111 43.795296
v -74.173706 79.978111 43.795296
v -74.173706 88.863411 43.795296
v -78.844826 79.978111 43.795296
v 0.000000 88.863411 43.795296
v 78.844826 62.207485 44.824562
v -0.000000 62.207485 44.824562
v 78.844826 53.322186 44.824562
v -78.844826 62.207485 44.824562
v -78.844826 53.322186 44.824562
v -74.173706 53.322186 44.824562
v -74.173706 62.207485 44.824562
v 74.173706 62.207485 44.824562
v 74.173706 53.322186 44.824562
v -78.844826 58.922054 44.824562
v 78.844826 58.922054 44.824562
v -74.173706 58.922054 44.824562
v -0.000000 58.922054 44.824562
v 74.173706 58.922054 44.824562
v 78.844826 62.207485 46.571548
v 78.262573 61.625233 47.153801
v 74.173706 62.207485 46.571548
v 74.173706 61.625233 47.153801
v 78.262573 53.904438 47.153801
v 78.844826 53.322186 46.571548
v 74.173706 53.322186 46.571548
v 74.755959 53.904438 47.153801
v 78.844826 58.922054 46.571548
v 78.262573 58.922054 47.153801
v -78.262573 53.904438 47.153801
v -78.844826 53.322186 46.571548
v -78.262573 58.922054 47.153801
v -78.844826 58.922054 46.571548
v -0.000000 62.207485 46.571548
v -0.000000 61.625233 47.153801
v -74.173706 62.207485 46.571548
v -74.173706 61.625233 47.153801
v -74.755959 53.904438 47.153801
v -74.173706 53.322186 46.571548
v -78.262573 61.625233 47.153801
v -78.844826 62.207485 46.571548
v -74.755959 59.504307 47.153801
v -74.173706 58.922054 46.571548
v -0.000000 59.504307 47.153801
v -0.000000 58.922054 46.571548
v 74.755959 59.504307 47.153801
v 74.173706 58.922054 46.571548
v 0.000000 53.322186 44.824562
v 78.844826 62.207485 43.795296
v 74.173706 62.207485 43.795296
v 78.844826 53.322186 43.795296
v 74.173706 53.322186 43.795296
v 78.844826 58.922054 43.795296
v -78.844826 53.322186 43.795296
v -78.844826 58.922054 43.795296
v -0.000000 62.207485 43.795296
v -74.173706 62.207485 43.795296
v -74.173706 53.322186 43.795296
v -78.844826 62.207485 43.795296
v 0.000000 53.322186 43.795296
vt 0.447091 0.895951
vt 0.447599 0.895951
vt 0.447684 0.896748
vt 0.447091 0.895951
vt 0.447091 0.897178
vt 0.447684 0.895858
vt 0.447684 0.896748
vt 0.458445 0.896748
vt 0.447091 0.896748
vt 0.447599 0.895951
vt 0.447006 0.897270
vt 0.447006 0.897270
vt 0.447684 0.895858
vt 0.447684 0.895858
vt 0.447006 0.895858
vt 0.447006 0.895858
vt 0.447006 0.896748
vt 0.447006 0.896748
vt 0.447006 0.895858
vt 0.447684 0.895858
vt 0.447006 0.895858
vt 0.447684 0.897270
vt 0.447684 0.897270
vt 0.458445 0.897270
vt 0.458445 0.897270
vt 0.447684 0.897270
vt 0.447684 0.897270
vt 0.447684 0.897178
vt 0.458445 0.896841
vt 0.447091 0.896748
vt 0.447599 0.896841
vt 0.447006 0.897270
vt 0.447006 0.897270
vt 0.447006 0.896748
vt 0.447006 0.896748
vt 0.447091 0.897178
vt 0.447684 0.897178
vt 0.447599 0.896841
vt 0.458445 0.897178
vt 0.446630 0.895967
vt 0.449909 0.895967
vt 0.449909 0.898663
vt 0.446630 0.898663
vt 0.446630 0.895967
vt 0.449909 0.895967
vt 0.449909 0.898663
vt 0.446630 0.898663
vt 0.446630 0.895967
vt 0.449909 0.895967
vt 0.449909 0.898663
vt 0.446630 0.898663
vt 0.446630 0.895967
vt 0.449909 0.895967
vt 0.449909 0.898663
vt 0.446630 0.898663
vt 0.456600 0.897166
vt 0.456600 0.897630
vt 0.450996 0.897630
vt 0.450996 0.897166
vt 0.456600 0.897166
vt 0.456600 0.898094
vt 0.445393 0.898094
vt 0.445393 0.897166
vt 0.447684 0.894262
vt 0.451036 0.894262
vt 0.451036 0.897936
vt 0.447684 0.897936
vt 0.447684 0.894262
vt 0.451036 0.894262
vt 0.451036 0.897936
vt 0.447684 0.897936
vt 0.447684 0.894262
vt 0.451036 0.894262
vt 0.451036 0.897936
vt 0.447684 0.897936
vt 0.447684 0.894262
vt 0.451036 0.894262
vt 0.451036 0.897936
vt 0.447684 0.897936
vt 0.447684 0.894262
vt 0.451036 0.894262
vt 0.451036 0.897936
vt 0.447684 0.897936
vt 0.447684 0.894262
vt 0.451036 0.894262
vt 0.451036 0.897936
vt 0.447684 0.897936
vt 0.447684 0.894262
vt 0.451036 0.894262
vt 0.451036 0.897936
vt 0.447684 0.897936
vt 0.447684 0.894262
vt 0.451036 0.894262
vt 0.451036 0.897936
vt 0.447684 0.897936
vt 0.447684 0.894262
vt 0.451036 0.894262
vt 0.451036 0.897936
vt 0.447684 0.897936
vt 0.447684 0.894262
vt 0.451036 0.894262
vt 0.451036 0.897936
vt 0.447684 0.897936
vt 0.447684 0.894262
vt 0.451036 0.894262
vt 0.451036 0.897936
vt 0.447684 0.897936
vt 0.447684 0.894262
vt 0.451036 0.894262
vt 0.451036 0.897936
vt 0.447684 0.897936
vt 0.447006 0.897270
vt 0.447091 0.897178
vt 0.447091 0.896748
vt 0.447006 0.896748
vt 0.447684 0.897270
vt 0.447684 0.897178
vt 0.458445 0.897270
vt 0.458445 0.897178
vt 0.447091 0.895951
vt 0.447006 0.895858
vt 0.447599 0.895951
vt 0.447684 0.895858
vt 0.447599 0.896841
vt 0.447684 0.896748
vt 0.447091 0.895951
vt 0.447006 0.895858
vt 0.447684 0.895858
vt 0.447599 0.895951
vt 0.447091 0.896748
vt 0.447006 0.896748
vt 0.447091 0.897178
vt 0.447006 0.897270
vt 0.447684 0.897270
vt 0.447684 0.897178
vt 0.447684 0.896748
vt 0.447599 0.896841
vt 0.458445 0.896748
vt 0.458445 0.896841
vt 0.447006 0.897270
vt 0.447684 0.897270
vt 0.447684 0.895858
vt 0.447006 0.895858
vt 0.447006 0.896748
vt 0.447006 0.896748
vt 0.447006 0.895858
vt 0.447684 0.895858
vt 0.447684 0.897270
vt 0.447006 0.897270
vt 0.458445 0.897270
vt 0.446630 0.895967
vt 0.449909 0.895967
vt 0.449909 0.898663
vt 0.446630 0.898663
vt 0.446630 0.895967
vt 0.449909 0.895967
vt 0.449909 0.898663
vt 0.446630 0.898663
vt 0.446630 0.895967
vt 0.449909 0.895967
vt 0.449909 0.898663
vt 0.446630 0.898663
vt 0.446630 0.895967
vt 0.449909 0.895967
vt 0.449909 0.898663
vt 0.446630 0.898663
vt 0.456600 0.897166
vt 0.456600 0.897630
vt 0.450996 0.897630
vt 0.450996 0.897166
vt 0.456600 0.897166
vt 0.456600 0.898094
vt 0.445393 0.898094
vt 0.445393 0.897166
vt 0.447684 0.894262
vt 0.451036 0.894262
vt 0.451036 0.897936
vt 0.447684 0.897936
vt 0.447684 0.894262
vt 0.451036 0.894262
vt 0.451036 0.897936
vt 0.447684 0.897936
vt 0.447684 0.894262
vt 0.451036 0.894262
vt 0.451036 0.897936
vt 0.447684 0.897936
vt 0.447684 0.894262
vt 0.451036 0.894262
vt 0.451036 0.897936
vt 0.447684 0.897936
vt 0.447684 0.894262
vt 0.451036 0.894262
vt 0.451036 0.897936
vt 0.447684 0.897936
vt 0.447684 0.894262
vt 0.451036 0.894262
vt 0.451036 0.897936
vt 0.447684 0.897936
vt 0.447684 0.894262
vt 0.451036 0.894262
vt 0.451036 0.897936
vt 0.447684 0.897936
vt 0.447684 0.894262
vt 0.451036 0.894262
vt 0.451036 0.897936
vt 0.447684 0.897936
vt 0.447684 0.894262
vt 0.451036 0.894262
vt 0.451036 0.897936
vt 0.447684 0.897936
vt 0.447684 0.894262
vt 0.451036 0.894262
vt 0.451036 0.897936
vt 0.447684 0.897936
vt 0.447684 0.894262
vt 0.451036 0.894262
vt 0.451036 0.897936
vt 0.447684 0.897936
vt 0.447684 0.894262
vt 0.451036 0.894262
vt 0.451036 0.897936
vt 0.447684 0.897936
vn 0.707108 0.000000 0.707106
vn 0.707108 0.000000 0.707106
vn 0.707108 0.000000 0.707106
vn 0.707108 0.000000 0.707106
vn 0.000000 -0.707107 0.707106
vn 0.000000 -0.707106 0.707108
vn 0.000000 -0.707106 0.707108
vn 0.000000 -0.707107 0.707106
vn 0.000000 -0.707105 0.707108
vn 0.000000 -0.707105 0.707108
vn 0.707108 0.000000 0.707106
vn 0.707108 0.000000 0.707106
vn 0.000000 0.707108 0.707106
vn 0.000000 0.707108 0.707106
vn 0.000000 0.707108 0.707106
vn 0.000000 0.707108 0.707106
vn -0.707105 0.000000 0.707109
vn -0.707105 0.000000 0.707109
vn -0.707105 0.000000 0.707109
vn -0.707105 0.000000 0.707109
vn 0.000000 0.707108 0.707106
vn 0.000000 0.707108 0.707106
vn 0.000000 0.707108 0.707106
vn 0.000000 0.707108 0.707106
vn -0.707108 0.000000 0.707106
vn -0.707108 0.000000 0.707106
vn -0.707108 0.000000 0.707106
vn -0.707108 0.000000 0.707106
vn -0.707108 0.000000 0.707105
vn -0.707108 0.000000 0.707105
vn 0.000000 -0.707106 0.707108
vn 0.000000 -0.707106 0.707108
vn 0.000000 -0.707107 0.707107
vn 0.000000 -0.707107 0.707107
vn 0.707106 0.000000 0.707107
vn 0.707106 0.000000 0.707107
vn 0.707106 0.000000 0.707107
vn 0.707106 0.000000 0.707107
vn 0.000000 0.707107 0.707106
vn 0.000000 0.707107 0.707107
vn 0.000000 0.707107 0.707107
vn 0.000000 0.707107 0.707106
vn 0.000000 0.707106 0.707107
vn 0.000000 0.707106 0.707107
vn -0.000001 0.000000 1.000000
vn -0.000001 0.000000 1.000000
vn -0.000001 0.000000 1.000000
vn -0.000000 0.000000 1.000000
vn 0.000000 0.000000 1.000000
vn 0.000000 0.000000 1.000000
vn 0.000001 0.000000 1.000000
vn 0.000001 0.000000 1.000000
vn 0.000000 -1.000000 0.000000
vn 0.000000 -1.000000 0.000000
vn 0.000000 -1.000000 0.000000
vn 0.000000 -1.000000 0.000000
vn 0.000000 1.000000 0.000000
vn 0.000000 1.000000 0.000000
vn 0.000000 1.000000 0.000000
vn 0.000000 1.000000 0.000000
vn 1.000000 0.000000 0.000000
vn 1.000000 0.000000 0.000000
vn 1.000000 0.000000 0.000000
vn 1.000000 0.000000 0.000000
vn -1.000000 0.000000 0.000000
vn -1.000000 0.000000 0.000000
vn -1.000000 0.000000 0.000000
vn -1.000000 0.000000 0.000000
vn 0.000000 1.000000 0.000000
vn 0.000000 1.000000 0.000000
vn 0.000000 1.000000 0.000000
vn 0.000000 1.000000 0.000000
vn 0.000000 -1.000000 0.000000
vn 0.000000 -1.000000 0.000000
vn 0.000000 -1.000000 0.000000
vn 0.000000 -1.000000 0.000000
vn 0.000000 -1.000000 0.000000
vn 0.000000 -1.000000 0.000000
vn -0.000000 0.000000 1.000000
vn 0.000000 0.000000 1.000000
vn 0.000000 0.000000 1.000000
vn -0.000001 0.000000 1.000000
vn -1.000000 0.000000 0.000000
vn -1.000000 0.000000 0.000000
vn 1.000000 0.000000 0.000000
vn 1.000000 0.000000 0.000000
vn 0.000001 0.000000 1.000000
vn 0.000000 0.000000 1.000000
vn 1.000000 0.000000 0.000000
vn 1.000000 0.000000 0.000000
vn 1.000000 0.000000 0.000000
vn 1.000000 0.000000 0.000000
vn 0.000000 1.000000 0.000000
vn 0.000000 1.000000 0.000000
vn 0.000000 1.000000 0.000000
vn 0.000000 1.000000 0.000000
vn -1.000000 0.000000 0.000000
vn -1.000000 0.000000 0.000000
vn -1.000000 0.000000 0.000000
vn -1.000000 0.000000 0.000000
vn 0.000000 1.000000 0.000000
vn 0.000000 1.000000 0.000000
vn 0.000000 0.000000 1.000000
vn 0.000000 0.000000 1.000000
vn 0.000000 0.000000 1.000000
vn 0.000000 0.000000 1.000000
vn 0.000000 0.000000 1.000000
vn 0.000000 0.000000 1.000000
vn 0.000000 -1.000000 0.000000
vn 0.000000 -1.000000 0.000000
vn 0.000000 -1.000000 0.000000
vn 0.000000 -1.000000 0.000000
vn 0.000000 1.000000 0.000000
vn 0.000000 1.000000 0.000000
vn 0.000000 1.000000 0.000000
vn 0.000000 1.000000 0.000000
vn 1.000000 0.000000 0.000000
vn 1.000000 0.000000 0.000000
vn 1.000000 0.000000 0.000000
vn 1.000000 0.000000 0.000000
vn -1.000000 0.000000 0.000000
vn -1.000000 0.000000 0.000000
vn -1.000000 0.000000 0.000000
vn -1.000000 0.000000 0.000000
vn 0.000000 -1.000000 0.000000
vn 0.000000 -1.000000 0.000000
vn 0.000000 -1.000000 0.000000
vn 0.000000 -1.000000 0.000000
vn 0.000000 1.000000 0.000000
vn 0.000000 1.000000 0.000000
vn 0.000000 1.000000 0.000000
vn 0.000000 1.000000 0.000000
vn 0.000000 -1.000000 0.000000
vn 0.000000 -1.000000 0.000000
vn 0.000000 -1.000000 0.000000
vn 0.000000 -1.000000 0.000000
vn 0.000000 -1.000000 0.000000
vn 0.000000 -1.000000 0.000000
vn 0.000000 -1.000000 0.000000
vn 0.000000 -1.000000 0.000000
vn -1.000000 0.000000 0.000000
vn -1.000000 0.000000 0.000000
vn -1.000000 0.000000 0.000000
vn -1.000000 0.000000 0.000000
vn 1.000000 0.000000 0.000000
vn 1.000000 0.000000 0.000000
vn 1.000000 0.000000 0.000000
vn 1.000000 0.000000 0.000000
vn 0.000000 1.000000 0.000000
vn 0.000000 1.000000 0.000000
vn 0.000000 1.000000 0.000000
vn 0.000000 1.000000 0.000000
vn 0.000000 1.000000 0.000000
vn 0.000000 1.000000 0.000000
vn 0.000000 1.000000 0.000000
vn 0.000000 1.000000 0.000000
vn 0.707106 0.000000 0.707108
vn 0.707106 0.000000 0.707108
vn 0.707107 0.000000 0.707107
vn 0.707107 0.000000 0.707107
vn 0.000000 0.707107 0.707107
vn 0.000000 0.707107 0.707107
vn 0.000000 0.707106 0.707108
vn 0.000000 0.707106 0.707108
vn 0.000000 0.707105 0.707108
vn 0.000000 0.707105 0.707108
vn 0.707107 0.000000 0.707106
vn 0.707107 0.000000 0.707106
vn 0.000000 -0.707105 0.707109
vn 0.000000 -0.707105 0.707109
vn 0.000000 -0.707105 0.707109
vn 0.000000 -0.707105 0.707109
vn -0.707106 0.000000 0.707108
vn -0.707106 0.000000 0.707108
vn -0.707106 0.000000 0.707108
vn -0.707106 0.000000 0.707108
vn 0.000000 -0.707105 0.707109
vn 0.000000 -0.707105 0.707109
vn 0.000000 -0.707105 0.707109
vn 0.000000 -0.707105 0.707109
vn -0.707107 0.000000 0.707106
vn -0.707107 0.000000 0.707106
vn -0.707107 0.000000 0.707107
vn -0.707107 0.000000 0.707107
vn -0.707106 0.000000 0.707108
vn -0.707106 0.000000 0.707108
vn 0.000000 0.707106 0.707108
vn 0.000000 0.707106 0.707108
vn 0.000000 0.707107 0.707107
vn 0.000000 0.707107 0.707107
vn 0.707106 0.000000 0.707108
vn 0.707106 0.000000 0.707108
vn 0.707106 0.000000 0.707108
vn 0.707106 0.000000 0.707108
vn 0.000000 -0.707110 0.707104
vn 0.000000 -0.707110 0.707104
vn 0.000000 -0.707110 0.707104
vn 0.000000 -0.707110 0.707104
vn 0.000000 -0.707110 0.707104
vn 0.000000 -0.707110 0.707104
vn -0.000000 0.000000 1.000000
vn -0.000000 0.000000 1.000000
vn -0.000001 0.000000 1.000000
vn -0.000001 0.000000 1.000000
vn 0.000001 0.000000 1.000000
vn 0.000001 0.000000 1.000000
vn 0.000001 0.000000 1.000000
vn 0.000000 0.000000 1.000000
vn 0.000000 1.000000 0.000000
vn 0.000000 1.000000 0.000000
vn 0.000000 1.000000 0.000000
vn 0.000000 1.000000 0.000000
vn 0.000000 -1.000000 0.000000
vn 0.000000 -1.000000 0.000000
vn 0.000000 -1.000000 0.000000
vn 0.000000 -1.000000 0.000000
vn 1.000000 0.000000 0.000000
vn 1.000000 0.000000 0.000000
vn 1.000000 0.000000 0.000000
vn 1.000000 0.000000 0.000000
vn -1.000000 0.000000 0.000000
vn -1.000000 0.000000 0.000000
vn -1.000000 0.000000 0.000000
vn -1.000000 0.000000 0.000000
vn 0.000000 -1.000000 0.000000
vn 0.000000 -1.000000 0.000000
vn 0.000000 -1.000000 0.000000
vn 0.000000 -1.000000 0.000000
vn 0.000000 1.000000 0.000000
vn 0.000000 1.000000 0.000000
vn 0.000000 1.000000 0.000000
vn 0.000000 1.000000 0.000000
vn 0.000000 1.000000 0.000000
vn 0.000000 1.000000 0.000000
vn -0.000000 0.000000 1.000000
vn 0.000000 0.000000 1.000000
vn 0.000000 0.000000 1.000000
vn -0.000001 0.000000 1.000000
vn -1.000000 0.000000 0.000000
vn -1.000000 0.000000 0.000000
vn 1.000000 0.000000 0.000000
vn 1.000000 0.000000 0.000000
vn 0.000001 0.000000 1.000000
vn 0.000000 0.000000 1.000000
vn 1.000000 0.000000 0.000000
vn 1.000000 0.000000 0.000000
vn 1.000000 0.000000 0.000000
vn 1.000000 0.000000 0.000000
vn 0.000000 -1.000000 0.000000
vn 0.000000 -1.000000 0.000000
vn 0.000000 -1.000000 0.000000
vn 0.000000 -1.000000 0.000000
vn -1.000000 0.000000 0.000000
vn -1.000000 0.000000 0.000000
vn -1.000000 0.000000 0.000000
vn -1.000000 0.000000 0.000000
vn 0.000000 -1.000000 0.000000
vn 0.000000 -1.000000 0.000000
vn 0.000000 0.000000 1.000000
vn 0.000000 0.000000 1.000000
vn 0.000000 0.000000 1.000000
vn 0.000000 0.000000 1.000000
vn 0.000000 0.000000 1.000000
vn 0.000000 0.000000 1.000000
vn 0.000000 1.000000 0.000000
vn 0.000000 1.000000 0.000000
vn 0.000000 1.000000 0.000000
vn 0.000000 1.000000 0.000000
vn 0.000000 -1.000000 0.000000
vn 0.000000 -1.000000 0.000000
vn 0.000000 -1.000000 0.000000
vn 0.000000 -1.000000 0.000000
vn 1.000000 0.000000 0.000000
vn 1.000000 0.000000 0.000000
vn 1.000000 0.000000 0.000000
vn 1.000000 0.000000 0.000000
vn -1.000000 0.000000 0.000000
vn -1.000000 0.000000 0.000000
vn -1.000000 0.000000 0.000000
vn -1.000000 0.000000 0.000000
vn 0.000000 1.000000 0.000000
vn 0.000000 1.000000 0.000000
vn 0.000000 1.000000 0.000000
vn 0.000000 1.000000 0.000000
vn 0.000000 -1.000000 0.000000
vn 0.000000 -1.000000 0.000000
vn 0.000000 -1.000000 0.000000
vn 0.000000 -1.000000 0.000000
vn 0.000000 1.000000 0.000000
vn 0.000000 1.000000 0.000000
vn 0.000000 1.000000 0.000000
vn 0.000000 1.000000 0.000000
vn 0.000000 1.000000 0.000000
vn 0.000000 1.000000 0.000000
vn 0.000000 1.000000 0.000000
vn 0.000000 1.000000 0.000000
vn -1.000000 0.000000 0.000000
vn -1.000000 0.000000 0.000000
vn -1.000000 0.000000 0.000000
vn -1.000000 0.000000 0.000000
vn 1.000000 0.000000 0.000000
vn 1.000000 0.000000 0.000000
vn 1.000000 0.000000 0.000000
vn 1.000000 0.000000 0.000000
vn 0.000000 -1.000000 0.000000
vn 0.000000 -1.000000 0.000000
vn 0.000000 -1.000000 0.000000
vn 0.000000 -1.000000 0.000000
vn 0.000000 -1.000000 0.000000
vn 0.000000 -1.000000 0.000000
vn 0.000000 -1.000000 0.000000
vn 0.000000 -1.000000 0.000000
f 15/12/1 23/34/2 24/9/3 16/36/4
f 16/36/5 18/37/6 17/27/7 15/12/8
f 18/37/6 30/39/9 29/25/10 17/27/7
f 19/1/11 24/9/3 23/34/2 20/16/12
f 20/16/13 21/14/14 22/2/15 19/1/16
f 21/14/17 42/3/18 41/38/19 22/2/20
f 25/4/21 33/10/22 34/6/23 26/21/24
f 26/21/25 28/18/26 27/30/27 25/4/28
f 28/18/26 36/33/29 35/5/30 27/30/27
f 30/39/9 32/28/31 31/23/32 29/25/10
f 32/28/31 35/5/33 36/33/34 31/23/32
f 33/10/35 37/31/36 38/7/37 34/6/38
f 37/31/39 39/29/40 40/8/41 38/7/42
f 39/29/40 41/38/43 42/3/44 40/8/41
f 24/9/45 19/1/46 22/2/47 41/38/48
f 27/30/49 37/31/50 33/10/51 25/4/52
f 1/11/53 15/12/54 17/27/55 8/26/56
f 9/13/57 21/14/58 20/16/59 3/15/60
f 3/15/61 20/16/62 23/34/63 11/35/64
f 10/17/65 28/18/66 26/21/67 5/19/68
f 5/19/69 26/21/70 34/6/71 6/20/72
f 7/22/73 31/23/74 36/33/75 4/32/76
f 2/24/77 29/25/78 31/23/74 7/22/73
f 8/26/56 17/27/55 29/25/78 2/24/77
f 32/28/79 30/39/80 39/29/81 37/31/50
f 35/5/82 32/28/79 37/31/50 27/30/49
f 4/32/83 36/33/84 28/18/66 10/17/65
f 23/34/63 15/12/85 1/11/86 11/35/64
f 16/36/87 24/9/45 41/38/48 18/37/88
f 39/29/81 30/39/80 18/37/88 41/38/48
f 38/40/89 12/43/90 6/42/91 34/41/92
f 40/44/93 13/47/94 12/46/95 38/45/96
f 21/48/97 9/51/98 14/50/99 42/49/100
f 42/52/101 14/55/102 13/54/94 40/53/93
f 9/56/103 43/59/104 13/58/105 14/57/106
f 43/60/104 6/63/107 12/62/108 13/61/105
f 8/64/109 45/67/110 44/66/111 1/65/112
f 3/68/113 46/71/114 47/70/115 9/69/116
f 1/72/117 44/75/118 48/74/119 11/73/120
f 5/76/121 49/79/122 50/78/123 10/77/124
f 7/80/125 52/83/126 51/82/127 2/81/128
f 6/84/129 53/87/130 49/86/131 5/85/132
f 4/88/133 54/91/134 52/90/135 7/89/136
f 2/92/137 51/95/138 45/94/139 8/93/140
f 10/96/141 50/99/142 54/98/143 4/97/144
f 11/100/145 48/103/146 46/102/147 3/101/148
f 9/104/149 47/107/150 55/106/151 43/105/152
f 43/108/153 55/111/154 53/110/155 6/109/156
f 70/112/157 71/113/158 79/114/159 78/115/160
f 71/113/161 70/112/162 72/116/163 73/117/164
f 73/117/164 72/116/163 84/118/165 85/119/166
f 74/120/167 75/121/168 78/115/160 79/114/159
f 75/121/169 74/120/170 77/122/171 76/123/172
f 76/123/173 77/122/174 96/124/175 97/125/176
f 80/126/177 81/127/178 89/128/179 88/129/180
f 81/127/181 80/126/182 82/130/183 83/131/184
f 83/131/184 82/130/183 90/132/185 91/133/186
f 85/119/166 84/118/165 86/134/187 87/135/188
f 87/135/188 86/134/187 91/133/189 90/132/190
f 88/129/191 89/128/192 93/136/193 92/137/194
f 92/137/195 93/136/196 95/138/197 94/139/198
f 94/139/198 95/138/197 97/125/199 96/124/200
f 79/114/201 96/124/202 77/122/203 74/120/204
f 82/130/205 80/126/206 88/129/207 92/137/208
f 56/140/209 63/141/210 72/116/211 70/112/212
f 64/142/213 58/143/214 75/121/215 76/123/216
f 58/143/217 66/144/218 78/115/219 75/121/220
f 65/145/221 60/146/222 81/127/223 83/131/224
f 60/146/225 61/147/226 89/128/227 81/127/228
f 62/148/229 59/149/230 91/133/231 86/134/232
f 57/150/233 62/148/229 86/134/232 84/118/234
f 63/141/210 57/150/233 84/118/234 72/116/211
f 87/135/235 92/137/208 94/139/236 85/119/237
f 90/132/238 82/130/205 92/137/208 87/135/235
f 59/149/239 65/145/221 83/131/224 91/133/240
f 78/115/219 66/144/218 56/140/241 70/112/242
f 71/113/243 73/117/244 96/124/202 79/114/201
f 94/139/236 96/124/202 73/117/244 85/119/237
f 93/151/245 89/152/246 61/153/247 67/154/248
f 95/155/249 93/156/250 67/157/251 68/158/252
f 76/159/253 97/160/254 69/161/255 64/162/256
f 97/163/257 95/164/249 68/165/252 69/166/258
f 64/167/259 69/168/260 68/169/261 98/170/262
f 98/171/262 68/172/261 67/173/263 61/174/264
f 63/175/265 56/176/266 99/177/267 100/178/268
f 58/179/269 64/180/270 102/181/271 101/182/272
f 56/183/273 66/184/274 103/185/275 99/186/276
f 60/187/277 65/188/278 105/189/279 104/190/280
f 62/191/281 57/192/282 106/193/283 107/194/284
f 61/195/285 60/196/286 104/197/287 108/198/288
f 59/199/289 62/200/290 107/201/291 109/202/292
f 57/203/293 63/204/294 100/205/295 106/206/296
f 65/207/297 59/208/298 109/209/299 105/210/300
f 66/211/301 58/212/302 101/213/303 103/214/304
f 64/215/305 98/216/306 110/217/307 102/218/308
f 98/219/309 61/220/310 108/221/311 110/222/312
