# This file uses meters as units for non-parametric coordinates.

v -104.653229 18.576654 41.390995
v -104.653229 18.576654 -33.337540
v 104.653214 18.576654 41.390995
v 104.653214 18.576654 -33.337532
v -106.705658 45.596832 -35.579975
v -106.500443 45.802055 -35.374752
v 106.705643 45.596832 -35.579975
v 106.500427 45.802055 -35.374752
v -104.653229 45.596832 41.390995
v -104.858444 45.802055 41.390995
v -104.653214 45.596832 -33.337540
v -104.858444 45.802055 -33.542755
v -106.500427 45.802055 41.390995
v -106.705658 45.596832 41.390995
v 106.705650 45.596832 41.390995
v 106.500427 45.802055 41.390995
v 104.858444 45.802055 41.390995
v 104.653214 45.596832 41.390995
v 104.653214 45.596832 -33.337532
v 104.858429 45.802055 -33.542755
v -106.705658 16.784807 41.390995
v -106.262482 16.341639 41.390995
v -106.262474 16.341639 -35.136799
v -106.705643 16.784807 -35.579975
v 106.262474 16.341639 41.390995
v 106.705650 16.784807 41.390995
v 106.262474 16.341639 -35.136806
v 106.705650 16.784807 -35.579983
v -112.125923 49.581421 43.795296
v -112.125923 49.581421 46.199600
v -78.844826 49.581421 46.199600
v -78.844826 49.581421 43.795296
v -78.844826 14.841534 47.000931
v 0.000000 14.841534 47.000931
v 78.844826 14.841534 47.000931
v -79.646156 48.780090 47.000931
v 79.646156 48.780090 47.000931
v 79.646156 39.894783 47.000931
v -79.646156 39.894783 47.000931
v 0.000000 39.894783 47.000931
v -111.625603 14.841534 47.000931
v -112.125923 14.040214 46.199608
v -78.844826 14.040214 46.199608
v 0.000000 14.040214 46.199608
v 112.125923 14.040214 46.199608
v 111.625603 14.841534 47.000931
v 78.844826 14.040214 46.199608
v -111.625603 48.780090 47.000931
v -78.844826 40.696114 46.199608
v 111.625603 48.780090 47.000931
v 112.125923 49.581421 46.199600
v 78.844826 49.581421 46.199600
v 78.844826 40.696114 46.199608
v 0.000000 40.696114 46.199608
v -111.625603 40.696114 47.000923
v 111.625603 40.696114 47.000923
v 112.125923 49.581421 43.795296
v 78.844826 49.581421 43.795296
v -112.125923 14.040214 43.795296
v -78.844826 14.040214 43.795296
v 0.000000 14.040214 43.795296
v 78.844826 14.040214 43.795296
v 112.125923 14.040214 43.795296
v -112.125923 40.251892 46.199608
v -112.125923 38.919060 43.795296
v 112.125923 40.251892 46.199608
v 112.125923 38.919060 43.795296
v -78.844826 40.696114 43.795296
v 0.000000 40.696114 43.795296
v 78.844826 40.696114 43.795296
v 78.844826 40.696114 46.199600
v -78.844826 40.696114 46.199600
v 0.000000 40.696114 46.199600
v 0.000000 49.581421 43.795296
v -112.125923 49.581421 41.390980
v -78.844826 49.581421 41.390980
v 78.844826 49.581421 41.390980
v 112.125923 49.581421 41.390980
v -112.125923 14.040214 41.390980
v -78.844826 14.040214 41.390980
v 0.000000 14.040214 41.390980
v 78.844826 14.040214 41.390980
v 112.125923 14.040214 41.390980
v -112.125923 38.919060 41.390980
v 112.125923 38.919060 41.390980
v 0.000000 49.581421 41.390980
vt 0.415048 0.807851
vt 0.415048 0.790845
vt 0.430292 0.807851
vt 0.430292 0.790845
vt 0.414620 0.790093
vt 0.414620 0.807851
vt 0.414620 0.807687
vt 0.414695 0.807851
vt 0.430720 0.807851
vt 0.415005 0.807851
vt 0.415048 0.807851
vt 0.415048 0.790845
vt 0.430233 0.790573
vt 0.430233 0.790573
vt 0.430292 0.807851
vt 0.430292 0.790845
vt 0.414663 0.807851
vt 0.415005 0.790761
vt 0.430335 0.807851
vt 0.430677 0.807851
vt 0.430677 0.790013
vt 0.430233 0.790743
vt 0.415236 0.790743
vt 0.415236 0.807268
vt 0.430233 0.807268
vt 0.415236 0.790743
vt 0.430233 0.790743
vt 0.415236 0.807268
vt 0.430233 0.807268
vt 0.414662 0.790013
vt 0.430335 0.790761
vt 0.414712 0.789929
vt 0.414620 0.789929
vt 0.430720 0.789929
vt 0.430720 0.807496
vt 0.430628 0.807670
vt 0.414712 0.807670
vt 0.430628 0.789929
vt 0.414620 0.807496
vt 0.430720 0.807687
vt 0.430720 0.790284
vt 0.414620 0.790284
vt 0.430720 0.790284
vt 0.414620 0.790284
vt 0.414620 0.807687
vt 0.430720 0.807687
vt 0.430720 0.790093
vt 0.419214 0.794061
vt 0.430653 0.794061
vt 0.430653 0.794061
vt 0.419214 0.794061
vt 0.414386 0.790052
vt 0.414502 0.790087
vt 0.419214 0.790087
vt 0.419214 0.790052
vt 0.430653 0.790087
vt 0.430653 0.790052
vt 0.414502 0.790087
vt 0.414386 0.790052
vt 0.419214 0.790052
vt 0.419214 0.790087
vt 0.414502 0.795571
vt 0.414386 0.795443
vt 0.419098 0.795443
vt 0.419214 0.795571
vt 0.419098 0.794032
vt 0.419214 0.794159
vt 0.414386 0.795443
vt 0.414502 0.795571
vt 0.419214 0.795571
vt 0.419098 0.795443
vt 0.419214 0.794159
vt 0.419098 0.794032
vt 0.430653 0.794159
vt 0.430653 0.794032
vt 0.414386 0.794159
vt 0.414386 0.794159
vt 0.419214 0.794061
vt 0.430653 0.794061
vt 0.430653 0.794061
vt 0.419214 0.794061
vt 0.414595 0.790357
vt 0.419169 0.790357
vt 0.419169 0.795372
vt 0.414595 0.795372
vt 0.414595 0.790357
vt 0.419169 0.790357
vt 0.419169 0.795372
vt 0.414595 0.795372
vt 0.414595 0.790357
vt 0.419169 0.790357
vt 0.419169 0.795372
vt 0.414595 0.795372
vt 0.414595 0.790357
vt 0.419169 0.790357
vt 0.419169 0.795372
vt 0.414595 0.795372
vt 0.419203 0.793089
vt 0.419201 0.794454
vt 0.426438 0.793089
vt 0.425836 0.794454
vt 0.414527 0.794202
vt 0.417977 0.793018
vt 0.419214 0.795571
vt 0.419214 0.794159
vt 0.430653 0.794159
vt 0.430653 0.795571
vt 0.419214 0.794159
vt 0.419214 0.795571
vt 0.419214 0.795571
vt 0.419214 0.794159
vt 0.430653 0.794159
vt 0.419214 0.794159
vt 0.419214 0.795571
vt 0.414705 0.790874
vt 0.420626 0.790874
vt 0.420626 0.797364
vt 0.414705 0.797364
vt 0.414705 0.790874
vt 0.420626 0.790874
vt 0.420626 0.797364
vt 0.414705 0.797364
vt 0.414705 0.790874
vt 0.420626 0.790874
vt 0.420626 0.797364
vt 0.414705 0.797364
vt 0.414705 0.790874
vt 0.420626 0.790874
vt 0.420626 0.797364
vt 0.414705 0.797364
vt 0.414705 0.790874
vt 0.420626 0.790874
vt 0.420626 0.797364
vt 0.414705 0.797364
vt 0.414705 0.790874
vt 0.420626 0.790874
vt 0.420626 0.797364
vt 0.414705 0.797364
vt 0.414705 0.790874
vt 0.420626 0.790874
vt 0.420626 0.797364
vt 0.414705 0.797364
vt 0.414705 0.790874
vt 0.420626 0.790874
vt 0.420626 0.797364
vt 0.414705 0.797364
vt 0.414705 0.790874
vt 0.420626 0.790874
vt 0.420626 0.797364
vt 0.414705 0.797364
vt 0.414705 0.790874
vt 0.420626 0.790874
vt 0.420626 0.797364
vt 0.414705 0.797364
vt 0.414705 0.790874
vt 0.420626 0.790874
vt 0.420626 0.797364
vt 0.414705 0.797364
vt 0.414705 0.790874
vt 0.420626 0.790874
vt 0.420626 0.797364
vt 0.414705 0.797364
vn 0.000000 1.000000 0.000000
vn 0.000000 1.000000 0.000000
vn 0.000000 1.000000 0.000000
vn 0.000000 1.000000 0.000000
vn 0.000000 0.707106 -0.707107
vn 0.000000 0.707106 -0.707107
vn 0.000000 0.707106 -0.707107
vn 0.000000 0.707106 -0.707107
vn -0.707102 0.707112 0.000000
vn -0.707102 0.707112 0.000000
vn -0.707102 0.707112 0.000000
vn -0.707102 0.707112 0.000000
vn 0.707102 0.707112 -0.000000
vn 0.707102 0.707112 -0.000000
vn 0.707102 0.707112 -0.000000
vn 0.707102 0.707112 -0.000000
vn 0.707110 0.707103 0.000000
vn 0.707110 0.707103 0.000000
vn 0.707110 0.707103 0.000000
vn 0.707110 0.707103 0.000000
vn -0.000000 0.707097 0.707117
vn -0.000000 0.707097 0.707117
vn -0.000000 0.707097 0.707117
vn -0.000000 0.707097 0.707117
vn -0.707133 0.707081 0.000000
vn -0.707133 0.707081 0.000000
vn -0.707133 0.707081 0.000000
vn -0.707133 0.707081 0.000000
vn 0.000000 1.000000 0.000000
vn 0.000000 1.000000 -0.000000
vn 0.000000 1.000000 -0.000000
vn 0.000000 1.000000 0.000000
vn 0.000000 1.000000 0.000000
vn 0.000000 1.000000 -0.000000
vn 0.000000 1.000000 -0.000000
vn 0.000000 1.000000 0.000000
vn -0.000000 0.000000 1.000000
vn -0.000000 0.000000 1.000000
vn -0.000000 0.000000 1.000000
vn -0.000000 0.000000 1.000000
vn 1.000000 -0.000000 0.000000
vn 1.000000 -0.000000 0.000000
vn 1.000000 -0.000000 0.000000
vn 1.000000 -0.000000 0.000000
vn -1.000000 0.000000 0.000000
vn -1.000000 0.000000 0.000000
vn -1.000000 0.000000 0.000000
vn -1.000000 0.000000 0.000000
vn -0.707109 -0.707104 -0.000000
vn -0.707109 -0.707104 -0.000000
vn -0.707109 -0.707105 -0.000000
vn -0.707109 -0.707105 -0.000000
vn -0.000000 -0.707113 -0.707101
vn -0.000000 -0.707113 -0.707101
vn -0.000000 -0.707113 -0.707101
vn -0.000000 -0.707113 -0.707101
vn 0.707104 -0.707110 0.000000
vn 0.707104 -0.707110 0.000000
vn 0.707104 -0.707110 0.000000
vn 0.707104 -0.707110 0.000000
vn 0.000000 -1.000000 0.000000
vn 0.000000 -1.000000 0.000000
vn 0.000000 -1.000000 0.000000
vn 0.000000 -1.000000 0.000000
vn -0.000000 0.000000 -1.000000
vn -0.000000 0.000000 -1.000000
vn -0.000000 0.000000 -1.000000
vn -0.000000 0.000000 -1.000000
vn 1.000000 0.000000 -0.000000
vn 1.000000 0.000000 -0.000000
vn 1.000000 0.000000 -0.000000
vn 1.000000 0.000000 -0.000000
vn -1.000000 -0.000000 -0.000000
vn -1.000000 -0.000000 -0.000000
vn -1.000000 -0.000000 -0.000000
vn -1.000000 -0.000000 -0.000000
vn 0.000000 1.000000 0.000000
vn 0.000000 1.000000 0.000000
vn 0.000000 1.000000 0.000000
vn 0.000000 1.000000 0.000000
vn 0.000000 -0.707108 0.707106
vn 0.000000 -0.707108 0.707106
vn 0.000000 -0.707108 0.707106
vn 0.000000 -0.707108 0.707106
vn 0.000000 -0.707108 0.707106
vn 0.000000 -0.707108 0.707106
vn 0.000000 -0.707108 0.707106
vn 0.000000 -0.707108 0.707106
vn 0.000000 -0.707108 0.707106
vn 0.000000 -0.707108 0.707106
vn 0.000000 0.707106 0.707108
vn 0.000000 0.707106 0.707108
vn 0.000000 0.707106 0.707108
vn 0.000000 0.707106 0.707108
vn 0.707105 0.000000 0.707109
vn 0.707105 0.000000 0.707109
vn 0.707105 0.000000 0.707109
vn 0.707105 0.000000 0.707109
vn 0.000000 0.707106 0.707108
vn 0.000000 0.707106 0.707108
vn 0.000000 0.707106 0.707108
vn 0.000000 0.707106 0.707108
vn -0.707105 0.000000 0.707109
vn -0.707105 0.000000 0.707109
vn -0.707105 0.000000 0.707109
vn -0.707105 0.000000 0.707109
vn 0.000000 0.707103 0.707111
vn 0.000000 0.707103 0.707111
vn 0.000000 0.707103 0.707111
vn 0.000000 0.707103 0.707111
vn 0.000000 0.707103 0.707111
vn 0.000000 0.707103 0.707111
vn -0.000000 0.000000 1.000000
vn -0.000000 0.000000 1.000000
vn -0.000000 0.000000 1.000000
vn -0.000000 -0.000000 1.000000
vn 0.000000 0.000000 1.000000
vn 0.000000 0.000000 1.000000
vn 0.000000 -0.000000 1.000000
vn 0.000000 0.000000 1.000000
vn 0.000000 0.000000 1.000000
vn 0.000000 0.000000 1.000000
vn -0.000000 -0.000000 1.000000
vn -0.000000 -0.000000 1.000000
vn 0.000000 -0.000000 1.000000
vn 0.000000 -0.000000 1.000000
vn 0.000000 1.000000 0.000000
vn 0.000000 1.000000 0.000000
vn 0.000000 1.000000 0.000000
vn 0.000000 1.000000 0.000000
vn 0.000000 -1.000000 0.000000
vn 0.000000 -1.000000 0.000000
vn 0.000000 -1.000000 0.000000
vn 0.000000 -1.000000 0.000000
vn 0.000000 -1.000000 0.000000
vn 0.000000 -1.000000 0.000000
vn 0.000000 -1.000000 0.000000
vn 0.000000 -1.000000 0.000000
vn 0.000000 -1.000000 0.000000
vn 0.000000 -1.000000 0.000000
vn 0.000000 -1.000000 0.000000
vn 0.000000 -1.000000 0.000000
vn 0.000000 -1.000000 0.000000
vn 0.000000 -1.000000 0.000000
vn 0.000000 -1.000000 0.000000
vn 0.000000 -1.000000 0.000000
vn -1.000000 -0.000000 0.000000
vn -1.000000 -0.000000 0.000000
vn -1.000000 0.000000 0.000000
vn -1.000000 0.000000 0.000000
vn 1.000000 0.000000 0.000000
vn 1.000000 0.000000 0.000000
vn 1.000000 0.000000 0.000000
vn 1.000000 0.000000 0.000000
vn 0.848239 -0.000000 0.529614
vn 0.848239 -0.000000 0.529614
vn 0.848240 -0.000000 0.529613
vn 0.848239 -0.000000 0.529613
vn -0.848239 0.000000 0.529614
vn -0.848238 0.000000 0.529615
vn -0.848238 0.000000 0.529615
vn -0.848238 0.000000 0.529615
vn -0.848240 0.000000 0.529613
vn -0.848240 0.000000 0.529613
vn -1.000000 -0.000000 0.000000
vn -1.000000 -0.000000 0.000000
vn 0.848239 0.000000 0.529614
vn 0.848239 0.000000 0.529614
vn 1.000000 0.000000 0.000000
vn 1.000000 0.000000 0.000000
vn 0.000000 0.000000 1.000000
vn 0.000000 0.000000 1.000000
vn 0.000000 0.000000 1.000000
vn 0.000000 0.000000 1.000000
vn 0.000000 0.000000 1.000000
vn 0.000000 0.000000 1.000000
vn 1.000000 0.000000 0.000000
vn 1.000000 0.000000 0.000000
vn 1.000000 0.000000 0.000000
vn 1.000000 0.000000 0.000000
vn 0.000000 1.000000 0.000000
vn 0.000000 1.000000 0.000000
vn 0.000000 1.000000 0.000000
vn 0.000000 1.000000 0.000000
vn 0.000000 1.000000 0.000000
vn 0.000000 1.000000 0.000000
vn -1.000000 0.000000 0.000000
vn -1.000000 0.000000 0.000000
vn -1.000000 0.000000 0.000000
vn -1.000000 0.000000 0.000000
vn 0.000000 1.000000 0.000000
vn 0.000000 1.000000 0.000000
vn 0.000000 1.000000 0.000000
vn 0.000000 1.000000 0.000000
vn 0.000000 1.000000 0.000000
vn 0.000000 1.000000 0.000000
vn 0.000000 1.000000 0.000000
vn 0.000000 1.000000 0.000000
vn 0.000000 -1.000000 0.000000
vn 0.000000 -1.000000 0.000000
vn 0.000000 -1.000000 0.000000
vn 0.000000 -1.000000 0.000000
vn 0.000000 -1.000000 0.000000
vn 0.000000 -1.000000 0.000000
vn 0.000000 -1.000000 0.000000
vn 0.000000 -1.000000 0.000000
vn 0.000000 -1.000000 0.000000
vn 0.000000 -1.000000 0.000000
vn 0.000000 -1.000000 0.000000
vn 0.000000 -1.000000 0.000000
vn 0.000000 -1.000000 0.000000
vn 0.000000 -1.000000 0.000000
vn 0.000000 -1.000000 0.000000
vn 0.000000 -1.000000 0.000000
vn -1.000000 0.000000 0.000000
vn -1.000000 0.000000 0.000000
vn -1.000000 0.000000 0.000000
vn -1.000000 0.000000 0.000000
vn 1.000000 0.000000 0.000000
vn 1.000000 0.000000 0.000000
vn 1.000000 0.000000 0.000000
vn 1.000000 0.000000 0.000000
vn -1.000000 0.000000 0.000000
vn -1.000000 0.000000 0.000000
vn -1.000000 0.000000 0.000000
vn -1.000000 0.000000 0.000000
vn 1.000000 0.000000 0.000000
vn 1.000000 0.000000 0.000000
vn 1.000000 0.000000 0.000000
vn 1.000000 0.000000 0.000000
vn 0.000000 1.000000 0.000000
vn 0.000000 1.000000 0.000000
vn 0.000000 1.000000 0.000000
vn 0.000000 1.000000 0.000000
vn 0.000000 1.000000 0.000000
vn 0.000000 1.000000 0.000000
vn 0.000000 1.000000 0.000000
vn 0.000000 1.000000 0.000000
vn 0.000000 0.000000 -1.000000
vn 0.000000 0.000000 -1.000000
vn 0.000000 0.000000 -1.000000
vn 0.000000 0.000000 -1.000000
vn 0.000000 0.000000 -1.000000
vn 0.000000 0.000000 -1.000000
vn 0.000000 0.000000 -1.000000
vn 0.000000 0.000000 -1.000000
vn 0.000000 0.000000 -1.000000
vn 0.000000 0.000000 -1.000000
vn 0.000000 0.000000 -1.000000
vn 0.000000 0.000000 -1.000000
f 2/2/1 1/1/2 3/3/3 4/4/4
f 5/5/5 6/30/6 8/21/7 7/47/8
f 6/30/9 5/5/10 14/6/11 13/17/12
f 7/7/13 8/8/14 16/9/15 15/40/16
f 10/10/17 9/11/18 11/12/19 12/18/20
f 12/13/21 11/22/22 19/27/23 20/14/24
f 18/15/25 17/19/26 20/31/27 19/16/28
f 6/30/29 13/17/30 10/10/31 12/18/32
f 20/31/33 17/19/34 16/20/35 8/21/36
f 19/27/37 11/22/38 2/25/39 4/29/40
f 11/22/41 9/23/42 1/24/43 2/25/44
f 18/26/45 19/27/46 4/29/47 3/28/48
f 8/21/36 6/30/29 12/18/32 20/31/33
f 22/32/49 21/33/50 24/39/51 23/37/52
f 23/37/53 24/39/54 28/35/55 27/36/56
f 26/34/57 25/38/58 27/36/59 28/35/60
f 25/38/61 22/32/62 23/37/63 27/36/64
f 28/35/65 24/39/66 5/5/67 7/47/68
f 7/7/69 15/40/70 26/41/71 28/42/72
f 24/43/73 21/44/74 14/45/75 5/46/76
f 30/48/77 31/49/78 32/50/79 29/51/80
f 41/52/81 42/53/82 43/54/83 33/55/84
f 33/55/84 43/54/83 44/56/85 34/57/86
f 45/58/87 46/59/88 35/60/89 47/61/90
f 34/57/86 44/56/85 47/61/90 35/60/89
f 30/62/91 48/63/92 36/64/93 31/65/94
f 31/65/95 36/64/96 39/66/97 49/67/98
f 50/68/99 51/69/100 52/70/101 37/71/102
f 37/71/103 52/70/104 53/72/105 38/73/106
f 38/73/107 53/72/108 54/74/109 40/75/110
f 49/67/111 39/66/112 40/75/110 54/74/109
f 41/52/113 33/55/114 39/66/115 55/76/116
f 35/60/117 46/59/118 56/77/119 38/73/120
f 40/75/121 34/57/122 35/60/117 38/73/120
f 33/55/114 34/57/122 40/75/121 39/66/115
f 55/76/116 39/66/115 36/64/123 48/63/124
f 50/68/125 37/71/126 38/73/120 56/77/119
f 52/78/127 51/79/128 57/80/129 58/81/130
f 43/82/131 42/83/132 59/84/133 60/85/134
f 44/86/135 43/87/136 60/88/137 61/89/138
f 45/90/139 47/91/140 62/92/141 63/93/142
f 47/94/143 44/95/144 61/96/145 62/97/146
f 64/98/147 65/99/148 59/84/149 42/83/150
f 57/80/151 51/79/152 66/100/153 67/101/154
f 56/77/155 66/102/156 51/69/157 50/68/158
f 55/76/159 64/103/160 42/53/161 41/52/162
f 55/76/159 48/63/163 30/48/164 64/103/160
f 30/48/165 29/51/166 65/99/148 64/98/147
f 45/90/167 66/102/156 56/77/155 46/59/168
f 67/101/154 66/100/153 45/90/169 63/93/170
f 32/104/171 68/105/172 69/106/173 74/107/174
f 69/106/173 70/108/175 58/109/176 74/107/174
f 31/110/177 72/111/178 68/105/179 32/104/180
f 72/111/181 73/112/182 69/106/183 68/105/184
f 73/112/182 71/113/185 70/108/186 69/106/183
f 71/113/187 52/114/188 58/109/189 70/108/190
f 29/115/191 32/116/192 76/117/193 75/118/194
f 58/119/195 57/120/196 78/121/197 77/122/198
f 60/123/199 59/124/200 79/125/201 80/126/202
f 61/127/203 60/128/204 80/129/205 81/130/206
f 63/131/207 62/132/208 82/133/209 83/134/210
f 62/135/211 61/136/212 81/137/213 82/138/214
f 65/139/215 29/140/216 75/141/217 84/142/218
f 57/143/219 67/144/220 85/145/221 78/146/222
f 59/147/223 65/148/224 84/149/225 79/150/226
f 67/151/227 63/152/228 83/153/229 85/154/230
f 32/155/231 74/156/232 86/157/233 76/158/234
f 74/159/235 58/160/236 77/161/237 86/162/238
f 78/146/239 85/154/240 77/122/241
f 83/134/242 82/138/243 85/154/240
f 85/154/240 82/138/243 77/122/241
f 82/138/243 81/130/244 77/122/241
f 77/122/241 81/130/244 86/162/245
f 81/130/244 80/126/246 86/162/245
f 86/162/245 80/126/246 76/158/247
f 80/126/246 79/150/248 76/158/247
f 79/150/248 84/142/249 76/158/247
f 84/142/249 75/118/250 76/158/247
