# This file uses meters as units for non-parametric coordinates.

v 78.844826 40.696114 44.824562
v -0.000000 40.696114 44.824562
v 78.844826 49.581413 44.824562
v -78.844826 40.696114 44.824562
v -78.844826 49.581413 44.824562
v -74.173706 49.581413 44.824562
v -74.173706 40.696114 44.824562
v 74.173706 40.696114 44.824562
v 74.173706 49.581413 44.824562
v -78.844826 43.981544 44.824562
v 78.844826 43.981544 44.824562
v -74.173706 43.981544 44.824562
v -0.000000 43.981544 44.824562
v 74.173706 43.981544 44.824562
v 78.844826 40.696114 46.571548
v 78.262573 41.278366 47.153801
v 74.173706 40.696114 46.571548
v 74.173706 41.278366 47.153801
v 78.262573 48.999161 47.153801
v 78.844826 49.581413 46.571548
v 74.173706 49.581413 46.571548
v 74.755959 48.999161 47.153801
v 78.844826 43.981544 46.571548
v 78.262573 43.981544 47.153801
v -78.262573 48.999161 47.153801
v -78.844826 49.581413 46.571548
v -78.262573 43.981544 47.153801
v -78.844826 43.981544 46.571548
v -0.000000 40.696114 46.571548
v -0.000000 41.278366 47.153801
v -74.173706 40.696114 46.571548
v -74.173706 41.278366 47.153801
v -74.755959 48.999161 47.153801
v -74.173706 49.581413 46.571548
v -78.262573 41.278366 47.153801
v -78.844826 40.696114 46.571548
v -74.755959 43.399292 47.153801
v -74.173706 43.981544 46.571548
v -0.000000 43.399292 47.153801
v -0.000000 43.981544 46.571548
v 74.755959 43.399292 47.153801
v 74.173706 43.981544 46.571548
v 0.000000 49.581413 44.824562
v 78.844826 40.696114 43.795296
v 74.173706 40.696114 43.795296
v 78.844826 49.581413 43.795296
v 74.173706 49.581413 43.795296
v 78.844826 43.981544 43.795296
v -78.844826 49.581413 43.795296
v -78.844826 43.981544 43.795296
v -0.000000 40.696114 43.795296
v -74.173706 40.696114 43.795296
v -74.173706 49.581413 43.795296
v -78.844826 40.696114 43.795296
v 0.000000 49.581413 43.795296
vt 0.792300 0.708359
vt 0.795716 0.708359
vt 0.796283 0.713243
vt 0.792300 0.708360
vt 0.792300 0.715874
vt 0.796283 0.707793
vt 0.796283 0.713243
vt 0.868541 0.713243
vt 0.792300 0.713243
vt 0.795716 0.708359
vt 0.791733 0.716440
vt 0.791733 0.716440
vt 0.796283 0.707793
vt 0.796283 0.707793
vt 0.791733 0.707793
vt 0.791733 0.707793
vt 0.791733 0.713243
vt 0.791733 0.713243
vt 0.791733 0.707793
vt 0.796283 0.707793
vt 0.791733 0.707793
vt 0.796283 0.716440
vt 0.796283 0.716440
vt 0.868541 0.716440
vt 0.868541 0.716440
vt 0.796283 0.716440
vt 0.796283 0.716440
vt 0.796283 0.715874
vt 0.868541 0.713809
vt 0.792300 0.713243
vt 0.795716 0.713809
vt 0.791733 0.716440
vt 0.791733 0.716440
vt 0.791733 0.713243
vt 0.791733 0.713243
vt 0.792300 0.715874
vt 0.796283 0.715873
vt 0.795716 0.713809
vt 0.868541 0.715874
vt 0.789206 0.708458
vt 0.811227 0.708458
vt 0.811227 0.724974
vt 0.789206 0.724974
vt 0.789206 0.708458
vt 0.811227 0.708458
vt 0.811227 0.724974
vt 0.789206 0.724974
vt 0.789206 0.708458
vt 0.811227 0.708458
vt 0.811227 0.724974
vt 0.789206 0.724974
vt 0.789206 0.708458
vt 0.811227 0.708458
vt 0.811227 0.724974
vt 0.789206 0.724974
vt 0.856151 0.715804
vt 0.856151 0.718644
vt 0.818526 0.718644
vt 0.818526 0.715804
vt 0.856151 0.715804
vt 0.856151 0.721485
vt 0.780900 0.721485
vt 0.780900 0.715804
vt 0.796284 0.698013
vt 0.818792 0.698013
vt 0.818792 0.720521
vt 0.796284 0.720521
vt 0.796284 0.698013
vt 0.818792 0.698013
vt 0.818792 0.720521
vt 0.796284 0.720521
vt 0.796284 0.698013
vt 0.818792 0.698013
vt 0.818792 0.720521
vt 0.796284 0.720521
vt 0.796284 0.698013
vt 0.818792 0.698013
vt 0.818792 0.720521
vt 0.796284 0.720521
vt 0.796284 0.698013
vt 0.818792 0.698013
vt 0.818792 0.720521
vt 0.796284 0.720521
vt 0.796284 0.698013
vt 0.818792 0.698013
vt 0.818792 0.720521
vt 0.796284 0.720521
vt 0.796284 0.698013
vt 0.818792 0.698013
vt 0.818792 0.720521
vt 0.796284 0.720521
vt 0.796284 0.698013
vt 0.818792 0.698013
vt 0.818792 0.720521
vt 0.796284 0.720521
vt 0.796284 0.698013
vt 0.818792 0.698013
vt 0.818792 0.720521
vt 0.796284 0.720521
vt 0.796284 0.698013
vt 0.818792 0.698013
vt 0.818792 0.720521
vt 0.796284 0.720521
vt 0.796284 0.698013
vt 0.818792 0.698013
vt 0.818792 0.720521
vt 0.796284 0.720521
vt 0.796284 0.698013
vt 0.818792 0.698013
vt 0.818792 0.720521
vt 0.796284 0.720521
vn 0.707108 0.000000 0.707106
vn 0.707108 0.000000 0.707106
vn 0.707108 0.000000 0.707106
vn 0.707108 0.000000 0.707106
vn 0.000000 -0.707107 0.707106
vn 0.000000 -0.707106 0.707108
vn 0.000000 -0.707106 0.707108
vn 0.000000 -0.707107 0.707106
vn 0.000000 -0.707105 0.707108
vn 0.000000 -0.707105 0.707108
vn 0.707108 0.000000 0.707106
vn 0.707108 0.000000 0.707106
vn 0.000000 0.707108 0.707106
vn 0.000000 0.707108 0.707106
vn 0.000000 0.707108 0.707106
vn 0.000000 0.707108 0.707106
vn -0.707105 0.000000 0.707109
vn -0.707105 0.000000 0.707109
vn -0.707105 0.000000 0.707109
vn -0.707105 0.000000 0.707109
vn 0.000000 0.707108 0.707106
vn 0.000000 0.707108 0.707106
vn 0.000000 0.707108 0.707106
vn 0.000000 0.707108 0.707106
vn -0.707108 0.000000 0.707106
vn -0.707108 0.000000 0.707106
vn -0.707108 0.000000 0.707106
vn -0.707108 0.000000 0.707106
vn -0.707108 0.000000 0.707105
vn -0.707108 0.000000 0.707105
vn 0.000000 -0.707106 0.707108
vn 0.000000 -0.707106 0.707108
vn 0.000000 -0.707107 0.707107
vn 0.000000 -0.707107 0.707107
vn 0.707106 0.000000 0.707107
vn 0.707106 0.000000 0.707107
vn 0.707106 0.000000 0.707107
vn 0.707106 0.000000 0.707107
vn 0.000000 0.707107 0.707106
vn 0.000000 0.707107 0.707107
vn 0.000000 0.707107 0.707107
vn 0.000000 0.707107 0.707106
vn 0.000000 0.707106 0.707107
vn 0.000000 0.707106 0.707107
vn -0.000001 0.000000 1.000000
vn -0.000001 0.000000 1.000000
vn -0.000001 0.000000 1.000000
vn -0.000000 0.000000 1.000000
vn 0.000000 0.000000 1.000000
vn 0.000000 0.000000 1.000000
vn 0.000001 0.000000 1.000000
vn 0.000001 0.000000 1.000000
vn 0.000000 -1.000000 0.000000
vn 0.000000 -1.000000 0.000000
vn 0.000000 -1.000000 0.000000
vn 0.000000 -1.000000 0.000000
vn 0.000000 1.000000 0.000000
vn 0.000000 1.000000 0.000000
vn 0.000000 1.000000 0.000000
vn 0.000000 1.000000 0.000000
vn 1.000000 0.000000 0.000000
vn 1.000000 0.000000 0.000000
vn 1.000000 0.000000 0.000000
vn 1.000000 0.000000 0.000000
vn -1.000000 0.000000 0.000000
vn -1.000000 0.000000 0.000000
vn -1.000000 0.000000 0.000000
vn -1.000000 0.000000 0.000000
vn 0.000000 1.000000 0.000000
vn 0.000000 1.000000 0.000000
vn 0.000000 1.000000 0.000000
vn 0.000000 1.000000 0.000000
vn 0.000000 -1.000000 0.000000
vn 0.000000 -1.000000 0.000000
vn 0.000000 -1.000000 0.000000
vn 0.000000 -1.000000 0.000000
vn 0.000000 -1.000000 0.000000
vn 0.000000 -1.000000 0.000000
vn -0.000000 0.000000 1.000000
vn 0.000000 0.000000 1.000000
vn 0.000000 0.000000 1.000000
vn -0.000001 0.000000 1.000000
vn -1.000000 0.000000 0.000000
vn -1.000000 0.000000 0.000000
vn 1.000000 0.000000 0.000000
vn 1.000000 0.000000 0.000000
vn 0.000001 0.000000 1.000000
vn 0.000000 0.000000 1.000000
vn 1.000000 0.000000 0.000000
vn 1.000000 0.000000 0.000000
vn 1.000000 0.000000 0.000000
vn 1.000000 0.000000 0.000000
vn 0.000000 1.000000 0.000000
vn 0.000000 1.000000 0.000000
vn 0.000000 1.000000 0.000000
vn 0.000000 1.000000 0.000000
vn -1.000000 0.000000 0.000000
vn -1.000000 0.000000 0.000000
vn -1.000000 0.000000 0.000000
vn -1.000000 0.000000 0.000000
vn 0.000000 1.000000 0.000000
vn 0.000000 1.000000 0.000000
vn 0.000000 0.000000 1.000000
vn 0.000000 0.000000 1.000000
vn 0.000000 0.000000 1.000000
vn 0.000000 0.000000 1.000000
vn 0.000000 0.000000 1.000000
vn 0.000000 0.000000 1.000000
vn 0.000000 -1.000000 0.000000
vn 0.000000 -1.000000 0.000000
vn 0.000000 -1.000000 0.000000
vn 0.000000 -1.000000 0.000000
vn 0.000000 1.000000 0.000000
vn 0.000000 1.000000 0.000000
vn 0.000000 1.000000 0.000000
vn 0.000000 1.000000 0.000000
vn 1.000000 0.000000 0.000000
vn 1.000000 0.000000 0.000000
vn 1.000000 0.000000 0.000000
vn 1.000000 0.000000 0.000000
vn -1.000000 0.000000 0.000000
vn -1.000000 0.000000 0.000000
vn -1.000000 0.000000 0.000000
vn -1.000000 0.000000 0.000000
vn 0.000000 -1.000000 0.000000
vn 0.000000 -1.000000 0.000000
vn 0.000000 -1.000000 0.000000
vn 0.000000 -1.000000 0.000000
vn 0.000000 1.000000 0.000000
vn 0.000000 1.000000 0.000000
vn 0.000000 1.000000 0.000000
vn 0.000000 1.000000 0.000000
vn 0.000000 -1.000000 0.000000
vn 0.000000 -1.000000 0.000000
vn 0.000000 -1.000000 0.000000
vn 0.000000 -1.000000 0.000000
vn 0.000000 -1.000000 0.000000
vn 0.000000 -1.000000 0.000000
vn 0.000000 -1.000000 0.000000
vn 0.000000 -1.000000 0.000000
vn -1.000000 0.000000 0.000000
vn -1.000000 0.000000 0.000000
vn -1.000000 0.000000 0.000000
vn -1.000000 0.000000 0.000000
vn 1.000000 0.000000 0.000000
vn 1.000000 0.000000 0.000000
vn 1.000000 0.000000 0.000000
vn 1.000000 0.000000 0.000000
vn 0.000000 1.000000 0.000000
vn 0.000000 1.000000 0.000000
vn 0.000000 1.000000 0.000000
vn 0.000000 1.000000 0.000000
vn 0.000000 1.000000 0.000000
vn 0.000000 1.000000 0.000000
vn 0.000000 1.000000 0.000000
vn 0.000000 1.000000 0.000000
f 15/12/1 23/34/2 24/9/3 16/36/4
f 16/36/5 18/37/6 17/27/7 15/12/8
f 18/37/6 30/39/9 29/25/10 17/27/7
f 19/1/11 24/9/3 23/34/2 20/16/12
f 20/16/13 21/14/14 22/2/15 19/1/16
f 21/14/17 42/3/18 41/38/19 22/2/20
f 25/4/21 33/10/22 34/6/23 26/21/24
f 26/21/25 28/18/26 27/30/27 25/4/28
f 28/18/26 36/33/29 35/5/30 27/30/27
f 30/39/9 32/28/31 31/23/32 29/25/10
f 32/28/31 35/5/33 36/33/34 31/23/32
f 33/10/35 37/31/36 38/7/37 34/6/38
f 37/31/39 39/29/40 40/8/41 38/7/42
f 39/29/40 41/38/43 42/3/44 40/8/41
f 24/9/45 19/1/46 22/2/47 41/38/48
f 27/30/49 37/31/50 33/10/51 25/4/52
f 1/11/53 15/12/54 17/27/55 8/26/56
f 9/13/57 21/14/58 20/16/59 3/15/60
f 3/15/61 20/16/62 23/34/63 11/35/64
f 10/17/65 28/18/66 26/21/67 5/19/68
f 5/19/69 26/21/70 34/6/71 6/20/72
f 7/22/73 31/23/74 36/33/75 4/32/76
f 2/24/77 29/25/78 31/23/74 7/22/73
f 8/26/56 17/27/55 29/25/78 2/24/77
f 32/28/79 30/39/80 39/29/81 37/31/50
f 35/5/82 32/28/79 37/31/50 27/30/49
f 4/32/83 36/33/84 28/18/66 10/17/65
f 23/34/63 15/12/85 1/11/86 11/35/64
f 16/36/87 24/9/45 41/38/48 18/37/88
f 39/29/81 30/39/80 18/37/88 41/38/48
f 38/40/89 12/43/90 6/42/91 34/41/92
f 40/44/93 13/47/94 12/46/95 38/45/96
f 21/48/97 9/51/98 14/50/99 42/49/100
f 42/52/101 14/55/102 13/54/94 40/53/93
f 9/56/103 43/59/104 13/58/105 14/57/106
f 43/60/104 6/63/107 12/62/108 13/61/105
f 8/64/109 45/67/110 44/66/111 1/65/112
f 3/68/113 46/71/114 47/70/115 9/69/116
f 1/72/117 44/75/118 48/74/119 11/73/120
f 5/76/121 49/79/122 50/78/123 10/77/124
f 7/80/125 52/83/126 51/82/127 2/81/128
f 6/84/129 53/87/130 49/86/131 5/85/132
f 4/88/133 54/91/134 52/90/135 7/89/136
f 2/92/137 51/95/138 45/94/139 8/93/140
f 10/96/141 50/99/142 54/98/143 4/97/144
f 11/100/145 48/103/146 46/102/147 3/101/148
f 9/104/149 47/107/150 55/106/151 43/105/152
f 43/108/153 55/111/154 53/110/155 6/109/156
