# This file uses meters as units for non-parametric coordinates.

v 5.392642 44.180729 -2.233702
v 5.392642 41.850941 -2.233703
v 4.127351 41.850941 -4.127347
v 4.127351 44.180729 -4.127347
v 2.233708 41.850941 -5.392640
v 2.233708 44.180729 -5.392640
v 0.000003 41.850941 -5.836953
v 0.000003 44.180729 -5.836953
v -2.233703 41.850941 -5.392642
v -2.233703 44.180729 -5.392642
v -4.127347 41.850941 -4.127351
v -4.127347 44.180729 -4.127351
v -5.392640 41.850941 -2.233708
v -5.392641 44.180729 -2.233708
v -5.836953 41.850941 -0.000002
v -5.836953 44.180729 -0.000002
v -5.392642 41.850941 2.233703
v -5.392642 44.180729 2.233703
v -4.127350 41.850941 4.127347
v -4.127350 44.180729 4.127348
v -2.233706 41.850941 5.392641
v -2.233706 44.180729 5.392641
v -0.000001 41.850941 5.836953
v -0.000001 44.180729 5.836953
v 2.233705 41.850941 5.392641
v 2.233704 44.180729 5.392642
v 4.127349 41.850941 4.127349
v 4.127348 44.180729 4.127349
v 5.392641 41.850941 2.233705
v 5.392641 44.180729 2.233705
v 5.836953 41.850941 -0.000000
v 5.836953 44.180729 -0.000000
v -5.575708 44.059368 2.309532
v -4.267463 44.059368 4.267461
v -2.309535 44.059368 5.575707
v -0.000001 44.059368 6.035103
v 2.309533 44.059368 5.575708
v 4.267461 44.059368 4.267462
v 5.575707 44.059368 2.309534
v 6.035103 44.059368 -0.000000
v 5.575708 44.059368 -2.309530
v 4.267464 44.059368 -4.267459
v 2.309536 44.059368 -5.575706
v 0.000003 44.059368 -6.035103
v -2.309531 44.059368 -5.575708
v -4.267460 44.059368 -4.267464
v -5.575707 44.059368 -2.309536
v -6.035103 44.059368 -0.000002
v -5.575708 41.982807 2.309532
v -4.267463 41.982807 4.267461
v -2.309535 41.982807 5.575707
v -0.000001 41.982807 6.035103
v 2.309533 41.982807 5.575707
v 4.267462 41.982807 4.267462
v 5.575707 41.982807 2.309533
v 6.035103 41.982807 -0.000000
v 5.575709 41.982807 -2.309531
v 4.267464 41.982807 -4.267459
v 2.309536 41.982807 -5.575706
v 0.000003 41.982807 -6.035103
v -2.309531 41.982807 -5.575709
v -4.267459 41.982807 -4.267464
v -5.575706 41.982807 -2.309536
v -6.035103 41.982807 -0.000003
v 5.392642 3.248428 -2.233702
v 5.392642 0.918648 -2.233703
v 4.127351 0.918648 -4.127347
v 4.127351 3.248428 -4.127347
v 2.233708 0.918648 -5.392641
v 2.233708 3.248428 -5.392640
v 0.000003 0.918648 -5.836953
v 0.000003 3.248428 -5.836952
v -2.233703 0.918648 -5.392642
v -2.233703 3.248428 -5.392642
v -4.127347 0.918648 -4.127351
v -4.127347 3.248428 -4.127351
v -5.392641 0.918648 -2.233708
v -5.392641 3.248428 -2.233708
v -5.836952 0.918648 -0.000002
v -5.836953 3.248428 -0.000002
v -5.392642 0.918648 2.233703
v -5.392642 3.248428 2.233704
v -4.127350 0.918648 4.127347
v -4.127350 3.248428 4.127348
v -2.233706 0.918648 5.392641
v -2.233706 3.248428 5.392642
v -0.000001 0.918648 5.836952
v -0.000001 3.248428 5.836953
v 2.233705 0.918648 5.392642
v 2.233704 3.248428 5.392642
v 4.127349 0.918648 4.127349
v 4.127348 3.248428 4.127349
v 5.392642 0.918648 2.233705
v 5.392642 3.248428 2.233705
v 5.836953 0.918648 -0.000000
v 5.836953 3.248428 -0.000000
v -5.575708 3.127068 2.309532
v -4.267463 3.127068 4.267461
v -2.309535 3.127068 5.575707
v -0.000001 3.127068 6.035103
v 2.309533 3.127068 5.575708
v 4.267461 3.127068 4.267463
v 5.575707 3.127068 2.309534
v 6.035103 3.127068 -0.000000
v 5.575708 3.127068 -2.309530
v 4.267464 3.127068 -4.267459
v 2.309536 3.127068 -5.575706
v 0.000003 3.127068 -6.035102
v -2.309531 3.127068 -5.575708
v -4.267460 3.127068 -4.267464
v -5.575707 3.127068 -2.309536
v -6.035103 3.127068 -0.000002
v -5.575708 1.050507 2.309532
v -4.267463 1.050507 4.267461
v -2.309535 1.050507 5.575707
v -0.000001 1.050507 6.035102
v 2.309533 1.050507 5.575707
v 4.267462 1.050507 4.267463
v 5.575707 1.050507 2.309533
v 6.035103 1.050507 -0.000000
v 5.575709 1.050507 -2.309531
v 4.267464 1.050507 -4.267459
v 2.309536 1.050507 -5.575706
v 0.000003 1.050507 -6.035103
v -2.309531 1.050507 -5.575709
v -4.267459 1.050507 -4.267464
v -5.575706 1.050507 -2.309536
v -6.035102 1.050507 -0.000003
vt 0.476155 0.759185
vt 0.476155 0.759382
vt 0.477144 0.759382
vt 0.477144 0.759185
vt 0.478134 0.759382
vt 0.478134 0.759185
vt 0.479124 0.759382
vt 0.479124 0.759185
vt 0.480113 0.759382
vt 0.480113 0.759185
vt 0.481103 0.759382
vt 0.481103 0.759185
vt 0.482092 0.759382
vt 0.482092 0.759185
vt 0.483082 0.759382
vt 0.483082 0.759185
vt 0.484072 0.759382
vt 0.484072 0.759185
vt 0.485061 0.759382
vt 0.485061 0.759185
vt 0.486051 0.759382
vt 0.486051 0.759185
vt 0.487040 0.759382
vt 0.487040 0.759185
vt 0.488030 0.759382
vt 0.488030 0.759185
vt 0.489019 0.759382
vt 0.489019 0.759185
vt 0.490009 0.759382
vt 0.490009 0.759186
vt 0.490999 0.759382
vt 0.490999 0.759185
vt 0.491988 0.759382
vt 0.491988 0.759185
vt 0.484072 0.759196
vt 0.485061 0.759196
vt 0.486051 0.759196
vt 0.487040 0.759196
vt 0.488030 0.759196
vt 0.489019 0.759196
vt 0.490009 0.759196
vt 0.490999 0.759196
vt 0.491988 0.759196
vt 0.476155 0.759196
vt 0.477144 0.759196
vt 0.478134 0.759196
vt 0.479124 0.759196
vt 0.480113 0.759196
vt 0.481103 0.759196
vt 0.482092 0.759196
vt 0.483082 0.759196
vt 0.484072 0.759371
vt 0.485061 0.759371
vt 0.486051 0.759371
vt 0.487040 0.759371
vt 0.488030 0.759371
vt 0.489019 0.759371
vt 0.490009 0.759371
vt 0.490999 0.759371
vt 0.491988 0.759371
vt 0.476155 0.759371
vt 0.477144 0.759371
vt 0.478134 0.759371
vt 0.479124 0.759371
vt 0.480113 0.759371
vt 0.481103 0.759371
vt 0.482092 0.759371
vt 0.483082 0.759371
vt 0.476155 0.759185
vt 0.476155 0.759196
vt 0.477144 0.759196
vt 0.477144 0.759185
vt 0.478134 0.759196
vt 0.478134 0.759185
vt 0.479124 0.759196
vt 0.479124 0.759185
vt 0.480113 0.759196
vt 0.480113 0.759185
vt 0.481103 0.759196
vt 0.481103 0.759185
vt 0.482092 0.759196
vt 0.482092 0.759185
vt 0.483082 0.759196
vt 0.483082 0.759185
vt 0.484072 0.759196
vt 0.484072 0.759185
vt 0.485061 0.759196
vt 0.485061 0.759185
vt 0.486051 0.759196
vt 0.486051 0.759185
vt 0.487040 0.759196
vt 0.487040 0.759185
vt 0.488030 0.759196
vt 0.488030 0.759185
vt 0.489019 0.759196
vt 0.489019 0.759185
vt 0.490009 0.759196
vt 0.490009 0.759186
vt 0.490999 0.759196
vt 0.490999 0.759185
vt 0.491988 0.759196
vt 0.491988 0.759185
vt 0.484072 0.759371
vt 0.485061 0.759371
vt 0.486051 0.759371
vt 0.487040 0.759371
vt 0.488030 0.759371
vt 0.489019 0.759371
vt 0.490009 0.759371
vt 0.490999 0.759371
vt 0.491988 0.759371
vt 0.476155 0.759371
vt 0.477144 0.759371
vt 0.478134 0.759371
vt 0.479124 0.759371
vt 0.480113 0.759371
vt 0.481103 0.759371
vt 0.482092 0.759371
vt 0.483082 0.759371
vt 0.484072 0.759382
vt 0.485061 0.759382
vt 0.486051 0.759382
vt 0.487040 0.759382
vt 0.488030 0.759382
vt 0.489019 0.759382
vt 0.490009 0.759382
vt 0.490999 0.759382
vt 0.491988 0.759382
vt 0.476155 0.759382
vt 0.477144 0.759382
vt 0.478134 0.759382
vt 0.479124 0.759382
vt 0.480113 0.759382
vt 0.481103 0.759382
vt 0.482092 0.759382
vt 0.483082 0.759382
vn 0.482537 0.852765 -0.199875
vn 0.482537 0.852765 -0.199875
vn 0.369317 0.852763 -0.369323
vn 0.369317 0.852763 -0.369323
vn 0.199873 0.852766 -0.482536
vn 0.199873 0.852766 -0.482536
vn 0.000000 0.852767 -0.522292
vn 0.000000 0.852767 -0.522292
vn -0.199872 0.852763 -0.482541
vn -0.199873 0.852763 -0.482541
vn -0.369317 0.852765 -0.369320
vn -0.369317 0.852765 -0.369320
vn -0.482536 0.852766 -0.199871
vn -0.482536 0.852766 -0.199871
vn -0.522294 0.852766 0.000000
vn -0.522294 0.852766 0.000000
vn -0.482536 0.852765 0.199875
vn -0.482537 0.852765 0.199875
vn -0.369317 0.852766 0.369317
vn -0.369317 0.852766 0.369317
vn -0.199873 0.852766 0.482536
vn -0.199873 0.852766 0.482536
vn 0.000000 0.852763 0.522297
vn 0.000000 0.852763 0.522297
vn 0.199873 0.852763 0.482541
vn 0.199873 0.852763 0.482541
vn 0.369317 0.852765 0.369320
vn 0.369317 0.852765 0.369320
vn 0.482537 0.852766 0.199871
vn 0.482537 0.852766 0.199871
vn 0.522294 0.852766 0.000000
vn 0.522294 0.852766 0.000000
vn -0.923880 -0.000000 0.382683
vn -0.923880 -0.000000 0.382683
vn -0.707107 -0.000000 0.707107
vn -0.707107 -0.000000 0.707107
vn -0.382683 -0.000000 0.923880
vn -0.382683 -0.000000 0.923880
vn 0.000000 -0.000000 1.000000
vn 0.000000 -0.000000 1.000000
vn 0.382684 -0.000000 0.923879
vn 0.382684 -0.000000 0.923879
vn 0.707107 0.000000 0.707107
vn 0.707107 0.000000 0.707107
vn 0.923879 0.000000 0.382684
vn 0.923879 0.000000 0.382684
vn 1.000000 0.000000 0.000000
vn 1.000000 0.000000 0.000000
vn 0.923880 0.000000 -0.382683
vn 0.923880 0.000000 -0.382683
vn 0.707107 0.000000 -0.707106
vn 0.707107 0.000000 -0.707106
vn 0.382684 0.000000 -0.923879
vn 0.382684 0.000000 -0.923879
vn 0.000001 0.000000 -1.000000
vn 0.000001 0.000000 -1.000000
vn -0.382683 0.000000 -0.923880
vn -0.382683 0.000000 -0.923880
vn -0.707107 -0.000000 -0.707107
vn -0.707106 -0.000000 -0.707107
vn -0.923879 -0.000000 -0.382684
vn -0.923879 -0.000000 -0.382684
vn -1.000000 -0.000000 -0.000000
vn -1.000000 -0.000000 -0.000000
vn -0.511849 -0.832502 0.212015
vn -0.511849 -0.832503 0.212015
vn -0.391753 -0.832503 0.391749
vn -0.391753 -0.832503 0.391750
vn -0.212015 -0.832502 0.511850
vn -0.212015 -0.832502 0.511850
vn -0.000000 -0.832498 0.554028
vn -0.000000 -0.832498 0.554028
vn 0.212015 -0.832501 0.511851
vn 0.212015 -0.832501 0.511851
vn 0.391753 -0.832504 0.391749
vn 0.391753 -0.832504 0.391749
vn 0.511850 -0.832502 0.212013
vn 0.511850 -0.832502 0.212013
vn 0.554021 -0.832502 -0.000001
vn 0.554021 -0.832502 -0.000001
vn 0.511849 -0.832502 -0.212016
vn 0.511849 -0.832502 -0.212016
vn 0.391752 -0.832501 -0.391754
vn 0.391753 -0.832501 -0.391754
vn 0.212016 -0.832505 -0.511844
vn 0.212016 -0.832505 -0.511844
vn 0.000000 -0.832504 -0.554019
vn 0.000000 -0.832504 -0.554019
vn -0.212014 -0.832498 -0.511856
vn -0.212014 -0.832498 -0.511856
vn -0.391752 -0.832502 -0.391755
vn -0.391752 -0.832502 -0.391755
vn -0.511850 -0.832502 -0.212015
vn -0.511849 -0.832502 -0.212015
vn -0.554022 -0.832502 -0.000001
vn -0.554022 -0.832502 -0.000001
vn 0.482537 0.852765 -0.199874
vn 0.482537 0.852765 -0.199874
vn 0.369318 0.852765 -0.369318
vn 0.369318 0.852765 -0.369318
vn 0.199874 0.852766 -0.482536
vn 0.199873 0.852766 -0.482536
vn 0.000000 0.852766 -0.522294
vn 0.000000 0.852766 -0.522294
vn -0.199873 0.852766 -0.482537
vn -0.199873 0.852766 -0.482536
vn -0.369317 0.852766 -0.369318
vn -0.369317 0.852766 -0.369318
vn -0.482535 0.852767 -0.199873
vn -0.482535 0.852767 -0.199873
vn -0.522293 0.852766 -0.000000
vn -0.522293 0.852766 -0.000000
vn -0.482536 0.852766 0.199873
vn -0.482536 0.852766 0.199873
vn -0.369317 0.852766 0.369317
vn -0.369317 0.852766 0.369318
vn -0.199873 0.852765 0.482537
vn -0.199873 0.852765 0.482537
vn 0.000000 0.852766 0.522294
vn 0.000000 0.852766 0.522294
vn 0.199873 0.852766 0.482536
vn 0.199873 0.852766 0.482536
vn 0.369317 0.852766 0.369318
vn 0.369318 0.852766 0.369318
vn 0.482537 0.852765 0.199874
vn 0.482537 0.852765 0.199873
vn 0.522294 0.852765 0.000000
vn 0.522294 0.852765 0.000000
vn -0.923880 -0.000000 0.382683
vn -0.923880 -0.000000 0.382683
vn -0.707107 -0.000000 0.707107
vn -0.707107 -0.000000 0.707107
vn -0.382684 -0.000000 0.923880
vn -0.382684 -0.000000 0.923880
vn -0.000000 -0.000000 1.000000
vn 0.000000 -0.000000 1.000000
vn 0.382683 -0.000000 0.923880
vn 0.382683 -0.000000 0.923880
vn 0.707107 0.000000 0.707107
vn 0.707107 0.000000 0.707107
vn 0.923880 0.000000 0.382683
vn 0.923880 0.000000 0.382683
vn 1.000000 0.000000 0.000000
vn 1.000000 0.000000 0.000000
vn 0.923880 0.000000 -0.382683
vn 0.923880 0.000000 -0.382683
vn 0.707107 0.000000 -0.707106
vn 0.707107 0.000000 -0.707106
vn 0.382684 0.000000 -0.923879
vn 0.382684 0.000000 -0.923879
vn 0.000000 0.000000 -1.000000
vn 0.000001 0.000000 -1.000000
vn -0.382683 0.000000 -0.923880
vn -0.382683 0.000000 -0.923880
vn -0.707107 -0.000000 -0.707107
vn -0.707106 -0.000000 -0.707107
vn -0.923879 -0.000001 -0.382684
vn -0.923879 -0.000001 -0.382684
vn -1.000000 -0.000000 -0.000000
vn -1.000000 -0.000000 -0.000000
vn -0.511828 -0.832518 0.212006
vn -0.511828 -0.832518 0.212006
vn -0.391737 -0.832517 0.391736
vn -0.391736 -0.832517 0.391736
vn -0.212006 -0.832517 0.511829
vn -0.212006 -0.832517 0.511829
vn -0.000000 -0.832517 0.554000
vn -0.000000 -0.832517 0.554000
vn 0.212006 -0.832517 0.511829
vn 0.212006 -0.832517 0.511829
vn 0.391737 -0.832517 0.391736
vn 0.391736 -0.832517 0.391736
vn 0.511829 -0.832517 0.212007
vn 0.511829 -0.832517 0.212007
vn 0.553999 -0.832517 0.000000
vn 0.553999 -0.832517 0.000000
vn 0.511828 -0.832518 -0.212006
vn 0.511828 -0.832518 -0.212006
vn 0.391737 -0.832517 -0.391737
vn 0.391737 -0.832517 -0.391737
vn 0.212007 -0.832517 -0.511829
vn 0.212007 -0.832517 -0.511829
vn 0.000000 -0.832517 -0.553999
vn 0.000000 -0.832517 -0.553999
vn -0.212006 -0.832517 -0.511829
vn -0.212006 -0.832517 -0.511829
vn -0.391737 -0.832517 -0.391737
vn -0.391737 -0.832517 -0.391737
vn -0.511829 -0.832517 -0.212007
vn -0.511829 -0.832517 -0.212007
vn -0.554000 -0.832517 -0.000000
vn -0.553999 -0.832517 -0.000000
f 1/1/1 41/44/2 42/45/3 4/4/4
f 4/4/4 42/45/3 43/46/5 6/6/6
f 6/6/6 43/46/5 44/47/7 8/8/8
f 8/8/8 44/47/7 45/48/9 10/10/10
f 10/10/10 45/48/9 46/49/11 12/12/12
f 12/12/12 46/49/11 47/50/13 14/14/14
f 14/14/14 47/50/13 48/51/15 16/16/16
f 16/16/16 48/51/15 33/35/17 18/18/18
f 18/18/18 33/35/17 34/36/19 20/20/20
f 20/20/20 34/36/19 35/37/21 22/22/22
f 22/22/22 35/37/21 36/38/23 24/24/24
f 24/24/24 36/38/23 37/39/25 26/26/26
f 26/26/26 37/39/25 38/40/27 28/28/28
f 28/28/28 38/40/27 39/41/29 30/30/30
f 30/30/30 39/41/29 40/42/31 32/32/32
f 32/32/32 40/42/31 41/43/2 1/34/1
f 33/35/33 49/52/34 50/53/35 34/36/36
f 35/37/37 34/36/36 50/53/35 51/54/38
f 36/38/39 35/37/37 51/54/38 52/55/40
f 37/39/41 36/38/39 52/55/40 53/56/42
f 38/40/43 37/39/41 53/56/42 54/57/44
f 39/41/45 38/40/43 54/57/44 55/58/46
f 40/42/47 39/41/45 55/58/46 56/59/48
f 41/43/49 40/42/47 56/59/48 57/60/50
f 42/45/51 41/44/49 57/61/50 58/62/52
f 43/46/53 42/45/51 58/62/52 59/63/54
f 44/47/55 43/46/53 59/63/54 60/64/56
f 45/48/57 44/47/55 60/64/56 61/65/58
f 46/49/59 45/48/57 61/65/58 62/66/60
f 47/50/61 46/49/59 62/66/60 63/67/62
f 48/51/63 47/50/61 63/67/62 64/68/64
f 33/35/33 48/51/63 64/68/64 49/52/34
f 49/52/65 17/17/66 19/19/67 50/53/68
f 51/54/69 50/53/68 19/19/67 21/21/70
f 52/55/71 51/54/69 21/21/70 23/23/72
f 53/56/73 52/55/71 23/23/72 25/25/74
f 54/57/75 53/56/73 25/25/74 27/27/76
f 55/58/77 54/57/75 27/27/76 29/29/78
f 56/59/79 55/58/77 29/29/78 31/31/80
f 57/60/81 56/59/79 31/31/80 2/33/82
f 58/62/83 57/61/81 2/2/82 3/3/84
f 59/63/85 58/62/83 3/3/84 5/5/86
f 60/64/87 59/63/85 5/5/86 7/7/88
f 61/65/89 60/64/87 7/7/88 9/9/90
f 62/66/91 61/65/89 9/9/90 11/11/92
f 63/67/93 62/66/91 11/11/92 13/13/94
f 64/68/95 63/67/93 13/13/94 15/15/96
f 49/52/65 64/68/95 15/15/96 17/17/66
f 65/69/97 105/70/98 106/71/99 68/72/100
f 68/72/100 106/71/99 107/73/101 70/74/102
f 70/74/102 107/73/101 108/75/103 72/76/104
f 72/76/104 108/75/103 109/77/105 74/78/106
f 74/78/106 109/77/105 110/79/107 76/80/108
f 76/80/108 110/79/107 111/81/109 78/82/110
f 78/82/110 111/81/109 112/83/111 80/84/112
f 80/84/112 112/83/111 97/85/113 82/86/114
f 82/86/114 97/85/113 98/87/115 84/88/116
f 84/88/116 98/87/115 99/89/117 86/90/118
f 86/90/118 99/89/117 100/91/119 88/92/120
f 88/92/120 100/91/119 101/93/121 90/94/122
f 90/94/122 101/93/121 102/95/123 92/96/124
f 92/96/124 102/95/123 103/97/125 94/98/126
f 94/98/126 103/97/125 104/99/127 96/100/128
f 96/100/128 104/99/127 105/101/98 65/102/97
f 97/85/129 113/103/130 114/104/131 98/87/132
f 99/89/133 98/87/132 114/104/131 115/105/134
f 100/91/135 99/89/133 115/105/134 116/106/136
f 101/93/137 100/91/135 116/106/136 117/107/138
f 102/95/139 101/93/137 117/107/138 118/108/140
f 103/97/141 102/95/139 118/108/140 119/109/142
f 104/99/143 103/97/141 119/109/142 120/110/144
f 105/101/145 104/99/143 120/110/144 121/111/146
f 106/71/147 105/70/145 121/112/146 122/113/148
f 107/73/149 106/71/147 122/113/148 123/114/150
f 108/75/151 107/73/149 123/114/150 124/115/152
f 109/77/153 108/75/151 124/115/152 125/116/154
f 110/79/155 109/77/153 125/116/154 126/117/156
f 111/81/157 110/79/155 126/117/156 127/118/158
f 112/83/159 111/81/157 127/118/158 128/119/160
f 97/85/129 112/83/159 128/119/160 113/103/130
f 113/103/161 81/120/162 83/121/163 114/104/164
f 115/105/165 114/104/164 83/121/163 85/122/166
f 116/106/167 115/105/165 85/122/166 87/123/168
f 117/107/169 116/106/167 87/123/168 89/124/170
f 118/108/171 117/107/169 89/124/170 91/125/172
f 119/109/173 118/108/171 91/125/172 93/126/174
f 120/110/175 119/109/173 93/126/174 95/127/176
f 121/111/177 120/110/175 95/127/176 66/128/178
f 122/113/179 121/112/177 66/129/178 67/130/180
f 123/114/181 122/113/179 67/130/180 69/131/182
f 124/115/183 123/114/181 69/131/182 71/132/184
f 125/116/185 124/115/183 71/132/184 73/133/186
f 126/117/187 125/116/185 73/133/186 75/134/188
f 127/118/189 126/117/187 75/134/188 77/135/190
f 128/119/191 127/118/189 77/135/190 79/136/192
f 113/103/161 128/119/191 79/136/192 81/120/162
